G75*
%MOIN*%
%OFA0B0*%
%FSLAX24Y24*%
%IPPOS*%
%LPD*%
%AMOC8*
5,1,8,0,0,1.08239X$1,22.5*
%
%ADD10C,0.0000*%
%ADD11C,0.0560*%
%ADD12R,0.0780X0.0780*%
%ADD13C,0.0780*%
%ADD14OC8,0.0780*%
%ADD15OC8,0.0640*%
%ADD16C,0.0640*%
%ADD17OC8,0.0729*%
%ADD18R,0.0729X0.0729*%
%ADD19C,0.1142*%
D10*
X000544Y003496D02*
X000544Y023181D01*
X039914Y023181D01*
X039914Y003496D01*
X000544Y003496D01*
X001961Y005465D02*
X001963Y005512D01*
X001969Y005558D01*
X001979Y005604D01*
X001992Y005649D01*
X002010Y005692D01*
X002031Y005734D01*
X002055Y005774D01*
X002083Y005811D01*
X002114Y005846D01*
X002148Y005879D01*
X002184Y005908D01*
X002223Y005934D01*
X002264Y005957D01*
X002307Y005976D01*
X002351Y005992D01*
X002396Y006004D01*
X002442Y006012D01*
X002489Y006016D01*
X002535Y006016D01*
X002582Y006012D01*
X002628Y006004D01*
X002673Y005992D01*
X002717Y005976D01*
X002760Y005957D01*
X002801Y005934D01*
X002840Y005908D01*
X002876Y005879D01*
X002910Y005846D01*
X002941Y005811D01*
X002969Y005774D01*
X002993Y005734D01*
X003014Y005692D01*
X003032Y005649D01*
X003045Y005604D01*
X003055Y005558D01*
X003061Y005512D01*
X003063Y005465D01*
X003061Y005418D01*
X003055Y005372D01*
X003045Y005326D01*
X003032Y005281D01*
X003014Y005238D01*
X002993Y005196D01*
X002969Y005156D01*
X002941Y005119D01*
X002910Y005084D01*
X002876Y005051D01*
X002840Y005022D01*
X002801Y004996D01*
X002760Y004973D01*
X002717Y004954D01*
X002673Y004938D01*
X002628Y004926D01*
X002582Y004918D01*
X002535Y004914D01*
X002489Y004914D01*
X002442Y004918D01*
X002396Y004926D01*
X002351Y004938D01*
X002307Y004954D01*
X002264Y004973D01*
X002223Y004996D01*
X002184Y005022D01*
X002148Y005051D01*
X002114Y005084D01*
X002083Y005119D01*
X002055Y005156D01*
X002031Y005196D01*
X002010Y005238D01*
X001992Y005281D01*
X001979Y005326D01*
X001969Y005372D01*
X001963Y005418D01*
X001961Y005465D01*
X001961Y021213D02*
X001963Y021260D01*
X001969Y021306D01*
X001979Y021352D01*
X001992Y021397D01*
X002010Y021440D01*
X002031Y021482D01*
X002055Y021522D01*
X002083Y021559D01*
X002114Y021594D01*
X002148Y021627D01*
X002184Y021656D01*
X002223Y021682D01*
X002264Y021705D01*
X002307Y021724D01*
X002351Y021740D01*
X002396Y021752D01*
X002442Y021760D01*
X002489Y021764D01*
X002535Y021764D01*
X002582Y021760D01*
X002628Y021752D01*
X002673Y021740D01*
X002717Y021724D01*
X002760Y021705D01*
X002801Y021682D01*
X002840Y021656D01*
X002876Y021627D01*
X002910Y021594D01*
X002941Y021559D01*
X002969Y021522D01*
X002993Y021482D01*
X003014Y021440D01*
X003032Y021397D01*
X003045Y021352D01*
X003055Y021306D01*
X003061Y021260D01*
X003063Y021213D01*
X003061Y021166D01*
X003055Y021120D01*
X003045Y021074D01*
X003032Y021029D01*
X003014Y020986D01*
X002993Y020944D01*
X002969Y020904D01*
X002941Y020867D01*
X002910Y020832D01*
X002876Y020799D01*
X002840Y020770D01*
X002801Y020744D01*
X002760Y020721D01*
X002717Y020702D01*
X002673Y020686D01*
X002628Y020674D01*
X002582Y020666D01*
X002535Y020662D01*
X002489Y020662D01*
X002442Y020666D01*
X002396Y020674D01*
X002351Y020686D01*
X002307Y020702D01*
X002264Y020721D01*
X002223Y020744D01*
X002184Y020770D01*
X002148Y020799D01*
X002114Y020832D01*
X002083Y020867D01*
X002055Y020904D01*
X002031Y020944D01*
X002010Y020986D01*
X001992Y021029D01*
X001979Y021074D01*
X001969Y021120D01*
X001963Y021166D01*
X001961Y021213D01*
X037394Y021213D02*
X037396Y021260D01*
X037402Y021306D01*
X037412Y021352D01*
X037425Y021397D01*
X037443Y021440D01*
X037464Y021482D01*
X037488Y021522D01*
X037516Y021559D01*
X037547Y021594D01*
X037581Y021627D01*
X037617Y021656D01*
X037656Y021682D01*
X037697Y021705D01*
X037740Y021724D01*
X037784Y021740D01*
X037829Y021752D01*
X037875Y021760D01*
X037922Y021764D01*
X037968Y021764D01*
X038015Y021760D01*
X038061Y021752D01*
X038106Y021740D01*
X038150Y021724D01*
X038193Y021705D01*
X038234Y021682D01*
X038273Y021656D01*
X038309Y021627D01*
X038343Y021594D01*
X038374Y021559D01*
X038402Y021522D01*
X038426Y021482D01*
X038447Y021440D01*
X038465Y021397D01*
X038478Y021352D01*
X038488Y021306D01*
X038494Y021260D01*
X038496Y021213D01*
X038494Y021166D01*
X038488Y021120D01*
X038478Y021074D01*
X038465Y021029D01*
X038447Y020986D01*
X038426Y020944D01*
X038402Y020904D01*
X038374Y020867D01*
X038343Y020832D01*
X038309Y020799D01*
X038273Y020770D01*
X038234Y020744D01*
X038193Y020721D01*
X038150Y020702D01*
X038106Y020686D01*
X038061Y020674D01*
X038015Y020666D01*
X037968Y020662D01*
X037922Y020662D01*
X037875Y020666D01*
X037829Y020674D01*
X037784Y020686D01*
X037740Y020702D01*
X037697Y020721D01*
X037656Y020744D01*
X037617Y020770D01*
X037581Y020799D01*
X037547Y020832D01*
X037516Y020867D01*
X037488Y020904D01*
X037464Y020944D01*
X037443Y020986D01*
X037425Y021029D01*
X037412Y021074D01*
X037402Y021120D01*
X037396Y021166D01*
X037394Y021213D01*
X037394Y005465D02*
X037396Y005512D01*
X037402Y005558D01*
X037412Y005604D01*
X037425Y005649D01*
X037443Y005692D01*
X037464Y005734D01*
X037488Y005774D01*
X037516Y005811D01*
X037547Y005846D01*
X037581Y005879D01*
X037617Y005908D01*
X037656Y005934D01*
X037697Y005957D01*
X037740Y005976D01*
X037784Y005992D01*
X037829Y006004D01*
X037875Y006012D01*
X037922Y006016D01*
X037968Y006016D01*
X038015Y006012D01*
X038061Y006004D01*
X038106Y005992D01*
X038150Y005976D01*
X038193Y005957D01*
X038234Y005934D01*
X038273Y005908D01*
X038309Y005879D01*
X038343Y005846D01*
X038374Y005811D01*
X038402Y005774D01*
X038426Y005734D01*
X038447Y005692D01*
X038465Y005649D01*
X038478Y005604D01*
X038488Y005558D01*
X038494Y005512D01*
X038496Y005465D01*
X038494Y005418D01*
X038488Y005372D01*
X038478Y005326D01*
X038465Y005281D01*
X038447Y005238D01*
X038426Y005196D01*
X038402Y005156D01*
X038374Y005119D01*
X038343Y005084D01*
X038309Y005051D01*
X038273Y005022D01*
X038234Y004996D01*
X038193Y004973D01*
X038150Y004954D01*
X038106Y004938D01*
X038061Y004926D01*
X038015Y004918D01*
X037968Y004914D01*
X037922Y004914D01*
X037875Y004918D01*
X037829Y004926D01*
X037784Y004938D01*
X037740Y004954D01*
X037697Y004973D01*
X037656Y004996D01*
X037617Y005022D01*
X037581Y005051D01*
X037547Y005084D01*
X037516Y005119D01*
X037488Y005156D01*
X037464Y005196D01*
X037443Y005238D01*
X037425Y005281D01*
X037412Y005326D01*
X037402Y005372D01*
X037396Y005418D01*
X037394Y005465D01*
D11*
X035768Y009839D02*
X035248Y009839D01*
X035248Y010839D02*
X035768Y010839D01*
X035768Y011839D02*
X035248Y011839D01*
X035248Y012839D02*
X035768Y012839D01*
X035768Y013839D02*
X035248Y013839D01*
X035248Y014839D02*
X035768Y014839D01*
X035768Y015839D02*
X035248Y015839D01*
X035248Y016839D02*
X035768Y016839D01*
X032768Y016839D02*
X032248Y016839D01*
X032248Y015839D02*
X032768Y015839D01*
X032768Y014839D02*
X032248Y014839D01*
X032248Y013839D02*
X032768Y013839D01*
X032768Y012839D02*
X032248Y012839D01*
X032248Y011839D02*
X032768Y011839D01*
X032768Y010839D02*
X032248Y010839D01*
X032248Y009839D02*
X032768Y009839D01*
X016871Y009658D02*
X016351Y009658D01*
X016351Y010658D02*
X016871Y010658D01*
X016871Y011658D02*
X016351Y011658D01*
X016351Y012658D02*
X016871Y012658D01*
X016871Y013658D02*
X016351Y013658D01*
X016351Y014658D02*
X016871Y014658D01*
X016871Y015658D02*
X016351Y015658D01*
X016351Y016658D02*
X016871Y016658D01*
X016871Y017658D02*
X016351Y017658D01*
X016351Y018658D02*
X016871Y018658D01*
X013871Y018658D02*
X013351Y018658D01*
X013351Y017658D02*
X013871Y017658D01*
X013871Y016658D02*
X013351Y016658D01*
X013351Y015658D02*
X013871Y015658D01*
X013871Y014658D02*
X013351Y014658D01*
X013351Y013658D02*
X013871Y013658D01*
X013871Y012658D02*
X013351Y012658D01*
X013351Y011658D02*
X013871Y011658D01*
X013871Y010658D02*
X013351Y010658D01*
X013351Y009658D02*
X013871Y009658D01*
X013871Y008658D02*
X013351Y008658D01*
X013351Y007658D02*
X013871Y007658D01*
X013871Y006658D02*
X013351Y006658D01*
X013351Y005658D02*
X013871Y005658D01*
X016351Y005658D02*
X016871Y005658D01*
X016871Y006658D02*
X016351Y006658D01*
X016351Y007658D02*
X016871Y007658D01*
X016871Y008658D02*
X016351Y008658D01*
D12*
X019441Y005662D03*
X020441Y005662D03*
X028300Y022000D03*
D13*
X028300Y021000D03*
X028300Y020000D03*
X028300Y019000D03*
X020244Y021804D03*
X019244Y021804D03*
X017898Y021804D03*
X016898Y021804D03*
X015898Y021804D03*
X014552Y021804D03*
X013552Y021804D03*
X012552Y021804D03*
X011189Y021804D03*
X010189Y021804D03*
X008827Y021804D03*
X007827Y021804D03*
X006465Y021804D03*
X005465Y021804D03*
X002512Y017276D03*
X001512Y017276D03*
X001512Y014520D03*
X002512Y014520D03*
X002512Y011764D03*
X001512Y011764D03*
X001512Y009008D03*
X002512Y009008D03*
X019441Y008662D03*
X020441Y008662D03*
X020441Y009662D03*
X019441Y009662D03*
X019441Y010662D03*
X020441Y010662D03*
X020441Y011662D03*
X019441Y011662D03*
X019441Y012662D03*
X020441Y012662D03*
X020441Y007662D03*
X019441Y007662D03*
X019441Y006662D03*
X020441Y006662D03*
X038075Y015816D03*
X038075Y016816D03*
X019441Y018638D03*
X019441Y019638D03*
D14*
X028874Y016323D03*
X029874Y016323D03*
X029874Y015323D03*
X028874Y015323D03*
X028874Y014323D03*
X029874Y014323D03*
D15*
X026044Y013993D03*
X025044Y013993D03*
X025044Y012993D03*
X026044Y012993D03*
X026044Y011993D03*
X025044Y011993D03*
X025044Y010993D03*
X026044Y010993D03*
X026044Y009993D03*
X025044Y009993D03*
X025044Y008993D03*
X026044Y008993D03*
X026044Y007993D03*
X025044Y007993D03*
X025044Y006993D03*
X026044Y006993D03*
X026044Y005993D03*
X025044Y005993D03*
X025044Y004993D03*
X026044Y004993D03*
X026044Y003993D03*
X025044Y003993D03*
X025044Y014993D03*
X026044Y014993D03*
X026044Y015993D03*
X025044Y015993D03*
D16*
X011386Y016489D03*
X010386Y016489D03*
X009386Y016489D03*
X009386Y017670D03*
X010386Y017670D03*
X011386Y017670D03*
X011386Y015307D03*
X010386Y015307D03*
X009386Y015307D03*
D17*
X022119Y019855D03*
X025268Y019855D03*
X030386Y019855D03*
X033536Y019855D03*
X034444Y007058D03*
X031332Y007058D03*
D18*
X030348Y007058D03*
X033460Y007058D03*
X034520Y019855D03*
X031370Y019855D03*
X026252Y019855D03*
X023103Y019855D03*
D19*
X037945Y021213D03*
X037945Y005465D03*
X002512Y005465D03*
X002512Y021213D03*
M02*
