G75*
%MOIN*%
%OFA0B0*%
%FSLAX24Y24*%
%IPPOS*%
%LPD*%
%AMOC8*
5,1,8,0,0,1.08239X$1,22.5*
%
%ADD10C,0.0000*%
%ADD11C,0.0030*%
%ADD12C,0.0020*%
%ADD13C,0.0060*%
%ADD14C,0.0080*%
%ADD15R,0.0200X0.0200*%
%ADD16C,0.0050*%
%ADD17C,0.0040*%
%ADD18C,0.0059*%
%ADD19C,0.0098*%
%ADD20C,0.0049*%
D10*
X000544Y003496D02*
X000544Y023181D01*
X039914Y023181D01*
X039914Y003496D01*
X000544Y003496D01*
X001961Y005465D02*
X001963Y005512D01*
X001969Y005558D01*
X001979Y005604D01*
X001992Y005649D01*
X002010Y005692D01*
X002031Y005734D01*
X002055Y005774D01*
X002083Y005811D01*
X002114Y005846D01*
X002148Y005879D01*
X002184Y005908D01*
X002223Y005934D01*
X002264Y005957D01*
X002307Y005976D01*
X002351Y005992D01*
X002396Y006004D01*
X002442Y006012D01*
X002489Y006016D01*
X002535Y006016D01*
X002582Y006012D01*
X002628Y006004D01*
X002673Y005992D01*
X002717Y005976D01*
X002760Y005957D01*
X002801Y005934D01*
X002840Y005908D01*
X002876Y005879D01*
X002910Y005846D01*
X002941Y005811D01*
X002969Y005774D01*
X002993Y005734D01*
X003014Y005692D01*
X003032Y005649D01*
X003045Y005604D01*
X003055Y005558D01*
X003061Y005512D01*
X003063Y005465D01*
X003061Y005418D01*
X003055Y005372D01*
X003045Y005326D01*
X003032Y005281D01*
X003014Y005238D01*
X002993Y005196D01*
X002969Y005156D01*
X002941Y005119D01*
X002910Y005084D01*
X002876Y005051D01*
X002840Y005022D01*
X002801Y004996D01*
X002760Y004973D01*
X002717Y004954D01*
X002673Y004938D01*
X002628Y004926D01*
X002582Y004918D01*
X002535Y004914D01*
X002489Y004914D01*
X002442Y004918D01*
X002396Y004926D01*
X002351Y004938D01*
X002307Y004954D01*
X002264Y004973D01*
X002223Y004996D01*
X002184Y005022D01*
X002148Y005051D01*
X002114Y005084D01*
X002083Y005119D01*
X002055Y005156D01*
X002031Y005196D01*
X002010Y005238D01*
X001992Y005281D01*
X001979Y005326D01*
X001969Y005372D01*
X001963Y005418D01*
X001961Y005465D01*
X001961Y021213D02*
X001963Y021260D01*
X001969Y021306D01*
X001979Y021352D01*
X001992Y021397D01*
X002010Y021440D01*
X002031Y021482D01*
X002055Y021522D01*
X002083Y021559D01*
X002114Y021594D01*
X002148Y021627D01*
X002184Y021656D01*
X002223Y021682D01*
X002264Y021705D01*
X002307Y021724D01*
X002351Y021740D01*
X002396Y021752D01*
X002442Y021760D01*
X002489Y021764D01*
X002535Y021764D01*
X002582Y021760D01*
X002628Y021752D01*
X002673Y021740D01*
X002717Y021724D01*
X002760Y021705D01*
X002801Y021682D01*
X002840Y021656D01*
X002876Y021627D01*
X002910Y021594D01*
X002941Y021559D01*
X002969Y021522D01*
X002993Y021482D01*
X003014Y021440D01*
X003032Y021397D01*
X003045Y021352D01*
X003055Y021306D01*
X003061Y021260D01*
X003063Y021213D01*
X003061Y021166D01*
X003055Y021120D01*
X003045Y021074D01*
X003032Y021029D01*
X003014Y020986D01*
X002993Y020944D01*
X002969Y020904D01*
X002941Y020867D01*
X002910Y020832D01*
X002876Y020799D01*
X002840Y020770D01*
X002801Y020744D01*
X002760Y020721D01*
X002717Y020702D01*
X002673Y020686D01*
X002628Y020674D01*
X002582Y020666D01*
X002535Y020662D01*
X002489Y020662D01*
X002442Y020666D01*
X002396Y020674D01*
X002351Y020686D01*
X002307Y020702D01*
X002264Y020721D01*
X002223Y020744D01*
X002184Y020770D01*
X002148Y020799D01*
X002114Y020832D01*
X002083Y020867D01*
X002055Y020904D01*
X002031Y020944D01*
X002010Y020986D01*
X001992Y021029D01*
X001979Y021074D01*
X001969Y021120D01*
X001963Y021166D01*
X001961Y021213D01*
X037394Y021213D02*
X037396Y021260D01*
X037402Y021306D01*
X037412Y021352D01*
X037425Y021397D01*
X037443Y021440D01*
X037464Y021482D01*
X037488Y021522D01*
X037516Y021559D01*
X037547Y021594D01*
X037581Y021627D01*
X037617Y021656D01*
X037656Y021682D01*
X037697Y021705D01*
X037740Y021724D01*
X037784Y021740D01*
X037829Y021752D01*
X037875Y021760D01*
X037922Y021764D01*
X037968Y021764D01*
X038015Y021760D01*
X038061Y021752D01*
X038106Y021740D01*
X038150Y021724D01*
X038193Y021705D01*
X038234Y021682D01*
X038273Y021656D01*
X038309Y021627D01*
X038343Y021594D01*
X038374Y021559D01*
X038402Y021522D01*
X038426Y021482D01*
X038447Y021440D01*
X038465Y021397D01*
X038478Y021352D01*
X038488Y021306D01*
X038494Y021260D01*
X038496Y021213D01*
X038494Y021166D01*
X038488Y021120D01*
X038478Y021074D01*
X038465Y021029D01*
X038447Y020986D01*
X038426Y020944D01*
X038402Y020904D01*
X038374Y020867D01*
X038343Y020832D01*
X038309Y020799D01*
X038273Y020770D01*
X038234Y020744D01*
X038193Y020721D01*
X038150Y020702D01*
X038106Y020686D01*
X038061Y020674D01*
X038015Y020666D01*
X037968Y020662D01*
X037922Y020662D01*
X037875Y020666D01*
X037829Y020674D01*
X037784Y020686D01*
X037740Y020702D01*
X037697Y020721D01*
X037656Y020744D01*
X037617Y020770D01*
X037581Y020799D01*
X037547Y020832D01*
X037516Y020867D01*
X037488Y020904D01*
X037464Y020944D01*
X037443Y020986D01*
X037425Y021029D01*
X037412Y021074D01*
X037402Y021120D01*
X037396Y021166D01*
X037394Y021213D01*
X037394Y005465D02*
X037396Y005512D01*
X037402Y005558D01*
X037412Y005604D01*
X037425Y005649D01*
X037443Y005692D01*
X037464Y005734D01*
X037488Y005774D01*
X037516Y005811D01*
X037547Y005846D01*
X037581Y005879D01*
X037617Y005908D01*
X037656Y005934D01*
X037697Y005957D01*
X037740Y005976D01*
X037784Y005992D01*
X037829Y006004D01*
X037875Y006012D01*
X037922Y006016D01*
X037968Y006016D01*
X038015Y006012D01*
X038061Y006004D01*
X038106Y005992D01*
X038150Y005976D01*
X038193Y005957D01*
X038234Y005934D01*
X038273Y005908D01*
X038309Y005879D01*
X038343Y005846D01*
X038374Y005811D01*
X038402Y005774D01*
X038426Y005734D01*
X038447Y005692D01*
X038465Y005649D01*
X038478Y005604D01*
X038488Y005558D01*
X038494Y005512D01*
X038496Y005465D01*
X038494Y005418D01*
X038488Y005372D01*
X038478Y005326D01*
X038465Y005281D01*
X038447Y005238D01*
X038426Y005196D01*
X038402Y005156D01*
X038374Y005119D01*
X038343Y005084D01*
X038309Y005051D01*
X038273Y005022D01*
X038234Y004996D01*
X038193Y004973D01*
X038150Y004954D01*
X038106Y004938D01*
X038061Y004926D01*
X038015Y004918D01*
X037968Y004914D01*
X037922Y004914D01*
X037875Y004918D01*
X037829Y004926D01*
X037784Y004938D01*
X037740Y004954D01*
X037697Y004973D01*
X037656Y004996D01*
X037617Y005022D01*
X037581Y005051D01*
X037547Y005084D01*
X037516Y005119D01*
X037488Y005156D01*
X037464Y005196D01*
X037443Y005238D01*
X037425Y005281D01*
X037412Y005326D01*
X037402Y005372D01*
X037396Y005418D01*
X037394Y005465D01*
D11*
X034870Y008236D02*
X034870Y008600D01*
X034991Y008600D02*
X034748Y008600D01*
X034628Y008600D02*
X034628Y008297D01*
X034568Y008236D01*
X034446Y008236D01*
X034386Y008297D01*
X034386Y008600D01*
X034266Y008539D02*
X034205Y008600D01*
X034084Y008600D01*
X034023Y008539D01*
X034023Y008297D01*
X034084Y008236D01*
X034205Y008236D01*
X034266Y008297D01*
X034266Y008539D01*
X033903Y008175D02*
X033661Y008175D01*
X033541Y008236D02*
X033298Y008236D01*
X033541Y008479D01*
X033541Y008539D01*
X033480Y008600D01*
X033359Y008600D01*
X033298Y008539D01*
X033178Y008600D02*
X033057Y008479D01*
X032936Y008600D01*
X032936Y008236D01*
X033178Y008236D02*
X033178Y008600D01*
X031841Y008600D02*
X031599Y008600D01*
X031479Y008600D02*
X031479Y008297D01*
X031418Y008236D01*
X031297Y008236D01*
X031236Y008297D01*
X031236Y008600D01*
X031116Y008539D02*
X031056Y008600D01*
X030934Y008600D01*
X030874Y008539D01*
X030874Y008297D01*
X030934Y008236D01*
X031056Y008236D01*
X031116Y008297D01*
X031116Y008539D01*
X030754Y008175D02*
X030511Y008175D01*
X030391Y008236D02*
X030149Y008236D01*
X030029Y008236D02*
X030029Y008600D01*
X029907Y008479D01*
X029786Y008600D01*
X029786Y008236D01*
X030149Y008479D02*
X030270Y008600D01*
X030270Y008236D01*
X029240Y008186D02*
X029240Y007862D01*
X029132Y007970D01*
X029024Y007862D01*
X029024Y008186D01*
X028914Y008132D02*
X028914Y008078D01*
X028860Y008024D01*
X028697Y008024D01*
X028697Y007862D02*
X028860Y007862D01*
X028914Y007916D01*
X028914Y007970D01*
X028860Y008024D01*
X028914Y008132D02*
X028860Y008186D01*
X028697Y008186D01*
X028697Y007862D01*
X028588Y007862D02*
X028371Y007862D01*
X028479Y007862D02*
X028479Y008186D01*
X028371Y008078D01*
X028261Y008186D02*
X028261Y007862D01*
X028045Y007862D02*
X028045Y008186D01*
X028153Y008078D01*
X028261Y008186D01*
X027609Y008024D02*
X027392Y008024D01*
X027555Y008186D01*
X027555Y007862D01*
X027282Y007862D02*
X027066Y007862D01*
X027282Y008078D01*
X027282Y008132D01*
X027228Y008186D01*
X027120Y008186D01*
X027066Y008132D01*
X026956Y008132D02*
X026902Y008186D01*
X026794Y008186D01*
X026740Y008132D01*
X026740Y007916D01*
X026794Y007862D01*
X026902Y007862D01*
X026956Y007916D01*
X026956Y008024D01*
X026848Y008024D01*
X026794Y007202D02*
X026740Y007148D01*
X026740Y006932D01*
X026794Y006878D01*
X026902Y006878D01*
X026956Y006932D01*
X026956Y007040D01*
X026848Y007040D01*
X026956Y007148D02*
X026902Y007202D01*
X026794Y007202D01*
X027066Y007202D02*
X027282Y006878D01*
X027282Y007202D01*
X027392Y007202D02*
X027555Y007202D01*
X027609Y007148D01*
X027609Y006932D01*
X027555Y006878D01*
X027392Y006878D01*
X027392Y007202D01*
X027066Y007202D02*
X027066Y006878D01*
X027120Y006169D02*
X027066Y006115D01*
X027120Y006169D02*
X027228Y006169D01*
X027282Y006115D01*
X027282Y006061D01*
X027066Y005844D01*
X027282Y005844D01*
X027392Y005898D02*
X027446Y005844D01*
X027555Y005844D01*
X027609Y005898D01*
X027609Y006006D01*
X027555Y006061D01*
X027501Y006061D01*
X027392Y006006D01*
X027392Y006169D01*
X027609Y006169D01*
X028045Y006169D02*
X028153Y006169D01*
X028099Y006169D02*
X028099Y005844D01*
X028045Y005844D02*
X028153Y005844D01*
X028262Y005844D02*
X028262Y006169D01*
X028479Y005844D01*
X028479Y006169D01*
X028589Y006169D02*
X028805Y006169D01*
X028697Y006169D02*
X028697Y005844D01*
X028915Y005844D02*
X028915Y006061D01*
X029023Y006169D01*
X029131Y006061D01*
X029131Y005844D01*
X029131Y006006D02*
X028915Y006006D01*
X027609Y005081D02*
X027392Y004865D01*
X027446Y004811D01*
X027555Y004811D01*
X027609Y004865D01*
X027609Y005081D01*
X027555Y005135D01*
X027446Y005135D01*
X027392Y005081D01*
X027392Y004865D01*
X027282Y004865D02*
X027228Y004811D01*
X027120Y004811D01*
X027066Y004865D01*
X026956Y004865D02*
X026902Y004811D01*
X026794Y004811D01*
X026740Y004865D01*
X026740Y005081D01*
X026794Y005135D01*
X026902Y005135D01*
X026956Y005081D01*
X027066Y005081D02*
X027066Y005027D01*
X027120Y004973D01*
X027228Y004973D01*
X027282Y004919D01*
X027282Y004865D01*
X027282Y005081D02*
X027228Y005135D01*
X027120Y005135D01*
X027066Y005081D01*
X026902Y005844D02*
X026794Y005844D01*
X026740Y005898D01*
X026740Y006115D01*
X026794Y006169D01*
X026902Y006169D01*
X026956Y006115D01*
X026956Y006006D02*
X026848Y006006D01*
X026956Y006006D02*
X026956Y005898D01*
X026902Y005844D01*
X026902Y004151D02*
X026794Y004151D01*
X026740Y004097D01*
X026740Y003881D01*
X026794Y003826D01*
X026902Y003826D01*
X026956Y003881D01*
X027066Y003881D02*
X027120Y003826D01*
X027228Y003826D01*
X027282Y003881D01*
X027282Y003935D01*
X027228Y003989D01*
X027120Y003989D01*
X027066Y004043D01*
X027066Y004097D01*
X027120Y004151D01*
X027228Y004151D01*
X027282Y004097D01*
X027392Y004043D02*
X027501Y004151D01*
X027501Y003826D01*
X027609Y003826D02*
X027392Y003826D01*
X026956Y004097D02*
X026902Y004151D01*
X024268Y004097D02*
X024268Y003881D01*
X024214Y003826D01*
X024051Y003826D01*
X024051Y004151D01*
X024214Y004151D01*
X024268Y004097D01*
X023941Y004151D02*
X023941Y003826D01*
X023725Y004151D01*
X023725Y003826D01*
X023615Y003881D02*
X023615Y003989D01*
X023507Y003989D01*
X023399Y004097D02*
X023399Y003881D01*
X023453Y003826D01*
X023561Y003826D01*
X023615Y003881D01*
X023615Y004097D02*
X023561Y004151D01*
X023453Y004151D01*
X023399Y004097D01*
X023453Y004811D02*
X023561Y004811D01*
X023615Y004865D01*
X023725Y004811D02*
X023941Y004811D01*
X024051Y004811D02*
X024051Y005135D01*
X024105Y004973D02*
X024268Y004811D01*
X024051Y004919D02*
X024268Y005135D01*
X023725Y005135D02*
X023725Y004811D01*
X023453Y004811D02*
X023399Y004865D01*
X023399Y005081D01*
X023453Y005135D01*
X023561Y005135D01*
X023615Y005081D01*
X023289Y005081D02*
X023235Y005135D01*
X023127Y005135D01*
X023073Y005081D01*
X023073Y005027D01*
X023127Y004973D01*
X023235Y004973D01*
X023289Y004919D01*
X023289Y004865D01*
X023235Y004811D01*
X023127Y004811D01*
X023073Y004865D01*
X023181Y005844D02*
X023181Y006169D01*
X023290Y006061D01*
X023398Y006169D01*
X023398Y005844D01*
X023508Y005844D02*
X023616Y005844D01*
X023562Y005844D02*
X023562Y006169D01*
X023508Y006169D02*
X023616Y006169D01*
X023725Y006115D02*
X023779Y006169D01*
X023887Y006169D01*
X023941Y006115D01*
X024051Y006115D02*
X024051Y005898D01*
X024105Y005844D01*
X024214Y005844D01*
X024268Y005898D01*
X024268Y006115D01*
X024214Y006169D01*
X024105Y006169D01*
X024051Y006115D01*
X023941Y005952D02*
X023941Y005898D01*
X023887Y005844D01*
X023779Y005844D01*
X023725Y005898D01*
X023779Y006006D02*
X023887Y006006D01*
X023941Y005952D01*
X023779Y006006D02*
X023725Y006061D01*
X023725Y006115D01*
X023670Y006878D02*
X023562Y006878D01*
X023508Y006932D01*
X023508Y007148D01*
X023562Y007202D01*
X023670Y007202D01*
X023724Y007148D01*
X023724Y006932D01*
X023670Y006878D01*
X023834Y006932D02*
X023888Y006878D01*
X023996Y006878D01*
X024050Y006932D01*
X024050Y006986D01*
X023996Y007040D01*
X023888Y007040D01*
X023834Y007094D01*
X023834Y007148D01*
X023888Y007202D01*
X023996Y007202D01*
X024050Y007148D01*
X024160Y007202D02*
X024268Y007202D01*
X024214Y007202D02*
X024214Y006878D01*
X024160Y006878D02*
X024268Y006878D01*
X023398Y006878D02*
X023398Y007202D01*
X023290Y007094D01*
X023181Y007202D01*
X023181Y006878D01*
X023290Y007862D02*
X023236Y007916D01*
X023290Y007862D02*
X023398Y007862D01*
X023452Y007916D01*
X023452Y007970D01*
X023398Y008024D01*
X023344Y008024D01*
X023398Y008024D02*
X023452Y008078D01*
X023452Y008132D01*
X023398Y008186D01*
X023290Y008186D01*
X023236Y008132D01*
X023562Y007916D02*
X023616Y007916D01*
X023616Y007862D01*
X023562Y007862D01*
X023562Y007916D01*
X023725Y007916D02*
X023779Y007862D01*
X023887Y007862D01*
X023941Y007916D01*
X023941Y007970D01*
X023887Y008024D01*
X023833Y008024D01*
X023887Y008024D02*
X023941Y008078D01*
X023941Y008132D01*
X023887Y008186D01*
X023779Y008186D01*
X023725Y008132D01*
X024051Y008078D02*
X024160Y007862D01*
X024268Y008078D01*
X024268Y008846D02*
X024051Y008846D01*
X024268Y009063D01*
X024268Y009117D01*
X024214Y009171D01*
X024105Y009171D01*
X024051Y009117D01*
X023941Y009117D02*
X023887Y009171D01*
X023779Y009171D01*
X023725Y009117D01*
X023615Y009117D02*
X023561Y009171D01*
X023453Y009171D01*
X023399Y009117D01*
X023399Y008900D01*
X023453Y008846D01*
X023561Y008846D01*
X023615Y008900D01*
X023615Y009008D01*
X023507Y009008D01*
X023725Y008846D02*
X023941Y009063D01*
X023941Y009117D01*
X023941Y008846D02*
X023725Y008846D01*
X022963Y008846D02*
X022963Y009171D01*
X022746Y009171D02*
X022746Y008846D01*
X022636Y008846D02*
X022420Y008846D01*
X022420Y009171D01*
X022636Y009171D01*
X022746Y009171D02*
X022963Y008846D01*
X022528Y009008D02*
X022420Y009008D01*
X022310Y009063D02*
X022310Y009117D01*
X022256Y009171D01*
X022148Y009171D01*
X022094Y009117D01*
X021984Y009171D02*
X021984Y008846D01*
X022094Y008846D02*
X022310Y009063D01*
X022310Y008846D02*
X022094Y008846D01*
X021876Y009063D02*
X021984Y009171D01*
X021876Y009063D02*
X021767Y009171D01*
X021767Y008846D01*
X021767Y009830D02*
X021767Y010155D01*
X021876Y010047D01*
X021984Y010155D01*
X021984Y009830D01*
X022094Y009830D02*
X022310Y010047D01*
X022310Y010101D01*
X022256Y010155D01*
X022148Y010155D01*
X022094Y010101D01*
X022094Y009830D02*
X022310Y009830D01*
X022420Y009830D02*
X022420Y010155D01*
X022636Y010155D01*
X022746Y010155D02*
X022746Y009830D01*
X022854Y009939D01*
X022963Y009830D01*
X022963Y010155D01*
X023399Y010101D02*
X023399Y009884D01*
X023453Y009830D01*
X023561Y009830D01*
X023615Y009884D01*
X023615Y009993D01*
X023507Y009993D01*
X023399Y010101D02*
X023453Y010155D01*
X023561Y010155D01*
X023615Y010101D01*
X023725Y010101D02*
X023779Y010155D01*
X023887Y010155D01*
X023941Y010101D01*
X023941Y010047D01*
X023725Y009830D01*
X023941Y009830D01*
X024051Y009830D02*
X024051Y009884D01*
X024268Y010101D01*
X024268Y010155D01*
X024051Y010155D01*
X024051Y010815D02*
X024051Y010869D01*
X024268Y011085D01*
X024268Y011139D01*
X024051Y011139D01*
X023833Y011139D02*
X023833Y010815D01*
X023725Y010815D02*
X023941Y010815D01*
X023725Y011031D02*
X023833Y011139D01*
X023615Y011085D02*
X023561Y011139D01*
X023453Y011139D01*
X023399Y011085D01*
X023399Y010869D01*
X023453Y010815D01*
X023561Y010815D01*
X023615Y010869D01*
X023615Y010977D01*
X023507Y010977D01*
X022963Y010815D02*
X022963Y011139D01*
X022746Y011139D02*
X022746Y010815D01*
X022854Y010923D01*
X022963Y010815D01*
X022636Y010869D02*
X022636Y010923D01*
X022582Y010977D01*
X022420Y010977D01*
X022310Y011031D02*
X022094Y010815D01*
X022310Y010815D01*
X022420Y010815D02*
X022420Y011139D01*
X022582Y011139D01*
X022636Y011085D01*
X022636Y011031D01*
X022582Y010977D01*
X022636Y010869D02*
X022582Y010815D01*
X022420Y010815D01*
X022310Y011031D02*
X022310Y011085D01*
X022256Y011139D01*
X022148Y011139D01*
X022094Y011085D01*
X021984Y011139D02*
X021984Y010815D01*
X021767Y010815D02*
X021767Y011139D01*
X021876Y011031D01*
X021984Y011139D01*
X023399Y011902D02*
X023453Y011848D01*
X023561Y011848D01*
X023615Y011902D01*
X023615Y012010D01*
X023507Y012010D01*
X023399Y011902D02*
X023399Y012119D01*
X023453Y012173D01*
X023561Y012173D01*
X023615Y012119D01*
X023725Y012173D02*
X023941Y011848D01*
X023941Y012173D01*
X024051Y012173D02*
X024214Y012173D01*
X024268Y012119D01*
X024268Y011902D01*
X024214Y011848D01*
X024051Y011848D01*
X024051Y012173D01*
X023725Y012173D02*
X023725Y011848D01*
X023779Y012882D02*
X023725Y012936D01*
X023941Y013152D01*
X023941Y012936D01*
X023887Y012882D01*
X023779Y012882D01*
X023725Y012936D02*
X023725Y013152D01*
X023779Y013206D01*
X023887Y013206D01*
X023941Y013152D01*
X024051Y013044D02*
X024268Y013044D01*
X024214Y013206D02*
X024051Y013044D01*
X024214Y012882D02*
X024214Y013206D01*
X023615Y013152D02*
X023561Y013206D01*
X023453Y013206D01*
X023399Y013152D01*
X023399Y012936D01*
X023453Y012882D01*
X023561Y012882D01*
X023615Y012936D01*
X023615Y013044D01*
X023507Y013044D01*
X022963Y013098D02*
X022909Y013044D01*
X022746Y013044D01*
X022746Y012882D02*
X022746Y013206D01*
X022909Y013206D01*
X022963Y013152D01*
X022963Y013098D01*
X022909Y013044D02*
X022963Y012990D01*
X022963Y012936D01*
X022909Y012882D01*
X022746Y012882D01*
X022528Y012882D02*
X022528Y013206D01*
X022420Y013206D02*
X022636Y013206D01*
X022310Y013206D02*
X022310Y012882D01*
X022094Y013206D01*
X022094Y012882D01*
X021984Y012882D02*
X021876Y012882D01*
X021930Y012882D02*
X021930Y013206D01*
X021876Y013206D02*
X021984Y013206D01*
X023399Y013920D02*
X023453Y013866D01*
X023561Y013866D01*
X023615Y013920D01*
X023615Y013974D01*
X023561Y014028D01*
X023453Y014028D01*
X023399Y014082D01*
X023399Y014136D01*
X023453Y014190D01*
X023561Y014190D01*
X023615Y014136D01*
X023725Y014136D02*
X023725Y013920D01*
X023779Y013866D01*
X023887Y013866D01*
X023941Y013920D01*
X024051Y013866D02*
X024051Y014190D01*
X023941Y014136D02*
X023887Y014190D01*
X023779Y014190D01*
X023725Y014136D01*
X024051Y013866D02*
X024268Y013866D01*
X024268Y014850D02*
X024268Y015066D01*
X024160Y015175D01*
X024051Y015066D01*
X024051Y014850D01*
X023941Y014904D02*
X023941Y015121D01*
X023887Y015175D01*
X023725Y015175D01*
X023725Y014850D01*
X023887Y014850D01*
X023941Y014904D01*
X024051Y015012D02*
X024268Y015012D01*
X023615Y014958D02*
X023615Y014904D01*
X023561Y014850D01*
X023453Y014850D01*
X023399Y014904D01*
X023453Y015012D02*
X023561Y015012D01*
X023615Y014958D01*
X023615Y015121D02*
X023561Y015175D01*
X023453Y015175D01*
X023399Y015121D01*
X023399Y015066D01*
X023453Y015012D01*
X023398Y015834D02*
X023290Y015834D01*
X023236Y015888D01*
X023344Y015997D02*
X023398Y015997D01*
X023452Y015942D01*
X023452Y015888D01*
X023398Y015834D01*
X023398Y015997D02*
X023452Y016051D01*
X023452Y016105D01*
X023398Y016159D01*
X023290Y016159D01*
X023236Y016105D01*
X023562Y015888D02*
X023616Y015888D01*
X023616Y015834D01*
X023562Y015834D01*
X023562Y015888D01*
X023725Y015888D02*
X023779Y015834D01*
X023887Y015834D01*
X023941Y015888D01*
X023941Y015942D01*
X023887Y015997D01*
X023833Y015997D01*
X023887Y015997D02*
X023941Y016051D01*
X023941Y016105D01*
X023887Y016159D01*
X023779Y016159D01*
X023725Y016105D01*
X024051Y016051D02*
X024160Y015834D01*
X024268Y016051D01*
X026740Y015997D02*
X026848Y016051D01*
X026902Y016051D01*
X026956Y015997D01*
X026956Y015888D01*
X026902Y015834D01*
X026794Y015834D01*
X026740Y015888D01*
X026740Y015997D02*
X026740Y016159D01*
X026956Y016159D01*
X027066Y016051D02*
X027174Y015834D01*
X027282Y016051D01*
X026956Y015175D02*
X026740Y015175D01*
X026740Y015012D01*
X026848Y015066D01*
X026902Y015066D01*
X026956Y015012D01*
X026956Y014904D01*
X026902Y014850D01*
X026794Y014850D01*
X026740Y014904D01*
X027066Y015066D02*
X027174Y014850D01*
X027282Y015066D01*
X027282Y014190D02*
X027282Y013866D01*
X027066Y014190D01*
X027066Y013866D01*
X026956Y013920D02*
X026956Y014028D01*
X026848Y014028D01*
X026740Y013920D02*
X026794Y013866D01*
X026902Y013866D01*
X026956Y013920D01*
X026740Y013920D02*
X026740Y014136D01*
X026794Y014190D01*
X026902Y014190D01*
X026956Y014136D01*
X027392Y014190D02*
X027392Y013866D01*
X027555Y013866D01*
X027609Y013920D01*
X027609Y014136D01*
X027555Y014190D01*
X027392Y014190D01*
X027282Y013206D02*
X027066Y012882D01*
X027282Y012882D02*
X027066Y013206D01*
X026956Y013206D02*
X026740Y013206D01*
X026848Y013206D02*
X026848Y012882D01*
X028045Y012882D02*
X028045Y013206D01*
X028207Y013206D01*
X028261Y013152D01*
X028261Y013044D01*
X028207Y012990D01*
X028045Y012990D01*
X028153Y012990D02*
X028261Y012882D01*
X028371Y012882D02*
X028371Y013206D01*
X028588Y013206D01*
X028697Y013206D02*
X028806Y013206D01*
X028751Y013206D02*
X028751Y012882D01*
X028697Y012882D02*
X028806Y012882D01*
X028915Y012882D02*
X028915Y013206D01*
X029077Y013206D01*
X029131Y013152D01*
X029131Y012936D01*
X029077Y012882D01*
X028915Y012882D01*
X028479Y013044D02*
X028371Y013044D01*
X028371Y012173D02*
X028588Y012173D01*
X028697Y012173D02*
X028806Y012173D01*
X028751Y012173D02*
X028751Y011848D01*
X028697Y011848D02*
X028806Y011848D01*
X028915Y011848D02*
X029077Y011848D01*
X029131Y011902D01*
X029131Y012119D01*
X029077Y012173D01*
X028915Y012173D01*
X028915Y011848D01*
X028479Y012010D02*
X028371Y012010D01*
X028261Y012010D02*
X028207Y011956D01*
X028045Y011956D01*
X028045Y011848D02*
X028045Y012173D01*
X028207Y012173D01*
X028261Y012119D01*
X028261Y012010D01*
X028153Y011956D02*
X028261Y011848D01*
X028371Y011848D02*
X028371Y012173D01*
X027282Y012173D02*
X027066Y011848D01*
X026956Y011848D02*
X026848Y011956D01*
X026902Y011956D02*
X026740Y011956D01*
X026740Y011848D02*
X026740Y012173D01*
X026902Y012173D01*
X026956Y012119D01*
X026956Y012010D01*
X026902Y011956D01*
X027066Y012173D02*
X027282Y011848D01*
X027174Y011139D02*
X027174Y010815D01*
X027066Y010815D02*
X027282Y010815D01*
X027392Y010869D02*
X027392Y010923D01*
X027446Y010977D01*
X027555Y010977D01*
X027609Y010923D01*
X027609Y010869D01*
X027555Y010815D01*
X027446Y010815D01*
X027392Y010869D01*
X027446Y010977D02*
X027392Y011031D01*
X027392Y011085D01*
X027446Y011139D01*
X027555Y011139D01*
X027609Y011085D01*
X027609Y011031D01*
X027555Y010977D01*
X027174Y011139D02*
X027066Y011031D01*
X026956Y010977D02*
X026848Y010977D01*
X026956Y010977D02*
X026956Y010869D01*
X026902Y010815D01*
X026794Y010815D01*
X026740Y010869D01*
X026740Y011085D01*
X026794Y011139D01*
X026902Y011139D01*
X026956Y011085D01*
X028045Y011139D02*
X028045Y010815D01*
X028261Y010815D02*
X028261Y011139D01*
X028153Y011031D01*
X028045Y011139D01*
X028371Y011031D02*
X028479Y011139D01*
X028479Y010815D01*
X028371Y010815D02*
X028588Y010815D01*
X028697Y010815D02*
X028914Y010815D01*
X029024Y010815D02*
X029024Y011139D01*
X029240Y010815D01*
X029240Y011139D01*
X028914Y011139D02*
X028697Y011139D01*
X028697Y010815D01*
X028697Y010977D02*
X028806Y010977D01*
X027609Y010101D02*
X027555Y010155D01*
X027392Y010155D01*
X027392Y009830D01*
X027555Y009830D01*
X027609Y009884D01*
X027609Y010101D01*
X027282Y010155D02*
X027282Y009830D01*
X027066Y010155D01*
X027066Y009830D01*
X026956Y009884D02*
X026956Y009993D01*
X026848Y009993D01*
X026740Y010101D02*
X026740Y009884D01*
X026794Y009830D01*
X026902Y009830D01*
X026956Y009884D01*
X026956Y010101D02*
X026902Y010155D01*
X026794Y010155D01*
X026740Y010101D01*
X026794Y009171D02*
X026740Y009117D01*
X026740Y008900D01*
X026794Y008846D01*
X026902Y008846D01*
X026956Y008900D01*
X026956Y009008D01*
X026848Y009008D01*
X026956Y009117D02*
X026902Y009171D01*
X026794Y009171D01*
X027066Y009117D02*
X027120Y009171D01*
X027228Y009171D01*
X027282Y009117D01*
X027282Y009063D01*
X027066Y008846D01*
X027282Y008846D01*
X027392Y008900D02*
X027446Y008846D01*
X027555Y008846D01*
X027609Y008900D01*
X027609Y008954D01*
X027555Y009008D01*
X027501Y009008D01*
X027555Y009008D02*
X027609Y009063D01*
X027609Y009117D01*
X027555Y009171D01*
X027446Y009171D01*
X027392Y009117D01*
X028045Y009171D02*
X028045Y008846D01*
X028261Y008846D02*
X028261Y009171D01*
X028153Y009063D01*
X028045Y009171D01*
X028371Y009063D02*
X028479Y009171D01*
X028479Y008846D01*
X028371Y008846D02*
X028588Y008846D01*
X028697Y008846D02*
X028697Y009171D01*
X028914Y009171D01*
X029024Y009171D02*
X029024Y008846D01*
X029132Y008954D01*
X029240Y008846D01*
X029240Y009171D01*
X028806Y009008D02*
X028697Y009008D01*
X031720Y008600D02*
X031720Y008236D01*
X033826Y012448D02*
X034190Y012448D01*
X034190Y012690D01*
X034190Y012810D02*
X033947Y013053D01*
X033887Y013053D01*
X033826Y012992D01*
X033826Y012871D01*
X033887Y012810D01*
X034190Y012810D02*
X034190Y013053D01*
X034129Y013173D02*
X034190Y013233D01*
X034190Y013355D01*
X034129Y013415D01*
X033887Y013415D01*
X033826Y013355D01*
X033826Y013233D01*
X033887Y013173D01*
X033947Y013173D01*
X034008Y013233D01*
X034008Y013415D01*
X033887Y013535D02*
X033826Y013596D01*
X033826Y013717D01*
X033887Y013778D01*
X033947Y013778D01*
X034008Y013717D01*
X034069Y013778D01*
X034129Y013778D01*
X034190Y013717D01*
X034190Y013596D01*
X034129Y013535D01*
X034008Y013657D02*
X034008Y013717D01*
X033826Y013898D02*
X033826Y014080D01*
X033887Y014140D01*
X034129Y014140D01*
X034190Y014080D01*
X034190Y013898D01*
X033826Y013898D01*
X030101Y017094D02*
X029858Y017094D01*
X030101Y017337D01*
X030101Y017397D01*
X030040Y017458D01*
X029919Y017458D01*
X029858Y017397D01*
X029738Y017397D02*
X029738Y017276D01*
X029678Y017215D01*
X029496Y017215D01*
X029496Y017094D02*
X029496Y017458D01*
X029678Y017458D01*
X029738Y017397D01*
X029617Y017215D02*
X029738Y017094D01*
X029376Y017458D02*
X029133Y017458D01*
X029013Y017458D02*
X029013Y017094D01*
X029255Y017094D02*
X029255Y017458D01*
X029013Y017458D02*
X028892Y017337D01*
X028771Y017458D01*
X028771Y017094D01*
X028799Y017882D02*
X028859Y017942D01*
X028859Y018185D01*
X028799Y018246D01*
X028617Y018246D01*
X028617Y017882D01*
X028799Y017882D01*
X028496Y017882D02*
X028375Y017882D01*
X028436Y017882D02*
X028436Y018246D01*
X028496Y018246D02*
X028375Y018246D01*
X028255Y018246D02*
X028013Y018246D01*
X028013Y017882D01*
X027893Y017882D02*
X027771Y018003D01*
X027832Y018003D02*
X027650Y018003D01*
X027650Y017882D02*
X027650Y018246D01*
X027832Y018246D01*
X027893Y018185D01*
X027893Y018064D01*
X027832Y018003D01*
X028013Y018064D02*
X028134Y018064D01*
X030028Y018275D02*
X030028Y018639D01*
X030149Y018518D01*
X030270Y018639D01*
X030270Y018275D01*
X030390Y018275D02*
X030633Y018275D01*
X030512Y018275D02*
X030512Y018639D01*
X030390Y018518D01*
X030753Y018215D02*
X030995Y018215D01*
X031115Y018275D02*
X031237Y018275D01*
X031176Y018275D02*
X031176Y018639D01*
X031115Y018639D02*
X031237Y018639D01*
X031357Y018639D02*
X031600Y018275D01*
X031600Y018639D01*
X031357Y018639D02*
X031357Y018275D01*
X033177Y018275D02*
X033177Y018639D01*
X033299Y018518D01*
X033420Y018639D01*
X033420Y018275D01*
X033540Y018275D02*
X033783Y018518D01*
X033783Y018579D01*
X033722Y018639D01*
X033601Y018639D01*
X033540Y018579D01*
X033540Y018275D02*
X033783Y018275D01*
X033902Y018215D02*
X034145Y018215D01*
X034265Y018275D02*
X034386Y018275D01*
X034326Y018275D02*
X034326Y018639D01*
X034386Y018639D02*
X034265Y018639D01*
X034507Y018639D02*
X034749Y018275D01*
X034749Y018639D01*
X034507Y018639D02*
X034507Y018275D01*
X037022Y018188D02*
X037084Y018126D01*
X037208Y018126D01*
X037269Y018188D01*
X037391Y018188D02*
X037452Y018126D01*
X037576Y018126D01*
X037638Y018188D01*
X037638Y018435D01*
X037576Y018497D01*
X037452Y018497D01*
X037391Y018435D01*
X037391Y018188D01*
X037269Y018435D02*
X037208Y018497D01*
X037084Y018497D01*
X037022Y018435D01*
X037022Y018188D01*
X037207Y017897D02*
X037392Y017897D01*
X037453Y017835D01*
X037453Y017711D01*
X037392Y017650D01*
X037207Y017650D01*
X037207Y017526D02*
X037207Y017897D01*
X037575Y017835D02*
X037575Y017588D01*
X037637Y017526D01*
X037760Y017526D01*
X037822Y017588D01*
X037822Y017835D01*
X037760Y017897D01*
X037637Y017897D01*
X037575Y017835D01*
X037759Y018126D02*
X037759Y018497D01*
X037883Y018373D01*
X038006Y018497D01*
X038006Y018126D01*
X038127Y018126D02*
X038127Y018497D01*
X038251Y018373D01*
X038374Y018497D01*
X038374Y018126D01*
X038496Y018188D02*
X038557Y018126D01*
X038681Y018126D01*
X038743Y018188D01*
X038743Y018435D01*
X038681Y018497D01*
X038557Y018497D01*
X038496Y018435D01*
X038496Y018188D01*
X038558Y017897D02*
X038312Y017897D01*
X038312Y017526D01*
X038558Y017526D01*
X038680Y017526D02*
X038680Y017897D01*
X038865Y017897D01*
X038927Y017835D01*
X038927Y017711D01*
X038865Y017650D01*
X038680Y017650D01*
X038803Y017650D02*
X038927Y017526D01*
X038435Y017711D02*
X038312Y017711D01*
X038190Y017526D02*
X038190Y017897D01*
X037943Y017897D02*
X037943Y017526D01*
X038067Y017650D01*
X038190Y017526D01*
X038864Y018126D02*
X038864Y018497D01*
X039111Y018126D01*
X039111Y018497D01*
X026361Y018579D02*
X026300Y018639D01*
X026179Y018639D01*
X026118Y018579D01*
X026118Y018336D01*
X026179Y018275D01*
X026300Y018275D01*
X026361Y018336D01*
X025998Y018336D02*
X025998Y018579D01*
X025938Y018639D01*
X025756Y018639D01*
X025756Y018275D01*
X025938Y018275D01*
X025998Y018336D01*
X025636Y018397D02*
X025636Y018639D01*
X025636Y018397D02*
X025514Y018275D01*
X025393Y018397D01*
X025393Y018639D01*
X025273Y018639D02*
X025031Y018639D01*
X025031Y018457D01*
X025152Y018518D01*
X025213Y018518D01*
X025273Y018457D01*
X025273Y018336D01*
X025213Y018275D01*
X025091Y018275D01*
X025031Y018336D01*
X023680Y018336D02*
X023619Y018275D01*
X023498Y018275D01*
X023437Y018336D01*
X023437Y018579D01*
X023498Y018639D01*
X023619Y018639D01*
X023680Y018579D01*
X023317Y018579D02*
X023317Y018336D01*
X023257Y018275D01*
X023075Y018275D01*
X023075Y018639D01*
X023257Y018639D01*
X023317Y018579D01*
X022955Y018639D02*
X022955Y018397D01*
X022834Y018275D01*
X022712Y018397D01*
X022712Y018639D01*
X022592Y018579D02*
X022592Y018518D01*
X022532Y018457D01*
X022592Y018397D01*
X022592Y018336D01*
X022532Y018275D01*
X022410Y018275D01*
X022350Y018336D01*
X022229Y018336D02*
X022229Y018275D01*
X022168Y018275D01*
X022168Y018336D01*
X022229Y018336D01*
X022049Y018336D02*
X021988Y018275D01*
X021867Y018275D01*
X021806Y018336D01*
X021927Y018457D02*
X021988Y018457D01*
X022049Y018397D01*
X022049Y018336D01*
X021988Y018457D02*
X022049Y018518D01*
X022049Y018579D01*
X021988Y018639D01*
X021867Y018639D01*
X021806Y018579D01*
X022350Y018579D02*
X022410Y018639D01*
X022532Y018639D01*
X022592Y018579D01*
X022532Y018457D02*
X022471Y018457D01*
X020414Y020631D02*
X020291Y020755D01*
X020353Y020755D02*
X020168Y020755D01*
X020168Y020631D02*
X020168Y021001D01*
X020353Y021001D01*
X020414Y020940D01*
X020414Y020816D01*
X020353Y020755D01*
X020046Y020631D02*
X019861Y020816D01*
X019799Y020755D02*
X020046Y021001D01*
X019799Y021001D02*
X019799Y020631D01*
X019616Y020755D02*
X019431Y020755D01*
X019310Y020755D02*
X019310Y020693D01*
X019248Y020631D01*
X019124Y020631D01*
X019063Y020693D01*
X019124Y020816D02*
X019063Y020878D01*
X019063Y020940D01*
X019124Y021001D01*
X019248Y021001D01*
X019310Y020940D01*
X019431Y021001D02*
X019616Y021001D01*
X019678Y020940D01*
X019678Y020816D01*
X019616Y020755D01*
X019431Y020631D02*
X019431Y021001D01*
X019248Y020816D02*
X019310Y020755D01*
X019248Y020816D02*
X019124Y020816D01*
X018173Y020878D02*
X017926Y020631D01*
X018173Y020631D01*
X018173Y020878D02*
X018173Y020940D01*
X018111Y021001D01*
X017988Y021001D01*
X017926Y020940D01*
X017805Y020940D02*
X017805Y020816D01*
X017743Y020755D01*
X017558Y020755D01*
X017681Y020755D02*
X017805Y020631D01*
X017558Y020631D02*
X017558Y021001D01*
X017743Y021001D01*
X017805Y020940D01*
X017436Y020940D02*
X017436Y020693D01*
X017375Y020631D01*
X017251Y020631D01*
X017189Y020693D01*
X017189Y020940D01*
X017251Y021001D01*
X017375Y021001D01*
X017436Y020940D01*
X017068Y020940D02*
X017006Y021001D01*
X016883Y021001D01*
X016821Y020940D01*
X016821Y020878D01*
X016883Y020816D01*
X017006Y020816D01*
X017068Y020755D01*
X017068Y020693D01*
X017006Y020631D01*
X016883Y020631D01*
X016821Y020693D01*
X016700Y020631D02*
X016453Y021001D01*
X016453Y020631D01*
X016331Y020631D02*
X016084Y020631D01*
X016084Y021001D01*
X016331Y021001D01*
X016208Y020816D02*
X016084Y020816D01*
X015963Y020755D02*
X015963Y020693D01*
X015901Y020631D01*
X015778Y020631D01*
X015716Y020693D01*
X015778Y020816D02*
X015901Y020816D01*
X015963Y020755D01*
X015963Y020940D02*
X015901Y021001D01*
X015778Y021001D01*
X015716Y020940D01*
X015716Y020878D01*
X015778Y020816D01*
X014826Y020631D02*
X014580Y020631D01*
X014458Y020631D02*
X014335Y020755D01*
X014396Y020755D02*
X014211Y020755D01*
X014211Y020631D02*
X014211Y021001D01*
X014396Y021001D01*
X014458Y020940D01*
X014458Y020816D01*
X014396Y020755D01*
X014580Y020878D02*
X014703Y021001D01*
X014703Y020631D01*
X014090Y020693D02*
X014090Y020940D01*
X014028Y021001D01*
X013905Y021001D01*
X013843Y020940D01*
X013843Y020693D01*
X013905Y020631D01*
X014028Y020631D01*
X014090Y020693D01*
X013722Y020693D02*
X013660Y020631D01*
X013536Y020631D01*
X013475Y020693D01*
X013353Y020631D02*
X013353Y021001D01*
X013475Y020940D02*
X013475Y020878D01*
X013536Y020816D01*
X013660Y020816D01*
X013722Y020755D01*
X013722Y020693D01*
X013722Y020940D02*
X013660Y021001D01*
X013536Y021001D01*
X013475Y020940D01*
X013353Y020631D02*
X013106Y021001D01*
X013106Y020631D01*
X012985Y020631D02*
X012738Y020631D01*
X012738Y021001D01*
X012985Y021001D01*
X012861Y020816D02*
X012738Y020816D01*
X012617Y020755D02*
X012617Y020693D01*
X012555Y020631D01*
X012431Y020631D01*
X012370Y020693D01*
X012431Y020816D02*
X012555Y020816D01*
X012617Y020755D01*
X012617Y020940D02*
X012555Y021001D01*
X012431Y021001D01*
X012370Y020940D01*
X012370Y020878D01*
X012431Y020816D01*
X011531Y020878D02*
X011531Y020940D01*
X011469Y021001D01*
X011346Y021001D01*
X011284Y020940D01*
X011162Y021001D02*
X011162Y020631D01*
X011284Y020631D02*
X011531Y020878D01*
X011531Y020631D02*
X011284Y020631D01*
X011162Y020816D02*
X010916Y020816D01*
X010794Y020693D02*
X010732Y020631D01*
X010609Y020631D01*
X010547Y020693D01*
X010547Y020940D01*
X010609Y021001D01*
X010732Y021001D01*
X010794Y020940D01*
X010916Y021001D02*
X010916Y020631D01*
X010426Y020631D02*
X010302Y020755D01*
X010179Y020631D01*
X010179Y021001D01*
X010058Y020940D02*
X009996Y021001D01*
X009872Y021001D01*
X009811Y020940D01*
X009811Y020878D01*
X009872Y020816D01*
X009996Y020816D01*
X010058Y020755D01*
X010058Y020693D01*
X009996Y020631D01*
X009872Y020631D01*
X009811Y020693D01*
X010426Y020631D02*
X010426Y021001D01*
X008972Y020631D02*
X008725Y020631D01*
X008603Y020631D02*
X008603Y021001D01*
X008725Y020878D02*
X008848Y021001D01*
X008848Y020631D01*
X008603Y020816D02*
X008357Y020816D01*
X008235Y020693D02*
X008173Y020631D01*
X008050Y020631D01*
X007988Y020693D01*
X007988Y020940D01*
X008050Y021001D01*
X008173Y021001D01*
X008235Y020940D01*
X008357Y021001D02*
X008357Y020631D01*
X007867Y020631D02*
X007743Y020755D01*
X007620Y020631D01*
X007620Y021001D01*
X007498Y020940D02*
X007437Y021001D01*
X007313Y021001D01*
X007252Y020940D01*
X007252Y020878D01*
X007313Y020816D01*
X007437Y020816D01*
X007498Y020755D01*
X007498Y020693D01*
X007437Y020631D01*
X007313Y020631D01*
X007252Y020693D01*
X006771Y020693D02*
X006710Y020631D01*
X006586Y020631D01*
X006525Y020693D01*
X006525Y020940D01*
X006586Y021001D01*
X006710Y021001D01*
X006771Y020940D01*
X006403Y020940D02*
X006403Y020693D01*
X006341Y020631D01*
X006156Y020631D01*
X006156Y021001D01*
X006341Y021001D01*
X006403Y020940D01*
X005666Y021001D02*
X005666Y020755D01*
X005543Y020631D01*
X005420Y020755D01*
X005420Y021001D01*
X005298Y021001D02*
X005051Y021001D01*
X005051Y020816D01*
X005175Y020878D01*
X005236Y020878D01*
X005298Y020816D01*
X005298Y020693D01*
X005236Y020631D01*
X005113Y020631D01*
X005051Y020693D01*
X004845Y022273D02*
X004845Y022516D01*
X004724Y022394D02*
X004966Y022394D01*
X007867Y021001D02*
X007867Y020631D01*
X008236Y019033D02*
X008357Y019033D01*
X008297Y019033D02*
X008297Y018669D01*
X008357Y018669D02*
X008236Y018669D01*
X008478Y018669D02*
X008720Y018912D01*
X008720Y018972D01*
X008660Y019033D01*
X008538Y019033D01*
X008478Y018972D01*
X008478Y018669D02*
X008720Y018669D01*
X008840Y018730D02*
X008901Y018669D01*
X009022Y018669D01*
X009083Y018730D01*
X009083Y018972D02*
X009022Y019033D01*
X008901Y019033D01*
X008840Y018972D01*
X008840Y018730D01*
X009565Y018669D02*
X009686Y018669D01*
X009626Y018669D02*
X009626Y019033D01*
X009686Y019033D02*
X009565Y019033D01*
X009807Y019033D02*
X009989Y019033D01*
X010049Y018972D01*
X010049Y018730D01*
X009989Y018669D01*
X009807Y018669D01*
X009807Y019033D01*
X010532Y018730D02*
X010592Y018669D01*
X010653Y018669D01*
X010714Y018730D01*
X010714Y019033D01*
X010774Y019033D02*
X010653Y019033D01*
X010894Y019033D02*
X010894Y018730D01*
X010955Y018669D01*
X011076Y018669D01*
X011137Y018730D01*
X011137Y019033D01*
X011257Y019033D02*
X011378Y018912D01*
X011499Y019033D01*
X011499Y018669D01*
X011619Y018669D02*
X011619Y019033D01*
X011801Y019033D01*
X011862Y018972D01*
X011862Y018851D01*
X011801Y018790D01*
X011619Y018790D01*
X011982Y018851D02*
X012103Y018851D01*
X011982Y019033D02*
X011982Y018669D01*
X012225Y018669D01*
X012344Y018669D02*
X012344Y019033D01*
X012526Y019033D01*
X012587Y018972D01*
X012587Y018851D01*
X012526Y018790D01*
X012344Y018790D01*
X012466Y018790D02*
X012587Y018669D01*
X012707Y018730D02*
X012768Y018669D01*
X012889Y018669D01*
X012950Y018730D01*
X012950Y018790D01*
X012889Y018851D01*
X012768Y018851D01*
X012707Y018912D01*
X012707Y018972D01*
X012768Y019033D01*
X012889Y019033D01*
X012950Y018972D01*
X012225Y019033D02*
X011982Y019033D01*
X011257Y019033D02*
X011257Y018669D01*
X016700Y020631D02*
X016700Y021001D01*
X015278Y022273D02*
X015278Y022516D01*
X015157Y022394D02*
X015399Y022394D01*
X018503Y022394D02*
X018746Y022394D01*
X018625Y022516D02*
X018625Y022273D01*
X012053Y022394D02*
X011810Y022394D01*
X011932Y022273D02*
X011932Y022516D01*
X003482Y018723D02*
X003482Y018602D01*
X003421Y018541D01*
X003239Y018541D01*
X003360Y018541D02*
X003482Y018420D01*
X003239Y018420D02*
X003239Y018784D01*
X003421Y018784D01*
X003482Y018723D01*
X003119Y018784D02*
X003119Y018420D01*
X002998Y018541D01*
X002876Y018420D01*
X002876Y018784D01*
X002756Y018723D02*
X002756Y018602D01*
X002696Y018541D01*
X002514Y018541D01*
X002514Y018420D02*
X002514Y018784D01*
X002696Y018784D01*
X002756Y018723D01*
X002512Y018155D02*
X002512Y017913D01*
X002391Y018034D02*
X002633Y018034D01*
X002711Y016028D02*
X002711Y015664D01*
X002953Y015664D01*
X003073Y015664D02*
X003316Y015664D01*
X003436Y015664D02*
X003618Y015664D01*
X003678Y015724D01*
X003678Y015967D01*
X003618Y016028D01*
X003436Y016028D01*
X003436Y015664D01*
X003195Y015846D02*
X003073Y015846D01*
X003073Y016028D02*
X003073Y015664D01*
X003073Y016028D02*
X003316Y016028D01*
X003798Y015967D02*
X003859Y016028D01*
X003980Y016028D01*
X004041Y015967D01*
X004041Y015906D01*
X003980Y015846D01*
X004041Y015785D01*
X004041Y015724D01*
X003980Y015664D01*
X003859Y015664D01*
X003798Y015724D01*
X003920Y015846D02*
X003980Y015846D01*
X002633Y015278D02*
X002391Y015278D01*
X002512Y015157D02*
X002512Y015399D01*
X002711Y013272D02*
X002711Y012908D01*
X002953Y012908D01*
X003073Y012908D02*
X003316Y012908D01*
X003436Y012908D02*
X003618Y012908D01*
X003678Y012968D01*
X003678Y013211D01*
X003618Y013272D01*
X003436Y013272D01*
X003436Y012908D01*
X003195Y013090D02*
X003073Y013090D01*
X003073Y013272D02*
X003073Y012908D01*
X003073Y013272D02*
X003316Y013272D01*
X003798Y013211D02*
X003859Y013272D01*
X003980Y013272D01*
X004041Y013211D01*
X004041Y013150D01*
X003798Y012908D01*
X004041Y012908D01*
X002633Y012522D02*
X002391Y012522D01*
X002512Y012401D02*
X002512Y012644D01*
X002711Y010516D02*
X002711Y010152D01*
X002953Y010152D01*
X003073Y010152D02*
X003316Y010152D01*
X003436Y010152D02*
X003618Y010152D01*
X003678Y010212D01*
X003678Y010455D01*
X003618Y010516D01*
X003436Y010516D01*
X003436Y010152D01*
X003195Y010334D02*
X003073Y010334D01*
X003073Y010516D02*
X003073Y010152D01*
X002633Y009766D02*
X002391Y009766D01*
X002512Y009645D02*
X002512Y009888D01*
X003073Y010516D02*
X003316Y010516D01*
X003798Y010394D02*
X003920Y010516D01*
X003920Y010152D01*
X004041Y010152D02*
X003798Y010152D01*
X007632Y005708D02*
X007632Y005647D01*
X007632Y005526D02*
X007632Y005283D01*
X007571Y005283D02*
X007693Y005283D01*
X007693Y005057D02*
X007693Y004693D01*
X007814Y004693D02*
X007571Y004693D01*
X007451Y004753D02*
X007391Y004693D01*
X007269Y004693D01*
X007209Y004753D01*
X007451Y004996D01*
X007451Y004753D01*
X007571Y004935D02*
X007693Y005057D01*
X007451Y004996D02*
X007391Y005057D01*
X007269Y005057D01*
X007209Y004996D01*
X007209Y004753D01*
X007089Y004693D02*
X006846Y004693D01*
X007089Y004935D01*
X007089Y004996D01*
X007028Y005057D01*
X006907Y005057D01*
X006846Y004996D01*
X006846Y005283D02*
X006846Y005647D01*
X007028Y005647D01*
X007089Y005586D01*
X007089Y005465D01*
X007028Y005404D01*
X006846Y005404D01*
X006968Y005404D02*
X007089Y005283D01*
X007209Y005283D02*
X007209Y005647D01*
X007391Y005647D01*
X007451Y005586D01*
X007451Y005465D01*
X007391Y005404D01*
X007209Y005404D01*
X007571Y005526D02*
X007632Y005526D01*
X008176Y005526D02*
X008236Y005465D01*
X008358Y005465D01*
X008418Y005404D01*
X008418Y005344D01*
X008358Y005283D01*
X008236Y005283D01*
X008176Y005344D01*
X008176Y005526D02*
X008176Y005586D01*
X008236Y005647D01*
X008358Y005647D01*
X008418Y005586D01*
X008538Y005465D02*
X008538Y005344D01*
X008599Y005283D01*
X008720Y005283D01*
X008781Y005404D02*
X008538Y005404D01*
X008538Y005465D02*
X008599Y005526D01*
X008720Y005526D01*
X008781Y005465D01*
X008781Y005404D01*
X008901Y005344D02*
X008961Y005283D01*
X009143Y005283D01*
X009263Y005344D02*
X009324Y005283D01*
X009506Y005283D01*
X009506Y005526D01*
X009626Y005526D02*
X009626Y005283D01*
X009626Y005404D02*
X009747Y005526D01*
X009808Y005526D01*
X009928Y005465D02*
X009988Y005526D01*
X010110Y005526D01*
X010170Y005465D01*
X010170Y005404D01*
X009928Y005404D01*
X009928Y005344D02*
X009928Y005465D01*
X009928Y005344D02*
X009988Y005283D01*
X010110Y005283D01*
X010170Y005057D02*
X010109Y004996D01*
X010170Y005057D02*
X010291Y005057D01*
X010352Y004996D01*
X010352Y004935D01*
X010291Y004875D01*
X010352Y004814D01*
X010352Y004753D01*
X010291Y004693D01*
X010170Y004693D01*
X010109Y004753D01*
X009989Y004693D02*
X009746Y004693D01*
X009868Y004693D02*
X009868Y005057D01*
X009746Y004935D01*
X009627Y004875D02*
X009384Y004875D01*
X009264Y004935D02*
X009264Y004996D01*
X009203Y005057D01*
X009082Y005057D01*
X009021Y004996D01*
X009021Y004935D01*
X009082Y004875D01*
X009203Y004875D01*
X009264Y004814D01*
X009264Y004753D01*
X009203Y004693D01*
X009082Y004693D01*
X009021Y004753D01*
X009021Y004814D01*
X009082Y004875D01*
X009203Y004875D02*
X009264Y004935D01*
X008902Y004996D02*
X008659Y004753D01*
X008720Y004693D01*
X008841Y004693D01*
X008902Y004753D01*
X008902Y004996D01*
X008841Y005057D01*
X008720Y005057D01*
X008659Y004996D01*
X008659Y004753D01*
X008539Y004875D02*
X008296Y004875D01*
X008177Y004875D02*
X007934Y004875D01*
X008116Y005057D01*
X008116Y004693D01*
X008115Y004345D02*
X008297Y004345D01*
X008417Y004345D02*
X008417Y004284D01*
X008478Y004284D01*
X008478Y004345D01*
X008417Y004345D01*
X008417Y004163D02*
X008417Y004102D01*
X008478Y004102D01*
X008478Y004163D01*
X008417Y004163D01*
X008297Y004163D02*
X008237Y004223D01*
X008115Y004223D01*
X008055Y004284D01*
X008115Y004345D01*
X007935Y004284D02*
X007935Y004163D01*
X007874Y004102D01*
X007692Y004102D01*
X007572Y004102D02*
X007511Y004163D01*
X007511Y004405D01*
X007450Y004345D02*
X007572Y004345D01*
X007692Y004345D02*
X007874Y004345D01*
X007935Y004284D01*
X008055Y004102D02*
X008237Y004102D01*
X008297Y004163D01*
X008598Y004102D02*
X008841Y004466D01*
X009204Y004466D02*
X008961Y004102D01*
X009323Y004163D02*
X009384Y004102D01*
X009566Y004102D01*
X009566Y004041D02*
X009566Y004345D01*
X009384Y004345D01*
X009323Y004284D01*
X009323Y004163D01*
X009445Y003981D02*
X009505Y003981D01*
X009566Y004041D01*
X009686Y004102D02*
X009807Y004102D01*
X009747Y004102D02*
X009747Y004345D01*
X009686Y004345D01*
X009747Y004466D02*
X009747Y004527D01*
X009928Y004345D02*
X010049Y004345D01*
X009988Y004405D02*
X009988Y004163D01*
X010049Y004102D01*
X010169Y004102D02*
X010169Y004466D01*
X010230Y004345D02*
X010351Y004345D01*
X010412Y004284D01*
X010412Y004102D01*
X010532Y004163D02*
X010593Y004102D01*
X010775Y004102D01*
X010775Y004345D01*
X010894Y004345D02*
X011076Y004345D01*
X011137Y004284D01*
X011137Y004163D01*
X011076Y004102D01*
X010894Y004102D01*
X010894Y004466D01*
X010955Y004693D02*
X011077Y004935D01*
X011196Y004935D02*
X011318Y005057D01*
X011318Y004693D01*
X011439Y004693D02*
X011196Y004693D01*
X010955Y004693D02*
X010834Y004935D01*
X010291Y004875D02*
X010230Y004875D01*
X010230Y004345D02*
X010169Y004284D01*
X010532Y004345D02*
X010532Y004163D01*
X011257Y004163D02*
X011318Y004163D01*
X011318Y004102D01*
X011257Y004102D01*
X011257Y004163D01*
X011438Y004163D02*
X011438Y004284D01*
X011499Y004345D01*
X011681Y004345D01*
X011801Y004284D02*
X011801Y004163D01*
X011861Y004102D01*
X011983Y004102D01*
X012043Y004163D01*
X012043Y004284D01*
X011983Y004345D01*
X011861Y004345D01*
X011801Y004284D01*
X011681Y004102D02*
X011499Y004102D01*
X011438Y004163D01*
X012163Y004102D02*
X012163Y004345D01*
X012224Y004345D01*
X012284Y004284D01*
X012345Y004345D01*
X012406Y004284D01*
X012406Y004102D01*
X012526Y004102D02*
X012768Y004466D01*
X012888Y004345D02*
X012949Y004345D01*
X013010Y004284D01*
X013070Y004345D01*
X013131Y004284D01*
X013131Y004102D01*
X013251Y004102D02*
X013372Y004102D01*
X013311Y004102D02*
X013311Y004345D01*
X013251Y004345D01*
X013311Y004466D02*
X013311Y004527D01*
X013492Y004466D02*
X013492Y004102D01*
X013492Y004223D02*
X013674Y004345D01*
X013794Y004284D02*
X013855Y004345D01*
X013976Y004345D01*
X014037Y004284D01*
X014037Y004223D01*
X013794Y004223D01*
X013794Y004163D02*
X013794Y004284D01*
X013794Y004163D02*
X013855Y004102D01*
X013976Y004102D01*
X014157Y004284D02*
X014400Y004284D01*
X014519Y004284D02*
X014580Y004345D01*
X014702Y004345D01*
X014762Y004284D01*
X014762Y004102D01*
X014882Y004163D02*
X014882Y004284D01*
X014943Y004345D01*
X015064Y004345D01*
X015125Y004284D01*
X015125Y004223D01*
X014882Y004223D01*
X014882Y004163D02*
X014943Y004102D01*
X015064Y004102D01*
X015245Y004163D02*
X015305Y004102D01*
X015487Y004102D01*
X015607Y004102D02*
X015607Y004466D01*
X015487Y004345D02*
X015305Y004345D01*
X015245Y004284D01*
X015245Y004163D01*
X015607Y004223D02*
X015789Y004345D01*
X015909Y004345D02*
X015909Y004102D01*
X015789Y004102D02*
X015607Y004223D01*
X015909Y004345D02*
X015970Y004345D01*
X016030Y004284D01*
X016091Y004345D01*
X016152Y004284D01*
X016152Y004102D01*
X016030Y004102D02*
X016030Y004284D01*
X016272Y004163D02*
X016332Y004223D01*
X016514Y004223D01*
X016514Y004284D02*
X016514Y004102D01*
X016332Y004102D01*
X016272Y004163D01*
X016332Y004345D02*
X016454Y004345D01*
X016514Y004284D01*
X016634Y004345D02*
X016816Y004345D01*
X016877Y004284D01*
X016877Y004102D01*
X016997Y004102D02*
X017239Y004466D01*
X017359Y004466D02*
X017541Y004466D01*
X017602Y004405D01*
X017602Y004284D01*
X017541Y004223D01*
X017359Y004223D01*
X017359Y004102D02*
X017359Y004466D01*
X017481Y004223D02*
X017602Y004102D01*
X017722Y004102D02*
X017722Y004466D01*
X017904Y004466D01*
X017964Y004405D01*
X017964Y004284D01*
X017904Y004223D01*
X017722Y004223D01*
X018084Y004102D02*
X018206Y004102D01*
X018145Y004102D02*
X018145Y004345D01*
X018084Y004345D01*
X018145Y004466D02*
X018145Y004527D01*
X018326Y004405D02*
X018326Y004345D01*
X018387Y004284D01*
X018508Y004284D01*
X018569Y004223D01*
X018569Y004163D01*
X018508Y004102D01*
X018387Y004102D01*
X018326Y004163D01*
X018326Y004405D02*
X018387Y004466D01*
X018508Y004466D01*
X018569Y004405D01*
X018688Y004284D02*
X018749Y004345D01*
X018870Y004345D01*
X018931Y004284D01*
X018931Y004223D01*
X018688Y004223D01*
X018688Y004163D02*
X018688Y004284D01*
X018688Y004163D02*
X018749Y004102D01*
X018870Y004102D01*
X019051Y004163D02*
X019112Y004102D01*
X019294Y004102D01*
X019413Y004163D02*
X019474Y004102D01*
X019656Y004102D01*
X019656Y004345D01*
X019776Y004345D02*
X019776Y004102D01*
X019776Y004223D02*
X019897Y004345D01*
X019958Y004345D01*
X020078Y004284D02*
X020139Y004345D01*
X020260Y004345D01*
X020321Y004284D01*
X020321Y004223D01*
X020078Y004223D01*
X020078Y004163D02*
X020078Y004284D01*
X020078Y004163D02*
X020139Y004102D01*
X020260Y004102D01*
X019413Y004163D02*
X019413Y004345D01*
X019294Y004345D02*
X019112Y004345D01*
X019051Y004284D01*
X019051Y004163D01*
X018842Y005578D02*
X018842Y005825D01*
X018842Y005702D02*
X018472Y005702D01*
X018595Y005578D01*
X016634Y004345D02*
X016634Y004102D01*
X014519Y004102D02*
X014519Y004466D01*
X013674Y004102D02*
X013492Y004223D01*
X013010Y004284D02*
X013010Y004102D01*
X012888Y004102D02*
X012888Y004345D01*
X012284Y004284D02*
X012284Y004102D01*
X011983Y004693D02*
X011740Y004693D01*
X011983Y004935D01*
X011983Y004996D01*
X011922Y005057D01*
X011801Y005057D01*
X011740Y004996D01*
X011620Y004753D02*
X011620Y004693D01*
X011559Y004693D01*
X011559Y004753D01*
X011620Y004753D01*
X009263Y005344D02*
X009263Y005526D01*
X009143Y005526D02*
X008961Y005526D01*
X008901Y005465D01*
X008901Y005344D01*
X007692Y004345D02*
X007692Y003981D01*
X007330Y004102D02*
X007269Y004163D01*
X007269Y004405D01*
X007209Y004345D02*
X007330Y004345D01*
X007089Y004284D02*
X007089Y004102D01*
X007089Y004284D02*
X007028Y004345D01*
X006907Y004345D01*
X006846Y004284D01*
X006846Y004466D02*
X006846Y004102D01*
X017881Y008534D02*
X017943Y008472D01*
X018190Y008472D01*
X018252Y008534D01*
X018252Y008657D01*
X018190Y008719D01*
X018066Y008719D01*
X018066Y008595D01*
X017943Y008719D02*
X017881Y008657D01*
X017881Y008534D01*
X017881Y008840D02*
X017881Y009025D01*
X017943Y009087D01*
X018066Y009087D01*
X018128Y009025D01*
X018128Y008840D01*
X018252Y008840D02*
X017881Y008840D01*
X017881Y009208D02*
X017881Y009332D01*
X017881Y009270D02*
X018252Y009270D01*
X018252Y009208D02*
X018252Y009332D01*
X018190Y009454D02*
X018252Y009516D01*
X018252Y009639D01*
X018190Y009701D01*
X017943Y009701D01*
X017881Y009639D01*
X017881Y009516D01*
X017943Y009454D01*
X018190Y009454D01*
X018252Y010191D02*
X017881Y010191D01*
X017881Y010376D01*
X017943Y010438D01*
X018005Y010438D01*
X018066Y010376D01*
X018066Y010191D01*
X018066Y010376D02*
X018128Y010438D01*
X018190Y010438D01*
X018252Y010376D01*
X018252Y010191D01*
X015292Y010723D02*
X014928Y010723D01*
X015050Y010844D01*
X014928Y010965D01*
X015292Y010965D01*
X015232Y011085D02*
X015292Y011146D01*
X015292Y011267D01*
X015232Y011328D01*
X015292Y011448D02*
X014928Y011448D01*
X014928Y011630D01*
X014989Y011691D01*
X015110Y011691D01*
X015171Y011630D01*
X015171Y011448D01*
X014989Y011328D02*
X014928Y011267D01*
X014928Y011146D01*
X014989Y011085D01*
X015232Y011085D01*
X015292Y011810D02*
X015050Y012053D01*
X014989Y012053D01*
X014928Y011992D01*
X014928Y011871D01*
X014989Y011810D01*
X015292Y011810D02*
X015292Y012053D01*
X015232Y012173D02*
X015292Y012234D01*
X015292Y012355D01*
X015232Y012416D01*
X015171Y012416D01*
X015110Y012355D01*
X015110Y012294D01*
X015110Y012355D02*
X015050Y012416D01*
X014989Y012416D01*
X014928Y012355D01*
X014928Y012234D01*
X014989Y012173D01*
X014989Y012535D02*
X014928Y012596D01*
X014928Y012717D01*
X014989Y012778D01*
X015232Y012535D01*
X015292Y012596D01*
X015292Y012717D01*
X015232Y012778D01*
X014989Y012778D01*
X015050Y012898D02*
X014928Y013019D01*
X015292Y013019D01*
X015292Y012898D02*
X015292Y013141D01*
X015292Y013260D02*
X015232Y013260D01*
X014989Y013503D01*
X014928Y013503D01*
X014928Y013260D01*
X014989Y012535D02*
X015232Y012535D01*
X022420Y009993D02*
X022528Y009993D01*
D12*
X030639Y006613D02*
X030716Y006690D01*
X030716Y006460D01*
X030639Y006460D02*
X030793Y006460D01*
X033752Y006460D02*
X033905Y006460D01*
X033829Y006460D02*
X033829Y006690D01*
X033752Y006613D01*
X027601Y018876D02*
X027424Y018876D01*
X027424Y018965D01*
X027453Y018994D01*
X027512Y018994D01*
X027542Y018965D01*
X027542Y018876D01*
X027542Y018935D02*
X027601Y018994D01*
X027601Y019058D02*
X027424Y019176D01*
X027424Y019058D02*
X027601Y019176D01*
X027424Y019861D02*
X027424Y019979D01*
X027424Y019920D02*
X027601Y019920D01*
X027601Y020042D02*
X027424Y020160D01*
X027424Y020042D02*
X027601Y020160D01*
X027512Y020754D02*
X027512Y020872D01*
X027512Y020936D02*
X027483Y020995D01*
X027483Y021024D01*
X027512Y021054D01*
X027571Y021054D01*
X027601Y021024D01*
X027601Y020965D01*
X027571Y020936D01*
X027512Y020936D02*
X027424Y020936D01*
X027424Y021054D01*
X027424Y021117D02*
X027542Y021117D01*
X027601Y021176D01*
X027542Y021235D01*
X027424Y021235D01*
X027453Y020813D02*
X027571Y020813D01*
X027571Y021739D02*
X027601Y021768D01*
X027601Y021827D01*
X027571Y021857D01*
X027512Y021857D01*
X027512Y021798D01*
X027453Y021857D02*
X027424Y021827D01*
X027424Y021768D01*
X027453Y021739D01*
X027571Y021739D01*
X027601Y021920D02*
X027424Y021920D01*
X027601Y022038D01*
X027424Y022038D01*
X027424Y022101D02*
X027424Y022190D01*
X027453Y022219D01*
X027571Y022219D01*
X027601Y022190D01*
X027601Y022101D01*
X027424Y022101D01*
X025827Y020453D02*
X025827Y020223D01*
X025751Y020223D02*
X025904Y020223D01*
X025751Y020376D02*
X025827Y020453D01*
X022754Y020223D02*
X022601Y020223D01*
X022678Y020223D02*
X022678Y020453D01*
X022601Y020376D01*
X030869Y020376D02*
X030945Y020453D01*
X030945Y020223D01*
X030869Y020223D02*
X031022Y020223D01*
X034018Y020223D02*
X034172Y020223D01*
X034095Y020223D02*
X034095Y020453D01*
X034018Y020376D01*
X012473Y014678D02*
X012355Y014560D01*
X012384Y014530D01*
X012443Y014530D01*
X012473Y014560D01*
X012473Y014678D01*
X012443Y014707D01*
X012384Y014707D01*
X012355Y014678D01*
X012355Y014560D01*
X012293Y014530D02*
X012264Y014560D01*
X012264Y014678D01*
X012293Y014648D02*
X012234Y014648D01*
X012143Y014648D02*
X012143Y014530D01*
X012172Y014530D02*
X012113Y014530D01*
X012050Y014560D02*
X012050Y014619D01*
X012021Y014648D01*
X011932Y014648D01*
X011932Y014707D02*
X011932Y014530D01*
X012021Y014530D01*
X012050Y014560D01*
X012113Y014648D02*
X012143Y014648D01*
X012143Y014707D02*
X012143Y014737D01*
X011687Y014530D02*
X011569Y014530D01*
X011628Y014530D02*
X011628Y014707D01*
X011569Y014648D01*
X011508Y014648D02*
X011449Y014648D01*
X011478Y014678D02*
X011478Y014560D01*
X011508Y014530D01*
X011387Y014530D02*
X011328Y014530D01*
X011357Y014530D02*
X011357Y014648D01*
X011328Y014648D01*
X011357Y014707D02*
X011357Y014737D01*
X011265Y014619D02*
X011235Y014648D01*
X011147Y014648D01*
X011147Y014707D02*
X011147Y014530D01*
X011235Y014530D01*
X011265Y014560D01*
X011265Y014619D01*
X010902Y014648D02*
X010902Y014678D01*
X010873Y014707D01*
X010814Y014707D01*
X010784Y014678D01*
X010722Y014648D02*
X010663Y014648D01*
X010693Y014678D02*
X010693Y014560D01*
X010722Y014530D01*
X010784Y014530D02*
X010902Y014648D01*
X010902Y014530D02*
X010784Y014530D01*
X010601Y014530D02*
X010542Y014530D01*
X010572Y014530D02*
X010572Y014648D01*
X010542Y014648D01*
X010572Y014707D02*
X010572Y014737D01*
X010479Y014619D02*
X010450Y014648D01*
X010361Y014648D01*
X010361Y014707D02*
X010361Y014530D01*
X010450Y014530D01*
X010479Y014560D01*
X010479Y014619D01*
X010117Y014678D02*
X009999Y014560D01*
X010028Y014530D01*
X010087Y014530D01*
X010117Y014560D01*
X010117Y014678D01*
X010087Y014707D01*
X010028Y014707D01*
X009999Y014678D01*
X009999Y014560D01*
X009754Y014560D02*
X009725Y014530D01*
X009666Y014530D01*
X009636Y014560D01*
X009754Y014678D01*
X009754Y014560D01*
X009754Y014678D02*
X009725Y014707D01*
X009666Y014707D01*
X009636Y014678D01*
X009636Y014560D01*
X009392Y014530D02*
X009274Y014530D01*
X009333Y014530D02*
X009333Y014707D01*
X009274Y014648D01*
X009029Y014678D02*
X008911Y014560D01*
X008941Y014530D01*
X009000Y014530D01*
X009029Y014560D01*
X009029Y014678D01*
X009000Y014707D01*
X008941Y014707D01*
X008911Y014678D01*
X008911Y014560D01*
X008667Y014560D02*
X008667Y014678D01*
X008637Y014707D01*
X008549Y014707D01*
X008549Y014530D01*
X008637Y014530D01*
X008667Y014560D01*
X008487Y014530D02*
X008428Y014530D01*
X008457Y014530D02*
X008457Y014707D01*
X008428Y014707D02*
X008487Y014707D01*
X008415Y015121D02*
X008231Y015121D01*
X008415Y015304D01*
X008415Y015350D01*
X008369Y015396D01*
X008277Y015396D01*
X008231Y015350D01*
X007331Y016105D02*
X007302Y016105D01*
X007302Y016164D01*
X007331Y016193D01*
X007331Y016252D01*
X007302Y016282D01*
X007243Y016282D01*
X007213Y016252D01*
X007213Y016193D01*
X007243Y016164D01*
X007243Y016105D01*
X007213Y016105D01*
X007151Y016105D02*
X007062Y016164D01*
X007151Y016223D01*
X007062Y016282D02*
X007062Y016105D01*
X006999Y016252D02*
X006881Y016134D01*
X006881Y016105D01*
X006820Y016105D02*
X006791Y016105D01*
X006791Y016134D01*
X006820Y016134D01*
X006820Y016105D01*
X006698Y016105D02*
X006698Y016282D01*
X006609Y016193D01*
X006727Y016193D01*
X006881Y016282D02*
X006999Y016282D01*
X006999Y016252D01*
X006365Y016282D02*
X006247Y016282D01*
X006247Y016193D01*
X006306Y016223D01*
X006335Y016223D01*
X006365Y016193D01*
X006365Y016134D01*
X006335Y016105D01*
X006276Y016105D01*
X006247Y016134D01*
X006184Y016105D02*
X006125Y016164D01*
X006154Y016164D02*
X006066Y016164D01*
X006066Y016105D02*
X006066Y016282D01*
X006154Y016282D01*
X006184Y016252D01*
X006184Y016193D01*
X006154Y016164D01*
X004349Y015268D02*
X004349Y015209D01*
X004320Y015180D01*
X004320Y015121D01*
X004349Y015121D01*
X004261Y015121D02*
X004261Y015180D01*
X004231Y015209D01*
X004231Y015268D01*
X004261Y015298D01*
X004320Y015298D01*
X004349Y015268D01*
X004261Y015121D02*
X004231Y015121D01*
X004168Y015121D02*
X004050Y015121D01*
X004109Y015121D02*
X004109Y015298D01*
X004050Y015239D01*
X003806Y015268D02*
X003776Y015298D01*
X003717Y015298D01*
X003688Y015268D01*
X003688Y015239D01*
X003717Y015209D01*
X003806Y015209D01*
X003806Y015150D02*
X003806Y015268D01*
X003806Y015150D02*
X003776Y015121D01*
X003717Y015121D01*
X003688Y015150D01*
X003624Y015121D02*
X003565Y015180D01*
X003595Y015180D02*
X003506Y015180D01*
X003506Y015121D02*
X003506Y015298D01*
X003595Y015298D01*
X003624Y015268D01*
X003624Y015209D01*
X003595Y015180D01*
X006066Y014707D02*
X006154Y014707D01*
X006184Y014678D01*
X006184Y014619D01*
X006154Y014589D01*
X006066Y014589D01*
X006125Y014589D02*
X006184Y014530D01*
X006247Y014619D02*
X006365Y014619D01*
X006335Y014707D02*
X006247Y014619D01*
X006335Y014707D02*
X006335Y014530D01*
X006066Y014530D02*
X006066Y014707D01*
X006609Y014648D02*
X006668Y014707D01*
X006668Y014530D01*
X006609Y014530D02*
X006727Y014530D01*
X006791Y014530D02*
X006791Y014707D01*
X006879Y014648D02*
X006791Y014589D01*
X006879Y014530D01*
X006942Y014530D02*
X006971Y014530D01*
X006971Y014589D01*
X006942Y014619D01*
X006942Y014678D01*
X006971Y014707D01*
X007030Y014707D01*
X007060Y014678D01*
X007060Y014619D01*
X007030Y014589D01*
X007030Y014530D01*
X007060Y014530D01*
X006972Y013132D02*
X006972Y012955D01*
X006972Y013014D02*
X007060Y013073D01*
X007123Y013044D02*
X007123Y013103D01*
X007152Y013132D01*
X007211Y013132D01*
X007241Y013103D01*
X007241Y013044D01*
X007211Y013014D01*
X007211Y012955D01*
X007241Y012955D01*
X007152Y012955D02*
X007152Y013014D01*
X007123Y013044D01*
X007123Y012955D02*
X007152Y012955D01*
X007060Y012955D02*
X006972Y013014D01*
X006909Y012985D02*
X006909Y013103D01*
X006791Y012985D01*
X006820Y012955D01*
X006879Y012955D01*
X006909Y012985D01*
X006909Y013103D02*
X006879Y013132D01*
X006820Y013132D01*
X006791Y013103D01*
X006791Y012985D01*
X006727Y012955D02*
X006609Y012955D01*
X006668Y012955D02*
X006668Y013132D01*
X006609Y013073D01*
X006365Y013073D02*
X006335Y013044D01*
X006365Y013014D01*
X006365Y012985D01*
X006335Y012955D01*
X006276Y012955D01*
X006247Y012985D01*
X006184Y012955D02*
X006125Y013014D01*
X006154Y013014D02*
X006066Y013014D01*
X006066Y012955D02*
X006066Y013132D01*
X006154Y013132D01*
X006184Y013103D01*
X006184Y013044D01*
X006154Y013014D01*
X006247Y013103D02*
X006276Y013132D01*
X006335Y013132D01*
X006365Y013103D01*
X006365Y013073D01*
X006335Y013044D02*
X006306Y013044D01*
X004349Y012512D02*
X004349Y012453D01*
X004320Y012424D01*
X004320Y012365D01*
X004349Y012365D01*
X004261Y012365D02*
X004261Y012424D01*
X004231Y012453D01*
X004231Y012512D01*
X004261Y012542D01*
X004320Y012542D01*
X004349Y012512D01*
X004261Y012365D02*
X004231Y012365D01*
X004168Y012365D02*
X004050Y012365D01*
X004109Y012365D02*
X004109Y012542D01*
X004050Y012483D01*
X003806Y012483D02*
X003776Y012453D01*
X003717Y012453D01*
X003688Y012483D01*
X003688Y012512D01*
X003717Y012542D01*
X003776Y012542D01*
X003806Y012512D01*
X003806Y012483D01*
X003776Y012453D02*
X003806Y012424D01*
X003806Y012394D01*
X003776Y012365D01*
X003717Y012365D01*
X003688Y012394D01*
X003688Y012424D01*
X003717Y012453D01*
X003624Y012453D02*
X003595Y012424D01*
X003506Y012424D01*
X003506Y012365D02*
X003506Y012542D01*
X003595Y012542D01*
X003624Y012512D01*
X003624Y012453D01*
X003565Y012424D02*
X003624Y012365D01*
X006066Y011557D02*
X006066Y011380D01*
X006066Y011439D02*
X006154Y011439D01*
X006184Y011469D01*
X006184Y011528D01*
X006154Y011557D01*
X006066Y011557D01*
X006125Y011439D02*
X006184Y011380D01*
X006247Y011380D02*
X006365Y011498D01*
X006365Y011528D01*
X006335Y011557D01*
X006276Y011557D01*
X006247Y011528D01*
X006247Y011380D02*
X006365Y011380D01*
X006609Y011380D02*
X006727Y011380D01*
X006668Y011380D02*
X006668Y011557D01*
X006609Y011498D01*
X006791Y011528D02*
X006820Y011557D01*
X006879Y011557D01*
X006909Y011528D01*
X006791Y011410D01*
X006820Y011380D01*
X006879Y011380D01*
X006909Y011410D01*
X006909Y011528D01*
X006972Y011557D02*
X006972Y011380D01*
X006972Y011439D02*
X007060Y011380D01*
X007123Y011380D02*
X007152Y011380D01*
X007152Y011439D01*
X007123Y011469D01*
X007123Y011528D01*
X007152Y011557D01*
X007211Y011557D01*
X007241Y011528D01*
X007241Y011469D01*
X007211Y011439D01*
X007211Y011380D01*
X007241Y011380D01*
X007060Y011498D02*
X006972Y011439D01*
X006791Y011410D02*
X006791Y011528D01*
X006791Y009983D02*
X006791Y009806D01*
X006791Y009865D02*
X006879Y009924D01*
X006942Y009953D02*
X006971Y009983D01*
X007030Y009983D01*
X007060Y009953D01*
X007060Y009894D01*
X007030Y009865D01*
X007030Y009806D01*
X007060Y009806D01*
X006971Y009806D02*
X006971Y009865D01*
X006942Y009894D01*
X006942Y009953D01*
X006942Y009806D02*
X006971Y009806D01*
X006879Y009806D02*
X006791Y009865D01*
X006727Y009806D02*
X006609Y009806D01*
X006668Y009806D02*
X006668Y009983D01*
X006609Y009924D01*
X006365Y009806D02*
X006247Y009806D01*
X006306Y009806D02*
X006306Y009983D01*
X006247Y009924D01*
X006184Y009953D02*
X006184Y009894D01*
X006154Y009865D01*
X006066Y009865D01*
X006125Y009865D02*
X006184Y009806D01*
X006066Y009806D02*
X006066Y009983D01*
X006154Y009983D01*
X006184Y009953D01*
X004349Y009756D02*
X004349Y009697D01*
X004320Y009668D01*
X004320Y009609D01*
X004349Y009609D01*
X004261Y009609D02*
X004261Y009668D01*
X004231Y009697D01*
X004231Y009756D01*
X004261Y009786D01*
X004320Y009786D01*
X004349Y009756D01*
X004261Y009609D02*
X004231Y009609D01*
X004168Y009609D02*
X004050Y009609D01*
X004109Y009609D02*
X004109Y009786D01*
X004050Y009727D01*
X003806Y009756D02*
X003688Y009638D01*
X003688Y009609D01*
X003624Y009609D02*
X003565Y009668D01*
X003595Y009668D02*
X003506Y009668D01*
X003506Y009609D02*
X003506Y009786D01*
X003595Y009786D01*
X003624Y009756D01*
X003624Y009697D01*
X003595Y009668D01*
X003688Y009786D02*
X003806Y009786D01*
X003806Y009756D01*
X008231Y016302D02*
X008415Y016302D01*
X008323Y016302D02*
X008323Y016577D01*
X008231Y016485D01*
X008277Y017483D02*
X008231Y017529D01*
X008415Y017712D01*
X008415Y017529D01*
X008369Y017483D01*
X008277Y017483D01*
X008231Y017529D02*
X008231Y017712D01*
X008277Y017758D01*
X008369Y017758D01*
X008415Y017712D01*
X008398Y017877D02*
X008306Y017877D01*
X008352Y017877D02*
X008352Y018060D01*
X008306Y018060D01*
X008218Y018014D02*
X008172Y018060D01*
X008034Y018060D01*
X008034Y018152D02*
X008034Y017877D01*
X008172Y017877D01*
X008218Y017922D01*
X008218Y018014D01*
X008352Y018152D02*
X008352Y018198D01*
X008487Y018060D02*
X008579Y018060D01*
X008533Y018106D02*
X008533Y017922D01*
X008579Y017877D01*
X009215Y018316D02*
X009261Y018270D01*
X009353Y018270D01*
X009399Y018316D01*
X009399Y018500D01*
X009353Y018546D01*
X009261Y018546D01*
X009215Y018500D01*
X009215Y018316D01*
X009487Y018270D02*
X009487Y018546D01*
X009671Y018270D01*
X009671Y018546D01*
X011184Y018500D02*
X011184Y018316D01*
X011230Y018270D01*
X011321Y018270D01*
X011367Y018316D01*
X011367Y018500D01*
X011321Y018546D01*
X011230Y018546D01*
X011184Y018500D01*
X011456Y018546D02*
X011639Y018546D01*
X011727Y018546D02*
X011911Y018546D01*
X011819Y018408D02*
X011727Y018408D01*
X011727Y018270D02*
X011727Y018546D01*
X011547Y018408D02*
X011456Y018408D01*
X011456Y018270D02*
X011456Y018546D01*
X007331Y018024D02*
X007331Y017965D01*
X007302Y017936D01*
X007302Y017877D01*
X007331Y017877D01*
X007243Y017877D02*
X007243Y017936D01*
X007213Y017965D01*
X007213Y018024D01*
X007243Y018054D01*
X007302Y018054D01*
X007331Y018024D01*
X007243Y017877D02*
X007213Y017877D01*
X007151Y017877D02*
X007062Y017936D01*
X007151Y017995D01*
X007062Y018054D02*
X007062Y017877D01*
X006999Y018024D02*
X006881Y017906D01*
X006881Y017877D01*
X006820Y017877D02*
X006791Y017877D01*
X006791Y017906D01*
X006820Y017906D01*
X006820Y017877D01*
X006698Y017877D02*
X006698Y018054D01*
X006609Y017965D01*
X006727Y017965D01*
X006881Y018054D02*
X006999Y018054D01*
X006999Y018024D01*
X006365Y018054D02*
X006306Y018024D01*
X006247Y017965D01*
X006335Y017965D01*
X006365Y017936D01*
X006365Y017906D01*
X006335Y017877D01*
X006276Y017877D01*
X006247Y017906D01*
X006247Y017965D01*
X006184Y017965D02*
X006154Y017936D01*
X006066Y017936D01*
X006125Y017936D02*
X006184Y017877D01*
X006184Y017965D02*
X006184Y018024D01*
X006154Y018054D01*
X006066Y018054D01*
X006066Y017877D01*
X004531Y017877D02*
X004501Y017877D01*
X004501Y017936D01*
X004531Y017965D01*
X004531Y018024D01*
X004501Y018054D01*
X004442Y018054D01*
X004413Y018024D01*
X004413Y017965D01*
X004442Y017936D01*
X004442Y017877D01*
X004413Y017877D01*
X004349Y017877D02*
X004231Y017877D01*
X004290Y017877D02*
X004290Y018054D01*
X004231Y017995D01*
X003987Y018024D02*
X003957Y018054D01*
X003898Y018054D01*
X003869Y018024D01*
X003869Y017906D01*
X003987Y018024D01*
X003987Y017906D01*
X003957Y017877D01*
X003898Y017877D01*
X003869Y017906D01*
X003806Y017877D02*
X003688Y017877D01*
X003747Y017877D02*
X003747Y018054D01*
X003688Y017995D01*
X003624Y018024D02*
X003595Y018054D01*
X003506Y018054D01*
X003506Y017877D01*
X003506Y017936D02*
X003595Y017936D01*
X003624Y017965D01*
X003624Y018024D01*
X003565Y017936D02*
X003624Y017877D01*
D13*
X000839Y017276D02*
X000841Y017345D01*
X000847Y017413D01*
X000857Y017481D01*
X000871Y017548D01*
X000889Y017615D01*
X000910Y017680D01*
X000936Y017744D01*
X000965Y017806D01*
X000997Y017866D01*
X001033Y017925D01*
X001073Y017981D01*
X001115Y018035D01*
X001161Y018086D01*
X001210Y018135D01*
X001261Y018181D01*
X001315Y018223D01*
X001371Y018263D01*
X001429Y018299D01*
X001490Y018331D01*
X001552Y018360D01*
X001616Y018386D01*
X001681Y018407D01*
X001748Y018425D01*
X001815Y018439D01*
X001883Y018449D01*
X001951Y018455D01*
X002020Y018457D01*
X002089Y018455D01*
X002157Y018449D01*
X002225Y018439D01*
X002292Y018425D01*
X002359Y018407D01*
X002424Y018386D01*
X002488Y018360D01*
X002550Y018331D01*
X002610Y018299D01*
X002669Y018263D01*
X002725Y018223D01*
X002779Y018181D01*
X002830Y018135D01*
X002879Y018086D01*
X002925Y018035D01*
X002967Y017981D01*
X003007Y017925D01*
X003043Y017866D01*
X003075Y017806D01*
X003104Y017744D01*
X003130Y017680D01*
X003151Y017615D01*
X003169Y017548D01*
X003183Y017481D01*
X003193Y017413D01*
X003199Y017345D01*
X003201Y017276D01*
X003199Y017207D01*
X003193Y017139D01*
X003183Y017071D01*
X003169Y017004D01*
X003151Y016937D01*
X003130Y016872D01*
X003104Y016808D01*
X003075Y016746D01*
X003043Y016685D01*
X003007Y016627D01*
X002967Y016571D01*
X002925Y016517D01*
X002879Y016466D01*
X002830Y016417D01*
X002779Y016371D01*
X002725Y016329D01*
X002669Y016289D01*
X002611Y016253D01*
X002550Y016221D01*
X002488Y016192D01*
X002424Y016166D01*
X002359Y016145D01*
X002292Y016127D01*
X002225Y016113D01*
X002157Y016103D01*
X002089Y016097D01*
X002020Y016095D01*
X001951Y016097D01*
X001883Y016103D01*
X001815Y016113D01*
X001748Y016127D01*
X001681Y016145D01*
X001616Y016166D01*
X001552Y016192D01*
X001490Y016221D01*
X001429Y016253D01*
X001371Y016289D01*
X001315Y016329D01*
X001261Y016371D01*
X001210Y016417D01*
X001161Y016466D01*
X001115Y016517D01*
X001073Y016571D01*
X001033Y016627D01*
X000997Y016685D01*
X000965Y016746D01*
X000936Y016808D01*
X000910Y016872D01*
X000889Y016937D01*
X000871Y017004D01*
X000857Y017071D01*
X000847Y017139D01*
X000841Y017207D01*
X000839Y017276D01*
X000839Y014520D02*
X000841Y014589D01*
X000847Y014657D01*
X000857Y014725D01*
X000871Y014792D01*
X000889Y014859D01*
X000910Y014924D01*
X000936Y014988D01*
X000965Y015050D01*
X000997Y015110D01*
X001033Y015169D01*
X001073Y015225D01*
X001115Y015279D01*
X001161Y015330D01*
X001210Y015379D01*
X001261Y015425D01*
X001315Y015467D01*
X001371Y015507D01*
X001429Y015543D01*
X001490Y015575D01*
X001552Y015604D01*
X001616Y015630D01*
X001681Y015651D01*
X001748Y015669D01*
X001815Y015683D01*
X001883Y015693D01*
X001951Y015699D01*
X002020Y015701D01*
X002089Y015699D01*
X002157Y015693D01*
X002225Y015683D01*
X002292Y015669D01*
X002359Y015651D01*
X002424Y015630D01*
X002488Y015604D01*
X002550Y015575D01*
X002610Y015543D01*
X002669Y015507D01*
X002725Y015467D01*
X002779Y015425D01*
X002830Y015379D01*
X002879Y015330D01*
X002925Y015279D01*
X002967Y015225D01*
X003007Y015169D01*
X003043Y015110D01*
X003075Y015050D01*
X003104Y014988D01*
X003130Y014924D01*
X003151Y014859D01*
X003169Y014792D01*
X003183Y014725D01*
X003193Y014657D01*
X003199Y014589D01*
X003201Y014520D01*
X003199Y014451D01*
X003193Y014383D01*
X003183Y014315D01*
X003169Y014248D01*
X003151Y014181D01*
X003130Y014116D01*
X003104Y014052D01*
X003075Y013990D01*
X003043Y013929D01*
X003007Y013871D01*
X002967Y013815D01*
X002925Y013761D01*
X002879Y013710D01*
X002830Y013661D01*
X002779Y013615D01*
X002725Y013573D01*
X002669Y013533D01*
X002611Y013497D01*
X002550Y013465D01*
X002488Y013436D01*
X002424Y013410D01*
X002359Y013389D01*
X002292Y013371D01*
X002225Y013357D01*
X002157Y013347D01*
X002089Y013341D01*
X002020Y013339D01*
X001951Y013341D01*
X001883Y013347D01*
X001815Y013357D01*
X001748Y013371D01*
X001681Y013389D01*
X001616Y013410D01*
X001552Y013436D01*
X001490Y013465D01*
X001429Y013497D01*
X001371Y013533D01*
X001315Y013573D01*
X001261Y013615D01*
X001210Y013661D01*
X001161Y013710D01*
X001115Y013761D01*
X001073Y013815D01*
X001033Y013871D01*
X000997Y013929D01*
X000965Y013990D01*
X000936Y014052D01*
X000910Y014116D01*
X000889Y014181D01*
X000871Y014248D01*
X000857Y014315D01*
X000847Y014383D01*
X000841Y014451D01*
X000839Y014520D01*
X000839Y011764D02*
X000841Y011833D01*
X000847Y011901D01*
X000857Y011969D01*
X000871Y012036D01*
X000889Y012103D01*
X000910Y012168D01*
X000936Y012232D01*
X000965Y012294D01*
X000997Y012354D01*
X001033Y012413D01*
X001073Y012469D01*
X001115Y012523D01*
X001161Y012574D01*
X001210Y012623D01*
X001261Y012669D01*
X001315Y012711D01*
X001371Y012751D01*
X001429Y012787D01*
X001490Y012819D01*
X001552Y012848D01*
X001616Y012874D01*
X001681Y012895D01*
X001748Y012913D01*
X001815Y012927D01*
X001883Y012937D01*
X001951Y012943D01*
X002020Y012945D01*
X002089Y012943D01*
X002157Y012937D01*
X002225Y012927D01*
X002292Y012913D01*
X002359Y012895D01*
X002424Y012874D01*
X002488Y012848D01*
X002550Y012819D01*
X002610Y012787D01*
X002669Y012751D01*
X002725Y012711D01*
X002779Y012669D01*
X002830Y012623D01*
X002879Y012574D01*
X002925Y012523D01*
X002967Y012469D01*
X003007Y012413D01*
X003043Y012354D01*
X003075Y012294D01*
X003104Y012232D01*
X003130Y012168D01*
X003151Y012103D01*
X003169Y012036D01*
X003183Y011969D01*
X003193Y011901D01*
X003199Y011833D01*
X003201Y011764D01*
X003199Y011695D01*
X003193Y011627D01*
X003183Y011559D01*
X003169Y011492D01*
X003151Y011425D01*
X003130Y011360D01*
X003104Y011296D01*
X003075Y011234D01*
X003043Y011173D01*
X003007Y011115D01*
X002967Y011059D01*
X002925Y011005D01*
X002879Y010954D01*
X002830Y010905D01*
X002779Y010859D01*
X002725Y010817D01*
X002669Y010777D01*
X002611Y010741D01*
X002550Y010709D01*
X002488Y010680D01*
X002424Y010654D01*
X002359Y010633D01*
X002292Y010615D01*
X002225Y010601D01*
X002157Y010591D01*
X002089Y010585D01*
X002020Y010583D01*
X001951Y010585D01*
X001883Y010591D01*
X001815Y010601D01*
X001748Y010615D01*
X001681Y010633D01*
X001616Y010654D01*
X001552Y010680D01*
X001490Y010709D01*
X001429Y010741D01*
X001371Y010777D01*
X001315Y010817D01*
X001261Y010859D01*
X001210Y010905D01*
X001161Y010954D01*
X001115Y011005D01*
X001073Y011059D01*
X001033Y011115D01*
X000997Y011173D01*
X000965Y011234D01*
X000936Y011296D01*
X000910Y011360D01*
X000889Y011425D01*
X000871Y011492D01*
X000857Y011559D01*
X000847Y011627D01*
X000841Y011695D01*
X000839Y011764D01*
X000839Y009008D02*
X000841Y009077D01*
X000847Y009145D01*
X000857Y009213D01*
X000871Y009280D01*
X000889Y009347D01*
X000910Y009412D01*
X000936Y009476D01*
X000965Y009538D01*
X000997Y009598D01*
X001033Y009657D01*
X001073Y009713D01*
X001115Y009767D01*
X001161Y009818D01*
X001210Y009867D01*
X001261Y009913D01*
X001315Y009955D01*
X001371Y009995D01*
X001429Y010031D01*
X001490Y010063D01*
X001552Y010092D01*
X001616Y010118D01*
X001681Y010139D01*
X001748Y010157D01*
X001815Y010171D01*
X001883Y010181D01*
X001951Y010187D01*
X002020Y010189D01*
X002089Y010187D01*
X002157Y010181D01*
X002225Y010171D01*
X002292Y010157D01*
X002359Y010139D01*
X002424Y010118D01*
X002488Y010092D01*
X002550Y010063D01*
X002610Y010031D01*
X002669Y009995D01*
X002725Y009955D01*
X002779Y009913D01*
X002830Y009867D01*
X002879Y009818D01*
X002925Y009767D01*
X002967Y009713D01*
X003007Y009657D01*
X003043Y009598D01*
X003075Y009538D01*
X003104Y009476D01*
X003130Y009412D01*
X003151Y009347D01*
X003169Y009280D01*
X003183Y009213D01*
X003193Y009145D01*
X003199Y009077D01*
X003201Y009008D01*
X003199Y008939D01*
X003193Y008871D01*
X003183Y008803D01*
X003169Y008736D01*
X003151Y008669D01*
X003130Y008604D01*
X003104Y008540D01*
X003075Y008478D01*
X003043Y008417D01*
X003007Y008359D01*
X002967Y008303D01*
X002925Y008249D01*
X002879Y008198D01*
X002830Y008149D01*
X002779Y008103D01*
X002725Y008061D01*
X002669Y008021D01*
X002611Y007985D01*
X002550Y007953D01*
X002488Y007924D01*
X002424Y007898D01*
X002359Y007877D01*
X002292Y007859D01*
X002225Y007845D01*
X002157Y007835D01*
X002089Y007829D01*
X002020Y007827D01*
X001951Y007829D01*
X001883Y007835D01*
X001815Y007845D01*
X001748Y007859D01*
X001681Y007877D01*
X001616Y007898D01*
X001552Y007924D01*
X001490Y007953D01*
X001429Y007985D01*
X001371Y008021D01*
X001315Y008061D01*
X001261Y008103D01*
X001210Y008149D01*
X001161Y008198D01*
X001115Y008249D01*
X001073Y008303D01*
X001033Y008359D01*
X000997Y008417D01*
X000965Y008478D01*
X000936Y008540D01*
X000910Y008604D01*
X000889Y008669D01*
X000871Y008736D01*
X000857Y008803D01*
X000847Y008871D01*
X000841Y008939D01*
X000839Y009008D01*
X001362Y005465D02*
X001364Y005532D01*
X001370Y005600D01*
X001380Y005667D01*
X001394Y005733D01*
X001411Y005798D01*
X001433Y005862D01*
X001458Y005925D01*
X001487Y005986D01*
X001519Y006045D01*
X001555Y006102D01*
X001594Y006157D01*
X001636Y006210D01*
X001681Y006260D01*
X001729Y006307D01*
X001780Y006352D01*
X001833Y006393D01*
X001889Y006432D01*
X001947Y006467D01*
X002007Y006498D01*
X002068Y006526D01*
X002131Y006550D01*
X002195Y006571D01*
X002261Y006587D01*
X002327Y006600D01*
X002394Y006609D01*
X002461Y006614D01*
X002529Y006615D01*
X002596Y006612D01*
X002663Y006605D01*
X002730Y006594D01*
X002796Y006579D01*
X002861Y006561D01*
X002925Y006538D01*
X002987Y006512D01*
X003048Y006483D01*
X003106Y006449D01*
X003163Y006413D01*
X003218Y006373D01*
X003270Y006330D01*
X003319Y006284D01*
X003366Y006235D01*
X003410Y006184D01*
X003450Y006130D01*
X003488Y006074D01*
X003522Y006015D01*
X003552Y005955D01*
X003579Y005893D01*
X003603Y005830D01*
X003622Y005765D01*
X003638Y005700D01*
X003650Y005633D01*
X003658Y005566D01*
X003662Y005499D01*
X003662Y005431D01*
X003658Y005364D01*
X003650Y005297D01*
X003638Y005230D01*
X003622Y005165D01*
X003603Y005100D01*
X003579Y005037D01*
X003552Y004975D01*
X003522Y004915D01*
X003488Y004856D01*
X003450Y004800D01*
X003410Y004746D01*
X003366Y004695D01*
X003319Y004646D01*
X003270Y004600D01*
X003218Y004557D01*
X003163Y004517D01*
X003106Y004481D01*
X003048Y004447D01*
X002987Y004418D01*
X002925Y004392D01*
X002861Y004369D01*
X002796Y004351D01*
X002730Y004336D01*
X002663Y004325D01*
X002596Y004318D01*
X002529Y004315D01*
X002461Y004316D01*
X002394Y004321D01*
X002327Y004330D01*
X002261Y004343D01*
X002195Y004359D01*
X002131Y004380D01*
X002068Y004404D01*
X002007Y004432D01*
X001947Y004463D01*
X001889Y004498D01*
X001833Y004537D01*
X001780Y004578D01*
X001729Y004623D01*
X001681Y004670D01*
X001636Y004720D01*
X001594Y004773D01*
X001555Y004828D01*
X001519Y004885D01*
X001487Y004944D01*
X001458Y005005D01*
X001433Y005068D01*
X001411Y005132D01*
X001394Y005197D01*
X001380Y005263D01*
X001370Y005330D01*
X001364Y005398D01*
X001362Y005465D01*
X012919Y005103D02*
X017169Y005103D01*
X017169Y019152D01*
X016093Y019152D01*
X016111Y019158D02*
X016111Y005208D01*
X016111Y005158D02*
X015611Y005158D01*
X015609Y005202D01*
X015603Y005245D01*
X015594Y005287D01*
X015581Y005329D01*
X015564Y005369D01*
X015544Y005408D01*
X015521Y005445D01*
X015494Y005479D01*
X015465Y005512D01*
X015432Y005541D01*
X015398Y005568D01*
X015361Y005591D01*
X015322Y005611D01*
X015282Y005628D01*
X015240Y005641D01*
X015198Y005650D01*
X015155Y005656D01*
X015111Y005658D01*
X015067Y005656D01*
X015024Y005650D01*
X014982Y005641D01*
X014940Y005628D01*
X014900Y005611D01*
X014861Y005591D01*
X014824Y005568D01*
X014790Y005541D01*
X014757Y005512D01*
X014728Y005479D01*
X014701Y005445D01*
X014678Y005408D01*
X014658Y005369D01*
X014641Y005329D01*
X014628Y005287D01*
X014619Y005245D01*
X014613Y005202D01*
X014611Y005158D01*
X014111Y005158D01*
X014111Y019158D01*
X016111Y019158D01*
X014093Y019152D02*
X012919Y019152D01*
X012919Y005103D01*
X024544Y005243D02*
X024544Y004743D01*
X024794Y004493D01*
X024544Y004243D01*
X024544Y003743D01*
X024794Y003493D01*
X026294Y003493D01*
X026544Y003743D01*
X026544Y004243D01*
X026294Y004493D01*
X024794Y004493D01*
X024544Y005243D02*
X024794Y005493D01*
X026294Y005493D01*
X026544Y005243D01*
X026544Y004743D01*
X026294Y004493D01*
X026294Y005493D02*
X026544Y005743D01*
X026544Y006243D01*
X026294Y006493D01*
X024794Y006493D01*
X024544Y006743D01*
X024544Y007243D01*
X024794Y007493D01*
X026294Y007493D01*
X026544Y007243D01*
X026544Y006743D01*
X026294Y006493D01*
X026294Y007493D02*
X026544Y007743D01*
X026544Y008243D01*
X026294Y008493D01*
X024794Y008493D01*
X024544Y008743D01*
X024544Y009243D01*
X024794Y009493D01*
X026294Y009493D01*
X026544Y009243D01*
X026544Y008743D01*
X026294Y008493D01*
X024794Y008493D02*
X024544Y008243D01*
X024544Y007743D01*
X024794Y007493D01*
X024794Y006493D02*
X024544Y006243D01*
X024544Y005743D01*
X024794Y005493D01*
X024794Y009493D02*
X024544Y009743D01*
X024544Y010243D01*
X024794Y010493D01*
X026294Y010493D01*
X026544Y010243D01*
X026544Y009743D01*
X026294Y009493D01*
X026294Y010493D02*
X026544Y010743D01*
X026544Y011243D01*
X026294Y011493D01*
X024794Y011493D01*
X024544Y011243D01*
X024544Y010743D01*
X024794Y010493D01*
X024794Y011493D02*
X024544Y011743D01*
X024544Y012243D01*
X024794Y012493D01*
X026294Y012493D01*
X026544Y012243D01*
X026544Y011743D01*
X026294Y011493D01*
X026294Y012493D02*
X026544Y012743D01*
X026544Y013243D01*
X026294Y013493D01*
X024794Y013493D01*
X024544Y013243D01*
X024544Y012743D01*
X024794Y012493D01*
X024794Y013493D02*
X024544Y013743D01*
X024544Y014243D01*
X024794Y014493D01*
X026294Y014493D01*
X026544Y014243D01*
X026544Y013743D01*
X026294Y013493D01*
X026294Y014493D02*
X026544Y014743D01*
X026544Y015243D01*
X026294Y015493D01*
X024794Y015493D01*
X024544Y015243D01*
X024544Y014743D01*
X024794Y014493D01*
X024794Y015493D02*
X024544Y015743D01*
X024544Y016243D01*
X024794Y016493D01*
X026294Y016493D01*
X026544Y016243D01*
X026544Y015743D01*
X026294Y015493D01*
X031843Y017325D02*
X031843Y009353D01*
X036174Y009353D01*
X036174Y017325D01*
X031843Y017325D01*
X032858Y017339D02*
X033608Y017339D01*
X033610Y017300D01*
X033616Y017261D01*
X033625Y017223D01*
X033638Y017186D01*
X033655Y017150D01*
X033675Y017117D01*
X033699Y017085D01*
X033725Y017056D01*
X033754Y017030D01*
X033786Y017006D01*
X033819Y016986D01*
X033855Y016969D01*
X033892Y016956D01*
X033930Y016947D01*
X033969Y016941D01*
X034008Y016939D01*
X034047Y016941D01*
X034086Y016947D01*
X034124Y016956D01*
X034161Y016969D01*
X034197Y016986D01*
X034230Y017006D01*
X034262Y017030D01*
X034291Y017056D01*
X034317Y017085D01*
X034341Y017117D01*
X034361Y017150D01*
X034378Y017186D01*
X034391Y017223D01*
X034400Y017261D01*
X034406Y017300D01*
X034408Y017339D01*
X035158Y017339D01*
X035158Y009339D01*
X032858Y009339D01*
X032858Y017339D01*
X036795Y021213D02*
X036797Y021280D01*
X036803Y021348D01*
X036813Y021415D01*
X036827Y021481D01*
X036844Y021546D01*
X036866Y021610D01*
X036891Y021673D01*
X036920Y021734D01*
X036952Y021793D01*
X036988Y021850D01*
X037027Y021905D01*
X037069Y021958D01*
X037114Y022008D01*
X037162Y022055D01*
X037213Y022100D01*
X037266Y022141D01*
X037322Y022180D01*
X037380Y022215D01*
X037440Y022246D01*
X037501Y022274D01*
X037564Y022298D01*
X037628Y022319D01*
X037694Y022335D01*
X037760Y022348D01*
X037827Y022357D01*
X037894Y022362D01*
X037962Y022363D01*
X038029Y022360D01*
X038096Y022353D01*
X038163Y022342D01*
X038229Y022327D01*
X038294Y022309D01*
X038358Y022286D01*
X038420Y022260D01*
X038481Y022231D01*
X038539Y022197D01*
X038596Y022161D01*
X038651Y022121D01*
X038703Y022078D01*
X038752Y022032D01*
X038799Y021983D01*
X038843Y021932D01*
X038883Y021878D01*
X038921Y021822D01*
X038955Y021763D01*
X038985Y021703D01*
X039012Y021641D01*
X039036Y021578D01*
X039055Y021513D01*
X039071Y021448D01*
X039083Y021381D01*
X039091Y021314D01*
X039095Y021247D01*
X039095Y021179D01*
X039091Y021112D01*
X039083Y021045D01*
X039071Y020978D01*
X039055Y020913D01*
X039036Y020848D01*
X039012Y020785D01*
X038985Y020723D01*
X038955Y020663D01*
X038921Y020604D01*
X038883Y020548D01*
X038843Y020494D01*
X038799Y020443D01*
X038752Y020394D01*
X038703Y020348D01*
X038651Y020305D01*
X038596Y020265D01*
X038539Y020229D01*
X038481Y020195D01*
X038420Y020166D01*
X038358Y020140D01*
X038294Y020117D01*
X038229Y020099D01*
X038163Y020084D01*
X038096Y020073D01*
X038029Y020066D01*
X037962Y020063D01*
X037894Y020064D01*
X037827Y020069D01*
X037760Y020078D01*
X037694Y020091D01*
X037628Y020107D01*
X037564Y020128D01*
X037501Y020152D01*
X037440Y020180D01*
X037380Y020211D01*
X037322Y020246D01*
X037266Y020285D01*
X037213Y020326D01*
X037162Y020371D01*
X037114Y020418D01*
X037069Y020468D01*
X037027Y020521D01*
X036988Y020576D01*
X036952Y020633D01*
X036920Y020692D01*
X036891Y020753D01*
X036866Y020816D01*
X036844Y020880D01*
X036827Y020945D01*
X036813Y021011D01*
X036803Y021078D01*
X036797Y021146D01*
X036795Y021213D01*
X011886Y017920D02*
X011886Y017420D01*
X011636Y017170D01*
X011136Y017170D01*
X010886Y017420D01*
X010636Y017170D01*
X010136Y017170D01*
X009886Y017420D01*
X009636Y017170D01*
X009136Y017170D01*
X008886Y017420D01*
X008886Y017920D01*
X009136Y018170D01*
X009636Y018170D01*
X009886Y017920D01*
X010136Y018170D01*
X010636Y018170D01*
X010886Y017920D01*
X011136Y018170D01*
X011636Y018170D01*
X011886Y017920D01*
X010886Y017920D02*
X010886Y017420D01*
X010636Y016989D02*
X010136Y016989D01*
X009886Y016739D01*
X009886Y016239D01*
X010136Y015989D01*
X010636Y015989D01*
X010886Y016239D01*
X011136Y015989D01*
X011636Y015989D01*
X011886Y016239D01*
X011886Y016739D01*
X011636Y016989D01*
X011136Y016989D01*
X010886Y016739D01*
X010886Y016239D01*
X010636Y015807D02*
X010136Y015807D01*
X009886Y015557D01*
X009886Y015057D01*
X010136Y014807D01*
X010636Y014807D01*
X010886Y015057D01*
X011136Y014807D01*
X011636Y014807D01*
X011886Y015057D01*
X011886Y015557D01*
X011636Y015807D01*
X011136Y015807D01*
X010886Y015557D01*
X010886Y015057D01*
X010886Y015557D02*
X010636Y015807D01*
X009886Y015557D02*
X009636Y015807D01*
X009136Y015807D01*
X008886Y015557D01*
X008886Y015057D01*
X009136Y014807D01*
X009636Y014807D01*
X009886Y015057D01*
X009636Y015989D02*
X009136Y015989D01*
X008886Y016239D01*
X008886Y016739D01*
X009136Y016989D01*
X009636Y016989D01*
X009886Y016739D01*
X009886Y016239D02*
X009636Y015989D01*
X010636Y016989D02*
X010886Y016739D01*
X009886Y017420D02*
X009886Y017920D01*
X001362Y021213D02*
X001364Y021280D01*
X001370Y021348D01*
X001380Y021415D01*
X001394Y021481D01*
X001411Y021546D01*
X001433Y021610D01*
X001458Y021673D01*
X001487Y021734D01*
X001519Y021793D01*
X001555Y021850D01*
X001594Y021905D01*
X001636Y021958D01*
X001681Y022008D01*
X001729Y022055D01*
X001780Y022100D01*
X001833Y022141D01*
X001889Y022180D01*
X001947Y022215D01*
X002007Y022246D01*
X002068Y022274D01*
X002131Y022298D01*
X002195Y022319D01*
X002261Y022335D01*
X002327Y022348D01*
X002394Y022357D01*
X002461Y022362D01*
X002529Y022363D01*
X002596Y022360D01*
X002663Y022353D01*
X002730Y022342D01*
X002796Y022327D01*
X002861Y022309D01*
X002925Y022286D01*
X002987Y022260D01*
X003048Y022231D01*
X003106Y022197D01*
X003163Y022161D01*
X003218Y022121D01*
X003270Y022078D01*
X003319Y022032D01*
X003366Y021983D01*
X003410Y021932D01*
X003450Y021878D01*
X003488Y021822D01*
X003522Y021763D01*
X003552Y021703D01*
X003579Y021641D01*
X003603Y021578D01*
X003622Y021513D01*
X003638Y021448D01*
X003650Y021381D01*
X003658Y021314D01*
X003662Y021247D01*
X003662Y021179D01*
X003658Y021112D01*
X003650Y021045D01*
X003638Y020978D01*
X003622Y020913D01*
X003603Y020848D01*
X003579Y020785D01*
X003552Y020723D01*
X003522Y020663D01*
X003488Y020604D01*
X003450Y020548D01*
X003410Y020494D01*
X003366Y020443D01*
X003319Y020394D01*
X003270Y020348D01*
X003218Y020305D01*
X003163Y020265D01*
X003106Y020229D01*
X003048Y020195D01*
X002987Y020166D01*
X002925Y020140D01*
X002861Y020117D01*
X002796Y020099D01*
X002730Y020084D01*
X002663Y020073D01*
X002596Y020066D01*
X002529Y020063D01*
X002461Y020064D01*
X002394Y020069D01*
X002327Y020078D01*
X002261Y020091D01*
X002195Y020107D01*
X002131Y020128D01*
X002068Y020152D01*
X002007Y020180D01*
X001947Y020211D01*
X001889Y020246D01*
X001833Y020285D01*
X001780Y020326D01*
X001729Y020371D01*
X001681Y020418D01*
X001636Y020468D01*
X001594Y020521D01*
X001555Y020576D01*
X001519Y020633D01*
X001487Y020692D01*
X001458Y020753D01*
X001433Y020816D01*
X001411Y020880D01*
X001394Y020945D01*
X001380Y021011D01*
X001370Y021078D01*
X001364Y021146D01*
X001362Y021213D01*
X036795Y005465D02*
X036797Y005532D01*
X036803Y005600D01*
X036813Y005667D01*
X036827Y005733D01*
X036844Y005798D01*
X036866Y005862D01*
X036891Y005925D01*
X036920Y005986D01*
X036952Y006045D01*
X036988Y006102D01*
X037027Y006157D01*
X037069Y006210D01*
X037114Y006260D01*
X037162Y006307D01*
X037213Y006352D01*
X037266Y006393D01*
X037322Y006432D01*
X037380Y006467D01*
X037440Y006498D01*
X037501Y006526D01*
X037564Y006550D01*
X037628Y006571D01*
X037694Y006587D01*
X037760Y006600D01*
X037827Y006609D01*
X037894Y006614D01*
X037962Y006615D01*
X038029Y006612D01*
X038096Y006605D01*
X038163Y006594D01*
X038229Y006579D01*
X038294Y006561D01*
X038358Y006538D01*
X038420Y006512D01*
X038481Y006483D01*
X038539Y006449D01*
X038596Y006413D01*
X038651Y006373D01*
X038703Y006330D01*
X038752Y006284D01*
X038799Y006235D01*
X038843Y006184D01*
X038883Y006130D01*
X038921Y006074D01*
X038955Y006015D01*
X038985Y005955D01*
X039012Y005893D01*
X039036Y005830D01*
X039055Y005765D01*
X039071Y005700D01*
X039083Y005633D01*
X039091Y005566D01*
X039095Y005499D01*
X039095Y005431D01*
X039091Y005364D01*
X039083Y005297D01*
X039071Y005230D01*
X039055Y005165D01*
X039036Y005100D01*
X039012Y005037D01*
X038985Y004975D01*
X038955Y004915D01*
X038921Y004856D01*
X038883Y004800D01*
X038843Y004746D01*
X038799Y004695D01*
X038752Y004646D01*
X038703Y004600D01*
X038651Y004557D01*
X038596Y004517D01*
X038539Y004481D01*
X038481Y004447D01*
X038420Y004418D01*
X038358Y004392D01*
X038294Y004369D01*
X038229Y004351D01*
X038163Y004336D01*
X038096Y004325D01*
X038029Y004318D01*
X037962Y004315D01*
X037894Y004316D01*
X037827Y004321D01*
X037760Y004330D01*
X037694Y004343D01*
X037628Y004359D01*
X037564Y004380D01*
X037501Y004404D01*
X037440Y004432D01*
X037380Y004463D01*
X037322Y004498D01*
X037266Y004537D01*
X037213Y004578D01*
X037162Y004623D01*
X037114Y004670D01*
X037069Y004720D01*
X037027Y004773D01*
X036988Y004828D01*
X036952Y004885D01*
X036920Y004944D01*
X036891Y005005D01*
X036866Y005068D01*
X036844Y005132D01*
X036827Y005197D01*
X036813Y005263D01*
X036803Y005330D01*
X036797Y005398D01*
X036795Y005465D01*
D14*
X037354Y005465D02*
X037356Y005513D01*
X037362Y005561D01*
X037372Y005608D01*
X037385Y005654D01*
X037403Y005699D01*
X037423Y005743D01*
X037448Y005785D01*
X037476Y005824D01*
X037506Y005861D01*
X037540Y005895D01*
X037577Y005927D01*
X037615Y005956D01*
X037656Y005981D01*
X037699Y006003D01*
X037744Y006021D01*
X037790Y006035D01*
X037837Y006046D01*
X037885Y006053D01*
X037933Y006056D01*
X037981Y006055D01*
X038029Y006050D01*
X038077Y006041D01*
X038123Y006029D01*
X038168Y006012D01*
X038212Y005992D01*
X038254Y005969D01*
X038294Y005942D01*
X038332Y005912D01*
X038367Y005879D01*
X038399Y005843D01*
X038429Y005805D01*
X038455Y005764D01*
X038477Y005721D01*
X038497Y005677D01*
X038512Y005632D01*
X038524Y005585D01*
X038532Y005537D01*
X038536Y005489D01*
X038536Y005441D01*
X038532Y005393D01*
X038524Y005345D01*
X038512Y005298D01*
X038497Y005253D01*
X038477Y005209D01*
X038455Y005166D01*
X038429Y005125D01*
X038399Y005087D01*
X038367Y005051D01*
X038332Y005018D01*
X038294Y004988D01*
X038254Y004961D01*
X038212Y004938D01*
X038168Y004918D01*
X038123Y004901D01*
X038077Y004889D01*
X038029Y004880D01*
X037981Y004875D01*
X037933Y004874D01*
X037885Y004877D01*
X037837Y004884D01*
X037790Y004895D01*
X037744Y004909D01*
X037699Y004927D01*
X037656Y004949D01*
X037615Y004974D01*
X037577Y005003D01*
X037540Y005035D01*
X037506Y005069D01*
X037476Y005106D01*
X037448Y005145D01*
X037423Y005187D01*
X037403Y005231D01*
X037385Y005276D01*
X037372Y005322D01*
X037362Y005369D01*
X037356Y005417D01*
X037354Y005465D01*
X030124Y013823D02*
X028624Y013823D01*
X028374Y014073D01*
X028374Y014573D01*
X028624Y014823D01*
X030124Y014823D01*
X030374Y015073D01*
X030374Y015573D01*
X030124Y015823D01*
X028624Y015823D01*
X028374Y016073D01*
X028374Y016573D01*
X028624Y016823D01*
X030124Y016823D01*
X030374Y016573D01*
X030374Y016073D01*
X030124Y015823D01*
X030124Y014823D02*
X030374Y014573D01*
X030374Y014073D01*
X030124Y013823D01*
X030506Y014073D02*
X030506Y014573D01*
X028624Y014823D02*
X028374Y015073D01*
X028374Y015573D01*
X028624Y015823D01*
X028550Y018500D02*
X028050Y018500D01*
X027800Y018750D01*
X027800Y019250D01*
X028050Y019500D01*
X027800Y019750D01*
X027800Y020250D01*
X028050Y020500D01*
X027800Y020750D01*
X027800Y021250D01*
X028050Y021500D01*
X027800Y021750D01*
X027800Y022250D01*
X028050Y022500D01*
X028550Y022500D01*
X028800Y022250D01*
X028800Y021750D01*
X028550Y021500D01*
X028800Y021250D01*
X028800Y020750D01*
X028550Y020500D01*
X028800Y020250D01*
X028800Y019750D01*
X028550Y019500D01*
X028800Y019250D01*
X028800Y018750D01*
X028550Y018500D01*
X020744Y021554D02*
X020744Y022054D01*
X020494Y022304D01*
X019994Y022304D01*
X019744Y022054D01*
X019494Y022304D01*
X018994Y022304D01*
X018744Y022054D01*
X018744Y021554D01*
X018994Y021304D01*
X019494Y021304D01*
X019744Y021554D01*
X019994Y021304D01*
X020494Y021304D01*
X020744Y021554D01*
X019691Y020138D02*
X019191Y020138D01*
X018941Y019888D01*
X018941Y019388D01*
X019191Y019138D01*
X018941Y018888D01*
X018941Y018388D01*
X019191Y018138D01*
X019691Y018138D01*
X019941Y018388D01*
X019941Y018888D01*
X019691Y019138D01*
X019941Y019388D01*
X019941Y019888D01*
X019691Y020138D01*
X018398Y021554D02*
X018148Y021304D01*
X017648Y021304D01*
X017398Y021554D01*
X017148Y021304D01*
X016648Y021304D01*
X016398Y021554D01*
X016148Y021304D01*
X015648Y021304D01*
X015398Y021554D01*
X015398Y022054D01*
X015648Y022304D01*
X016148Y022304D01*
X016398Y022054D01*
X016648Y022304D01*
X017148Y022304D01*
X017398Y022054D01*
X017648Y022304D01*
X018148Y022304D01*
X018398Y022054D01*
X018398Y021554D01*
X015052Y021554D02*
X015052Y022054D01*
X014802Y022304D01*
X014302Y022304D01*
X014052Y022054D01*
X013802Y022304D01*
X013302Y022304D01*
X013052Y022054D01*
X012802Y022304D01*
X012302Y022304D01*
X012052Y022054D01*
X012052Y021554D01*
X012302Y021304D01*
X012802Y021304D01*
X013052Y021554D01*
X013302Y021304D01*
X013802Y021304D01*
X014052Y021554D01*
X014302Y021304D01*
X014802Y021304D01*
X015052Y021554D01*
X011689Y021554D02*
X011439Y021304D01*
X010939Y021304D01*
X010689Y021554D01*
X010439Y021304D01*
X009939Y021304D01*
X009689Y021554D01*
X009689Y022054D01*
X009939Y022304D01*
X010439Y022304D01*
X010689Y022054D01*
X010939Y022304D01*
X011439Y022304D01*
X011689Y022054D01*
X011689Y021554D01*
X009327Y021554D02*
X009077Y021304D01*
X008577Y021304D01*
X008327Y021554D01*
X008077Y021304D01*
X007577Y021304D01*
X007327Y021554D01*
X007327Y022054D01*
X007577Y022304D01*
X008077Y022304D01*
X008327Y022054D01*
X008577Y022304D01*
X009077Y022304D01*
X009327Y022054D01*
X009327Y021554D01*
X006965Y021554D02*
X006965Y022054D01*
X006715Y022304D01*
X006215Y022304D01*
X005965Y022054D01*
X005715Y022304D01*
X005215Y022304D01*
X004965Y022054D01*
X004965Y021554D01*
X005215Y021304D01*
X005715Y021304D01*
X005965Y021554D01*
X006215Y021304D01*
X006715Y021304D01*
X006965Y021554D01*
X001921Y021213D02*
X001923Y021261D01*
X001929Y021309D01*
X001939Y021356D01*
X001952Y021402D01*
X001970Y021447D01*
X001990Y021491D01*
X002015Y021533D01*
X002043Y021572D01*
X002073Y021609D01*
X002107Y021643D01*
X002144Y021675D01*
X002182Y021704D01*
X002223Y021729D01*
X002266Y021751D01*
X002311Y021769D01*
X002357Y021783D01*
X002404Y021794D01*
X002452Y021801D01*
X002500Y021804D01*
X002548Y021803D01*
X002596Y021798D01*
X002644Y021789D01*
X002690Y021777D01*
X002735Y021760D01*
X002779Y021740D01*
X002821Y021717D01*
X002861Y021690D01*
X002899Y021660D01*
X002934Y021627D01*
X002966Y021591D01*
X002996Y021553D01*
X003022Y021512D01*
X003044Y021469D01*
X003064Y021425D01*
X003079Y021380D01*
X003091Y021333D01*
X003099Y021285D01*
X003103Y021237D01*
X003103Y021189D01*
X003099Y021141D01*
X003091Y021093D01*
X003079Y021046D01*
X003064Y021001D01*
X003044Y020957D01*
X003022Y020914D01*
X002996Y020873D01*
X002966Y020835D01*
X002934Y020799D01*
X002899Y020766D01*
X002861Y020736D01*
X002821Y020709D01*
X002779Y020686D01*
X002735Y020666D01*
X002690Y020649D01*
X002644Y020637D01*
X002596Y020628D01*
X002548Y020623D01*
X002500Y020622D01*
X002452Y020625D01*
X002404Y020632D01*
X002357Y020643D01*
X002311Y020657D01*
X002266Y020675D01*
X002223Y020697D01*
X002182Y020722D01*
X002144Y020751D01*
X002107Y020783D01*
X002073Y020817D01*
X002043Y020854D01*
X002015Y020893D01*
X001990Y020935D01*
X001970Y020979D01*
X001952Y021024D01*
X001939Y021070D01*
X001929Y021117D01*
X001923Y021165D01*
X001921Y021213D01*
X001762Y017776D02*
X001262Y017776D01*
X001012Y017526D01*
X001012Y017026D01*
X001262Y016776D01*
X001762Y016776D01*
X002012Y017026D01*
X002262Y016776D01*
X002762Y016776D01*
X003012Y017026D01*
X003012Y017526D01*
X002762Y017776D01*
X002262Y017776D01*
X002012Y017526D01*
X001762Y017776D01*
X001762Y015020D02*
X001262Y015020D01*
X001012Y014770D01*
X001012Y014270D01*
X001262Y014020D01*
X001762Y014020D01*
X002012Y014270D01*
X002262Y014020D01*
X002762Y014020D01*
X003012Y014270D01*
X003012Y014770D01*
X002762Y015020D01*
X002262Y015020D01*
X002012Y014770D01*
X001762Y015020D01*
X001762Y012264D02*
X001262Y012264D01*
X001012Y012014D01*
X001012Y011514D01*
X001262Y011264D01*
X001762Y011264D01*
X002012Y011514D01*
X002262Y011264D01*
X002762Y011264D01*
X003012Y011514D01*
X003012Y012014D01*
X002762Y012264D01*
X002262Y012264D01*
X002012Y012014D01*
X001762Y012264D01*
X001762Y009508D02*
X001262Y009508D01*
X001012Y009258D01*
X001012Y008758D01*
X001262Y008508D01*
X001762Y008508D01*
X002012Y008758D01*
X002262Y008508D01*
X002762Y008508D01*
X003012Y008758D01*
X003012Y009258D01*
X002762Y009508D01*
X002262Y009508D01*
X002012Y009258D01*
X001762Y009508D01*
X001921Y005465D02*
X001923Y005513D01*
X001929Y005561D01*
X001939Y005608D01*
X001952Y005654D01*
X001970Y005699D01*
X001990Y005743D01*
X002015Y005785D01*
X002043Y005824D01*
X002073Y005861D01*
X002107Y005895D01*
X002144Y005927D01*
X002182Y005956D01*
X002223Y005981D01*
X002266Y006003D01*
X002311Y006021D01*
X002357Y006035D01*
X002404Y006046D01*
X002452Y006053D01*
X002500Y006056D01*
X002548Y006055D01*
X002596Y006050D01*
X002644Y006041D01*
X002690Y006029D01*
X002735Y006012D01*
X002779Y005992D01*
X002821Y005969D01*
X002861Y005942D01*
X002899Y005912D01*
X002934Y005879D01*
X002966Y005843D01*
X002996Y005805D01*
X003022Y005764D01*
X003044Y005721D01*
X003064Y005677D01*
X003079Y005632D01*
X003091Y005585D01*
X003099Y005537D01*
X003103Y005489D01*
X003103Y005441D01*
X003099Y005393D01*
X003091Y005345D01*
X003079Y005298D01*
X003064Y005253D01*
X003044Y005209D01*
X003022Y005166D01*
X002996Y005125D01*
X002966Y005087D01*
X002934Y005051D01*
X002899Y005018D01*
X002861Y004988D01*
X002821Y004961D01*
X002779Y004938D01*
X002735Y004918D01*
X002690Y004901D01*
X002644Y004889D01*
X002596Y004880D01*
X002548Y004875D01*
X002500Y004874D01*
X002452Y004877D01*
X002404Y004884D01*
X002357Y004895D01*
X002311Y004909D01*
X002266Y004927D01*
X002223Y004949D01*
X002182Y004974D01*
X002144Y005003D01*
X002107Y005035D01*
X002073Y005069D01*
X002043Y005106D01*
X002015Y005145D01*
X001990Y005187D01*
X001970Y005231D01*
X001952Y005276D01*
X001939Y005322D01*
X001929Y005369D01*
X001923Y005417D01*
X001921Y005465D01*
X018941Y005412D02*
X019191Y005162D01*
X019691Y005162D01*
X019941Y005412D01*
X019941Y005912D01*
X019691Y006162D01*
X019941Y006412D01*
X019941Y006912D01*
X019691Y007162D01*
X019941Y007412D01*
X019941Y007912D01*
X019691Y008162D01*
X019941Y008412D01*
X019941Y008912D01*
X019691Y009162D01*
X019941Y009412D01*
X019941Y009912D01*
X019691Y010162D01*
X019941Y010412D01*
X019941Y010912D01*
X019691Y011162D01*
X019941Y011412D01*
X019941Y011912D01*
X019691Y012162D01*
X019941Y012412D01*
X019941Y012912D01*
X019691Y013162D01*
X019191Y013162D01*
X018941Y012912D01*
X018941Y012412D01*
X019191Y012162D01*
X018941Y011912D01*
X018941Y011412D01*
X019191Y011162D01*
X018941Y010912D01*
X018941Y010412D01*
X019191Y010162D01*
X018941Y009912D01*
X018941Y009412D01*
X019191Y009162D01*
X018941Y008912D01*
X018941Y008412D01*
X019191Y008162D01*
X018941Y007912D01*
X018941Y007412D01*
X019191Y007162D01*
X018941Y006912D01*
X018941Y006412D01*
X019191Y006162D01*
X018941Y005912D01*
X018941Y005412D01*
X019941Y005412D02*
X020191Y005162D01*
X020691Y005162D01*
X020941Y005412D01*
X020941Y005912D01*
X020691Y006162D01*
X020941Y006412D01*
X020941Y006912D01*
X020691Y007162D01*
X020941Y007412D01*
X020941Y007912D01*
X020691Y008162D01*
X020941Y008412D01*
X020941Y008912D01*
X020691Y009162D01*
X020941Y009412D01*
X020941Y009912D01*
X020691Y010162D01*
X020941Y010412D01*
X020941Y010912D01*
X020691Y011162D01*
X020941Y011412D01*
X020941Y011912D01*
X020691Y012162D01*
X020941Y012412D01*
X020941Y012912D01*
X020691Y013162D01*
X020191Y013162D01*
X019941Y012912D01*
X019941Y012412D01*
X020191Y012162D01*
X019941Y011912D01*
X019941Y011412D01*
X020191Y011162D01*
X019941Y010912D01*
X019941Y010412D01*
X020191Y010162D01*
X019941Y009912D01*
X019941Y009412D01*
X020191Y009162D01*
X019941Y008912D01*
X019941Y008412D01*
X020191Y008162D01*
X019941Y007912D01*
X019941Y007412D01*
X020191Y007162D01*
X019941Y006912D01*
X019941Y006412D01*
X020191Y006162D01*
X019941Y005912D01*
X019941Y005412D01*
X037575Y015566D02*
X037825Y015316D01*
X038325Y015316D01*
X038575Y015566D01*
X038575Y016066D01*
X038325Y016316D01*
X038575Y016566D01*
X038575Y017066D01*
X038325Y017316D01*
X037825Y017316D01*
X037575Y017066D01*
X037575Y016566D01*
X037825Y016316D01*
X037575Y016066D01*
X037575Y015566D01*
X037354Y021213D02*
X037356Y021261D01*
X037362Y021309D01*
X037372Y021356D01*
X037385Y021402D01*
X037403Y021447D01*
X037423Y021491D01*
X037448Y021533D01*
X037476Y021572D01*
X037506Y021609D01*
X037540Y021643D01*
X037577Y021675D01*
X037615Y021704D01*
X037656Y021729D01*
X037699Y021751D01*
X037744Y021769D01*
X037790Y021783D01*
X037837Y021794D01*
X037885Y021801D01*
X037933Y021804D01*
X037981Y021803D01*
X038029Y021798D01*
X038077Y021789D01*
X038123Y021777D01*
X038168Y021760D01*
X038212Y021740D01*
X038254Y021717D01*
X038294Y021690D01*
X038332Y021660D01*
X038367Y021627D01*
X038399Y021591D01*
X038429Y021553D01*
X038455Y021512D01*
X038477Y021469D01*
X038497Y021425D01*
X038512Y021380D01*
X038524Y021333D01*
X038532Y021285D01*
X038536Y021237D01*
X038536Y021189D01*
X038532Y021141D01*
X038524Y021093D01*
X038512Y021046D01*
X038497Y021001D01*
X038477Y020957D01*
X038455Y020914D01*
X038429Y020873D01*
X038399Y020835D01*
X038367Y020799D01*
X038332Y020766D01*
X038294Y020736D01*
X038254Y020709D01*
X038212Y020686D01*
X038168Y020666D01*
X038123Y020649D01*
X038077Y020637D01*
X038029Y020628D01*
X037981Y020623D01*
X037933Y020622D01*
X037885Y020625D01*
X037837Y020632D01*
X037790Y020643D01*
X037744Y020657D01*
X037699Y020675D01*
X037656Y020697D01*
X037615Y020722D01*
X037577Y020751D01*
X037540Y020783D01*
X037506Y020817D01*
X037476Y020854D01*
X037448Y020893D01*
X037423Y020935D01*
X037403Y020979D01*
X037385Y021024D01*
X037372Y021070D01*
X037362Y021117D01*
X037356Y021165D01*
X037354Y021213D01*
D15*
X026044Y015993D03*
X025044Y015993D03*
X025044Y014993D03*
X026044Y014993D03*
X026044Y013993D03*
X025044Y013993D03*
X025044Y012993D03*
X026044Y012993D03*
X026044Y011993D03*
X025044Y011993D03*
X025044Y010993D03*
X026044Y010993D03*
X026044Y009993D03*
X025044Y009993D03*
X025044Y008993D03*
X026044Y008993D03*
X026044Y007993D03*
X025044Y007993D03*
X025044Y006993D03*
X026044Y006993D03*
X026044Y005993D03*
X025044Y005993D03*
X025044Y004993D03*
X026044Y004993D03*
X026044Y003993D03*
X025044Y003993D03*
D16*
X024544Y003493D02*
X026544Y003493D01*
X026544Y016493D01*
X024544Y016493D01*
X024544Y003493D01*
X029403Y003436D02*
X029521Y003436D01*
X032515Y003436D02*
X032633Y003436D01*
X032315Y023477D02*
X032197Y023477D01*
X035347Y023477D02*
X035465Y023477D01*
X027197Y023477D02*
X027079Y023477D01*
X024048Y023477D02*
X023930Y023477D01*
D17*
X018694Y019675D02*
X018634Y019735D01*
X018574Y019735D01*
X018514Y019675D01*
X018514Y019495D01*
X018334Y019495D02*
X018334Y019675D01*
X018394Y019735D01*
X018454Y019735D01*
X018514Y019675D01*
X018694Y019675D02*
X018694Y019495D01*
X018334Y019495D01*
X018334Y019367D02*
X018334Y019127D01*
X018334Y019247D02*
X018694Y019247D01*
X018694Y018999D02*
X018334Y018999D01*
X018334Y018758D02*
X018694Y018999D01*
X018694Y018758D02*
X018334Y018758D01*
X018334Y018633D02*
X018334Y018513D01*
X018334Y018573D02*
X018694Y018573D01*
X018694Y018513D02*
X018694Y018633D01*
D18*
X005585Y005851D02*
X005345Y005851D01*
X005313Y005534D01*
X005206Y005500D01*
X005106Y005448D01*
X004859Y005650D01*
X004689Y005480D01*
X004891Y005233D01*
X004840Y005133D01*
X004806Y005027D01*
X004488Y004994D01*
X004488Y004754D01*
X004806Y004722D01*
X004840Y004615D01*
X004891Y004516D01*
X004689Y004268D01*
X004859Y004099D01*
X005106Y004301D01*
X005206Y004249D01*
X005347Y004590D01*
X004853Y004590D01*
X004830Y004648D02*
X005259Y004648D01*
X005247Y004657D02*
X005209Y004704D01*
X005181Y004757D01*
X005163Y004814D01*
X005157Y004874D01*
X005164Y004937D01*
X005183Y004997D01*
X005214Y005052D01*
X005256Y005100D01*
X005306Y005138D01*
X005363Y005165D01*
X005425Y005179D01*
X005488Y005181D01*
X005550Y005170D01*
X005609Y005146D01*
X005661Y005111D01*
X005705Y005066D01*
X005740Y005013D01*
X005762Y004954D01*
X005772Y004892D01*
X005769Y004829D01*
X005753Y004767D01*
X005725Y004711D01*
X005686Y004661D01*
X005638Y004620D01*
X005583Y004590D01*
X006077Y004590D01*
X006090Y004615D02*
X006124Y004722D01*
X006442Y004754D01*
X006442Y004994D01*
X006124Y005027D01*
X006090Y005133D01*
X006039Y005233D01*
X006241Y005480D01*
X006071Y005650D01*
X005824Y005448D01*
X005724Y005500D01*
X005617Y005534D01*
X005585Y005851D01*
X005590Y005799D02*
X005340Y005799D01*
X005334Y005741D02*
X005596Y005741D01*
X005602Y005684D02*
X005328Y005684D01*
X005322Y005626D02*
X005608Y005626D01*
X005614Y005568D02*
X005316Y005568D01*
X005241Y005511D02*
X005689Y005511D01*
X005814Y005453D02*
X005116Y005453D01*
X005100Y005453D02*
X004711Y005453D01*
X004720Y005511D02*
X005030Y005511D01*
X004959Y005568D02*
X004777Y005568D01*
X004835Y005626D02*
X004888Y005626D01*
X004758Y005396D02*
X006172Y005396D01*
X006218Y005453D02*
X005830Y005453D01*
X005900Y005511D02*
X006210Y005511D01*
X006152Y005568D02*
X005971Y005568D01*
X006042Y005626D02*
X006095Y005626D01*
X006125Y005338D02*
X004805Y005338D01*
X004852Y005281D02*
X006078Y005281D01*
X006044Y005223D02*
X004886Y005223D01*
X004856Y005166D02*
X005367Y005166D01*
X005267Y005108D02*
X004832Y005108D01*
X004813Y005050D02*
X005213Y005050D01*
X005182Y004993D02*
X004488Y004993D01*
X004488Y004935D02*
X005164Y004935D01*
X005158Y004878D02*
X004488Y004878D01*
X004488Y004820D02*
X005163Y004820D01*
X005179Y004763D02*
X004488Y004763D01*
X004811Y004705D02*
X005208Y004705D01*
X005247Y004657D02*
X005294Y004619D01*
X005347Y004590D01*
X005323Y004532D02*
X004883Y004532D01*
X004858Y004475D02*
X005299Y004475D01*
X005276Y004417D02*
X004811Y004417D01*
X004764Y004360D02*
X005252Y004360D01*
X005228Y004302D02*
X004717Y004302D01*
X004713Y004245D02*
X005038Y004245D01*
X004967Y004187D02*
X004771Y004187D01*
X004828Y004130D02*
X004897Y004130D01*
X005654Y004417D02*
X006119Y004417D01*
X006166Y004360D02*
X005678Y004360D01*
X005702Y004302D02*
X006213Y004302D01*
X006241Y004268D02*
X006071Y004099D01*
X005824Y004301D01*
X005724Y004249D01*
X005583Y004590D01*
X005607Y004532D02*
X006047Y004532D01*
X006039Y004516D02*
X006090Y004615D01*
X006100Y004648D02*
X005671Y004648D01*
X005721Y004705D02*
X006119Y004705D01*
X006039Y004516D02*
X006241Y004268D01*
X006217Y004245D02*
X005892Y004245D01*
X005963Y004187D02*
X006159Y004187D01*
X006102Y004130D02*
X006033Y004130D01*
X006072Y004475D02*
X005630Y004475D01*
X005751Y004763D02*
X006442Y004763D01*
X006442Y004820D02*
X005767Y004820D01*
X005771Y004878D02*
X006442Y004878D01*
X006442Y004935D02*
X005765Y004935D01*
X005747Y004993D02*
X006442Y004993D01*
X006117Y005050D02*
X005716Y005050D01*
X005664Y005108D02*
X006098Y005108D01*
X006074Y005166D02*
X005561Y005166D01*
D19*
X021134Y018949D02*
X024048Y018949D01*
X024048Y023477D01*
X024284Y023477D02*
X024284Y018949D01*
X027197Y018949D01*
X027197Y023477D01*
X029402Y023477D02*
X029402Y018949D01*
X032315Y018949D01*
X032315Y023477D01*
X032552Y023477D02*
X032552Y018949D01*
X035465Y018949D01*
X035465Y023477D01*
X021134Y023477D02*
X021134Y018949D01*
X029403Y007963D02*
X029403Y003436D01*
X032316Y003436D02*
X032316Y007963D01*
X029403Y007963D01*
X032515Y007963D02*
X032515Y003436D01*
X035429Y003436D02*
X035429Y007963D01*
X032515Y007963D01*
D20*
X032633Y003436D02*
X035429Y003436D01*
X032316Y003436D02*
X029521Y003436D01*
X029402Y023477D02*
X032197Y023477D01*
X032552Y023477D02*
X035347Y023477D01*
X027079Y023477D02*
X024284Y023477D01*
X023930Y023477D02*
X021134Y023477D01*
M02*
