%
M48
M72
T01C0.0236
T02C0.0320
T03C0.0394
T04C0.0400
T05C0.1102
%
T01
X4628Y18457
X6252Y16489
X11174Y19441
X13339Y20032
X19441Y14717
X18260Y13930
X26922Y15307
X35780Y19244
X37552Y12552
X38339Y11764
X21804Y4481
X9205Y9402
X5662Y6252
T02
X13611Y5658
X13611Y6658
X13611Y7658
X13611Y8658
X13611Y9658
X13611Y10658
X13611Y11658
X13611Y12658
X13611Y13658
X13611Y14658
X13611Y15658
X13611Y16658
X13611Y17658
X13611Y18658
X16611Y18658
X16611Y17658
X16611Y16658
X16611Y15658
X16611Y14658
X16611Y13658
X16611Y12658
X16611Y11658
X16611Y10658
X16611Y9658
X16611Y8658
X16611Y7658
X16611Y6658
X16611Y5658
X32508Y9839
X32508Y10839
X32508Y11839
X32508Y12839
X32508Y13839
X32508Y14839
X32508Y15839
X32508Y16839
X35508Y16839
X35508Y15839
X35508Y14839
X35508Y13839
X35508Y12839
X35508Y11839
X35508Y10839
X35508Y9839
T03
X22119Y19855
X23103Y19855
X25268Y19855
X26252Y19855
X30386Y19855
X31370Y19855
X33536Y19855
X34520Y19855
X34444Y7058
X33460Y7058
X31332Y7058
X30348Y7058
T04
X1512Y9008
X2512Y9008
X2512Y11764
X1512Y11764
X1512Y14520
X2512Y14520
X2512Y17276
X1512Y17276
X5465Y21804
X6465Y21804
X7827Y21804
X8827Y21804
X10189Y21804
X11189Y21804
X12552Y21804
X13552Y21804
X14552Y21804
X15898Y21804
X16898Y21804
X17898Y21804
X19244Y21804
X20244Y21804
X19441Y19638
X19441Y18638
X25044Y15993
X26044Y15993
X26044Y14993
X25044Y14993
X25044Y13993
X26044Y13993
X26044Y12993
X25044Y12993
X25044Y11993
X26044Y11993
X26044Y10993
X25044Y10993
X25044Y9993
X26044Y9993
X26044Y8993
X25044Y8993
X25044Y7993
X26044Y7993
X26044Y6993
X25044Y6993
X25044Y5993
X26044Y5993
X26044Y4993
X25044Y4993
X25044Y3993
X26044Y3993
X20441Y5662
X19441Y5662
X19441Y6662
X20441Y6662
X20441Y7662
X19441Y7662
X19441Y8662
X20441Y8662
X20441Y9662
X19441Y9662
X19441Y10662
X20441Y10662
X20441Y11662
X19441Y11662
X19441Y12662
X20441Y12662
X28874Y14323
X29874Y14323
X29874Y15323
X28874Y15323
X28874Y16323
X29874Y16323
X28300Y19000
X28300Y20000
X28300Y21000
X28300Y22000
X38075Y16816
X38075Y15816
X11386Y15307
X10386Y15307
X9386Y15307
X9386Y16489
X10386Y16489
X11386Y16489
X11386Y17670
X10386Y17670
X9386Y17670
T05
X2512Y21213
X2512Y5465
X37945Y5465
X37945Y21213
M30
