G75*
%MOIN*%
%OFA0B0*%
%FSLAX24Y24*%
%IPPOS*%
%LPD*%
%AMOC8*
5,1,8,0,0,1.08239X$1,22.5*
%
%ADD10C,0.0000*%
%ADD11C,0.0520*%
%ADD12R,0.0740X0.0740*%
%ADD13C,0.0740*%
%ADD14OC8,0.0740*%
%ADD15OC8,0.0600*%
%ADD16C,0.0600*%
%ADD17OC8,0.0689*%
%ADD18R,0.0689X0.0689*%
%ADD19OC8,0.0356*%
%ADD20C,0.0100*%
%ADD21C,0.0240*%
%ADD22C,0.0356*%
D10*
X000544Y003496D02*
X000544Y023181D01*
X039914Y023181D01*
X039914Y003496D01*
X000544Y003496D01*
X001961Y005465D02*
X001963Y005512D01*
X001969Y005558D01*
X001979Y005604D01*
X001992Y005649D01*
X002010Y005692D01*
X002031Y005734D01*
X002055Y005774D01*
X002083Y005811D01*
X002114Y005846D01*
X002148Y005879D01*
X002184Y005908D01*
X002223Y005934D01*
X002264Y005957D01*
X002307Y005976D01*
X002351Y005992D01*
X002396Y006004D01*
X002442Y006012D01*
X002489Y006016D01*
X002535Y006016D01*
X002582Y006012D01*
X002628Y006004D01*
X002673Y005992D01*
X002717Y005976D01*
X002760Y005957D01*
X002801Y005934D01*
X002840Y005908D01*
X002876Y005879D01*
X002910Y005846D01*
X002941Y005811D01*
X002969Y005774D01*
X002993Y005734D01*
X003014Y005692D01*
X003032Y005649D01*
X003045Y005604D01*
X003055Y005558D01*
X003061Y005512D01*
X003063Y005465D01*
X003061Y005418D01*
X003055Y005372D01*
X003045Y005326D01*
X003032Y005281D01*
X003014Y005238D01*
X002993Y005196D01*
X002969Y005156D01*
X002941Y005119D01*
X002910Y005084D01*
X002876Y005051D01*
X002840Y005022D01*
X002801Y004996D01*
X002760Y004973D01*
X002717Y004954D01*
X002673Y004938D01*
X002628Y004926D01*
X002582Y004918D01*
X002535Y004914D01*
X002489Y004914D01*
X002442Y004918D01*
X002396Y004926D01*
X002351Y004938D01*
X002307Y004954D01*
X002264Y004973D01*
X002223Y004996D01*
X002184Y005022D01*
X002148Y005051D01*
X002114Y005084D01*
X002083Y005119D01*
X002055Y005156D01*
X002031Y005196D01*
X002010Y005238D01*
X001992Y005281D01*
X001979Y005326D01*
X001969Y005372D01*
X001963Y005418D01*
X001961Y005465D01*
X001961Y021213D02*
X001963Y021260D01*
X001969Y021306D01*
X001979Y021352D01*
X001992Y021397D01*
X002010Y021440D01*
X002031Y021482D01*
X002055Y021522D01*
X002083Y021559D01*
X002114Y021594D01*
X002148Y021627D01*
X002184Y021656D01*
X002223Y021682D01*
X002264Y021705D01*
X002307Y021724D01*
X002351Y021740D01*
X002396Y021752D01*
X002442Y021760D01*
X002489Y021764D01*
X002535Y021764D01*
X002582Y021760D01*
X002628Y021752D01*
X002673Y021740D01*
X002717Y021724D01*
X002760Y021705D01*
X002801Y021682D01*
X002840Y021656D01*
X002876Y021627D01*
X002910Y021594D01*
X002941Y021559D01*
X002969Y021522D01*
X002993Y021482D01*
X003014Y021440D01*
X003032Y021397D01*
X003045Y021352D01*
X003055Y021306D01*
X003061Y021260D01*
X003063Y021213D01*
X003061Y021166D01*
X003055Y021120D01*
X003045Y021074D01*
X003032Y021029D01*
X003014Y020986D01*
X002993Y020944D01*
X002969Y020904D01*
X002941Y020867D01*
X002910Y020832D01*
X002876Y020799D01*
X002840Y020770D01*
X002801Y020744D01*
X002760Y020721D01*
X002717Y020702D01*
X002673Y020686D01*
X002628Y020674D01*
X002582Y020666D01*
X002535Y020662D01*
X002489Y020662D01*
X002442Y020666D01*
X002396Y020674D01*
X002351Y020686D01*
X002307Y020702D01*
X002264Y020721D01*
X002223Y020744D01*
X002184Y020770D01*
X002148Y020799D01*
X002114Y020832D01*
X002083Y020867D01*
X002055Y020904D01*
X002031Y020944D01*
X002010Y020986D01*
X001992Y021029D01*
X001979Y021074D01*
X001969Y021120D01*
X001963Y021166D01*
X001961Y021213D01*
X037394Y021213D02*
X037396Y021260D01*
X037402Y021306D01*
X037412Y021352D01*
X037425Y021397D01*
X037443Y021440D01*
X037464Y021482D01*
X037488Y021522D01*
X037516Y021559D01*
X037547Y021594D01*
X037581Y021627D01*
X037617Y021656D01*
X037656Y021682D01*
X037697Y021705D01*
X037740Y021724D01*
X037784Y021740D01*
X037829Y021752D01*
X037875Y021760D01*
X037922Y021764D01*
X037968Y021764D01*
X038015Y021760D01*
X038061Y021752D01*
X038106Y021740D01*
X038150Y021724D01*
X038193Y021705D01*
X038234Y021682D01*
X038273Y021656D01*
X038309Y021627D01*
X038343Y021594D01*
X038374Y021559D01*
X038402Y021522D01*
X038426Y021482D01*
X038447Y021440D01*
X038465Y021397D01*
X038478Y021352D01*
X038488Y021306D01*
X038494Y021260D01*
X038496Y021213D01*
X038494Y021166D01*
X038488Y021120D01*
X038478Y021074D01*
X038465Y021029D01*
X038447Y020986D01*
X038426Y020944D01*
X038402Y020904D01*
X038374Y020867D01*
X038343Y020832D01*
X038309Y020799D01*
X038273Y020770D01*
X038234Y020744D01*
X038193Y020721D01*
X038150Y020702D01*
X038106Y020686D01*
X038061Y020674D01*
X038015Y020666D01*
X037968Y020662D01*
X037922Y020662D01*
X037875Y020666D01*
X037829Y020674D01*
X037784Y020686D01*
X037740Y020702D01*
X037697Y020721D01*
X037656Y020744D01*
X037617Y020770D01*
X037581Y020799D01*
X037547Y020832D01*
X037516Y020867D01*
X037488Y020904D01*
X037464Y020944D01*
X037443Y020986D01*
X037425Y021029D01*
X037412Y021074D01*
X037402Y021120D01*
X037396Y021166D01*
X037394Y021213D01*
X037394Y005465D02*
X037396Y005512D01*
X037402Y005558D01*
X037412Y005604D01*
X037425Y005649D01*
X037443Y005692D01*
X037464Y005734D01*
X037488Y005774D01*
X037516Y005811D01*
X037547Y005846D01*
X037581Y005879D01*
X037617Y005908D01*
X037656Y005934D01*
X037697Y005957D01*
X037740Y005976D01*
X037784Y005992D01*
X037829Y006004D01*
X037875Y006012D01*
X037922Y006016D01*
X037968Y006016D01*
X038015Y006012D01*
X038061Y006004D01*
X038106Y005992D01*
X038150Y005976D01*
X038193Y005957D01*
X038234Y005934D01*
X038273Y005908D01*
X038309Y005879D01*
X038343Y005846D01*
X038374Y005811D01*
X038402Y005774D01*
X038426Y005734D01*
X038447Y005692D01*
X038465Y005649D01*
X038478Y005604D01*
X038488Y005558D01*
X038494Y005512D01*
X038496Y005465D01*
X038494Y005418D01*
X038488Y005372D01*
X038478Y005326D01*
X038465Y005281D01*
X038447Y005238D01*
X038426Y005196D01*
X038402Y005156D01*
X038374Y005119D01*
X038343Y005084D01*
X038309Y005051D01*
X038273Y005022D01*
X038234Y004996D01*
X038193Y004973D01*
X038150Y004954D01*
X038106Y004938D01*
X038061Y004926D01*
X038015Y004918D01*
X037968Y004914D01*
X037922Y004914D01*
X037875Y004918D01*
X037829Y004926D01*
X037784Y004938D01*
X037740Y004954D01*
X037697Y004973D01*
X037656Y004996D01*
X037617Y005022D01*
X037581Y005051D01*
X037547Y005084D01*
X037516Y005119D01*
X037488Y005156D01*
X037464Y005196D01*
X037443Y005238D01*
X037425Y005281D01*
X037412Y005326D01*
X037402Y005372D01*
X037396Y005418D01*
X037394Y005465D01*
D11*
X035768Y009839D02*
X035248Y009839D01*
X035248Y010839D02*
X035768Y010839D01*
X035768Y011839D02*
X035248Y011839D01*
X035248Y012839D02*
X035768Y012839D01*
X035768Y013839D02*
X035248Y013839D01*
X035248Y014839D02*
X035768Y014839D01*
X035768Y015839D02*
X035248Y015839D01*
X035248Y016839D02*
X035768Y016839D01*
X032768Y016839D02*
X032248Y016839D01*
X032248Y015839D02*
X032768Y015839D01*
X032768Y014839D02*
X032248Y014839D01*
X032248Y013839D02*
X032768Y013839D01*
X032768Y012839D02*
X032248Y012839D01*
X032248Y011839D02*
X032768Y011839D01*
X032768Y010839D02*
X032248Y010839D01*
X032248Y009839D02*
X032768Y009839D01*
X016871Y009658D02*
X016351Y009658D01*
X016351Y010658D02*
X016871Y010658D01*
X016871Y011658D02*
X016351Y011658D01*
X016351Y012658D02*
X016871Y012658D01*
X016871Y013658D02*
X016351Y013658D01*
X016351Y014658D02*
X016871Y014658D01*
X016871Y015658D02*
X016351Y015658D01*
X016351Y016658D02*
X016871Y016658D01*
X016871Y017658D02*
X016351Y017658D01*
X016351Y018658D02*
X016871Y018658D01*
X013871Y018658D02*
X013351Y018658D01*
X013351Y017658D02*
X013871Y017658D01*
X013871Y016658D02*
X013351Y016658D01*
X013351Y015658D02*
X013871Y015658D01*
X013871Y014658D02*
X013351Y014658D01*
X013351Y013658D02*
X013871Y013658D01*
X013871Y012658D02*
X013351Y012658D01*
X013351Y011658D02*
X013871Y011658D01*
X013871Y010658D02*
X013351Y010658D01*
X013351Y009658D02*
X013871Y009658D01*
X013871Y008658D02*
X013351Y008658D01*
X013351Y007658D02*
X013871Y007658D01*
X013871Y006658D02*
X013351Y006658D01*
X013351Y005658D02*
X013871Y005658D01*
X016351Y005658D02*
X016871Y005658D01*
X016871Y006658D02*
X016351Y006658D01*
X016351Y007658D02*
X016871Y007658D01*
X016871Y008658D02*
X016351Y008658D01*
D12*
X019441Y005662D03*
X020441Y005662D03*
X028300Y022000D03*
D13*
X028300Y021000D03*
X028300Y020000D03*
X028300Y019000D03*
X020244Y021804D03*
X019244Y021804D03*
X017898Y021804D03*
X016898Y021804D03*
X015898Y021804D03*
X014552Y021804D03*
X013552Y021804D03*
X012552Y021804D03*
X011189Y021804D03*
X010189Y021804D03*
X008827Y021804D03*
X007827Y021804D03*
X006465Y021804D03*
X005465Y021804D03*
X002512Y017276D03*
X001512Y017276D03*
X001512Y014520D03*
X002512Y014520D03*
X002512Y011764D03*
X001512Y011764D03*
X001512Y009008D03*
X002512Y009008D03*
X019441Y008662D03*
X020441Y008662D03*
X020441Y009662D03*
X019441Y009662D03*
X019441Y010662D03*
X020441Y010662D03*
X020441Y011662D03*
X019441Y011662D03*
X019441Y012662D03*
X020441Y012662D03*
X020441Y007662D03*
X019441Y007662D03*
X019441Y006662D03*
X020441Y006662D03*
X038075Y015816D03*
X038075Y016816D03*
X019441Y018638D03*
X019441Y019638D03*
D14*
X028874Y016323D03*
X029874Y016323D03*
X029874Y015323D03*
X028874Y015323D03*
X028874Y014323D03*
X029874Y014323D03*
D15*
X026044Y013993D03*
X025044Y013993D03*
X025044Y012993D03*
X026044Y012993D03*
X026044Y011993D03*
X025044Y011993D03*
X025044Y010993D03*
X026044Y010993D03*
X026044Y009993D03*
X025044Y009993D03*
X025044Y008993D03*
X026044Y008993D03*
X026044Y007993D03*
X025044Y007993D03*
X025044Y006993D03*
X026044Y006993D03*
X026044Y005993D03*
X025044Y005993D03*
X025044Y004993D03*
X026044Y004993D03*
X026044Y003993D03*
X025044Y003993D03*
X025044Y014993D03*
X026044Y014993D03*
X026044Y015993D03*
X025044Y015993D03*
D16*
X011386Y016489D03*
X010386Y016489D03*
X009386Y016489D03*
X009386Y017670D03*
X010386Y017670D03*
X011386Y017670D03*
X011386Y015307D03*
X010386Y015307D03*
X009386Y015307D03*
D17*
X022119Y019855D03*
X025268Y019855D03*
X030386Y019855D03*
X033536Y019855D03*
X034444Y007058D03*
X031332Y007058D03*
D18*
X030348Y007058D03*
X033460Y007058D03*
X034520Y019855D03*
X031370Y019855D03*
X026252Y019855D03*
X023103Y019855D03*
D19*
X018260Y013930D03*
X009205Y009402D03*
X005662Y006252D03*
X021804Y004481D03*
X011174Y019441D03*
X035780Y019244D03*
D20*
X036043Y018814D02*
X030792Y018814D01*
X029714Y017736D01*
X029714Y016803D01*
X029676Y016803D01*
X029394Y016522D01*
X029394Y016124D01*
X029676Y015843D01*
X030073Y015843D01*
X030305Y016075D01*
X030305Y015980D01*
X030101Y015776D01*
X030073Y015803D01*
X029676Y015803D01*
X029394Y015522D01*
X029394Y015124D01*
X029676Y014843D01*
X030073Y014843D01*
X030354Y015124D01*
X030354Y015522D01*
X030327Y015550D01*
X030531Y015754D01*
X030625Y015848D01*
X030625Y017407D01*
X031107Y017889D01*
X032222Y017903D01*
X035714Y017903D01*
X036407Y017210D01*
X036407Y015241D01*
X037392Y014257D01*
X037392Y012797D01*
X037388Y012796D01*
X037307Y012715D01*
X037263Y012609D01*
X037263Y012494D01*
X037307Y012388D01*
X037388Y012307D01*
X037494Y012263D01*
X037609Y012263D01*
X037715Y012307D01*
X037796Y012388D01*
X037840Y012494D01*
X037840Y012609D01*
X037796Y012715D01*
X037715Y012796D01*
X037712Y012797D01*
X037712Y014390D01*
X037618Y014483D01*
X036727Y015374D01*
X036727Y017342D01*
X036634Y017436D01*
X035846Y018223D01*
X032286Y018223D01*
X032285Y018224D01*
X032220Y018223D01*
X032155Y018223D01*
X032154Y018223D01*
X031039Y018208D01*
X030973Y018208D01*
X030973Y018207D01*
X030971Y018207D01*
X030926Y018160D01*
X030305Y017539D01*
X030305Y016571D01*
X030073Y016803D01*
X030034Y016803D01*
X030034Y017603D01*
X030925Y018494D01*
X035910Y018494D01*
X036998Y017407D01*
X036998Y015510D01*
X036993Y015451D01*
X036998Y015445D01*
X036998Y015438D01*
X037040Y015396D01*
X038179Y014067D01*
X038179Y012010D01*
X038176Y012008D01*
X038095Y011927D01*
X038051Y011821D01*
X038051Y011707D01*
X038095Y011601D01*
X038176Y011520D01*
X038282Y011476D01*
X038396Y011476D01*
X038502Y011520D01*
X038583Y011601D01*
X038627Y011707D01*
X038627Y011821D01*
X038583Y011927D01*
X038502Y012008D01*
X038499Y012010D01*
X038499Y014120D01*
X038504Y014180D01*
X038499Y014186D01*
X038499Y014193D01*
X038456Y014235D01*
X037318Y015564D01*
X037318Y017539D01*
X037224Y017633D01*
X036043Y018814D01*
X036093Y018764D02*
X039764Y018764D01*
X039764Y018862D02*
X028762Y018862D01*
X028780Y018905D02*
X028707Y018728D01*
X028572Y018593D01*
X028395Y018520D01*
X028204Y018520D01*
X028028Y018593D01*
X027893Y018728D01*
X027820Y018905D01*
X027820Y019096D01*
X027893Y019272D01*
X028028Y019407D01*
X028204Y019480D01*
X028395Y019480D01*
X028572Y019407D01*
X028707Y019272D01*
X028780Y019096D01*
X028780Y018905D01*
X028780Y018961D02*
X039764Y018961D01*
X039764Y019059D02*
X028780Y019059D01*
X028754Y019158D02*
X039764Y019158D01*
X039764Y019256D02*
X028713Y019256D01*
X028624Y019355D02*
X030941Y019355D01*
X030956Y019340D02*
X031785Y019340D01*
X031885Y019440D01*
X031885Y020270D01*
X031785Y020369D01*
X030956Y020369D01*
X030856Y020270D01*
X030856Y020084D01*
X030591Y020349D01*
X030435Y020349D01*
X030435Y019903D01*
X030338Y019903D01*
X030338Y019806D01*
X030435Y019806D01*
X030435Y019360D01*
X030591Y019360D01*
X030856Y019625D01*
X030856Y019440D01*
X030956Y019340D01*
X030856Y019453D02*
X030684Y019453D01*
X030783Y019552D02*
X030856Y019552D01*
X030435Y019552D02*
X030338Y019552D01*
X030338Y019650D02*
X030435Y019650D01*
X030435Y019749D02*
X030338Y019749D01*
X030338Y019806D02*
X030338Y019360D01*
X030181Y019360D01*
X029892Y019650D01*
X029892Y019806D01*
X030338Y019806D01*
X030338Y019847D02*
X028756Y019847D01*
X028780Y019905D02*
X028780Y020096D01*
X028707Y020272D01*
X028572Y020407D01*
X028425Y020468D01*
X028605Y020543D01*
X028757Y020695D01*
X028840Y020893D01*
X028840Y021108D01*
X028757Y021306D01*
X028605Y021458D01*
X028552Y021480D01*
X028689Y021480D01*
X028728Y021491D01*
X028762Y021510D01*
X028790Y021538D01*
X028809Y021572D01*
X028820Y021611D01*
X028820Y021950D01*
X028350Y021950D01*
X028350Y022050D01*
X028820Y022050D01*
X028820Y022390D01*
X028809Y022428D01*
X028790Y022462D01*
X028762Y022490D01*
X028728Y022510D01*
X028689Y022520D01*
X028350Y022520D01*
X028350Y022050D01*
X028250Y022050D01*
X028250Y021950D01*
X027780Y021950D01*
X027780Y021611D01*
X027790Y021572D01*
X027810Y021538D01*
X027838Y021510D01*
X027872Y021491D01*
X027910Y021480D01*
X028047Y021480D01*
X027994Y021458D01*
X027842Y021306D01*
X027835Y021290D01*
X027813Y021290D01*
X027777Y021296D01*
X027756Y021290D01*
X027734Y021290D01*
X027700Y021276D01*
X027665Y021267D01*
X027647Y021255D01*
X027627Y021246D01*
X027602Y021220D01*
X026458Y020369D01*
X026194Y020369D01*
X024160Y022745D01*
X024156Y022755D01*
X024123Y022788D01*
X024093Y022823D01*
X024082Y022829D01*
X024074Y022837D01*
X024031Y022855D01*
X023990Y022876D01*
X023978Y022877D01*
X023968Y022881D01*
X023921Y022881D01*
X023875Y022885D01*
X023864Y022881D01*
X006092Y022881D01*
X006072Y022886D01*
X006035Y022881D01*
X005998Y022881D01*
X005978Y022873D01*
X005957Y022870D01*
X005925Y022851D01*
X005891Y022837D01*
X005876Y022822D01*
X005858Y022811D01*
X005836Y022781D01*
X005810Y022755D01*
X005802Y022736D01*
X005507Y022344D01*
X005358Y022344D01*
X005159Y022261D01*
X005007Y022109D01*
X004925Y021911D01*
X004925Y021696D01*
X005007Y021498D01*
X005159Y021346D01*
X005358Y021264D01*
X005572Y021264D01*
X005771Y021346D01*
X005923Y021498D01*
X005976Y021626D01*
X005983Y021604D01*
X006020Y021531D01*
X006068Y021465D01*
X006126Y021407D01*
X006192Y021359D01*
X006265Y021322D01*
X006343Y021296D01*
X006415Y021285D01*
X006415Y021754D01*
X006515Y021754D01*
X006515Y021854D01*
X006984Y021854D01*
X006972Y021925D01*
X006947Y022003D01*
X006910Y022076D01*
X006862Y022142D01*
X006804Y022200D01*
X006738Y022248D01*
X006665Y022285D01*
X006617Y022301D01*
X014400Y022301D01*
X014352Y022285D01*
X014279Y022248D01*
X014213Y022200D01*
X014155Y022142D01*
X014107Y022076D01*
X014070Y022003D01*
X014044Y021925D01*
X014033Y021854D01*
X014502Y021854D01*
X014502Y021754D01*
X014602Y021754D01*
X014602Y021854D01*
X015070Y021854D01*
X015059Y021925D01*
X015033Y022003D01*
X014996Y022076D01*
X014948Y022142D01*
X014890Y022200D01*
X014824Y022248D01*
X014751Y022285D01*
X014703Y022301D01*
X017746Y022301D01*
X017698Y022285D01*
X017625Y022248D01*
X017559Y022200D01*
X017501Y022142D01*
X017453Y022076D01*
X017416Y022003D01*
X017391Y021925D01*
X017379Y021854D01*
X017848Y021854D01*
X017848Y021754D01*
X017379Y021754D01*
X017391Y021682D01*
X017416Y021604D01*
X017453Y021531D01*
X017501Y021465D01*
X017559Y021407D01*
X017625Y021359D01*
X017698Y021322D01*
X017776Y021296D01*
X017848Y021285D01*
X017848Y021754D01*
X017948Y021754D01*
X017948Y021854D01*
X018417Y021854D01*
X018405Y021925D01*
X018380Y022003D01*
X018343Y022076D01*
X018295Y022142D01*
X018237Y022200D01*
X018171Y022248D01*
X018098Y022285D01*
X018050Y022301D01*
X020093Y022301D01*
X020045Y022285D01*
X019972Y022248D01*
X019906Y022200D01*
X019848Y022142D01*
X019800Y022076D01*
X019763Y022003D01*
X019737Y021925D01*
X019726Y021854D01*
X020194Y021854D01*
X020194Y021754D01*
X019726Y021754D01*
X019737Y021682D01*
X019763Y021604D01*
X019800Y021531D01*
X019848Y021465D01*
X019906Y021407D01*
X019972Y021359D01*
X020045Y021322D01*
X020123Y021296D01*
X020194Y021285D01*
X020194Y021754D01*
X020294Y021754D01*
X020294Y021285D01*
X020366Y021296D01*
X020444Y021322D01*
X020517Y021359D01*
X020583Y021407D01*
X020641Y021465D01*
X020689Y021531D01*
X020726Y021604D01*
X020752Y021682D01*
X020763Y021754D01*
X020294Y021754D01*
X020294Y021854D01*
X020763Y021854D01*
X020752Y021925D01*
X020726Y022003D01*
X020689Y022076D01*
X020641Y022142D01*
X020583Y022200D01*
X020517Y022248D01*
X020444Y022285D01*
X020396Y022301D01*
X023776Y022301D01*
X025447Y020349D01*
X025317Y020349D01*
X025317Y019903D01*
X025220Y019903D01*
X025220Y020349D01*
X025063Y020349D01*
X024774Y020060D01*
X024774Y019903D01*
X025220Y019903D01*
X025220Y019806D01*
X025317Y019806D01*
X025317Y019360D01*
X025473Y019360D01*
X025738Y019625D01*
X025738Y019440D01*
X025837Y019340D01*
X026667Y019340D01*
X026767Y019440D01*
X026767Y019876D01*
X027852Y020684D01*
X027994Y020543D01*
X028174Y020468D01*
X028028Y020407D01*
X027893Y020272D01*
X027820Y020096D01*
X027820Y019905D01*
X027893Y019728D01*
X028028Y019593D01*
X028204Y019520D01*
X028395Y019520D01*
X028572Y019593D01*
X028707Y019728D01*
X028780Y019905D01*
X028780Y019946D02*
X029892Y019946D01*
X029892Y019903D02*
X029892Y020060D01*
X030181Y020349D01*
X030338Y020349D01*
X030338Y019903D01*
X029892Y019903D01*
X029892Y020044D02*
X028780Y020044D01*
X028760Y020143D02*
X029975Y020143D01*
X030074Y020241D02*
X028719Y020241D01*
X028639Y020340D02*
X030172Y020340D01*
X030338Y020340D02*
X030435Y020340D01*
X030435Y020241D02*
X030338Y020241D01*
X030338Y020143D02*
X030435Y020143D01*
X030435Y020044D02*
X030338Y020044D01*
X030338Y019946D02*
X030435Y019946D01*
X030699Y020241D02*
X030856Y020241D01*
X030856Y020143D02*
X030797Y020143D01*
X030926Y020340D02*
X030600Y020340D01*
X029892Y019749D02*
X028715Y019749D01*
X028629Y019650D02*
X029892Y019650D01*
X029990Y019552D02*
X028471Y019552D01*
X028460Y019453D02*
X030088Y019453D01*
X030338Y019453D02*
X030435Y019453D01*
X030742Y018764D02*
X028721Y018764D01*
X028644Y018665D02*
X030644Y018665D01*
X030545Y018567D02*
X028508Y018567D01*
X028092Y018567D02*
X019921Y018567D01*
X019921Y018543D02*
X019921Y018734D01*
X019848Y018910D01*
X019713Y019045D01*
X019537Y019118D01*
X019346Y019118D01*
X019169Y019045D01*
X019034Y018910D01*
X018961Y018734D01*
X018961Y018543D01*
X019034Y018366D01*
X019169Y018231D01*
X019281Y018185D01*
X019281Y014963D01*
X019278Y014961D01*
X019197Y014880D01*
X019153Y014774D01*
X019153Y014660D01*
X019197Y014554D01*
X019278Y014473D01*
X019384Y014429D01*
X019499Y014429D01*
X019605Y014473D01*
X019686Y014554D01*
X019729Y014660D01*
X019729Y014774D01*
X019686Y014880D01*
X019605Y014961D01*
X019601Y014963D01*
X019601Y018185D01*
X019713Y018231D01*
X019848Y018366D01*
X019921Y018543D01*
X019891Y018468D02*
X030447Y018468D01*
X030348Y018370D02*
X019850Y018370D01*
X019753Y018271D02*
X030250Y018271D01*
X030151Y018173D02*
X027188Y018173D01*
X027183Y018178D02*
X027138Y018223D01*
X027136Y018223D01*
X027135Y018225D01*
X027070Y018223D01*
X023903Y018223D01*
X023809Y018130D01*
X022628Y016949D01*
X022628Y011114D01*
X022625Y011110D01*
X022628Y011048D01*
X022628Y010985D01*
X022631Y010982D01*
X022631Y010978D01*
X022677Y010936D01*
X022722Y010892D01*
X022726Y010892D01*
X024634Y009150D01*
X024634Y008823D01*
X024874Y008583D01*
X025214Y008583D01*
X025454Y008823D01*
X025454Y009162D01*
X025214Y009403D01*
X024874Y009403D01*
X024854Y009382D01*
X022948Y011122D01*
X022948Y016816D01*
X024035Y017903D01*
X027007Y017903D01*
X028416Y016543D01*
X028394Y016522D01*
X028394Y016124D01*
X028676Y015843D01*
X029073Y015843D01*
X029354Y016124D01*
X029354Y016522D01*
X029073Y016803D01*
X028676Y016803D01*
X028642Y016770D01*
X027183Y018178D01*
X027290Y018074D02*
X030053Y018074D01*
X029954Y017976D02*
X027392Y017976D01*
X027494Y017877D02*
X029856Y017877D01*
X029757Y017779D02*
X027596Y017779D01*
X027698Y017680D02*
X029714Y017680D01*
X029714Y017582D02*
X027800Y017582D01*
X027903Y017483D02*
X029714Y017483D01*
X029714Y017385D02*
X028005Y017385D01*
X028107Y017286D02*
X029714Y017286D01*
X029714Y017188D02*
X028209Y017188D01*
X028311Y017089D02*
X029714Y017089D01*
X029714Y016991D02*
X028413Y016991D01*
X028515Y016892D02*
X029714Y016892D01*
X029666Y016794D02*
X029082Y016794D01*
X029181Y016695D02*
X029568Y016695D01*
X029469Y016597D02*
X029279Y016597D01*
X029354Y016498D02*
X029394Y016498D01*
X029394Y016400D02*
X029354Y016400D01*
X029354Y016301D02*
X029394Y016301D01*
X029394Y016203D02*
X029354Y016203D01*
X029334Y016104D02*
X029414Y016104D01*
X029513Y016006D02*
X029236Y016006D01*
X029137Y015907D02*
X029611Y015907D01*
X029583Y015710D02*
X029166Y015710D01*
X029073Y015803D02*
X028676Y015803D01*
X028646Y015773D01*
X026806Y017586D01*
X026760Y017633D01*
X026759Y017633D01*
X026758Y017633D01*
X026693Y017633D01*
X024099Y017633D01*
X024006Y017539D01*
X023218Y016752D01*
X023218Y011521D01*
X023215Y011517D01*
X023218Y011456D01*
X023218Y011395D01*
X023222Y011391D01*
X023223Y011385D01*
X023269Y011344D01*
X023312Y011301D01*
X023318Y011301D01*
X024634Y010141D01*
X024634Y009823D01*
X024874Y009583D01*
X025214Y009583D01*
X025454Y009823D01*
X025454Y010162D01*
X025214Y010403D01*
X024874Y010403D01*
X024849Y010378D01*
X023538Y011533D01*
X023538Y016619D01*
X024232Y017313D01*
X026628Y017313D01*
X028419Y015547D01*
X028394Y015522D01*
X028394Y015124D01*
X028676Y014843D01*
X029073Y014843D01*
X029354Y015124D01*
X029354Y015522D01*
X029073Y015803D01*
X029264Y015612D02*
X029484Y015612D01*
X029394Y015513D02*
X029354Y015513D01*
X029354Y015415D02*
X029394Y015415D01*
X029394Y015316D02*
X029354Y015316D01*
X029354Y015218D02*
X029394Y015218D01*
X029399Y015119D02*
X029349Y015119D01*
X029251Y015021D02*
X029498Y015021D01*
X029596Y014922D02*
X029152Y014922D01*
X029073Y014803D02*
X028676Y014803D01*
X028662Y014789D01*
X026672Y016945D01*
X026672Y016949D01*
X026628Y016993D01*
X026585Y017040D01*
X026581Y017040D01*
X026578Y017042D01*
X026515Y017042D01*
X026452Y017045D01*
X026450Y017042D01*
X024493Y017042D01*
X024399Y016949D01*
X024006Y016555D01*
X024006Y012075D01*
X024000Y012017D01*
X024006Y012010D01*
X024006Y012001D01*
X024047Y011960D01*
X024669Y011198D01*
X024634Y011162D01*
X024634Y010823D01*
X024874Y010583D01*
X025214Y010583D01*
X025454Y010823D01*
X025454Y011162D01*
X025214Y011403D01*
X024915Y011403D01*
X024326Y012124D01*
X024326Y016422D01*
X024626Y016722D01*
X026442Y016722D01*
X028435Y014563D01*
X028394Y014522D01*
X028394Y014124D01*
X028676Y013843D01*
X029073Y013843D01*
X029354Y014124D01*
X029354Y014522D01*
X029073Y014803D01*
X029151Y014725D02*
X029598Y014725D01*
X029676Y014803D02*
X029394Y014522D01*
X029394Y014124D01*
X029676Y013843D01*
X030073Y013843D01*
X030354Y014124D01*
X030354Y014522D01*
X030327Y014550D01*
X031515Y015738D01*
X031609Y015832D01*
X031609Y017013D01*
X031909Y017313D01*
X033554Y017313D01*
X034951Y016065D01*
X034935Y016049D01*
X034878Y015913D01*
X034878Y015765D01*
X034935Y015629D01*
X035039Y015525D01*
X035175Y015469D01*
X035842Y015469D01*
X035978Y015525D01*
X036082Y015629D01*
X036138Y015765D01*
X036138Y015913D01*
X036082Y016049D01*
X035978Y016153D01*
X035842Y016209D01*
X035271Y016209D01*
X033724Y017589D01*
X033681Y017633D01*
X033676Y017633D01*
X033672Y017636D01*
X033610Y017633D01*
X031777Y017633D01*
X031289Y017145D01*
X031289Y015964D01*
X030101Y014776D01*
X030073Y014803D01*
X029676Y014803D01*
X029499Y014627D02*
X029249Y014627D01*
X029348Y014528D02*
X029401Y014528D01*
X029394Y014430D02*
X029354Y014430D01*
X029354Y014331D02*
X029394Y014331D01*
X029394Y014233D02*
X029354Y014233D01*
X029354Y014134D02*
X029394Y014134D01*
X029483Y014036D02*
X029266Y014036D01*
X029167Y013937D02*
X029581Y013937D01*
X029874Y014323D02*
X031449Y015898D01*
X031449Y017079D01*
X031843Y017473D01*
X033615Y017473D01*
X035445Y015839D01*
X035508Y015839D01*
X035067Y015513D02*
X032949Y015513D01*
X032978Y015525D02*
X033082Y015629D01*
X033138Y015765D01*
X033138Y015913D01*
X033082Y016049D01*
X032978Y016153D01*
X032842Y016209D01*
X032175Y016209D01*
X032039Y016153D01*
X031935Y016049D01*
X031878Y015913D01*
X031878Y015765D01*
X031935Y015629D01*
X032039Y015525D01*
X032175Y015469D01*
X032842Y015469D01*
X032978Y015525D01*
X033065Y015612D02*
X034952Y015612D01*
X034901Y015710D02*
X033116Y015710D01*
X033138Y015809D02*
X034878Y015809D01*
X034878Y015907D02*
X033138Y015907D01*
X033100Y016006D02*
X034917Y016006D01*
X034907Y016104D02*
X033026Y016104D01*
X032856Y016203D02*
X034797Y016203D01*
X034687Y016301D02*
X031609Y016301D01*
X031609Y016203D02*
X032160Y016203D01*
X031991Y016104D02*
X031609Y016104D01*
X031609Y016006D02*
X031917Y016006D01*
X031878Y015907D02*
X031609Y015907D01*
X031586Y015809D02*
X031878Y015809D01*
X031901Y015710D02*
X031488Y015710D01*
X031389Y015612D02*
X031952Y015612D01*
X032067Y015513D02*
X031291Y015513D01*
X031192Y015415D02*
X036407Y015415D01*
X036407Y015513D02*
X035949Y015513D01*
X036065Y015612D02*
X036407Y015612D01*
X036407Y015710D02*
X036116Y015710D01*
X036138Y015809D02*
X036407Y015809D01*
X036407Y015907D02*
X036138Y015907D01*
X036100Y016006D02*
X036407Y016006D01*
X036407Y016104D02*
X036026Y016104D01*
X035856Y016203D02*
X036407Y016203D01*
X036407Y016301D02*
X035167Y016301D01*
X035163Y016409D02*
X035854Y016409D01*
X036012Y016474D01*
X036133Y016595D01*
X036198Y016753D01*
X036198Y016925D01*
X036133Y017083D01*
X036012Y017204D01*
X035854Y017269D01*
X035163Y017269D01*
X035005Y017204D01*
X034884Y017083D01*
X034818Y016925D01*
X034818Y016753D01*
X034884Y016595D01*
X035005Y016474D01*
X035163Y016409D01*
X035057Y016400D02*
X036407Y016400D01*
X036407Y016498D02*
X036036Y016498D01*
X036133Y016597D02*
X036407Y016597D01*
X036407Y016695D02*
X036174Y016695D01*
X036198Y016794D02*
X036407Y016794D01*
X036407Y016892D02*
X036198Y016892D01*
X036171Y016991D02*
X036407Y016991D01*
X036407Y017089D02*
X036126Y017089D01*
X036027Y017188D02*
X036407Y017188D01*
X036331Y017286D02*
X034064Y017286D01*
X034174Y017188D02*
X034989Y017188D01*
X034891Y017089D02*
X034284Y017089D01*
X034395Y016991D02*
X034846Y016991D01*
X034818Y016892D02*
X034505Y016892D01*
X034615Y016794D02*
X034818Y016794D01*
X034842Y016695D02*
X034726Y016695D01*
X034836Y016597D02*
X034883Y016597D01*
X034947Y016498D02*
X034981Y016498D01*
X034576Y016400D02*
X031609Y016400D01*
X031609Y016498D02*
X032103Y016498D01*
X032039Y016525D02*
X032175Y016469D01*
X032842Y016469D01*
X032978Y016525D01*
X033082Y016629D01*
X033138Y016765D01*
X033138Y016913D01*
X033082Y017049D01*
X032978Y017153D01*
X032842Y017209D01*
X032175Y017209D01*
X032039Y017153D01*
X031935Y017049D01*
X031878Y016913D01*
X031878Y016765D01*
X031935Y016629D01*
X032039Y016525D01*
X031967Y016597D02*
X031609Y016597D01*
X031609Y016695D02*
X031907Y016695D01*
X031878Y016794D02*
X031609Y016794D01*
X031609Y016892D02*
X031878Y016892D01*
X031911Y016991D02*
X031609Y016991D01*
X031686Y017089D02*
X031976Y017089D01*
X032124Y017188D02*
X031784Y017188D01*
X031883Y017286D02*
X033583Y017286D01*
X033693Y017188D02*
X032893Y017188D01*
X033041Y017089D02*
X033804Y017089D01*
X033914Y016991D02*
X033106Y016991D01*
X033138Y016892D02*
X034025Y016892D01*
X034135Y016794D02*
X033138Y016794D01*
X033109Y016695D02*
X034245Y016695D01*
X034356Y016597D02*
X033050Y016597D01*
X032913Y016498D02*
X034466Y016498D01*
X033953Y017385D02*
X036232Y017385D01*
X036134Y017483D02*
X033843Y017483D01*
X033733Y017582D02*
X036035Y017582D01*
X035937Y017680D02*
X030899Y017680D01*
X030800Y017582D02*
X031726Y017582D01*
X031627Y017483D02*
X030702Y017483D01*
X030625Y017385D02*
X031529Y017385D01*
X031430Y017286D02*
X030625Y017286D01*
X030625Y017188D02*
X031332Y017188D01*
X031289Y017089D02*
X030625Y017089D01*
X030625Y016991D02*
X031289Y016991D01*
X031289Y016892D02*
X030625Y016892D01*
X030625Y016794D02*
X031289Y016794D01*
X031289Y016695D02*
X030625Y016695D01*
X030625Y016597D02*
X031289Y016597D01*
X031289Y016498D02*
X030625Y016498D01*
X030625Y016400D02*
X031289Y016400D01*
X031289Y016301D02*
X030625Y016301D01*
X030625Y016203D02*
X031289Y016203D01*
X031289Y016104D02*
X030625Y016104D01*
X030625Y016006D02*
X031289Y016006D01*
X031232Y015907D02*
X030625Y015907D01*
X030586Y015809D02*
X031134Y015809D01*
X031035Y015710D02*
X030488Y015710D01*
X030389Y015612D02*
X030937Y015612D01*
X030838Y015513D02*
X030354Y015513D01*
X030354Y015415D02*
X030740Y015415D01*
X030641Y015316D02*
X030354Y015316D01*
X030354Y015218D02*
X030543Y015218D01*
X030444Y015119D02*
X030349Y015119D01*
X030346Y015021D02*
X030251Y015021D01*
X030247Y014922D02*
X030152Y014922D01*
X030149Y014824D02*
X028630Y014824D01*
X028596Y014922D02*
X028539Y014922D01*
X028498Y015021D02*
X028448Y015021D01*
X028399Y015119D02*
X028357Y015119D01*
X028394Y015218D02*
X028266Y015218D01*
X028175Y015316D02*
X028394Y015316D01*
X028394Y015415D02*
X028084Y015415D01*
X027993Y015513D02*
X028394Y015513D01*
X028353Y015612D02*
X027903Y015612D01*
X027812Y015710D02*
X028254Y015710D01*
X028154Y015809D02*
X027721Y015809D01*
X027630Y015907D02*
X028054Y015907D01*
X027954Y016006D02*
X027539Y016006D01*
X027448Y016104D02*
X027854Y016104D01*
X027754Y016203D02*
X027357Y016203D01*
X027266Y016301D02*
X027654Y016301D01*
X027554Y016400D02*
X027175Y016400D01*
X027084Y016498D02*
X027454Y016498D01*
X027354Y016597D02*
X026993Y016597D01*
X026902Y016695D02*
X027254Y016695D01*
X027154Y016794D02*
X026811Y016794D01*
X026721Y016892D02*
X027054Y016892D01*
X026954Y016991D02*
X026630Y016991D01*
X026512Y016882D02*
X028874Y014323D01*
X028483Y014036D02*
X027475Y014036D01*
X027475Y014134D02*
X028394Y014134D01*
X028394Y014233D02*
X027475Y014233D01*
X027475Y014331D02*
X028394Y014331D01*
X028394Y014430D02*
X027475Y014430D01*
X027475Y014528D02*
X028401Y014528D01*
X028376Y014627D02*
X027475Y014627D01*
X027475Y014725D02*
X028285Y014725D01*
X028194Y014824D02*
X027475Y014824D01*
X027475Y014922D02*
X028104Y014922D01*
X028013Y015021D02*
X027434Y015021D01*
X027475Y014980D02*
X027208Y015247D01*
X027210Y015250D01*
X027210Y015365D01*
X027166Y015471D01*
X027085Y015552D01*
X026979Y015596D01*
X026864Y015596D01*
X026758Y015552D01*
X026677Y015471D01*
X026634Y015365D01*
X026634Y015250D01*
X026677Y015144D01*
X026758Y015063D01*
X026864Y015019D01*
X026979Y015019D01*
X026982Y015021D01*
X027155Y014848D01*
X027155Y007330D01*
X026220Y006396D01*
X026214Y006403D01*
X025874Y006403D01*
X025634Y006162D01*
X025634Y005823D01*
X025874Y005583D01*
X026214Y005583D01*
X026454Y005823D01*
X026454Y006162D01*
X026447Y006169D01*
X027382Y007104D01*
X027475Y007198D01*
X027475Y014980D01*
X027315Y014914D02*
X026922Y015307D01*
X027210Y015316D02*
X027740Y015316D01*
X027831Y015218D02*
X027237Y015218D01*
X027336Y015119D02*
X027922Y015119D01*
X027649Y015415D02*
X027189Y015415D01*
X027123Y015513D02*
X027558Y015513D01*
X027467Y015612D02*
X026243Y015612D01*
X026214Y015583D02*
X026454Y015823D01*
X026454Y016162D01*
X026214Y016403D01*
X025874Y016403D01*
X025634Y016162D01*
X025634Y015823D01*
X025874Y015583D01*
X026214Y015583D01*
X026341Y015710D02*
X027376Y015710D01*
X027285Y015809D02*
X026440Y015809D01*
X026454Y015907D02*
X027194Y015907D01*
X027103Y016006D02*
X026454Y016006D01*
X026454Y016104D02*
X027012Y016104D01*
X026922Y016203D02*
X026413Y016203D01*
X026315Y016301D02*
X026831Y016301D01*
X026740Y016400D02*
X026216Y016400D01*
X025871Y016400D02*
X025216Y016400D01*
X025214Y016403D02*
X024874Y016403D01*
X024634Y016162D01*
X024634Y015823D01*
X024874Y015583D01*
X025214Y015583D01*
X025454Y015823D01*
X025454Y016162D01*
X025214Y016403D01*
X025315Y016301D02*
X025773Y016301D01*
X025674Y016203D02*
X025413Y016203D01*
X025454Y016104D02*
X025634Y016104D01*
X025634Y016006D02*
X025454Y016006D01*
X025454Y015907D02*
X025634Y015907D01*
X025647Y015809D02*
X025440Y015809D01*
X025341Y015710D02*
X025746Y015710D01*
X025844Y015612D02*
X025243Y015612D01*
X025214Y015403D02*
X024874Y015403D01*
X024634Y015162D01*
X024634Y014823D01*
X024874Y014583D01*
X025214Y014583D01*
X025454Y014823D01*
X025454Y015162D01*
X025214Y015403D01*
X025300Y015316D02*
X025788Y015316D01*
X025874Y015403D02*
X025634Y015162D01*
X025634Y014823D01*
X025874Y014583D01*
X026214Y014583D01*
X026454Y014823D01*
X026454Y015162D01*
X026214Y015403D01*
X025874Y015403D01*
X025689Y015218D02*
X025398Y015218D01*
X025454Y015119D02*
X025634Y015119D01*
X025634Y015021D02*
X025454Y015021D01*
X025454Y014922D02*
X025634Y014922D01*
X025634Y014824D02*
X025454Y014824D01*
X025356Y014725D02*
X025731Y014725D01*
X025829Y014627D02*
X025258Y014627D01*
X025214Y014403D02*
X024874Y014403D01*
X024634Y014162D01*
X024634Y013823D01*
X024874Y013583D01*
X025214Y013583D01*
X025454Y013823D01*
X025454Y014162D01*
X025214Y014403D01*
X025285Y014331D02*
X025746Y014331D01*
X025648Y014233D02*
X025383Y014233D01*
X025454Y014134D02*
X025594Y014134D01*
X025594Y014179D02*
X025594Y014043D01*
X025994Y014043D01*
X025994Y014443D01*
X025857Y014443D01*
X025594Y014179D01*
X025454Y014036D02*
X025994Y014036D01*
X025994Y014043D02*
X025994Y013943D01*
X025594Y013943D01*
X025594Y013806D01*
X025857Y013543D01*
X025994Y013543D01*
X025994Y013943D01*
X026094Y013943D01*
X026094Y014043D01*
X025994Y014043D01*
X025994Y014134D02*
X026094Y014134D01*
X026094Y014043D02*
X026094Y014443D01*
X026230Y014443D01*
X026494Y014179D01*
X026494Y014043D01*
X026094Y014043D01*
X026094Y014036D02*
X027155Y014036D01*
X027155Y014134D02*
X026494Y014134D01*
X026440Y014233D02*
X027155Y014233D01*
X027155Y014331D02*
X026341Y014331D01*
X026243Y014430D02*
X027155Y014430D01*
X027155Y014528D02*
X024326Y014528D01*
X024326Y014430D02*
X025845Y014430D01*
X025994Y014430D02*
X026094Y014430D01*
X026094Y014331D02*
X025994Y014331D01*
X025994Y014233D02*
X026094Y014233D01*
X026094Y013943D02*
X026494Y013943D01*
X026494Y013806D01*
X026230Y013543D01*
X026094Y013543D01*
X026094Y013943D01*
X026094Y013937D02*
X025994Y013937D01*
X025994Y013839D02*
X026094Y013839D01*
X026094Y013740D02*
X025994Y013740D01*
X025994Y013642D02*
X026094Y013642D01*
X026094Y013543D02*
X025994Y013543D01*
X025856Y013543D02*
X024326Y013543D01*
X024326Y013445D02*
X027155Y013445D01*
X027155Y013543D02*
X026231Y013543D01*
X026330Y013642D02*
X027155Y013642D01*
X027155Y013740D02*
X026428Y013740D01*
X026494Y013839D02*
X027155Y013839D01*
X027155Y013937D02*
X026494Y013937D01*
X026214Y013403D02*
X025874Y013403D01*
X025634Y013162D01*
X025634Y012823D01*
X025874Y012583D01*
X026214Y012583D01*
X026454Y012823D01*
X026454Y013162D01*
X026214Y013403D01*
X026270Y013346D02*
X027155Y013346D01*
X027155Y013248D02*
X026368Y013248D01*
X026454Y013149D02*
X027155Y013149D01*
X027155Y013051D02*
X026454Y013051D01*
X026454Y012952D02*
X027155Y012952D01*
X027155Y012854D02*
X026454Y012854D01*
X026386Y012755D02*
X027155Y012755D01*
X027155Y012657D02*
X026288Y012657D01*
X026214Y012403D02*
X025874Y012403D01*
X025634Y012162D01*
X025634Y011823D01*
X025874Y011583D01*
X026214Y011583D01*
X026454Y011823D01*
X026454Y012162D01*
X026214Y012403D01*
X026255Y012361D02*
X027155Y012361D01*
X027155Y012263D02*
X026353Y012263D01*
X026452Y012164D02*
X027155Y012164D01*
X027155Y012066D02*
X026454Y012066D01*
X026454Y011967D02*
X027155Y011967D01*
X027155Y011869D02*
X026454Y011869D01*
X026401Y011770D02*
X027155Y011770D01*
X027155Y011672D02*
X026303Y011672D01*
X026214Y011403D02*
X025874Y011403D01*
X025634Y011162D01*
X025634Y010823D01*
X025874Y010583D01*
X026214Y010583D01*
X026454Y010823D01*
X026454Y011162D01*
X026214Y011403D01*
X026240Y011376D02*
X027155Y011376D01*
X027155Y011278D02*
X026338Y011278D01*
X026437Y011179D02*
X027155Y011179D01*
X027155Y011081D02*
X026454Y011081D01*
X026454Y010982D02*
X027155Y010982D01*
X027155Y010884D02*
X026454Y010884D01*
X026416Y010785D02*
X027155Y010785D01*
X027155Y010687D02*
X026318Y010687D01*
X026219Y010588D02*
X027155Y010588D01*
X027155Y010490D02*
X024721Y010490D01*
X024610Y010588D02*
X024868Y010588D01*
X024769Y010687D02*
X024498Y010687D01*
X024386Y010785D02*
X024671Y010785D01*
X024634Y010884D02*
X024275Y010884D01*
X024163Y010982D02*
X024634Y010982D01*
X024634Y011081D02*
X024051Y011081D01*
X023940Y011179D02*
X024651Y011179D01*
X024604Y011278D02*
X023828Y011278D01*
X023716Y011376D02*
X024523Y011376D01*
X024443Y011475D02*
X023604Y011475D01*
X023538Y011573D02*
X024363Y011573D01*
X024282Y011672D02*
X023538Y011672D01*
X023538Y011770D02*
X024202Y011770D01*
X024121Y011869D02*
X023538Y011869D01*
X023538Y011967D02*
X024039Y011967D01*
X024005Y012066D02*
X023538Y012066D01*
X023538Y012164D02*
X024006Y012164D01*
X024006Y012263D02*
X023538Y012263D01*
X023538Y012361D02*
X024006Y012361D01*
X024006Y012460D02*
X023538Y012460D01*
X023538Y012558D02*
X024006Y012558D01*
X024006Y012657D02*
X023538Y012657D01*
X023538Y012755D02*
X024006Y012755D01*
X024006Y012854D02*
X023538Y012854D01*
X023538Y012952D02*
X024006Y012952D01*
X024006Y013051D02*
X023538Y013051D01*
X023538Y013149D02*
X024006Y013149D01*
X024006Y013248D02*
X023538Y013248D01*
X023538Y013346D02*
X024006Y013346D01*
X024006Y013445D02*
X023538Y013445D01*
X023538Y013543D02*
X024006Y013543D01*
X024006Y013642D02*
X023538Y013642D01*
X023538Y013740D02*
X024006Y013740D01*
X024006Y013839D02*
X023538Y013839D01*
X023538Y013937D02*
X024006Y013937D01*
X024006Y014036D02*
X023538Y014036D01*
X023538Y014134D02*
X024006Y014134D01*
X024006Y014233D02*
X023538Y014233D01*
X023538Y014331D02*
X024006Y014331D01*
X024006Y014430D02*
X023538Y014430D01*
X023538Y014528D02*
X024006Y014528D01*
X024006Y014627D02*
X023538Y014627D01*
X023538Y014725D02*
X024006Y014725D01*
X024006Y014824D02*
X023538Y014824D01*
X023538Y014922D02*
X024006Y014922D01*
X024006Y015021D02*
X023538Y015021D01*
X023538Y015119D02*
X024006Y015119D01*
X024006Y015218D02*
X023538Y015218D01*
X023538Y015316D02*
X024006Y015316D01*
X024006Y015415D02*
X023538Y015415D01*
X023538Y015513D02*
X024006Y015513D01*
X024006Y015612D02*
X023538Y015612D01*
X023538Y015710D02*
X024006Y015710D01*
X024006Y015809D02*
X023538Y015809D01*
X023538Y015907D02*
X024006Y015907D01*
X024006Y016006D02*
X023538Y016006D01*
X023538Y016104D02*
X024006Y016104D01*
X024006Y016203D02*
X023538Y016203D01*
X023538Y016301D02*
X024006Y016301D01*
X024006Y016400D02*
X023538Y016400D01*
X023538Y016498D02*
X024006Y016498D01*
X024048Y016597D02*
X023538Y016597D01*
X023615Y016695D02*
X024146Y016695D01*
X024245Y016794D02*
X023713Y016794D01*
X023812Y016892D02*
X024343Y016892D01*
X024442Y016991D02*
X023910Y016991D01*
X024009Y017089D02*
X026854Y017089D01*
X026754Y017188D02*
X024107Y017188D01*
X024206Y017286D02*
X026654Y017286D01*
X026693Y017473D02*
X028874Y015323D01*
X028609Y015809D02*
X030134Y015809D01*
X030137Y015907D02*
X030232Y015907D01*
X030236Y016006D02*
X030305Y016006D01*
X030465Y015914D02*
X030465Y017473D01*
X031040Y018048D01*
X032221Y018063D01*
X035780Y018063D01*
X036567Y017276D01*
X036567Y015307D01*
X037552Y014323D01*
X037552Y012552D01*
X037755Y012755D02*
X038179Y012755D01*
X038179Y012657D02*
X037820Y012657D01*
X037840Y012558D02*
X038179Y012558D01*
X038179Y012460D02*
X037825Y012460D01*
X037769Y012361D02*
X038179Y012361D01*
X038179Y012263D02*
X037054Y012263D01*
X037054Y012361D02*
X037334Y012361D01*
X037278Y012460D02*
X037054Y012460D01*
X037054Y012558D02*
X037263Y012558D01*
X037283Y012657D02*
X037054Y012657D01*
X037054Y012755D02*
X037348Y012755D01*
X037392Y012854D02*
X037054Y012854D01*
X037054Y012952D02*
X037392Y012952D01*
X037392Y013051D02*
X037054Y013051D01*
X037054Y013149D02*
X037392Y013149D01*
X037392Y013248D02*
X037054Y013248D01*
X037054Y013346D02*
X037392Y013346D01*
X037392Y013445D02*
X037054Y013445D01*
X037054Y013543D02*
X037392Y013543D01*
X037392Y013642D02*
X037054Y013642D01*
X037054Y013740D02*
X037392Y013740D01*
X037392Y013839D02*
X037054Y013839D01*
X037054Y013937D02*
X037392Y013937D01*
X037392Y014036D02*
X037054Y014036D01*
X037054Y014134D02*
X037392Y014134D01*
X037392Y014233D02*
X037054Y014233D01*
X037054Y014318D02*
X037056Y014323D01*
X037054Y014376D01*
X037054Y014428D01*
X037052Y014433D01*
X037052Y014438D01*
X037030Y014486D01*
X037010Y014535D01*
X037006Y014539D01*
X037004Y014543D01*
X036966Y014579D01*
X036928Y014616D01*
X036923Y014618D01*
X036920Y014622D01*
X036870Y014640D01*
X036822Y014660D01*
X036817Y014660D01*
X036198Y014891D01*
X036198Y014925D01*
X036133Y015083D01*
X036012Y015204D01*
X035854Y015269D01*
X035163Y015269D01*
X035005Y015204D01*
X034884Y015083D01*
X034818Y014925D01*
X034818Y014753D01*
X034884Y014595D01*
X035005Y014474D01*
X035163Y014409D01*
X035831Y014409D01*
X036474Y014169D01*
X036474Y009521D01*
X034546Y007572D01*
X034367Y007572D01*
X034608Y007820D01*
X034648Y007860D01*
X034649Y007862D01*
X034650Y007863D01*
X034671Y007915D01*
X034692Y007966D01*
X034692Y007968D01*
X034693Y007970D01*
X034692Y008026D01*
X034692Y011250D01*
X034960Y011519D01*
X035005Y011474D01*
X035163Y011409D01*
X035854Y011409D01*
X036012Y011474D01*
X036133Y011595D01*
X036198Y011753D01*
X036198Y011925D01*
X036133Y012083D01*
X036012Y012204D01*
X035854Y012269D01*
X035163Y012269D01*
X035005Y012204D01*
X034930Y012129D01*
X034813Y012129D01*
X034706Y012085D01*
X034238Y011616D01*
X034156Y011535D01*
X034112Y011428D01*
X034112Y008142D01*
X033557Y007572D01*
X033045Y007572D01*
X032946Y007473D01*
X032946Y006643D01*
X033045Y006543D01*
X033875Y006543D01*
X033975Y006643D01*
X033975Y006800D01*
X034231Y006543D01*
X034658Y006543D01*
X034959Y006845D01*
X034959Y007165D01*
X036970Y009197D01*
X037010Y009238D01*
X037010Y009238D01*
X037011Y009239D01*
X037032Y009292D01*
X037054Y009344D01*
X037054Y009345D01*
X037054Y009346D01*
X037054Y009403D01*
X037054Y014318D01*
X037056Y014331D02*
X037317Y014331D01*
X037219Y014430D02*
X037053Y014430D01*
X037013Y014528D02*
X037120Y014528D01*
X037022Y014627D02*
X036906Y014627D01*
X036923Y014725D02*
X036642Y014725D01*
X036825Y014824D02*
X036378Y014824D01*
X036198Y014922D02*
X036726Y014922D01*
X036628Y015021D02*
X036158Y015021D01*
X036096Y015119D02*
X036529Y015119D01*
X036431Y015218D02*
X035977Y015218D01*
X036407Y015316D02*
X031094Y015316D01*
X030995Y015218D02*
X032040Y015218D01*
X032005Y015204D02*
X031884Y015083D01*
X031818Y014925D01*
X031818Y014781D01*
X031125Y014387D01*
X031088Y014372D01*
X031075Y014359D01*
X031059Y014350D01*
X031035Y014319D01*
X031007Y014291D01*
X030999Y014274D01*
X030988Y014259D01*
X030978Y014221D01*
X030962Y014184D01*
X030962Y014166D01*
X030957Y014148D01*
X030962Y014108D01*
X030962Y008139D01*
X030432Y007572D01*
X029933Y007572D01*
X029833Y007473D01*
X029833Y006643D01*
X029933Y006543D01*
X030763Y006543D01*
X030862Y006643D01*
X030862Y006800D01*
X031119Y006543D01*
X031545Y006543D01*
X031846Y006845D01*
X031846Y007171D01*
X033821Y009198D01*
X033860Y009238D01*
X033861Y009240D01*
X033863Y009241D01*
X033883Y009293D01*
X033905Y009344D01*
X033905Y009346D01*
X033905Y009348D01*
X033905Y009404D01*
X033905Y011428D01*
X033860Y011535D01*
X033779Y011616D01*
X033310Y012085D01*
X033204Y012129D01*
X033086Y012129D01*
X033012Y012204D01*
X032854Y012269D01*
X032163Y012269D01*
X032005Y012204D01*
X031884Y012083D01*
X031818Y011925D01*
X031818Y011753D01*
X031884Y011595D01*
X032005Y011474D01*
X032163Y011409D01*
X032854Y011409D01*
X033012Y011474D01*
X033056Y011519D01*
X033325Y011250D01*
X033325Y009520D01*
X031428Y007572D01*
X031227Y007572D01*
X031461Y007822D01*
X031498Y007860D01*
X031500Y007864D01*
X031503Y007868D01*
X031522Y007917D01*
X031542Y007966D01*
X031542Y007971D01*
X031544Y007976D01*
X031542Y008029D01*
X031542Y013957D01*
X032338Y014409D01*
X032854Y014409D01*
X033012Y014474D01*
X033133Y014595D01*
X033198Y014753D01*
X033198Y014925D01*
X033133Y015083D01*
X033012Y015204D01*
X032854Y015269D01*
X032163Y015269D01*
X032005Y015204D01*
X031921Y015119D02*
X030897Y015119D01*
X030798Y015021D02*
X031858Y015021D01*
X031818Y014922D02*
X030700Y014922D01*
X030601Y014824D02*
X031818Y014824D01*
X031721Y014725D02*
X030503Y014725D01*
X030404Y014627D02*
X031547Y014627D01*
X031373Y014528D02*
X030348Y014528D01*
X030354Y014430D02*
X031200Y014430D01*
X031045Y014331D02*
X030354Y014331D01*
X030354Y014233D02*
X030981Y014233D01*
X030959Y014134D02*
X030354Y014134D01*
X030266Y014036D02*
X030962Y014036D01*
X030962Y013937D02*
X030167Y013937D01*
X030962Y013839D02*
X027475Y013839D01*
X027475Y013937D02*
X028581Y013937D01*
X027475Y013740D02*
X030962Y013740D01*
X030962Y013642D02*
X027475Y013642D01*
X027475Y013543D02*
X030962Y013543D01*
X030962Y013445D02*
X027475Y013445D01*
X027475Y013346D02*
X030962Y013346D01*
X030962Y013248D02*
X027475Y013248D01*
X027475Y013149D02*
X030962Y013149D01*
X030962Y013051D02*
X027475Y013051D01*
X027475Y012952D02*
X030962Y012952D01*
X030962Y012854D02*
X027475Y012854D01*
X027475Y012755D02*
X030962Y012755D01*
X030962Y012657D02*
X027475Y012657D01*
X027475Y012558D02*
X030962Y012558D01*
X030962Y012460D02*
X027475Y012460D01*
X027475Y012361D02*
X030962Y012361D01*
X030962Y012263D02*
X027475Y012263D01*
X027475Y012164D02*
X030962Y012164D01*
X030962Y012066D02*
X027475Y012066D01*
X027475Y011967D02*
X030962Y011967D01*
X030962Y011869D02*
X027475Y011869D01*
X027475Y011770D02*
X030962Y011770D01*
X030962Y011672D02*
X027475Y011672D01*
X027475Y011573D02*
X030962Y011573D01*
X030962Y011475D02*
X027475Y011475D01*
X027475Y011376D02*
X030962Y011376D01*
X030962Y011278D02*
X027475Y011278D01*
X027475Y011179D02*
X030962Y011179D01*
X030962Y011081D02*
X027475Y011081D01*
X027475Y010982D02*
X030962Y010982D01*
X030962Y010884D02*
X027475Y010884D01*
X027475Y010785D02*
X030962Y010785D01*
X030962Y010687D02*
X027475Y010687D01*
X027475Y010588D02*
X030962Y010588D01*
X030962Y010490D02*
X027475Y010490D01*
X027475Y010391D02*
X030962Y010391D01*
X030962Y010293D02*
X027475Y010293D01*
X027475Y010194D02*
X030962Y010194D01*
X030962Y010096D02*
X027475Y010096D01*
X027475Y009997D02*
X030962Y009997D01*
X030962Y009899D02*
X027475Y009899D01*
X027475Y009800D02*
X030962Y009800D01*
X030962Y009702D02*
X027475Y009702D01*
X027475Y009603D02*
X030962Y009603D01*
X030962Y009505D02*
X027475Y009505D01*
X027475Y009406D02*
X030962Y009406D01*
X030962Y009308D02*
X027475Y009308D01*
X027475Y009209D02*
X030962Y009209D01*
X030962Y009111D02*
X027475Y009111D01*
X027475Y009012D02*
X030962Y009012D01*
X030962Y008914D02*
X027475Y008914D01*
X027475Y008815D02*
X030962Y008815D01*
X030962Y008717D02*
X027475Y008717D01*
X027475Y008618D02*
X030962Y008618D01*
X030962Y008520D02*
X027475Y008520D01*
X027475Y008421D02*
X030962Y008421D01*
X030962Y008323D02*
X027475Y008323D01*
X027475Y008224D02*
X030962Y008224D01*
X030951Y008126D02*
X027475Y008126D01*
X027475Y008027D02*
X030858Y008027D01*
X030766Y007929D02*
X027475Y007929D01*
X027475Y007830D02*
X030674Y007830D01*
X030582Y007732D02*
X027475Y007732D01*
X027475Y007633D02*
X030489Y007633D01*
X029895Y007535D02*
X027475Y007535D01*
X027475Y007436D02*
X029833Y007436D01*
X029833Y007338D02*
X027475Y007338D01*
X027475Y007239D02*
X029833Y007239D01*
X029833Y007141D02*
X027418Y007141D01*
X027320Y007042D02*
X029833Y007042D01*
X029833Y006944D02*
X027221Y006944D01*
X027123Y006845D02*
X029833Y006845D01*
X029833Y006747D02*
X027024Y006747D01*
X026926Y006648D02*
X029833Y006648D01*
X029926Y006550D02*
X026827Y006550D01*
X026729Y006451D02*
X036906Y006451D01*
X036808Y006353D02*
X026630Y006353D01*
X026532Y006254D02*
X036740Y006254D01*
X036772Y006317D02*
X036566Y005913D01*
X036495Y005465D01*
X036566Y005017D01*
X036566Y005017D01*
X036772Y004613D01*
X036772Y004613D01*
X037093Y004292D01*
X037497Y004086D01*
X037497Y004086D01*
X037945Y004015D01*
X037945Y004015D01*
X038393Y004086D01*
X038393Y004086D01*
X038798Y004292D01*
X039118Y004613D01*
X039324Y005017D01*
X039395Y005465D01*
X039324Y005913D01*
X039118Y006317D01*
X039118Y006317D01*
X038798Y006638D01*
X038798Y006638D01*
X038393Y006844D01*
X037945Y006915D01*
X037497Y006844D01*
X037093Y006638D01*
X037093Y006638D01*
X036772Y006317D01*
X036772Y006317D01*
X036690Y006156D02*
X026454Y006156D01*
X026454Y006057D02*
X036640Y006057D01*
X036590Y005959D02*
X026454Y005959D01*
X026454Y005860D02*
X036558Y005860D01*
X036566Y005913D02*
X036566Y005913D01*
X036542Y005762D02*
X026393Y005762D01*
X026294Y005663D02*
X036527Y005663D01*
X036511Y005565D02*
X020961Y005565D01*
X020961Y005612D02*
X020491Y005612D01*
X020491Y005142D01*
X020831Y005142D01*
X020869Y005152D01*
X020903Y005172D01*
X020931Y005200D01*
X020951Y005234D01*
X020961Y005272D01*
X020961Y005612D01*
X020961Y005712D02*
X020491Y005712D01*
X020391Y005712D01*
X020391Y005612D01*
X019921Y005612D01*
X019921Y005272D01*
X019932Y005234D01*
X019951Y005200D01*
X019979Y005172D01*
X020013Y005152D01*
X020052Y005142D01*
X020391Y005142D01*
X020391Y005612D01*
X020491Y005612D01*
X020491Y005712D01*
X020491Y006182D01*
X020491Y006612D01*
X020391Y006612D01*
X019923Y006612D01*
X019934Y006540D01*
X019959Y006462D01*
X019997Y006389D01*
X020045Y006323D01*
X020103Y006265D01*
X020169Y006217D01*
X020238Y006182D01*
X020052Y006182D01*
X020013Y006172D01*
X019979Y006152D01*
X019951Y006124D01*
X019932Y006090D01*
X019921Y006052D01*
X019921Y005712D01*
X020391Y005712D01*
X020391Y006612D01*
X020391Y006712D01*
X019923Y006712D01*
X019934Y006784D01*
X019959Y006861D01*
X019997Y006934D01*
X020045Y007001D01*
X020103Y007058D01*
X020169Y007107D01*
X020242Y007144D01*
X020297Y007162D01*
X020242Y007180D01*
X020169Y007217D01*
X020103Y007265D01*
X020045Y007323D01*
X019997Y007389D01*
X019959Y007462D01*
X019934Y007540D01*
X019923Y007612D01*
X020391Y007612D01*
X020391Y007712D01*
X019923Y007712D01*
X019934Y007784D01*
X019959Y007861D01*
X019997Y007934D01*
X020045Y008001D01*
X020103Y008058D01*
X020169Y008107D01*
X020242Y008144D01*
X020297Y008162D01*
X020242Y008180D01*
X020169Y008217D01*
X020103Y008265D01*
X020045Y008323D01*
X019781Y008323D01*
X019848Y008390D02*
X019921Y008566D01*
X019921Y008757D01*
X019848Y008934D01*
X019713Y009069D01*
X019537Y009142D01*
X019346Y009142D01*
X019169Y009069D01*
X019034Y008934D01*
X018961Y008757D01*
X018961Y008566D01*
X019034Y008390D01*
X019169Y008255D01*
X019346Y008182D01*
X019537Y008182D01*
X019713Y008255D01*
X019848Y008390D01*
X019861Y008421D02*
X019980Y008421D01*
X019997Y008389D02*
X020045Y008323D01*
X019997Y008389D02*
X019959Y008462D01*
X019934Y008540D01*
X019923Y008612D01*
X020391Y008612D01*
X020391Y008712D01*
X019923Y008712D01*
X019934Y008784D01*
X019959Y008861D01*
X019997Y008934D01*
X020045Y009001D01*
X020103Y009058D01*
X020169Y009107D01*
X020242Y009144D01*
X020297Y009162D01*
X020242Y009180D01*
X020169Y009217D01*
X020103Y009265D01*
X020045Y009323D01*
X019997Y009389D01*
X019959Y009462D01*
X019934Y009540D01*
X019923Y009612D01*
X020391Y009612D01*
X020391Y009712D01*
X019923Y009712D01*
X019934Y009784D01*
X019959Y009861D01*
X019997Y009934D01*
X020045Y010001D01*
X020103Y010058D01*
X020169Y010107D01*
X020242Y010144D01*
X020297Y010162D01*
X020242Y010180D01*
X020169Y010217D01*
X020103Y010265D01*
X020045Y010323D01*
X019997Y010389D01*
X019959Y010462D01*
X019934Y010540D01*
X019923Y010612D01*
X020391Y010612D01*
X020391Y010712D01*
X019923Y010712D01*
X019934Y010784D01*
X019959Y010861D01*
X019997Y010934D01*
X020045Y011001D01*
X020103Y011058D01*
X020169Y011107D01*
X020242Y011144D01*
X020297Y011162D01*
X020242Y011180D01*
X020169Y011217D01*
X020103Y011265D01*
X020045Y011323D01*
X019997Y011389D01*
X019959Y011462D01*
X019934Y011540D01*
X019923Y011612D01*
X020391Y011612D01*
X020391Y011712D01*
X019923Y011712D01*
X019934Y011784D01*
X019959Y011861D01*
X019997Y011934D01*
X020045Y012001D01*
X020103Y012058D01*
X020169Y012107D01*
X020242Y012144D01*
X020297Y012162D01*
X020242Y012180D01*
X020169Y012217D01*
X020103Y012265D01*
X020045Y012323D01*
X019997Y012389D01*
X019959Y012462D01*
X019934Y012540D01*
X019923Y012612D01*
X020391Y012612D01*
X020391Y012712D01*
X019923Y012712D01*
X019934Y012784D01*
X019959Y012861D01*
X019997Y012934D01*
X020045Y013001D01*
X020103Y013058D01*
X020169Y013107D01*
X020242Y013144D01*
X020320Y013169D01*
X020391Y013180D01*
X020391Y012712D01*
X020491Y012712D01*
X020491Y013180D01*
X020563Y013169D01*
X020641Y013144D01*
X020714Y013107D01*
X020780Y013058D01*
X020838Y013001D01*
X020886Y012934D01*
X020923Y012861D01*
X020949Y012784D01*
X020960Y012712D01*
X020491Y012712D01*
X020491Y012612D01*
X020491Y012143D01*
X020491Y011712D01*
X020391Y011712D01*
X020391Y012612D01*
X020491Y012612D01*
X020960Y012612D01*
X020949Y012540D01*
X020923Y012462D01*
X020886Y012389D01*
X020838Y012323D01*
X020780Y012265D01*
X020714Y012217D01*
X020641Y012180D01*
X020585Y012162D01*
X020641Y012144D01*
X020714Y012107D01*
X020780Y012058D01*
X020838Y012001D01*
X020886Y011934D01*
X020923Y011861D01*
X020949Y011784D01*
X020960Y011712D01*
X020491Y011712D01*
X020491Y011612D01*
X020491Y011143D01*
X020491Y010712D01*
X020391Y010712D01*
X020391Y011612D01*
X020491Y011612D01*
X020960Y011612D01*
X020949Y011540D01*
X020923Y011462D01*
X020886Y011389D01*
X020838Y011323D01*
X020780Y011265D01*
X020714Y011217D01*
X020641Y011180D01*
X020585Y011162D01*
X020641Y011144D01*
X020714Y011107D01*
X020780Y011058D01*
X020838Y011001D01*
X020886Y010934D01*
X020923Y010861D01*
X020949Y010784D01*
X020960Y010712D01*
X020491Y010712D01*
X020491Y010612D01*
X020491Y010143D01*
X020491Y009712D01*
X020391Y009712D01*
X020391Y010612D01*
X020491Y010612D01*
X020960Y010612D01*
X020949Y010540D01*
X020923Y010462D01*
X020886Y010389D01*
X020838Y010323D01*
X020780Y010265D01*
X020714Y010217D01*
X020641Y010180D01*
X020585Y010162D01*
X020641Y010144D01*
X020714Y010107D01*
X020780Y010058D01*
X020838Y010001D01*
X020886Y009934D01*
X020923Y009861D01*
X020949Y009784D01*
X020960Y009712D01*
X020491Y009712D01*
X020491Y009612D01*
X020491Y009143D01*
X020491Y008712D01*
X020391Y008712D01*
X020391Y009612D01*
X020491Y009612D01*
X020960Y009612D01*
X020949Y009540D01*
X020923Y009462D01*
X020886Y009389D01*
X020838Y009323D01*
X020780Y009265D01*
X020714Y009217D01*
X020641Y009180D01*
X020585Y009162D01*
X020641Y009144D01*
X020714Y009107D01*
X020780Y009058D01*
X020838Y009001D01*
X020886Y008934D01*
X020923Y008861D01*
X020949Y008784D01*
X020960Y008712D01*
X020491Y008712D01*
X020491Y008612D01*
X020491Y008143D01*
X020491Y007712D01*
X020391Y007712D01*
X020391Y008612D01*
X020491Y008612D01*
X020960Y008612D01*
X020949Y008540D01*
X020923Y008462D01*
X020886Y008389D01*
X020838Y008323D01*
X020780Y008265D01*
X020714Y008217D01*
X020641Y008180D01*
X020585Y008162D01*
X020641Y008144D01*
X020714Y008107D01*
X020780Y008058D01*
X020838Y008001D01*
X020886Y007934D01*
X020923Y007861D01*
X020949Y007784D01*
X020960Y007712D01*
X020491Y007712D01*
X020491Y007612D01*
X020491Y007143D01*
X020491Y006712D01*
X020391Y006712D01*
X020391Y007612D01*
X020491Y007612D01*
X020960Y007612D01*
X020949Y007540D01*
X020923Y007462D01*
X020886Y007389D01*
X020838Y007323D01*
X020780Y007265D01*
X020714Y007217D01*
X020641Y007180D01*
X020585Y007162D01*
X020641Y007144D01*
X020714Y007107D01*
X020780Y007058D01*
X020838Y007001D01*
X020886Y006934D01*
X020923Y006861D01*
X020949Y006784D01*
X020960Y006712D01*
X020491Y006712D01*
X020491Y006612D01*
X020960Y006612D01*
X020949Y006540D01*
X020923Y006462D01*
X020886Y006389D01*
X020838Y006323D01*
X020780Y006265D01*
X020714Y006217D01*
X020645Y006182D01*
X020831Y006182D01*
X020869Y006172D01*
X020903Y006152D01*
X020931Y006124D01*
X020951Y006090D01*
X020961Y006052D01*
X020961Y005712D01*
X020961Y005762D02*
X024694Y005762D01*
X024634Y005823D02*
X024874Y005583D01*
X025214Y005583D01*
X025454Y005823D01*
X025454Y006162D01*
X025214Y006403D01*
X024874Y006403D01*
X024634Y006162D01*
X024634Y005823D01*
X024634Y005860D02*
X020961Y005860D01*
X020961Y005959D02*
X024634Y005959D01*
X024634Y006057D02*
X020960Y006057D01*
X020896Y006156D02*
X024634Y006156D01*
X024726Y006254D02*
X020765Y006254D01*
X020860Y006353D02*
X024824Y006353D01*
X024874Y006583D02*
X025214Y006583D01*
X025454Y006823D01*
X025454Y007162D01*
X025214Y007403D01*
X024874Y007403D01*
X024634Y007162D01*
X024634Y006823D01*
X024874Y006583D01*
X024808Y006648D02*
X020491Y006648D01*
X020491Y006550D02*
X020391Y006550D01*
X020391Y006648D02*
X019921Y006648D01*
X019921Y006566D02*
X019921Y006757D01*
X019848Y006934D01*
X019713Y007069D01*
X019537Y007142D01*
X019346Y007142D01*
X019169Y007069D01*
X019034Y006934D01*
X018961Y006757D01*
X018961Y006566D01*
X019034Y006390D01*
X019169Y006255D01*
X019346Y006182D01*
X019537Y006182D01*
X019713Y006255D01*
X019848Y006390D01*
X019921Y006566D01*
X019915Y006550D02*
X019933Y006550D01*
X019965Y006451D02*
X019874Y006451D01*
X019811Y006353D02*
X020023Y006353D01*
X020117Y006254D02*
X019712Y006254D01*
X019857Y006142D02*
X019026Y006142D01*
X018961Y006077D01*
X018961Y005246D01*
X019026Y005182D01*
X019857Y005182D01*
X019921Y005246D01*
X019921Y006077D01*
X019857Y006142D01*
X019921Y006057D02*
X019923Y006057D01*
X019921Y005959D02*
X019921Y005959D01*
X019921Y005860D02*
X019921Y005860D01*
X019921Y005762D02*
X019921Y005762D01*
X019921Y005663D02*
X020391Y005663D01*
X020391Y005565D02*
X020491Y005565D01*
X020491Y005663D02*
X024793Y005663D01*
X024874Y005403D02*
X024634Y005162D01*
X024634Y004823D01*
X024874Y004583D01*
X025214Y004583D01*
X025454Y004823D01*
X025454Y005162D01*
X025214Y005403D01*
X024874Y005403D01*
X024839Y005368D02*
X020961Y005368D01*
X020961Y005466D02*
X036496Y005466D01*
X036495Y005465D02*
X036495Y005465D01*
X036511Y005368D02*
X026248Y005368D01*
X026214Y005403D02*
X025874Y005403D01*
X025634Y005162D01*
X025634Y004823D01*
X025874Y004583D01*
X026214Y004583D01*
X026454Y004823D01*
X026454Y005162D01*
X026214Y005403D01*
X026347Y005269D02*
X036526Y005269D01*
X036542Y005171D02*
X026445Y005171D01*
X026454Y005072D02*
X036557Y005072D01*
X036588Y004974D02*
X026454Y004974D01*
X026454Y004875D02*
X036638Y004875D01*
X036688Y004777D02*
X026408Y004777D01*
X026309Y004678D02*
X036739Y004678D01*
X036805Y004580D02*
X003653Y004580D01*
X003685Y004613D02*
X003364Y004292D01*
X003364Y004292D01*
X002960Y004086D01*
X002960Y004086D01*
X002512Y004015D01*
X002512Y004015D01*
X002064Y004086D01*
X002064Y004086D01*
X001660Y004292D01*
X001339Y004613D01*
X001339Y004613D01*
X001133Y005017D01*
X001062Y005465D01*
X001062Y005465D01*
X001133Y005913D01*
X001133Y005913D01*
X001339Y006317D01*
X001339Y006317D01*
X001660Y006638D01*
X001660Y006638D01*
X002064Y006844D01*
X002064Y006844D01*
X002512Y006915D01*
X002512Y006915D01*
X002960Y006844D01*
X002960Y006844D01*
X003364Y006638D01*
X003364Y006638D01*
X003685Y006317D01*
X003685Y006317D01*
X003891Y005913D01*
X003891Y005913D01*
X003962Y005465D01*
X003891Y005017D01*
X003685Y004613D01*
X003685Y004613D01*
X003719Y004678D02*
X024778Y004678D01*
X024679Y004777D02*
X003769Y004777D01*
X003819Y004875D02*
X024634Y004875D01*
X024634Y004974D02*
X003869Y004974D01*
X003891Y005017D02*
X003891Y005017D01*
X003900Y005072D02*
X024634Y005072D01*
X024642Y005171D02*
X020902Y005171D01*
X020961Y005269D02*
X024741Y005269D01*
X025248Y005368D02*
X025839Y005368D01*
X025741Y005269D02*
X025347Y005269D01*
X025445Y005171D02*
X025642Y005171D01*
X025634Y005072D02*
X025454Y005072D01*
X025454Y004974D02*
X025634Y004974D01*
X025634Y004875D02*
X025454Y004875D01*
X025408Y004777D02*
X025679Y004777D01*
X025778Y004678D02*
X025309Y004678D01*
X025230Y004443D02*
X025094Y004443D01*
X025094Y004043D01*
X024994Y004043D01*
X024994Y004443D01*
X024857Y004443D01*
X024594Y004179D01*
X024594Y004043D01*
X024994Y004043D01*
X024994Y003943D01*
X024594Y003943D01*
X024594Y003806D01*
X024753Y003646D01*
X000694Y003646D01*
X000694Y023031D01*
X039764Y023031D01*
X039764Y003646D01*
X026277Y003646D01*
X026454Y003823D01*
X026454Y004162D01*
X026214Y004403D01*
X025874Y004403D01*
X025634Y004162D01*
X025634Y003823D01*
X025810Y003646D01*
X025334Y003646D01*
X025494Y003806D01*
X025494Y003943D01*
X025094Y003943D01*
X025094Y004043D01*
X025494Y004043D01*
X025494Y004179D01*
X025230Y004443D01*
X025290Y004383D02*
X025854Y004383D01*
X025756Y004284D02*
X025388Y004284D01*
X025487Y004186D02*
X025657Y004186D01*
X025634Y004087D02*
X025494Y004087D01*
X025634Y003989D02*
X025094Y003989D01*
X025094Y004087D02*
X024994Y004087D01*
X024994Y003989D02*
X000694Y003989D01*
X000694Y004087D02*
X002061Y004087D01*
X001868Y004186D02*
X000694Y004186D01*
X000694Y004284D02*
X001674Y004284D01*
X001569Y004383D02*
X000694Y004383D01*
X000694Y004481D02*
X001470Y004481D01*
X001372Y004580D02*
X000694Y004580D01*
X000694Y004678D02*
X001306Y004678D01*
X001255Y004777D02*
X000694Y004777D01*
X000694Y004875D02*
X001205Y004875D01*
X001155Y004974D02*
X000694Y004974D01*
X000694Y005072D02*
X001124Y005072D01*
X001109Y005171D02*
X000694Y005171D01*
X000694Y005269D02*
X001093Y005269D01*
X001078Y005368D02*
X000694Y005368D01*
X000694Y005466D02*
X001062Y005466D01*
X001078Y005565D02*
X000694Y005565D01*
X000694Y005663D02*
X001094Y005663D01*
X001109Y005762D02*
X000694Y005762D01*
X000694Y005860D02*
X001125Y005860D01*
X001157Y005959D02*
X000694Y005959D01*
X000694Y006057D02*
X001207Y006057D01*
X001257Y006156D02*
X000694Y006156D01*
X000694Y006254D02*
X001307Y006254D01*
X001375Y006353D02*
X000694Y006353D01*
X000694Y006451D02*
X001473Y006451D01*
X001572Y006550D02*
X000694Y006550D01*
X000694Y006648D02*
X001680Y006648D01*
X001874Y006747D02*
X000694Y006747D01*
X000694Y006845D02*
X002073Y006845D01*
X002951Y006845D02*
X013028Y006845D01*
X013037Y006867D02*
X012981Y006731D01*
X012981Y006584D01*
X013037Y006448D01*
X013141Y006344D01*
X013277Y006288D01*
X013944Y006288D01*
X014080Y006344D01*
X014184Y006448D01*
X014241Y006584D01*
X014241Y006731D01*
X014184Y006867D01*
X014080Y006972D01*
X013944Y007028D01*
X013277Y007028D01*
X013141Y006972D01*
X013037Y006867D01*
X013113Y006944D02*
X000694Y006944D01*
X000694Y007042D02*
X019143Y007042D01*
X019045Y006944D02*
X017108Y006944D01*
X017080Y006972D02*
X016944Y007028D01*
X016277Y007028D01*
X016141Y006972D01*
X016037Y006867D01*
X015981Y006731D01*
X015981Y006584D01*
X016037Y006448D01*
X016141Y006344D01*
X016277Y006288D01*
X016944Y006288D01*
X017080Y006344D01*
X017184Y006448D01*
X017241Y006584D01*
X017241Y006731D01*
X017184Y006867D01*
X017080Y006972D01*
X017193Y006845D02*
X018998Y006845D01*
X018961Y006747D02*
X017234Y006747D01*
X017241Y006648D02*
X018961Y006648D01*
X018968Y006550D02*
X017226Y006550D01*
X017186Y006451D02*
X019009Y006451D01*
X019071Y006353D02*
X017089Y006353D01*
X016944Y006028D02*
X016277Y006028D01*
X016141Y005972D01*
X016037Y005867D01*
X015981Y005731D01*
X015981Y005584D01*
X016037Y005448D01*
X016141Y005344D01*
X016277Y005288D01*
X016944Y005288D01*
X017080Y005344D01*
X017184Y005448D01*
X017241Y005584D01*
X017241Y005731D01*
X017184Y005867D01*
X017080Y005972D01*
X016944Y006028D01*
X017093Y005959D02*
X018961Y005959D01*
X018961Y006057D02*
X003818Y006057D01*
X003868Y005959D02*
X013128Y005959D01*
X013141Y005972D02*
X013037Y005867D01*
X012981Y005731D01*
X012981Y005584D01*
X013037Y005448D01*
X013141Y005344D01*
X013277Y005288D01*
X013944Y005288D01*
X014080Y005344D01*
X014184Y005448D01*
X014241Y005584D01*
X014241Y005731D01*
X014184Y005867D01*
X014080Y005972D01*
X013944Y006028D01*
X013277Y006028D01*
X013141Y005972D01*
X013034Y005860D02*
X003900Y005860D01*
X003915Y005762D02*
X012993Y005762D01*
X012981Y005663D02*
X003931Y005663D01*
X003946Y005565D02*
X012989Y005565D01*
X013029Y005466D02*
X003962Y005466D01*
X003947Y005368D02*
X013117Y005368D01*
X014104Y005368D02*
X016117Y005368D01*
X016029Y005466D02*
X014192Y005466D01*
X014233Y005565D02*
X015989Y005565D01*
X015981Y005663D02*
X014241Y005663D01*
X014228Y005762D02*
X015993Y005762D01*
X016034Y005860D02*
X014187Y005860D01*
X014093Y005959D02*
X016128Y005959D01*
X016132Y006353D02*
X014089Y006353D01*
X014186Y006451D02*
X016036Y006451D01*
X015995Y006550D02*
X014226Y006550D01*
X014241Y006648D02*
X015981Y006648D01*
X015987Y006747D02*
X014234Y006747D01*
X014193Y006845D02*
X016028Y006845D01*
X016113Y006944D02*
X014108Y006944D01*
X013944Y007288D02*
X014080Y007344D01*
X014184Y007448D01*
X014241Y007584D01*
X014241Y007731D01*
X014184Y007867D01*
X014080Y007972D01*
X013944Y008028D01*
X013277Y008028D01*
X013141Y007972D01*
X013037Y007867D01*
X012981Y007731D01*
X012981Y007584D01*
X013037Y007448D01*
X013141Y007344D01*
X013277Y007288D01*
X013944Y007288D01*
X014065Y007338D02*
X016156Y007338D01*
X016141Y007344D02*
X016277Y007288D01*
X016944Y007288D01*
X017080Y007344D01*
X017184Y007448D01*
X017241Y007584D01*
X017241Y007731D01*
X017184Y007867D01*
X017080Y007972D01*
X016944Y008028D01*
X016277Y008028D01*
X016141Y007972D01*
X016037Y007867D01*
X015981Y007731D01*
X015981Y007584D01*
X016037Y007448D01*
X016141Y007344D01*
X016049Y007436D02*
X014172Y007436D01*
X014220Y007535D02*
X016001Y007535D01*
X015981Y007633D02*
X014241Y007633D01*
X014240Y007732D02*
X015981Y007732D01*
X016022Y007830D02*
X014200Y007830D01*
X014123Y007929D02*
X016098Y007929D01*
X016276Y008027D02*
X013945Y008027D01*
X013944Y008288D02*
X014080Y008344D01*
X014184Y008448D01*
X014241Y008584D01*
X014241Y008731D01*
X014184Y008867D01*
X014080Y008972D01*
X013944Y009028D01*
X013277Y009028D01*
X013141Y008972D01*
X013037Y008867D01*
X012981Y008731D01*
X012981Y008584D01*
X013037Y008448D01*
X013141Y008344D01*
X013277Y008288D01*
X013944Y008288D01*
X014029Y008323D02*
X016192Y008323D01*
X016141Y008344D02*
X016277Y008288D01*
X016944Y008288D01*
X017080Y008344D01*
X017184Y008448D01*
X017241Y008584D01*
X017241Y008731D01*
X017184Y008867D01*
X017080Y008972D01*
X016944Y009028D01*
X016277Y009028D01*
X016141Y008972D01*
X016037Y008867D01*
X015981Y008731D01*
X015981Y008584D01*
X016037Y008448D01*
X016141Y008344D01*
X016064Y008421D02*
X014157Y008421D01*
X014214Y008520D02*
X016007Y008520D01*
X015981Y008618D02*
X014241Y008618D01*
X014241Y008717D02*
X015981Y008717D01*
X016015Y008815D02*
X014206Y008815D01*
X014138Y008914D02*
X016083Y008914D01*
X016240Y009012D02*
X013981Y009012D01*
X013944Y009288D02*
X013277Y009288D01*
X013141Y009344D01*
X013037Y009448D01*
X012981Y009584D01*
X012981Y009731D01*
X013037Y009867D01*
X013141Y009972D01*
X013277Y010028D01*
X013944Y010028D01*
X014080Y009972D01*
X014184Y009867D01*
X014241Y009731D01*
X014241Y009584D01*
X014184Y009448D01*
X014080Y009344D01*
X013944Y009288D01*
X013993Y009308D02*
X016229Y009308D01*
X016277Y009288D02*
X016141Y009344D01*
X016037Y009448D01*
X015981Y009584D01*
X015981Y009731D01*
X016037Y009867D01*
X016141Y009972D01*
X016277Y010028D01*
X016944Y010028D01*
X017080Y009972D01*
X017184Y009867D01*
X017241Y009731D01*
X017241Y009584D01*
X017184Y009448D01*
X017080Y009344D01*
X016944Y009288D01*
X016277Y009288D01*
X016079Y009406D02*
X014142Y009406D01*
X014208Y009505D02*
X016013Y009505D01*
X015981Y009603D02*
X014241Y009603D01*
X014241Y009702D02*
X015981Y009702D01*
X016009Y009800D02*
X014212Y009800D01*
X014153Y009899D02*
X016068Y009899D01*
X016204Y009997D02*
X014018Y009997D01*
X013944Y010288D02*
X014080Y010344D01*
X014184Y010448D01*
X014241Y010584D01*
X014241Y010731D01*
X014184Y010867D01*
X014080Y010972D01*
X013944Y011028D01*
X013277Y011028D01*
X013141Y010972D01*
X013037Y010867D01*
X012981Y010731D01*
X012981Y010584D01*
X013037Y010448D01*
X013141Y010344D01*
X013277Y010288D01*
X013944Y010288D01*
X013957Y010293D02*
X016265Y010293D01*
X016277Y010288D02*
X016141Y010344D01*
X016037Y010448D01*
X015981Y010584D01*
X015981Y010731D01*
X016037Y010867D01*
X016141Y010972D01*
X016277Y011028D01*
X016944Y011028D01*
X017080Y010972D01*
X017184Y010867D01*
X017241Y010731D01*
X017241Y010584D01*
X017184Y010448D01*
X017080Y010344D01*
X016944Y010288D01*
X016277Y010288D01*
X016094Y010391D02*
X014127Y010391D01*
X014202Y010490D02*
X016020Y010490D01*
X015981Y010588D02*
X014241Y010588D01*
X014241Y010687D02*
X015981Y010687D01*
X016003Y010785D02*
X014218Y010785D01*
X014168Y010884D02*
X016053Y010884D01*
X016167Y010982D02*
X014054Y010982D01*
X013944Y011288D02*
X014080Y011344D01*
X014184Y011448D01*
X014241Y011584D01*
X014241Y011731D01*
X014184Y011867D01*
X014080Y011972D01*
X013944Y012028D01*
X013277Y012028D01*
X013141Y011972D01*
X013037Y011867D01*
X012981Y011731D01*
X012981Y011584D01*
X013037Y011448D01*
X013141Y011344D01*
X013277Y011288D01*
X013944Y011288D01*
X014112Y011376D02*
X016109Y011376D01*
X016141Y011344D02*
X016277Y011288D01*
X016944Y011288D01*
X017080Y011344D01*
X017184Y011448D01*
X017241Y011584D01*
X017241Y011731D01*
X017184Y011867D01*
X017080Y011972D01*
X016944Y012028D01*
X016277Y012028D01*
X016141Y011972D01*
X016037Y011867D01*
X015981Y011731D01*
X015981Y011584D01*
X016037Y011448D01*
X016141Y011344D01*
X016026Y011475D02*
X014195Y011475D01*
X014236Y011573D02*
X015985Y011573D01*
X015981Y011672D02*
X014241Y011672D01*
X014224Y011770D02*
X015997Y011770D01*
X016038Y011869D02*
X014183Y011869D01*
X014084Y011967D02*
X016137Y011967D01*
X016277Y012288D02*
X016141Y012344D01*
X016037Y012448D01*
X015981Y012584D01*
X015981Y012731D01*
X016037Y012867D01*
X016141Y012972D01*
X016277Y013028D01*
X016944Y013028D01*
X017080Y012972D01*
X017184Y012867D01*
X017241Y012731D01*
X017241Y012584D01*
X017184Y012448D01*
X017080Y012344D01*
X016944Y012288D01*
X016277Y012288D01*
X016124Y012361D02*
X014097Y012361D01*
X014080Y012344D02*
X014184Y012448D01*
X014241Y012584D01*
X014241Y012731D01*
X014184Y012867D01*
X014080Y012972D01*
X013944Y013028D01*
X013483Y013028D01*
X013184Y013326D01*
X013277Y013288D01*
X013944Y013288D01*
X014080Y013344D01*
X014184Y013448D01*
X014241Y013584D01*
X014241Y013731D01*
X014184Y013867D01*
X014080Y013972D01*
X013944Y014028D01*
X013277Y014028D01*
X013141Y013972D01*
X013037Y013867D01*
X012981Y013731D01*
X012981Y013584D01*
X013019Y013491D01*
X012908Y013602D01*
X012908Y019375D01*
X013278Y019745D01*
X013282Y019744D01*
X013396Y019744D01*
X013502Y019788D01*
X013583Y019869D01*
X013627Y019975D01*
X013627Y020089D01*
X013583Y020195D01*
X013502Y020276D01*
X013396Y020320D01*
X013282Y020320D01*
X013176Y020276D01*
X013095Y020195D01*
X013051Y020089D01*
X013051Y019975D01*
X013052Y019971D01*
X012682Y019601D01*
X012588Y019508D01*
X012588Y013470D01*
X012682Y013376D01*
X013114Y012944D01*
X013037Y012867D01*
X012981Y012731D01*
X012981Y012584D01*
X013037Y012448D01*
X013141Y012344D01*
X013277Y012288D01*
X013944Y012288D01*
X014080Y012344D01*
X014189Y012460D02*
X016032Y012460D01*
X015991Y012558D02*
X014230Y012558D01*
X014241Y012657D02*
X015981Y012657D01*
X015991Y012755D02*
X014231Y012755D01*
X014190Y012854D02*
X016031Y012854D01*
X016122Y012952D02*
X014099Y012952D01*
X013626Y012658D02*
X013611Y012658D01*
X013626Y012658D02*
X012748Y013536D01*
X012748Y019441D01*
X013339Y020032D01*
X013605Y020143D02*
X021707Y020143D01*
X021624Y020060D02*
X021624Y019903D01*
X022070Y019903D01*
X022070Y019806D01*
X022167Y019806D01*
X022167Y019360D01*
X022323Y019360D01*
X022613Y019650D01*
X022613Y019806D01*
X022167Y019806D01*
X022167Y019903D01*
X022613Y019903D01*
X022613Y020019D01*
X022648Y019984D01*
X022648Y019465D01*
X022713Y019400D01*
X023493Y019400D01*
X023557Y019465D01*
X023557Y020245D01*
X023493Y020309D01*
X022974Y020309D01*
X022171Y021111D01*
X022037Y021246D01*
X016781Y021246D01*
X016633Y021394D01*
X016803Y021324D01*
X016994Y021324D01*
X017170Y021397D01*
X017305Y021532D01*
X017378Y021708D01*
X017378Y021899D01*
X017305Y022075D01*
X017170Y022210D01*
X016994Y022284D01*
X016803Y022284D01*
X016626Y022210D01*
X016491Y022075D01*
X016418Y021899D01*
X016418Y021708D01*
X016488Y021539D01*
X016361Y021666D01*
X016378Y021708D01*
X016378Y021899D01*
X016305Y022075D01*
X016170Y022210D01*
X015994Y022284D01*
X015803Y022284D01*
X015626Y022210D01*
X015491Y022075D01*
X015418Y021899D01*
X015418Y021708D01*
X015491Y021532D01*
X015626Y021397D01*
X015803Y021324D01*
X015994Y021324D01*
X016035Y021341D01*
X016130Y021246D01*
X013434Y021246D01*
X013287Y021394D01*
X013456Y021324D01*
X013647Y021324D01*
X013823Y021397D01*
X013958Y021532D01*
X014032Y021708D01*
X014032Y021899D01*
X013958Y022075D01*
X013823Y022210D01*
X013647Y022284D01*
X013456Y022284D01*
X013280Y022210D01*
X013145Y022075D01*
X013072Y021899D01*
X013072Y021708D01*
X013142Y021539D01*
X013014Y021666D01*
X013032Y021708D01*
X013032Y021899D01*
X012958Y022075D01*
X012823Y022210D01*
X012647Y022284D01*
X012456Y022284D01*
X012280Y022210D01*
X012145Y022075D01*
X012072Y021899D01*
X012072Y021708D01*
X012145Y021532D01*
X012280Y021397D01*
X012456Y021324D01*
X012647Y021324D01*
X012689Y021341D01*
X012784Y021246D01*
X011072Y021246D01*
X010924Y021394D01*
X011094Y021324D01*
X011285Y021324D01*
X011461Y021397D01*
X011596Y021532D01*
X011669Y021708D01*
X011669Y021899D01*
X011596Y022075D01*
X011461Y022210D01*
X011285Y022284D01*
X011094Y022284D01*
X010917Y022210D01*
X010782Y022075D01*
X010709Y021899D01*
X010709Y021708D01*
X010780Y021539D01*
X010652Y021666D01*
X010669Y021708D01*
X010669Y021899D01*
X010596Y022075D01*
X010461Y022210D01*
X010285Y022284D01*
X010094Y022284D01*
X009917Y022210D01*
X009782Y022075D01*
X009709Y021899D01*
X009709Y021708D01*
X009782Y021532D01*
X009917Y021397D01*
X010094Y021324D01*
X010285Y021324D01*
X010327Y021341D01*
X010422Y021246D01*
X008710Y021246D01*
X008562Y021394D01*
X008732Y021324D01*
X008923Y021324D01*
X009099Y021397D01*
X009234Y021532D01*
X009307Y021708D01*
X009307Y021899D01*
X009234Y022075D01*
X009099Y022210D01*
X008923Y022284D01*
X008732Y022284D01*
X008555Y022210D01*
X008420Y022075D01*
X008347Y021899D01*
X008347Y021708D01*
X008417Y021539D01*
X008290Y021666D01*
X008307Y021708D01*
X008307Y021899D01*
X008234Y022075D01*
X008099Y022210D01*
X007923Y022284D01*
X007732Y022284D01*
X007555Y022210D01*
X007420Y022075D01*
X007347Y021899D01*
X007347Y021708D01*
X007420Y021532D01*
X007555Y021397D01*
X007732Y021324D01*
X007923Y021324D01*
X007965Y021341D01*
X008059Y021246D01*
X005944Y021246D01*
X005937Y021253D01*
X005850Y021246D01*
X005763Y021246D01*
X005756Y021239D01*
X005747Y021238D01*
X005690Y021173D01*
X005629Y021111D01*
X005629Y021102D01*
X004460Y019746D01*
X004398Y019684D01*
X004398Y019674D01*
X004392Y019667D01*
X004398Y019580D01*
X004398Y018635D01*
X004384Y018620D01*
X004340Y018514D01*
X004340Y018400D01*
X004384Y018294D01*
X004398Y018280D01*
X004398Y017624D01*
X005629Y016393D01*
X005763Y016259D01*
X006075Y016259D01*
X006089Y016244D01*
X006195Y016200D01*
X006310Y016200D01*
X006416Y016244D01*
X006497Y016325D01*
X006540Y016431D01*
X006540Y016546D01*
X006497Y016652D01*
X006416Y016733D01*
X006310Y016777D01*
X006195Y016777D01*
X006089Y016733D01*
X006075Y016719D01*
X005954Y016719D01*
X004858Y017814D01*
X004858Y018280D01*
X004873Y018294D01*
X004916Y018400D01*
X004916Y018514D01*
X004873Y018620D01*
X004858Y018635D01*
X004858Y019504D01*
X005964Y020786D01*
X009240Y020786D01*
X009156Y020702D01*
X009156Y018018D01*
X009154Y018017D01*
X009039Y017902D01*
X008976Y017751D01*
X008976Y017588D01*
X009039Y017437D01*
X009154Y017322D01*
X009305Y017260D01*
X009468Y017260D01*
X009618Y017322D01*
X009734Y017437D01*
X009796Y017588D01*
X009796Y017751D01*
X009734Y017902D01*
X009618Y018017D01*
X009616Y018018D01*
X009616Y020511D01*
X009891Y020786D01*
X021846Y020786D01*
X022283Y020349D01*
X022167Y020349D01*
X022167Y019903D01*
X022070Y019903D01*
X022070Y020349D01*
X021914Y020349D01*
X021624Y020060D01*
X021624Y020044D02*
X019714Y020044D01*
X019713Y020045D02*
X019537Y020118D01*
X019346Y020118D01*
X019169Y020045D01*
X019034Y019910D01*
X018961Y019734D01*
X018961Y019543D01*
X019034Y019366D01*
X019169Y019231D01*
X019346Y019158D01*
X019537Y019158D01*
X019713Y019231D01*
X019848Y019366D01*
X019921Y019543D01*
X019921Y019734D01*
X019848Y019910D01*
X019713Y020045D01*
X019812Y019946D02*
X021624Y019946D01*
X021624Y019806D02*
X021624Y019650D01*
X021914Y019360D01*
X022070Y019360D01*
X022070Y019806D01*
X021624Y019806D01*
X021624Y019749D02*
X019915Y019749D01*
X019921Y019650D02*
X021624Y019650D01*
X021722Y019552D02*
X019921Y019552D01*
X019884Y019453D02*
X021820Y019453D01*
X022070Y019453D02*
X022167Y019453D01*
X022167Y019552D02*
X022070Y019552D01*
X022070Y019650D02*
X022167Y019650D01*
X022167Y019749D02*
X022070Y019749D01*
X022070Y019847D02*
X019874Y019847D01*
X019169Y020044D02*
X013627Y020044D01*
X013615Y019946D02*
X019070Y019946D01*
X019008Y019847D02*
X013562Y019847D01*
X013409Y019749D02*
X018968Y019749D01*
X018961Y019650D02*
X013184Y019650D01*
X013085Y019552D02*
X018961Y019552D01*
X018998Y019453D02*
X012987Y019453D01*
X012908Y019355D02*
X019046Y019355D01*
X019144Y019256D02*
X012908Y019256D01*
X012908Y019158D02*
X027845Y019158D01*
X027820Y019059D02*
X019679Y019059D01*
X019797Y018961D02*
X027820Y018961D01*
X027837Y018862D02*
X019868Y018862D01*
X019909Y018764D02*
X027878Y018764D01*
X027956Y018665D02*
X019921Y018665D01*
X019441Y018638D02*
X019441Y014717D01*
X019174Y014824D02*
X017246Y014824D01*
X017251Y014815D02*
X017221Y014873D01*
X017183Y014925D01*
X017138Y014971D01*
X017086Y015009D01*
X017028Y015038D01*
X016967Y015058D01*
X016903Y015068D01*
X016641Y015068D01*
X016641Y014688D01*
X017281Y014688D01*
X017281Y014690D01*
X017271Y014754D01*
X017251Y014815D01*
X017275Y014725D02*
X019153Y014725D01*
X019167Y014627D02*
X017281Y014627D01*
X017281Y014628D02*
X016641Y014628D01*
X016641Y014688D01*
X016581Y014688D01*
X016581Y015068D01*
X016318Y015068D01*
X016255Y015058D01*
X016193Y015038D01*
X016136Y015009D01*
X016084Y014971D01*
X016038Y014925D01*
X016000Y014873D01*
X015971Y014815D01*
X015951Y014754D01*
X015941Y014690D01*
X015941Y014688D01*
X016581Y014688D01*
X016581Y014628D01*
X016641Y014628D01*
X016641Y014248D01*
X016903Y014248D01*
X016967Y014258D01*
X017028Y014278D01*
X017086Y014307D01*
X017138Y014345D01*
X017183Y014391D01*
X017221Y014443D01*
X017251Y014500D01*
X017271Y014562D01*
X017281Y014626D01*
X017281Y014628D01*
X017260Y014528D02*
X019222Y014528D01*
X019381Y014430D02*
X017212Y014430D01*
X017119Y014331D02*
X022628Y014331D01*
X022628Y014233D02*
X015526Y014233D01*
X015428Y014331D02*
X016102Y014331D01*
X016084Y014345D02*
X016136Y014307D01*
X016193Y014278D01*
X016255Y014258D01*
X016318Y014248D01*
X016581Y014248D01*
X016581Y014628D01*
X015941Y014628D01*
X015941Y014626D01*
X015951Y014562D01*
X015971Y014500D01*
X016000Y014443D01*
X016038Y014391D01*
X016084Y014345D01*
X016009Y014430D02*
X015341Y014430D01*
X015341Y014418D02*
X015341Y015240D01*
X015356Y015264D01*
X015341Y015332D01*
X015341Y015403D01*
X015321Y015423D01*
X015315Y015450D01*
X015256Y015488D01*
X015206Y015537D01*
X015178Y015537D01*
X014708Y015838D01*
X014659Y015888D01*
X014631Y015888D01*
X014607Y015903D01*
X014538Y015888D01*
X014164Y015888D01*
X014080Y015972D01*
X013944Y016028D01*
X013277Y016028D01*
X013141Y015972D01*
X013037Y015867D01*
X012981Y015731D01*
X012981Y015584D01*
X013037Y015448D01*
X013141Y015344D01*
X013277Y015288D01*
X013944Y015288D01*
X014080Y015344D01*
X014164Y015428D01*
X014496Y015428D01*
X014881Y015182D01*
X014881Y014228D01*
X015471Y013637D01*
X015606Y013503D01*
X016014Y013503D01*
X016037Y013448D01*
X016141Y013344D01*
X016277Y013288D01*
X016944Y013288D01*
X017080Y013344D01*
X017184Y013448D01*
X017241Y013584D01*
X017241Y013731D01*
X017184Y013867D01*
X017080Y013972D01*
X016944Y014028D01*
X016277Y014028D01*
X016141Y013972D01*
X016132Y013963D01*
X015796Y013963D01*
X015341Y014418D01*
X015341Y014528D02*
X015962Y014528D01*
X015941Y014627D02*
X015341Y014627D01*
X015341Y014725D02*
X015946Y014725D01*
X015975Y014824D02*
X015341Y014824D01*
X015341Y014922D02*
X016036Y014922D01*
X016160Y015021D02*
X015341Y015021D01*
X015341Y015119D02*
X019281Y015119D01*
X019281Y015021D02*
X017061Y015021D01*
X017185Y014922D02*
X019239Y014922D01*
X019601Y015021D02*
X022628Y015021D01*
X022628Y015119D02*
X019601Y015119D01*
X019601Y015218D02*
X022628Y015218D01*
X022628Y015316D02*
X019601Y015316D01*
X019601Y015415D02*
X022628Y015415D01*
X022628Y015513D02*
X019601Y015513D01*
X019601Y015612D02*
X022628Y015612D01*
X022628Y015710D02*
X019601Y015710D01*
X019601Y015809D02*
X022628Y015809D01*
X022628Y015907D02*
X019601Y015907D01*
X019601Y016006D02*
X022628Y016006D01*
X022628Y016104D02*
X019601Y016104D01*
X019601Y016203D02*
X022628Y016203D01*
X022628Y016301D02*
X019601Y016301D01*
X019601Y016400D02*
X022628Y016400D01*
X022628Y016498D02*
X019601Y016498D01*
X019601Y016597D02*
X022628Y016597D01*
X022628Y016695D02*
X019601Y016695D01*
X019601Y016794D02*
X022628Y016794D01*
X022628Y016892D02*
X019601Y016892D01*
X019601Y016991D02*
X022670Y016991D01*
X022769Y017089D02*
X019601Y017089D01*
X019601Y017188D02*
X022867Y017188D01*
X022966Y017286D02*
X019601Y017286D01*
X019601Y017385D02*
X023064Y017385D01*
X023163Y017483D02*
X019601Y017483D01*
X019601Y017582D02*
X023261Y017582D01*
X023360Y017680D02*
X019601Y017680D01*
X019601Y017779D02*
X023458Y017779D01*
X023557Y017877D02*
X019601Y017877D01*
X019601Y017976D02*
X023655Y017976D01*
X023754Y018074D02*
X019601Y018074D01*
X019601Y018173D02*
X023852Y018173D01*
X023969Y018063D02*
X027071Y018063D01*
X028874Y016323D01*
X028513Y016006D02*
X028410Y016006D01*
X028414Y016104D02*
X028310Y016104D01*
X028394Y016203D02*
X028210Y016203D01*
X028110Y016301D02*
X028394Y016301D01*
X028394Y016400D02*
X028010Y016400D01*
X027910Y016498D02*
X028394Y016498D01*
X028360Y016597D02*
X027810Y016597D01*
X027710Y016695D02*
X028258Y016695D01*
X028156Y016794D02*
X027610Y016794D01*
X027510Y016892D02*
X028054Y016892D01*
X027952Y016991D02*
X027410Y016991D01*
X027310Y017089D02*
X027850Y017089D01*
X027748Y017188D02*
X027210Y017188D01*
X027110Y017286D02*
X027646Y017286D01*
X027544Y017385D02*
X027010Y017385D01*
X026910Y017483D02*
X027442Y017483D01*
X027340Y017582D02*
X026810Y017582D01*
X026693Y017473D02*
X024166Y017473D01*
X023378Y016685D01*
X023378Y011461D01*
X025044Y009993D01*
X025323Y010293D02*
X025708Y010293D01*
X025806Y010391D02*
X025225Y010391D01*
X025219Y010588D02*
X025868Y010588D01*
X025769Y010687D02*
X025318Y010687D01*
X025416Y010785D02*
X025671Y010785D01*
X025634Y010884D02*
X025454Y010884D01*
X025454Y010982D02*
X025634Y010982D01*
X025634Y011081D02*
X025454Y011081D01*
X025437Y011179D02*
X025651Y011179D01*
X025749Y011278D02*
X025338Y011278D01*
X025240Y011376D02*
X025848Y011376D01*
X025494Y011806D02*
X025230Y011543D01*
X025094Y011543D01*
X025094Y011943D01*
X025094Y012043D01*
X024994Y012043D01*
X024994Y012443D01*
X024857Y012443D01*
X024594Y012179D01*
X024594Y012043D01*
X024994Y012043D01*
X024994Y011943D01*
X024594Y011943D01*
X024594Y011806D01*
X024857Y011543D01*
X024994Y011543D01*
X024994Y011943D01*
X025094Y011943D01*
X025494Y011943D01*
X025494Y011806D01*
X025458Y011770D02*
X025686Y011770D01*
X025634Y011869D02*
X025494Y011869D01*
X025634Y011967D02*
X025094Y011967D01*
X025094Y012043D02*
X025494Y012043D01*
X025494Y012179D01*
X025230Y012443D01*
X025094Y012443D01*
X025094Y012043D01*
X025094Y012066D02*
X024994Y012066D01*
X024994Y012164D02*
X025094Y012164D01*
X025094Y012263D02*
X024994Y012263D01*
X024994Y012361D02*
X025094Y012361D01*
X025311Y012361D02*
X025833Y012361D01*
X025734Y012263D02*
X025410Y012263D01*
X025494Y012164D02*
X025636Y012164D01*
X025634Y012066D02*
X025494Y012066D01*
X025360Y011672D02*
X025784Y011672D01*
X025261Y011573D02*
X027155Y011573D01*
X027155Y011475D02*
X024856Y011475D01*
X024826Y011573D02*
X024776Y011573D01*
X024728Y011672D02*
X024695Y011672D01*
X024629Y011770D02*
X024615Y011770D01*
X024594Y011869D02*
X024534Y011869D01*
X024454Y011967D02*
X024994Y011967D01*
X024994Y011869D02*
X025094Y011869D01*
X025094Y011770D02*
X024994Y011770D01*
X024994Y011672D02*
X025094Y011672D01*
X025094Y011573D02*
X024994Y011573D01*
X025044Y010993D02*
X024166Y012067D01*
X024166Y016489D01*
X024559Y016882D01*
X026512Y016882D01*
X026467Y016695D02*
X024599Y016695D01*
X024500Y016597D02*
X026558Y016597D01*
X026649Y016498D02*
X024402Y016498D01*
X024326Y016400D02*
X024871Y016400D01*
X024773Y016301D02*
X024326Y016301D01*
X024326Y016203D02*
X024674Y016203D01*
X024634Y016104D02*
X024326Y016104D01*
X024326Y016006D02*
X024634Y016006D01*
X024634Y015907D02*
X024326Y015907D01*
X024326Y015809D02*
X024647Y015809D01*
X024746Y015710D02*
X024326Y015710D01*
X024326Y015612D02*
X024844Y015612D01*
X024788Y015316D02*
X024326Y015316D01*
X024326Y015218D02*
X024689Y015218D01*
X024634Y015119D02*
X024326Y015119D01*
X024326Y015021D02*
X024634Y015021D01*
X024634Y014922D02*
X024326Y014922D01*
X024326Y014824D02*
X024634Y014824D01*
X024731Y014725D02*
X024326Y014725D01*
X024326Y014627D02*
X024829Y014627D01*
X024803Y014331D02*
X024326Y014331D01*
X024326Y014233D02*
X024704Y014233D01*
X024634Y014134D02*
X024326Y014134D01*
X024326Y014036D02*
X024634Y014036D01*
X024634Y013937D02*
X024326Y013937D01*
X024326Y013839D02*
X024634Y013839D01*
X024716Y013740D02*
X024326Y013740D01*
X024326Y013642D02*
X024814Y013642D01*
X024874Y013403D02*
X024634Y013162D01*
X024634Y012823D01*
X024874Y012583D01*
X025214Y012583D01*
X025454Y012823D01*
X025454Y013162D01*
X025214Y013403D01*
X024874Y013403D01*
X024818Y013346D02*
X024326Y013346D01*
X024326Y013248D02*
X024719Y013248D01*
X024634Y013149D02*
X024326Y013149D01*
X024326Y013051D02*
X024634Y013051D01*
X024634Y012952D02*
X024326Y012952D01*
X024326Y012854D02*
X024634Y012854D01*
X024701Y012755D02*
X024326Y012755D01*
X024326Y012657D02*
X024799Y012657D01*
X024776Y012361D02*
X024326Y012361D01*
X024326Y012263D02*
X024678Y012263D01*
X024594Y012164D02*
X024326Y012164D01*
X024373Y012066D02*
X024594Y012066D01*
X024326Y012460D02*
X027155Y012460D01*
X027155Y012558D02*
X024326Y012558D01*
X023218Y012558D02*
X022948Y012558D01*
X022948Y012460D02*
X023218Y012460D01*
X023218Y012361D02*
X022948Y012361D01*
X022948Y012263D02*
X023218Y012263D01*
X023218Y012164D02*
X022948Y012164D01*
X022948Y012066D02*
X023218Y012066D01*
X023218Y011967D02*
X022948Y011967D01*
X022948Y011869D02*
X023218Y011869D01*
X023218Y011770D02*
X022948Y011770D01*
X022948Y011672D02*
X023218Y011672D01*
X023218Y011573D02*
X022948Y011573D01*
X022948Y011475D02*
X023217Y011475D01*
X023232Y011376D02*
X022948Y011376D01*
X022948Y011278D02*
X023344Y011278D01*
X023456Y011179D02*
X022948Y011179D01*
X022993Y011081D02*
X023567Y011081D01*
X023679Y010982D02*
X023101Y010982D01*
X023209Y010884D02*
X023791Y010884D01*
X023903Y010785D02*
X023317Y010785D01*
X023425Y010687D02*
X024014Y010687D01*
X024126Y010588D02*
X023533Y010588D01*
X023640Y010490D02*
X024238Y010490D01*
X024349Y010391D02*
X023748Y010391D01*
X023856Y010293D02*
X024461Y010293D01*
X024573Y010194D02*
X023964Y010194D01*
X024072Y010096D02*
X024634Y010096D01*
X024634Y009997D02*
X024180Y009997D01*
X024288Y009899D02*
X024634Y009899D01*
X024656Y009800D02*
X024396Y009800D01*
X024504Y009702D02*
X024754Y009702D01*
X024853Y009603D02*
X024612Y009603D01*
X024720Y009505D02*
X027155Y009505D01*
X027155Y009603D02*
X026291Y009603D01*
X026230Y009543D02*
X026494Y009806D01*
X026494Y009943D01*
X026094Y009943D01*
X026094Y010043D01*
X025994Y010043D01*
X025994Y010443D01*
X025857Y010443D01*
X025594Y010179D01*
X025594Y010043D01*
X025994Y010043D01*
X025994Y009943D01*
X025594Y009943D01*
X025594Y009806D01*
X025857Y009543D01*
X025994Y009543D01*
X025994Y009943D01*
X026094Y009943D01*
X026094Y009543D01*
X026230Y009543D01*
X026214Y009403D02*
X025874Y009403D01*
X025634Y009162D01*
X025634Y008823D01*
X025874Y008583D01*
X026214Y008583D01*
X026454Y008823D01*
X026454Y009162D01*
X026214Y009403D01*
X026308Y009308D02*
X027155Y009308D01*
X027155Y009406D02*
X024828Y009406D01*
X024569Y009209D02*
X020699Y009209D01*
X020705Y009111D02*
X024634Y009111D01*
X024634Y009012D02*
X020826Y009012D01*
X020896Y008914D02*
X024634Y008914D01*
X024641Y008815D02*
X020938Y008815D01*
X020959Y008717D02*
X024739Y008717D01*
X024838Y008618D02*
X020491Y008618D01*
X020491Y008520D02*
X020391Y008520D01*
X020391Y008618D02*
X019921Y008618D01*
X019921Y008717D02*
X019924Y008717D01*
X019945Y008815D02*
X019897Y008815D01*
X019856Y008914D02*
X019986Y008914D01*
X020057Y009012D02*
X019769Y009012D01*
X019611Y009111D02*
X020177Y009111D01*
X020184Y009209D02*
X019604Y009209D01*
X019537Y009182D02*
X019713Y009255D01*
X019848Y009390D01*
X019921Y009566D01*
X019921Y009757D01*
X019848Y009934D01*
X019713Y010069D01*
X019537Y010142D01*
X019346Y010142D01*
X019169Y010069D01*
X019034Y009934D01*
X018961Y009757D01*
X018961Y009566D01*
X019034Y009390D01*
X019169Y009255D01*
X019346Y009182D01*
X019537Y009182D01*
X019279Y009209D02*
X002948Y009209D01*
X002919Y009280D02*
X002992Y009104D01*
X002992Y008913D01*
X002919Y008736D01*
X002784Y008601D01*
X002608Y008528D01*
X002417Y008528D01*
X002240Y008601D01*
X002105Y008736D01*
X002032Y008913D01*
X002032Y009104D01*
X002105Y009280D01*
X002240Y009415D01*
X002417Y009488D01*
X002608Y009488D01*
X002784Y009415D01*
X002919Y009280D01*
X002891Y009308D02*
X013229Y009308D01*
X013079Y009406D02*
X002793Y009406D01*
X002989Y009111D02*
X019271Y009111D01*
X019113Y009012D02*
X016981Y009012D01*
X017138Y008914D02*
X019026Y008914D01*
X018985Y008815D02*
X017206Y008815D01*
X017241Y008717D02*
X018961Y008717D01*
X018961Y008618D02*
X017241Y008618D01*
X017214Y008520D02*
X018981Y008520D01*
X019021Y008421D02*
X017157Y008421D01*
X017029Y008323D02*
X019101Y008323D01*
X019243Y008224D02*
X000694Y008224D01*
X000694Y008126D02*
X019308Y008126D01*
X019346Y008142D02*
X019169Y008069D01*
X019034Y007934D01*
X018961Y007757D01*
X018961Y007566D01*
X019034Y007390D01*
X019169Y007255D01*
X019346Y007182D01*
X019537Y007182D01*
X019713Y007255D01*
X019848Y007390D01*
X019921Y007566D01*
X019921Y007757D01*
X019848Y007934D01*
X019713Y008069D01*
X019537Y008142D01*
X019346Y008142D01*
X019575Y008126D02*
X020207Y008126D01*
X020159Y008224D02*
X019640Y008224D01*
X019755Y008027D02*
X020072Y008027D01*
X019994Y007929D02*
X019850Y007929D01*
X019891Y007830D02*
X019949Y007830D01*
X019926Y007732D02*
X019921Y007732D01*
X019921Y007633D02*
X020391Y007633D01*
X020391Y007535D02*
X020491Y007535D01*
X020491Y007633D02*
X024823Y007633D01*
X024874Y007583D02*
X025214Y007583D01*
X025454Y007823D01*
X025454Y008162D01*
X025214Y008403D01*
X024874Y008403D01*
X024634Y008162D01*
X024634Y007823D01*
X024874Y007583D01*
X024724Y007732D02*
X020957Y007732D01*
X020933Y007830D02*
X024634Y007830D01*
X024634Y007929D02*
X020889Y007929D01*
X020811Y008027D02*
X024634Y008027D01*
X024634Y008126D02*
X020676Y008126D01*
X020724Y008224D02*
X024696Y008224D01*
X024794Y008323D02*
X020838Y008323D01*
X020902Y008421D02*
X027155Y008421D01*
X027155Y008323D02*
X026293Y008323D01*
X026214Y008403D02*
X025874Y008403D01*
X025634Y008162D01*
X025634Y007823D01*
X025874Y007583D01*
X026214Y007583D01*
X026454Y007823D01*
X026454Y008162D01*
X026214Y008403D01*
X026249Y008618D02*
X027155Y008618D01*
X027155Y008520D02*
X020942Y008520D01*
X020491Y008421D02*
X020391Y008421D01*
X020391Y008323D02*
X020491Y008323D01*
X020491Y008224D02*
X020391Y008224D01*
X020391Y008126D02*
X020491Y008126D01*
X020491Y008027D02*
X020391Y008027D01*
X020391Y007929D02*
X020491Y007929D01*
X020491Y007830D02*
X020391Y007830D01*
X020391Y007732D02*
X020491Y007732D01*
X020491Y007436D02*
X020391Y007436D01*
X020391Y007338D02*
X020491Y007338D01*
X020491Y007239D02*
X020391Y007239D01*
X020391Y007141D02*
X020491Y007141D01*
X020491Y007042D02*
X020391Y007042D01*
X020391Y006944D02*
X020491Y006944D01*
X020491Y006845D02*
X020391Y006845D01*
X020391Y006747D02*
X020491Y006747D01*
X020491Y006451D02*
X020391Y006451D01*
X020391Y006353D02*
X020491Y006353D01*
X020491Y006254D02*
X020391Y006254D01*
X020391Y006156D02*
X020491Y006156D01*
X020491Y006057D02*
X020391Y006057D01*
X020391Y005959D02*
X020491Y005959D01*
X020491Y005860D02*
X020391Y005860D01*
X020391Y005762D02*
X020491Y005762D01*
X020491Y005466D02*
X020391Y005466D01*
X020391Y005368D02*
X020491Y005368D01*
X020491Y005269D02*
X020391Y005269D01*
X020391Y005171D02*
X020491Y005171D01*
X019981Y005171D02*
X003916Y005171D01*
X003931Y005269D02*
X018961Y005269D01*
X018961Y005368D02*
X017104Y005368D01*
X017192Y005466D02*
X018961Y005466D01*
X018961Y005565D02*
X017233Y005565D01*
X017241Y005663D02*
X018961Y005663D01*
X018961Y005762D02*
X017228Y005762D01*
X017187Y005860D02*
X018961Y005860D01*
X019170Y006254D02*
X003717Y006254D01*
X003767Y006156D02*
X019986Y006156D01*
X020918Y006451D02*
X026276Y006451D01*
X026230Y006543D02*
X026494Y006806D01*
X026494Y006943D01*
X026094Y006943D01*
X026094Y007043D01*
X025994Y007043D01*
X025994Y007443D01*
X025857Y007443D01*
X025594Y007179D01*
X025594Y007043D01*
X025994Y007043D01*
X025994Y006943D01*
X025594Y006943D01*
X025594Y006806D01*
X025857Y006543D01*
X025994Y006543D01*
X025994Y006943D01*
X026094Y006943D01*
X026094Y006543D01*
X026230Y006543D01*
X026238Y006550D02*
X026375Y006550D01*
X026336Y006648D02*
X026473Y006648D01*
X026435Y006747D02*
X026572Y006747D01*
X026494Y006845D02*
X026670Y006845D01*
X026769Y006944D02*
X026094Y006944D01*
X026094Y007042D02*
X026867Y007042D01*
X026966Y007141D02*
X026494Y007141D01*
X026494Y007179D02*
X026230Y007443D01*
X026094Y007443D01*
X026094Y007043D01*
X026494Y007043D01*
X026494Y007179D01*
X026433Y007239D02*
X027064Y007239D01*
X027155Y007338D02*
X026335Y007338D01*
X026236Y007436D02*
X027155Y007436D01*
X027155Y007535D02*
X020947Y007535D01*
X020910Y007436D02*
X025851Y007436D01*
X025753Y007338D02*
X025278Y007338D01*
X025377Y007239D02*
X025654Y007239D01*
X025594Y007141D02*
X025454Y007141D01*
X025454Y007042D02*
X025994Y007042D01*
X025994Y006944D02*
X025454Y006944D01*
X025454Y006845D02*
X025594Y006845D01*
X025653Y006747D02*
X025378Y006747D01*
X025279Y006648D02*
X025751Y006648D01*
X025850Y006550D02*
X020950Y006550D01*
X020954Y006747D02*
X024709Y006747D01*
X024634Y006845D02*
X020928Y006845D01*
X020879Y006944D02*
X024634Y006944D01*
X024634Y007042D02*
X020796Y007042D01*
X020646Y007141D02*
X024634Y007141D01*
X024711Y007239D02*
X020745Y007239D01*
X020849Y007338D02*
X024809Y007338D01*
X025264Y007633D02*
X025823Y007633D01*
X025724Y007732D02*
X025363Y007732D01*
X025454Y007830D02*
X025634Y007830D01*
X025634Y007929D02*
X025454Y007929D01*
X025454Y008027D02*
X025634Y008027D01*
X025634Y008126D02*
X025454Y008126D01*
X025392Y008224D02*
X025696Y008224D01*
X025794Y008323D02*
X025293Y008323D01*
X025249Y008618D02*
X025838Y008618D01*
X025739Y008717D02*
X025348Y008717D01*
X025446Y008815D02*
X025641Y008815D01*
X025634Y008914D02*
X025454Y008914D01*
X025454Y009012D02*
X025634Y009012D01*
X025634Y009111D02*
X025454Y009111D01*
X025407Y009209D02*
X025681Y009209D01*
X025779Y009308D02*
X025308Y009308D01*
X025234Y009603D02*
X025796Y009603D01*
X025698Y009702D02*
X025333Y009702D01*
X025431Y009800D02*
X025599Y009800D01*
X025594Y009899D02*
X025454Y009899D01*
X025454Y009997D02*
X025994Y009997D01*
X025994Y009899D02*
X026094Y009899D01*
X026094Y009997D02*
X027155Y009997D01*
X027155Y009899D02*
X026494Y009899D01*
X026488Y009800D02*
X027155Y009800D01*
X027155Y009702D02*
X026390Y009702D01*
X026094Y009702D02*
X025994Y009702D01*
X025994Y009800D02*
X026094Y009800D01*
X026094Y009603D02*
X025994Y009603D01*
X026094Y010043D02*
X026494Y010043D01*
X026494Y010179D01*
X026230Y010443D01*
X026094Y010443D01*
X026094Y010043D01*
X026094Y010096D02*
X025994Y010096D01*
X025994Y010194D02*
X026094Y010194D01*
X026094Y010293D02*
X025994Y010293D01*
X025994Y010391D02*
X026094Y010391D01*
X026281Y010391D02*
X027155Y010391D01*
X027155Y010293D02*
X026380Y010293D01*
X026478Y010194D02*
X027155Y010194D01*
X027155Y010096D02*
X026494Y010096D01*
X025609Y010194D02*
X025422Y010194D01*
X025454Y010096D02*
X025594Y010096D01*
X024863Y010391D02*
X024833Y010391D01*
X024137Y009603D02*
X020959Y009603D01*
X020937Y009505D02*
X024245Y009505D01*
X024353Y009406D02*
X020895Y009406D01*
X020823Y009308D02*
X024461Y009308D01*
X024029Y009702D02*
X020491Y009702D01*
X020491Y009800D02*
X020391Y009800D01*
X020391Y009702D02*
X019921Y009702D01*
X019921Y009603D02*
X019924Y009603D01*
X019946Y009505D02*
X019896Y009505D01*
X019855Y009406D02*
X019988Y009406D01*
X020060Y009308D02*
X019766Y009308D01*
X019116Y009308D02*
X016993Y009308D01*
X017142Y009406D02*
X019028Y009406D01*
X018987Y009505D02*
X017208Y009505D01*
X017241Y009603D02*
X018961Y009603D01*
X018961Y009702D02*
X017241Y009702D01*
X017212Y009800D02*
X018979Y009800D01*
X019020Y009899D02*
X017153Y009899D01*
X017018Y009997D02*
X019098Y009997D01*
X019235Y010096D02*
X000694Y010096D01*
X000694Y010194D02*
X019315Y010194D01*
X019346Y010182D02*
X019537Y010182D01*
X019713Y010255D01*
X019848Y010390D01*
X019921Y010566D01*
X019921Y010757D01*
X019848Y010934D01*
X019713Y011069D01*
X019537Y011142D01*
X019346Y011142D01*
X019169Y011069D01*
X019034Y010934D01*
X018961Y010757D01*
X018961Y010566D01*
X019034Y010390D01*
X019169Y010255D01*
X019346Y010182D01*
X019567Y010194D02*
X020213Y010194D01*
X020154Y010096D02*
X019647Y010096D01*
X019784Y009997D02*
X020042Y009997D01*
X019979Y009899D02*
X019863Y009899D01*
X019903Y009800D02*
X019940Y009800D01*
X020391Y009899D02*
X020491Y009899D01*
X020491Y009997D02*
X020391Y009997D01*
X020391Y010096D02*
X020491Y010096D01*
X020491Y010194D02*
X020391Y010194D01*
X020391Y010293D02*
X020491Y010293D01*
X020491Y010391D02*
X020391Y010391D01*
X020391Y010490D02*
X020491Y010490D01*
X020491Y010588D02*
X020391Y010588D01*
X020391Y010687D02*
X019921Y010687D01*
X019921Y010588D02*
X019926Y010588D01*
X019950Y010490D02*
X019890Y010490D01*
X019849Y010391D02*
X019995Y010391D01*
X020075Y010293D02*
X019751Y010293D01*
X019131Y010293D02*
X016957Y010293D01*
X017127Y010391D02*
X019034Y010391D01*
X018993Y010490D02*
X017202Y010490D01*
X017241Y010588D02*
X018961Y010588D01*
X018961Y010687D02*
X017241Y010687D01*
X017218Y010785D02*
X018973Y010785D01*
X019014Y010884D02*
X017168Y010884D01*
X017054Y010982D02*
X019083Y010982D01*
X019199Y011081D02*
X000694Y011081D01*
X000694Y011179D02*
X020243Y011179D01*
X020134Y011081D02*
X019684Y011081D01*
X019799Y010982D02*
X020032Y010982D01*
X019971Y010884D02*
X019869Y010884D01*
X019910Y010785D02*
X019935Y010785D01*
X020391Y010785D02*
X020491Y010785D01*
X020491Y010687D02*
X022950Y010687D01*
X023058Y010588D02*
X020956Y010588D01*
X020932Y010490D02*
X023166Y010490D01*
X023274Y010391D02*
X020887Y010391D01*
X020808Y010293D02*
X023382Y010293D01*
X023489Y010194D02*
X020670Y010194D01*
X020728Y010096D02*
X023597Y010096D01*
X023705Y009997D02*
X020840Y009997D01*
X020904Y009899D02*
X023813Y009899D01*
X023921Y009800D02*
X020943Y009800D01*
X020491Y009603D02*
X020391Y009603D01*
X020391Y009505D02*
X020491Y009505D01*
X020491Y009406D02*
X020391Y009406D01*
X020391Y009308D02*
X020491Y009308D01*
X020491Y009209D02*
X020391Y009209D01*
X020391Y009111D02*
X020491Y009111D01*
X020491Y009012D02*
X020391Y009012D01*
X020391Y008914D02*
X020491Y008914D01*
X020491Y008815D02*
X020391Y008815D01*
X020391Y008717D02*
X020491Y008717D01*
X019941Y008520D02*
X019902Y008520D01*
X019128Y008027D02*
X016945Y008027D01*
X017123Y007929D02*
X019032Y007929D01*
X018992Y007830D02*
X017200Y007830D01*
X017240Y007732D02*
X018961Y007732D01*
X018961Y007633D02*
X017241Y007633D01*
X017220Y007535D02*
X018974Y007535D01*
X019015Y007436D02*
X017172Y007436D01*
X017065Y007338D02*
X019086Y007338D01*
X019207Y007239D02*
X000694Y007239D01*
X000694Y007141D02*
X019344Y007141D01*
X019539Y007141D02*
X020236Y007141D01*
X020138Y007239D02*
X019676Y007239D01*
X019796Y007338D02*
X020034Y007338D01*
X019973Y007436D02*
X019868Y007436D01*
X019908Y007535D02*
X019936Y007535D01*
X020087Y007042D02*
X019740Y007042D01*
X019838Y006944D02*
X020004Y006944D01*
X019954Y006845D02*
X019885Y006845D01*
X019921Y006747D02*
X019928Y006747D01*
X019921Y005269D02*
X019922Y005269D01*
X024601Y004186D02*
X003157Y004186D01*
X003350Y004284D02*
X024699Y004284D01*
X024798Y004383D02*
X003456Y004383D01*
X003554Y004481D02*
X036903Y004481D01*
X037002Y004383D02*
X026233Y004383D01*
X026332Y004284D02*
X037108Y004284D01*
X037093Y004292D02*
X037093Y004292D01*
X037301Y004186D02*
X026430Y004186D01*
X026454Y004087D02*
X037494Y004087D01*
X038396Y004087D02*
X039764Y004087D01*
X039764Y003989D02*
X026454Y003989D01*
X026454Y003890D02*
X039764Y003890D01*
X039764Y003792D02*
X026423Y003792D01*
X026324Y003693D02*
X039764Y003693D01*
X039764Y004186D02*
X038590Y004186D01*
X038783Y004284D02*
X039764Y004284D01*
X039764Y004383D02*
X038889Y004383D01*
X038798Y004292D02*
X038798Y004292D01*
X038987Y004481D02*
X039764Y004481D01*
X039764Y004580D02*
X039086Y004580D01*
X039118Y004613D02*
X039118Y004613D01*
X039152Y004678D02*
X039764Y004678D01*
X039764Y004777D02*
X039202Y004777D01*
X039252Y004875D02*
X039764Y004875D01*
X039764Y004974D02*
X039302Y004974D01*
X039324Y005017D02*
X039324Y005017D01*
X039333Y005072D02*
X039764Y005072D01*
X039764Y005171D02*
X039349Y005171D01*
X039364Y005269D02*
X039764Y005269D01*
X039764Y005368D02*
X039380Y005368D01*
X039395Y005466D02*
X039764Y005466D01*
X039764Y005565D02*
X039379Y005565D01*
X039364Y005663D02*
X039764Y005663D01*
X039764Y005762D02*
X039348Y005762D01*
X039333Y005860D02*
X039764Y005860D01*
X039764Y005959D02*
X039301Y005959D01*
X039324Y005913D02*
X039324Y005913D01*
X039251Y006057D02*
X039764Y006057D01*
X039764Y006156D02*
X039201Y006156D01*
X039150Y006254D02*
X039764Y006254D01*
X039764Y006353D02*
X039083Y006353D01*
X038984Y006451D02*
X039764Y006451D01*
X039764Y006550D02*
X038886Y006550D01*
X038777Y006648D02*
X039764Y006648D01*
X039764Y006747D02*
X038584Y006747D01*
X038393Y006844D02*
X038393Y006844D01*
X038384Y006845D02*
X039764Y006845D01*
X039764Y006944D02*
X034959Y006944D01*
X034959Y007042D02*
X039764Y007042D01*
X039764Y007141D02*
X034959Y007141D01*
X035032Y007239D02*
X039764Y007239D01*
X039764Y007338D02*
X035130Y007338D01*
X035227Y007436D02*
X039764Y007436D01*
X039764Y007535D02*
X035325Y007535D01*
X035422Y007633D02*
X039764Y007633D01*
X039764Y007732D02*
X035520Y007732D01*
X035617Y007830D02*
X039764Y007830D01*
X039764Y007929D02*
X035715Y007929D01*
X035812Y008027D02*
X039764Y008027D01*
X039764Y008126D02*
X035909Y008126D01*
X036007Y008224D02*
X039764Y008224D01*
X039764Y008323D02*
X036104Y008323D01*
X036202Y008421D02*
X039764Y008421D01*
X039764Y008520D02*
X036299Y008520D01*
X036397Y008618D02*
X039764Y008618D01*
X039764Y008717D02*
X036494Y008717D01*
X036592Y008815D02*
X039764Y008815D01*
X039764Y008914D02*
X036689Y008914D01*
X036787Y009012D02*
X039764Y009012D01*
X039764Y009111D02*
X036884Y009111D01*
X036982Y009209D02*
X039764Y009209D01*
X039764Y009308D02*
X037039Y009308D01*
X037054Y009406D02*
X039764Y009406D01*
X039764Y009505D02*
X037054Y009505D01*
X037054Y009603D02*
X039764Y009603D01*
X039764Y009702D02*
X037054Y009702D01*
X037054Y009800D02*
X039764Y009800D01*
X039764Y009899D02*
X037054Y009899D01*
X037054Y009997D02*
X039764Y009997D01*
X039764Y010096D02*
X037054Y010096D01*
X037054Y010194D02*
X039764Y010194D01*
X039764Y010293D02*
X037054Y010293D01*
X037054Y010391D02*
X039764Y010391D01*
X039764Y010490D02*
X037054Y010490D01*
X037054Y010588D02*
X039764Y010588D01*
X039764Y010687D02*
X037054Y010687D01*
X037054Y010785D02*
X039764Y010785D01*
X039764Y010884D02*
X037054Y010884D01*
X037054Y010982D02*
X039764Y010982D01*
X039764Y011081D02*
X037054Y011081D01*
X037054Y011179D02*
X039764Y011179D01*
X039764Y011278D02*
X037054Y011278D01*
X037054Y011376D02*
X039764Y011376D01*
X039764Y011475D02*
X037054Y011475D01*
X037054Y011573D02*
X038122Y011573D01*
X038065Y011672D02*
X037054Y011672D01*
X037054Y011770D02*
X038051Y011770D01*
X038071Y011869D02*
X037054Y011869D01*
X037054Y011967D02*
X038135Y011967D01*
X038179Y012066D02*
X037054Y012066D01*
X037054Y012164D02*
X038179Y012164D01*
X038499Y012164D02*
X039764Y012164D01*
X039764Y012066D02*
X038499Y012066D01*
X038543Y011967D02*
X039764Y011967D01*
X039764Y011869D02*
X038607Y011869D01*
X038627Y011770D02*
X039764Y011770D01*
X039764Y011672D02*
X038613Y011672D01*
X038556Y011573D02*
X039764Y011573D01*
X039764Y012263D02*
X038499Y012263D01*
X038499Y012361D02*
X039764Y012361D01*
X039764Y012460D02*
X038499Y012460D01*
X038499Y012558D02*
X039764Y012558D01*
X039764Y012657D02*
X038499Y012657D01*
X038499Y012755D02*
X039764Y012755D01*
X039764Y012854D02*
X038499Y012854D01*
X038499Y012952D02*
X039764Y012952D01*
X039764Y013051D02*
X038499Y013051D01*
X038499Y013149D02*
X039764Y013149D01*
X039764Y013248D02*
X038499Y013248D01*
X038499Y013346D02*
X039764Y013346D01*
X039764Y013445D02*
X038499Y013445D01*
X038499Y013543D02*
X039764Y013543D01*
X039764Y013642D02*
X038499Y013642D01*
X038499Y013740D02*
X039764Y013740D01*
X039764Y013839D02*
X038499Y013839D01*
X038499Y013937D02*
X039764Y013937D01*
X039764Y014036D02*
X038499Y014036D01*
X038500Y014134D02*
X039764Y014134D01*
X039764Y014233D02*
X038459Y014233D01*
X038374Y014331D02*
X039764Y014331D01*
X039764Y014430D02*
X038289Y014430D01*
X038205Y014528D02*
X039764Y014528D01*
X039764Y014627D02*
X038121Y014627D01*
X038036Y014725D02*
X039764Y014725D01*
X039764Y014824D02*
X037952Y014824D01*
X037867Y014922D02*
X039764Y014922D01*
X039764Y015021D02*
X037783Y015021D01*
X037698Y015119D02*
X039764Y015119D01*
X039764Y015218D02*
X037614Y015218D01*
X037530Y015316D02*
X037869Y015316D01*
X037968Y015276D02*
X038182Y015276D01*
X038381Y015358D01*
X038533Y015510D01*
X038615Y015708D01*
X038615Y015923D01*
X038533Y016121D01*
X038381Y016273D01*
X038279Y016316D01*
X038381Y016358D01*
X038533Y016510D01*
X038615Y016708D01*
X038615Y016923D01*
X038533Y017121D01*
X038381Y017273D01*
X038182Y017356D01*
X037968Y017356D01*
X037769Y017273D01*
X037617Y017121D01*
X037535Y016923D01*
X037535Y016708D01*
X037617Y016510D01*
X037769Y016358D01*
X037871Y016316D01*
X037769Y016273D01*
X037617Y016121D01*
X037535Y015923D01*
X037535Y015708D01*
X037617Y015510D01*
X037769Y015358D01*
X037968Y015276D01*
X037712Y015415D02*
X037445Y015415D01*
X037361Y015513D02*
X037616Y015513D01*
X037575Y015612D02*
X037318Y015612D01*
X037318Y015710D02*
X037535Y015710D01*
X037535Y015809D02*
X037318Y015809D01*
X037318Y015907D02*
X037535Y015907D01*
X037569Y016006D02*
X037318Y016006D01*
X037318Y016104D02*
X037610Y016104D01*
X037699Y016203D02*
X037318Y016203D01*
X037318Y016301D02*
X037837Y016301D01*
X037727Y016400D02*
X037318Y016400D01*
X037318Y016498D02*
X037628Y016498D01*
X037581Y016597D02*
X037318Y016597D01*
X037318Y016695D02*
X037540Y016695D01*
X037535Y016794D02*
X037318Y016794D01*
X037318Y016892D02*
X037535Y016892D01*
X037563Y016991D02*
X037318Y016991D01*
X037318Y017089D02*
X037604Y017089D01*
X037684Y017188D02*
X037318Y017188D01*
X037318Y017286D02*
X037801Y017286D01*
X037318Y017385D02*
X039764Y017385D01*
X039764Y017483D02*
X037318Y017483D01*
X037275Y017582D02*
X039764Y017582D01*
X039764Y017680D02*
X037176Y017680D01*
X037078Y017779D02*
X039764Y017779D01*
X039764Y017877D02*
X036979Y017877D01*
X036881Y017976D02*
X039764Y017976D01*
X039764Y018074D02*
X036782Y018074D01*
X036684Y018173D02*
X039764Y018173D01*
X039764Y018271D02*
X036585Y018271D01*
X036487Y018370D02*
X039764Y018370D01*
X039764Y018468D02*
X036388Y018468D01*
X036290Y018567D02*
X039764Y018567D01*
X039764Y018665D02*
X036191Y018665D01*
X035977Y018654D02*
X037158Y017473D01*
X037158Y015504D01*
X038339Y014126D01*
X038339Y011764D01*
X038179Y012854D02*
X037712Y012854D01*
X037712Y012952D02*
X038179Y012952D01*
X038179Y013051D02*
X037712Y013051D01*
X037712Y013149D02*
X038179Y013149D01*
X038179Y013248D02*
X037712Y013248D01*
X037712Y013346D02*
X038179Y013346D01*
X038179Y013445D02*
X037712Y013445D01*
X037712Y013543D02*
X038179Y013543D01*
X038179Y013642D02*
X037712Y013642D01*
X037712Y013740D02*
X038179Y013740D01*
X038179Y013839D02*
X037712Y013839D01*
X037712Y013937D02*
X038179Y013937D01*
X038179Y014036D02*
X037712Y014036D01*
X037712Y014134D02*
X038121Y014134D01*
X038037Y014233D02*
X037712Y014233D01*
X037712Y014331D02*
X037952Y014331D01*
X037868Y014430D02*
X037671Y014430D01*
X037573Y014528D02*
X037784Y014528D01*
X037699Y014627D02*
X037474Y014627D01*
X037376Y014725D02*
X037615Y014725D01*
X037530Y014824D02*
X037277Y014824D01*
X037179Y014922D02*
X037446Y014922D01*
X037361Y015021D02*
X037080Y015021D01*
X036982Y015119D02*
X037277Y015119D01*
X037193Y015218D02*
X036883Y015218D01*
X036785Y015316D02*
X037108Y015316D01*
X037021Y015415D02*
X036727Y015415D01*
X036727Y015513D02*
X036998Y015513D01*
X036998Y015612D02*
X036727Y015612D01*
X036727Y015710D02*
X036998Y015710D01*
X036998Y015809D02*
X036727Y015809D01*
X036727Y015907D02*
X036998Y015907D01*
X036998Y016006D02*
X036727Y016006D01*
X036727Y016104D02*
X036998Y016104D01*
X036998Y016203D02*
X036727Y016203D01*
X036727Y016301D02*
X036998Y016301D01*
X036998Y016400D02*
X036727Y016400D01*
X036727Y016498D02*
X036998Y016498D01*
X036998Y016597D02*
X036727Y016597D01*
X036727Y016695D02*
X036998Y016695D01*
X036998Y016794D02*
X036727Y016794D01*
X036727Y016892D02*
X036998Y016892D01*
X036998Y016991D02*
X036727Y016991D01*
X036727Y017089D02*
X036998Y017089D01*
X036998Y017188D02*
X036727Y017188D01*
X036727Y017286D02*
X036998Y017286D01*
X036998Y017385D02*
X036685Y017385D01*
X036586Y017483D02*
X036921Y017483D01*
X036822Y017582D02*
X036488Y017582D01*
X036389Y017680D02*
X036724Y017680D01*
X036625Y017779D02*
X036291Y017779D01*
X036192Y017877D02*
X036527Y017877D01*
X036428Y017976D02*
X036094Y017976D01*
X035995Y018074D02*
X036330Y018074D01*
X036231Y018173D02*
X035897Y018173D01*
X036034Y018370D02*
X030801Y018370D01*
X030899Y018468D02*
X035936Y018468D01*
X035977Y018654D02*
X030859Y018654D01*
X029874Y017670D01*
X029874Y016323D01*
X030279Y016597D02*
X030305Y016597D01*
X030305Y016695D02*
X030181Y016695D01*
X030082Y016794D02*
X030305Y016794D01*
X030305Y016892D02*
X030034Y016892D01*
X030034Y016991D02*
X030305Y016991D01*
X030305Y017089D02*
X030034Y017089D01*
X030034Y017188D02*
X030305Y017188D01*
X030305Y017286D02*
X030034Y017286D01*
X030034Y017385D02*
X030305Y017385D01*
X030305Y017483D02*
X030034Y017483D01*
X030034Y017582D02*
X030348Y017582D01*
X030446Y017680D02*
X030111Y017680D01*
X030210Y017779D02*
X030545Y017779D01*
X030643Y017877D02*
X030308Y017877D01*
X030407Y017976D02*
X030742Y017976D01*
X030840Y018074D02*
X030505Y018074D01*
X030604Y018173D02*
X030939Y018173D01*
X030702Y018271D02*
X036133Y018271D01*
X035740Y017877D02*
X031096Y017877D01*
X030997Y017779D02*
X035838Y017779D01*
X038349Y017286D02*
X039764Y017286D01*
X039764Y017188D02*
X038466Y017188D01*
X038546Y017089D02*
X039764Y017089D01*
X039764Y016991D02*
X038587Y016991D01*
X038615Y016892D02*
X039764Y016892D01*
X039764Y016794D02*
X038615Y016794D01*
X038610Y016695D02*
X039764Y016695D01*
X039764Y016597D02*
X038569Y016597D01*
X038522Y016498D02*
X039764Y016498D01*
X039764Y016400D02*
X038423Y016400D01*
X038313Y016301D02*
X039764Y016301D01*
X039764Y016203D02*
X038451Y016203D01*
X038540Y016104D02*
X039764Y016104D01*
X039764Y016006D02*
X038581Y016006D01*
X038615Y015907D02*
X039764Y015907D01*
X039764Y015809D02*
X038615Y015809D01*
X038615Y015710D02*
X039764Y015710D01*
X039764Y015612D02*
X038575Y015612D01*
X038534Y015513D02*
X039764Y015513D01*
X039764Y015415D02*
X038438Y015415D01*
X038281Y015316D02*
X039764Y015316D01*
X036474Y014134D02*
X036053Y014134D01*
X036035Y014152D02*
X035983Y014190D01*
X035926Y014219D01*
X035864Y014239D01*
X035801Y014249D01*
X035538Y014249D01*
X035538Y013869D01*
X035478Y013869D01*
X035478Y013809D01*
X034838Y013809D01*
X034838Y013807D01*
X034848Y013743D01*
X034868Y013682D01*
X034898Y013624D01*
X034936Y013572D01*
X034981Y013526D01*
X035033Y013488D01*
X035091Y013459D01*
X035152Y013439D01*
X035216Y013429D01*
X035478Y013429D01*
X035478Y013809D01*
X035538Y013809D01*
X035538Y013429D01*
X035801Y013429D01*
X035864Y013439D01*
X035926Y013459D01*
X035983Y013488D01*
X036035Y013526D01*
X036081Y013572D01*
X036119Y013624D01*
X036148Y013682D01*
X036168Y013743D01*
X036178Y013807D01*
X036178Y013809D01*
X035538Y013809D01*
X035538Y013869D01*
X036178Y013869D01*
X036178Y013871D01*
X036168Y013935D01*
X036148Y013996D01*
X036119Y014054D01*
X036081Y014106D01*
X036035Y014152D01*
X036128Y014036D02*
X036474Y014036D01*
X036474Y013937D02*
X036167Y013937D01*
X036167Y013740D02*
X036474Y013740D01*
X036474Y013642D02*
X036128Y013642D01*
X036053Y013543D02*
X036474Y013543D01*
X036474Y013445D02*
X035882Y013445D01*
X035864Y013239D02*
X035801Y013249D01*
X035538Y013249D01*
X035538Y012869D01*
X035478Y012869D01*
X035478Y012809D01*
X034838Y012809D01*
X034838Y012807D01*
X034848Y012743D01*
X034868Y012682D01*
X034898Y012624D01*
X034936Y012572D01*
X034981Y012526D01*
X035033Y012488D01*
X035091Y012459D01*
X035152Y012439D01*
X035216Y012429D01*
X035478Y012429D01*
X035478Y012809D01*
X035538Y012809D01*
X035538Y012429D01*
X035801Y012429D01*
X035864Y012439D01*
X035926Y012459D01*
X035983Y012488D01*
X036035Y012526D01*
X036081Y012572D01*
X036119Y012624D01*
X036148Y012682D01*
X036168Y012743D01*
X036178Y012807D01*
X036178Y012809D01*
X035538Y012809D01*
X035538Y012869D01*
X036178Y012869D01*
X036178Y012871D01*
X036168Y012935D01*
X036148Y012996D01*
X036119Y013054D01*
X036081Y013106D01*
X036035Y013152D01*
X035983Y013190D01*
X035926Y013219D01*
X035864Y013239D01*
X035807Y013248D02*
X036474Y013248D01*
X036474Y013346D02*
X031542Y013346D01*
X031542Y013248D02*
X032210Y013248D01*
X032216Y013249D02*
X032152Y013239D01*
X032091Y013219D01*
X032033Y013190D01*
X031981Y013152D01*
X031936Y013106D01*
X031898Y013054D01*
X031868Y012996D01*
X031848Y012935D01*
X031838Y012871D01*
X031838Y012869D01*
X032478Y012869D01*
X032478Y012809D01*
X031838Y012809D01*
X031838Y012807D01*
X031848Y012743D01*
X031868Y012682D01*
X031898Y012624D01*
X031936Y012572D01*
X031981Y012526D01*
X032033Y012488D01*
X032091Y012459D01*
X032152Y012439D01*
X032216Y012429D01*
X032478Y012429D01*
X032478Y012809D01*
X032538Y012809D01*
X032538Y012429D01*
X032801Y012429D01*
X032864Y012439D01*
X032926Y012459D01*
X032983Y012488D01*
X033035Y012526D01*
X033081Y012572D01*
X033119Y012624D01*
X033148Y012682D01*
X033168Y012743D01*
X033178Y012807D01*
X033178Y012809D01*
X032538Y012809D01*
X032538Y012869D01*
X032478Y012869D01*
X032478Y013249D01*
X032216Y013249D01*
X032216Y013429D02*
X032478Y013429D01*
X032478Y013809D01*
X031838Y013809D01*
X031838Y013807D01*
X031848Y013743D01*
X031868Y013682D01*
X031898Y013624D01*
X031936Y013572D01*
X031981Y013526D01*
X032033Y013488D01*
X032091Y013459D01*
X032152Y013439D01*
X032216Y013429D01*
X032134Y013445D02*
X031542Y013445D01*
X031542Y013543D02*
X031964Y013543D01*
X031888Y013642D02*
X031542Y013642D01*
X031542Y013740D02*
X031849Y013740D01*
X031838Y013869D02*
X032478Y013869D01*
X032478Y013809D01*
X032538Y013809D01*
X032538Y013429D01*
X032801Y013429D01*
X032864Y013439D01*
X032926Y013459D01*
X032983Y013488D01*
X033035Y013526D01*
X033081Y013572D01*
X033119Y013624D01*
X033148Y013682D01*
X033168Y013743D01*
X033178Y013807D01*
X033178Y013809D01*
X032538Y013809D01*
X032538Y013869D01*
X032478Y013869D01*
X032478Y014249D01*
X032216Y014249D01*
X032152Y014239D01*
X032091Y014219D01*
X032033Y014190D01*
X031981Y014152D01*
X031936Y014106D01*
X031898Y014054D01*
X031868Y013996D01*
X031848Y013935D01*
X031838Y013871D01*
X031838Y013869D01*
X031849Y013937D02*
X031542Y013937D01*
X031542Y013839D02*
X032478Y013839D01*
X032538Y013839D02*
X035478Y013839D01*
X035478Y013869D02*
X034838Y013869D01*
X034838Y013871D01*
X034848Y013935D01*
X034868Y013996D01*
X034898Y014054D01*
X034936Y014106D01*
X034981Y014152D01*
X035033Y014190D01*
X035091Y014219D01*
X035152Y014239D01*
X035216Y014249D01*
X035478Y014249D01*
X035478Y013869D01*
X035538Y013839D02*
X036474Y013839D01*
X036303Y014233D02*
X035882Y014233D01*
X036039Y014331D02*
X032201Y014331D01*
X032134Y014233D02*
X032028Y014233D01*
X031964Y014134D02*
X031854Y014134D01*
X031888Y014036D02*
X031681Y014036D01*
X032478Y014036D02*
X032538Y014036D01*
X032538Y014134D02*
X032478Y014134D01*
X032478Y014233D02*
X032538Y014233D01*
X032538Y014249D02*
X032538Y013869D01*
X033178Y013869D01*
X033178Y013871D01*
X033168Y013935D01*
X033148Y013996D01*
X033119Y014054D01*
X033081Y014106D01*
X033035Y014152D01*
X032983Y014190D01*
X032926Y014219D01*
X032864Y014239D01*
X032801Y014249D01*
X032538Y014249D01*
X032882Y014233D02*
X035134Y014233D01*
X034964Y014134D02*
X033053Y014134D01*
X033128Y014036D02*
X034888Y014036D01*
X034849Y013937D02*
X033167Y013937D01*
X033167Y013740D02*
X034849Y013740D01*
X034888Y013642D02*
X033128Y013642D01*
X033053Y013543D02*
X034964Y013543D01*
X035134Y013445D02*
X032882Y013445D01*
X032864Y013239D02*
X032801Y013249D01*
X032538Y013249D01*
X032538Y012869D01*
X033178Y012869D01*
X033178Y012871D01*
X033168Y012935D01*
X033148Y012996D01*
X033119Y013054D01*
X033081Y013106D01*
X033035Y013152D01*
X032983Y013190D01*
X032926Y013219D01*
X032864Y013239D01*
X032807Y013248D02*
X035210Y013248D01*
X035216Y013249D02*
X035152Y013239D01*
X035091Y013219D01*
X035033Y013190D01*
X034981Y013152D01*
X034936Y013106D01*
X034898Y013054D01*
X034868Y012996D01*
X034848Y012935D01*
X034838Y012871D01*
X034838Y012869D01*
X035478Y012869D01*
X035478Y013249D01*
X035216Y013249D01*
X034979Y013149D02*
X033038Y013149D01*
X033120Y013051D02*
X034896Y013051D01*
X034854Y012952D02*
X033162Y012952D01*
X033170Y012755D02*
X034846Y012755D01*
X034881Y012657D02*
X033136Y012657D01*
X033068Y012558D02*
X034949Y012558D01*
X035089Y012460D02*
X032928Y012460D01*
X032868Y012263D02*
X035148Y012263D01*
X034966Y012164D02*
X033051Y012164D01*
X033329Y012066D02*
X034687Y012066D01*
X034589Y011967D02*
X033428Y011967D01*
X033526Y011869D02*
X034490Y011869D01*
X034392Y011770D02*
X033625Y011770D01*
X033723Y011672D02*
X034293Y011672D01*
X034195Y011573D02*
X033822Y011573D01*
X033885Y011475D02*
X034131Y011475D01*
X034112Y011376D02*
X033905Y011376D01*
X033905Y011278D02*
X034112Y011278D01*
X034112Y011179D02*
X033905Y011179D01*
X033905Y011081D02*
X034112Y011081D01*
X034112Y010982D02*
X033905Y010982D01*
X033905Y010884D02*
X034112Y010884D01*
X034112Y010785D02*
X033905Y010785D01*
X033905Y010687D02*
X034112Y010687D01*
X034112Y010588D02*
X033905Y010588D01*
X033905Y010490D02*
X034112Y010490D01*
X034112Y010391D02*
X033905Y010391D01*
X033905Y010293D02*
X034112Y010293D01*
X034112Y010194D02*
X033905Y010194D01*
X033905Y010096D02*
X034112Y010096D01*
X034112Y009997D02*
X033905Y009997D01*
X033905Y009899D02*
X034112Y009899D01*
X034112Y009800D02*
X033905Y009800D01*
X033905Y009702D02*
X034112Y009702D01*
X034112Y009603D02*
X033905Y009603D01*
X033905Y009505D02*
X034112Y009505D01*
X034112Y009406D02*
X033905Y009406D01*
X033890Y009308D02*
X034112Y009308D01*
X034112Y009209D02*
X033832Y009209D01*
X033736Y009111D02*
X034112Y009111D01*
X034112Y009012D02*
X033640Y009012D01*
X033544Y008914D02*
X034112Y008914D01*
X034112Y008815D02*
X033448Y008815D01*
X033352Y008717D02*
X034112Y008717D01*
X034112Y008618D02*
X033256Y008618D01*
X033160Y008520D02*
X034112Y008520D01*
X034112Y008421D02*
X033065Y008421D01*
X032969Y008323D02*
X034112Y008323D01*
X034112Y008224D02*
X032873Y008224D01*
X032777Y008126D02*
X034096Y008126D01*
X034000Y008027D02*
X032681Y008027D01*
X032585Y007929D02*
X033904Y007929D01*
X033808Y007830D02*
X032489Y007830D01*
X032393Y007732D02*
X033712Y007732D01*
X033616Y007633D02*
X032297Y007633D01*
X032201Y007535D02*
X033008Y007535D01*
X032946Y007436D02*
X032105Y007436D01*
X032009Y007338D02*
X032946Y007338D01*
X032946Y007239D02*
X031914Y007239D01*
X031846Y007141D02*
X032946Y007141D01*
X032946Y007042D02*
X031846Y007042D01*
X031846Y006944D02*
X032946Y006944D01*
X032946Y006845D02*
X031846Y006845D01*
X031749Y006747D02*
X032946Y006747D01*
X032946Y006648D02*
X031650Y006648D01*
X031552Y006550D02*
X033039Y006550D01*
X033882Y006550D02*
X034225Y006550D01*
X034126Y006648D02*
X033975Y006648D01*
X033975Y006747D02*
X034028Y006747D01*
X034664Y006550D02*
X037005Y006550D01*
X037113Y006648D02*
X034763Y006648D01*
X034861Y006747D02*
X037307Y006747D01*
X037497Y006844D02*
X037497Y006844D01*
X037507Y006845D02*
X034959Y006845D01*
X034606Y007633D02*
X034426Y007633D01*
X034522Y007732D02*
X034704Y007732D01*
X034619Y007830D02*
X034801Y007830D01*
X034899Y007929D02*
X034676Y007929D01*
X034692Y008027D02*
X034996Y008027D01*
X035093Y008126D02*
X034692Y008126D01*
X034692Y008224D02*
X035191Y008224D01*
X035288Y008323D02*
X034692Y008323D01*
X034692Y008421D02*
X035386Y008421D01*
X035483Y008520D02*
X034692Y008520D01*
X034692Y008618D02*
X035581Y008618D01*
X035678Y008717D02*
X034692Y008717D01*
X034692Y008815D02*
X035776Y008815D01*
X035873Y008914D02*
X034692Y008914D01*
X034692Y009012D02*
X035971Y009012D01*
X036068Y009111D02*
X034692Y009111D01*
X034692Y009209D02*
X036166Y009209D01*
X036263Y009308D02*
X034692Y009308D01*
X034692Y009406D02*
X036361Y009406D01*
X036458Y009505D02*
X035929Y009505D01*
X035978Y009525D02*
X036082Y009629D01*
X036138Y009765D01*
X036138Y009913D01*
X036082Y010049D01*
X035978Y010153D01*
X035842Y010209D01*
X035175Y010209D01*
X035039Y010153D01*
X034935Y010049D01*
X034878Y009913D01*
X034878Y009765D01*
X034935Y009629D01*
X035039Y009525D01*
X035175Y009469D01*
X035842Y009469D01*
X035978Y009525D01*
X036056Y009603D02*
X036474Y009603D01*
X036474Y009702D02*
X036112Y009702D01*
X036138Y009800D02*
X036474Y009800D01*
X036474Y009899D02*
X036138Y009899D01*
X036103Y009997D02*
X036474Y009997D01*
X036474Y010096D02*
X036035Y010096D01*
X035877Y010194D02*
X036474Y010194D01*
X036474Y010293D02*
X034692Y010293D01*
X034692Y010391D02*
X036474Y010391D01*
X036474Y010490D02*
X035893Y010490D01*
X035842Y010469D02*
X035978Y010525D01*
X036082Y010629D01*
X036138Y010765D01*
X036138Y010913D01*
X036082Y011049D01*
X035978Y011153D01*
X035842Y011209D01*
X035175Y011209D01*
X035039Y011153D01*
X034935Y011049D01*
X034878Y010913D01*
X034878Y010765D01*
X034935Y010629D01*
X035039Y010525D01*
X035175Y010469D01*
X035842Y010469D01*
X036041Y010588D02*
X036474Y010588D01*
X036474Y010687D02*
X036106Y010687D01*
X036138Y010785D02*
X036474Y010785D01*
X036474Y010884D02*
X036138Y010884D01*
X036109Y010982D02*
X036474Y010982D01*
X036474Y011081D02*
X036050Y011081D01*
X035913Y011179D02*
X036474Y011179D01*
X036474Y011278D02*
X034720Y011278D01*
X034692Y011179D02*
X035103Y011179D01*
X034967Y011081D02*
X034692Y011081D01*
X034692Y010982D02*
X034907Y010982D01*
X034878Y010884D02*
X034692Y010884D01*
X034692Y010785D02*
X034878Y010785D01*
X034911Y010687D02*
X034692Y010687D01*
X034692Y010588D02*
X034976Y010588D01*
X035124Y010490D02*
X034692Y010490D01*
X034692Y010194D02*
X035140Y010194D01*
X034982Y010096D02*
X034692Y010096D01*
X034692Y009997D02*
X034913Y009997D01*
X034878Y009899D02*
X034692Y009899D01*
X034692Y009800D02*
X034878Y009800D01*
X034905Y009702D02*
X034692Y009702D01*
X034692Y009603D02*
X034961Y009603D01*
X035088Y009505D02*
X034692Y009505D01*
X033325Y009603D02*
X033136Y009603D01*
X033133Y009595D02*
X033198Y009753D01*
X033198Y009925D01*
X033133Y010083D01*
X033012Y010204D01*
X032854Y010269D01*
X032163Y010269D01*
X032005Y010204D01*
X031884Y010083D01*
X031818Y009925D01*
X031818Y009753D01*
X031884Y009595D01*
X032005Y009474D01*
X032163Y009409D01*
X032854Y009409D01*
X033012Y009474D01*
X033133Y009595D01*
X033177Y009702D02*
X033325Y009702D01*
X033325Y009800D02*
X033198Y009800D01*
X033198Y009899D02*
X033325Y009899D01*
X033325Y009997D02*
X033168Y009997D01*
X033119Y010096D02*
X033325Y010096D01*
X033325Y010194D02*
X033021Y010194D01*
X033325Y010293D02*
X031542Y010293D01*
X031542Y010391D02*
X033325Y010391D01*
X033325Y010490D02*
X032893Y010490D01*
X032842Y010469D02*
X032978Y010525D01*
X033082Y010629D01*
X033138Y010765D01*
X033138Y010913D01*
X033082Y011049D01*
X032978Y011153D01*
X032842Y011209D01*
X032175Y011209D01*
X032039Y011153D01*
X031935Y011049D01*
X031878Y010913D01*
X031878Y010765D01*
X031935Y010629D01*
X032039Y010525D01*
X032175Y010469D01*
X032842Y010469D01*
X033041Y010588D02*
X033325Y010588D01*
X033325Y010687D02*
X033106Y010687D01*
X033138Y010785D02*
X033325Y010785D01*
X033325Y010884D02*
X033138Y010884D01*
X033109Y010982D02*
X033325Y010982D01*
X033325Y011081D02*
X033050Y011081D01*
X032913Y011179D02*
X033325Y011179D01*
X033297Y011278D02*
X031542Y011278D01*
X031542Y011376D02*
X033198Y011376D01*
X033100Y011475D02*
X033012Y011475D01*
X032103Y011179D02*
X031542Y011179D01*
X031542Y011081D02*
X031967Y011081D01*
X031907Y010982D02*
X031542Y010982D01*
X031542Y010884D02*
X031878Y010884D01*
X031878Y010785D02*
X031542Y010785D01*
X031542Y010687D02*
X031911Y010687D01*
X031976Y010588D02*
X031542Y010588D01*
X031542Y010490D02*
X032124Y010490D01*
X031996Y010194D02*
X031542Y010194D01*
X031542Y010096D02*
X031897Y010096D01*
X031848Y009997D02*
X031542Y009997D01*
X031542Y009899D02*
X031818Y009899D01*
X031818Y009800D02*
X031542Y009800D01*
X031542Y009702D02*
X031840Y009702D01*
X031880Y009603D02*
X031542Y009603D01*
X031542Y009505D02*
X031974Y009505D01*
X031542Y009406D02*
X033214Y009406D01*
X033118Y009308D02*
X031542Y009308D01*
X031542Y009209D02*
X033022Y009209D01*
X032926Y009111D02*
X031542Y009111D01*
X031542Y009012D02*
X032830Y009012D01*
X032735Y008914D02*
X031542Y008914D01*
X031542Y008815D02*
X032639Y008815D01*
X032543Y008717D02*
X031542Y008717D01*
X031542Y008618D02*
X032447Y008618D01*
X032351Y008520D02*
X031542Y008520D01*
X031542Y008421D02*
X032255Y008421D01*
X032159Y008323D02*
X031542Y008323D01*
X031542Y008224D02*
X032063Y008224D01*
X031967Y008126D02*
X031542Y008126D01*
X031542Y008027D02*
X031871Y008027D01*
X031775Y007929D02*
X031527Y007929D01*
X031469Y007830D02*
X031679Y007830D01*
X031584Y007732D02*
X031376Y007732D01*
X031284Y007633D02*
X031488Y007633D01*
X030915Y006747D02*
X030862Y006747D01*
X030862Y006648D02*
X031014Y006648D01*
X031112Y006550D02*
X030769Y006550D01*
X027315Y007264D02*
X027315Y014914D01*
X027155Y014824D02*
X026454Y014824D01*
X026454Y014922D02*
X027080Y014922D01*
X027155Y014725D02*
X026356Y014725D01*
X026258Y014627D02*
X027155Y014627D01*
X026860Y015021D02*
X026454Y015021D01*
X026454Y015119D02*
X026702Y015119D01*
X026647Y015218D02*
X026398Y015218D01*
X026300Y015316D02*
X026634Y015316D01*
X026654Y015415D02*
X024326Y015415D01*
X024326Y015513D02*
X026720Y015513D01*
X028510Y015907D02*
X028611Y015907D01*
X028617Y016794D02*
X028666Y016794D01*
X027238Y017680D02*
X023812Y017680D01*
X023714Y017582D02*
X024049Y017582D01*
X023950Y017483D02*
X023615Y017483D01*
X023517Y017385D02*
X023852Y017385D01*
X023753Y017286D02*
X023418Y017286D01*
X023320Y017188D02*
X023655Y017188D01*
X023556Y017089D02*
X023221Y017089D01*
X023123Y016991D02*
X023458Y016991D01*
X023359Y016892D02*
X023024Y016892D01*
X022948Y016794D02*
X023261Y016794D01*
X023218Y016695D02*
X022948Y016695D01*
X022948Y016597D02*
X023218Y016597D01*
X023218Y016498D02*
X022948Y016498D01*
X022948Y016400D02*
X023218Y016400D01*
X023218Y016301D02*
X022948Y016301D01*
X022948Y016203D02*
X023218Y016203D01*
X023218Y016104D02*
X022948Y016104D01*
X022948Y016006D02*
X023218Y016006D01*
X023218Y015907D02*
X022948Y015907D01*
X022948Y015809D02*
X023218Y015809D01*
X023218Y015710D02*
X022948Y015710D01*
X022948Y015612D02*
X023218Y015612D01*
X023218Y015513D02*
X022948Y015513D01*
X022948Y015415D02*
X023218Y015415D01*
X023218Y015316D02*
X022948Y015316D01*
X022948Y015218D02*
X023218Y015218D01*
X023218Y015119D02*
X022948Y015119D01*
X022948Y015021D02*
X023218Y015021D01*
X023218Y014922D02*
X022948Y014922D01*
X022948Y014824D02*
X023218Y014824D01*
X023218Y014725D02*
X022948Y014725D01*
X022948Y014627D02*
X023218Y014627D01*
X023218Y014528D02*
X022948Y014528D01*
X022948Y014430D02*
X023218Y014430D01*
X023218Y014331D02*
X022948Y014331D01*
X022948Y014233D02*
X023218Y014233D01*
X023218Y014134D02*
X022948Y014134D01*
X022948Y014036D02*
X023218Y014036D01*
X023218Y013937D02*
X022948Y013937D01*
X022948Y013839D02*
X023218Y013839D01*
X023218Y013740D02*
X022948Y013740D01*
X022948Y013642D02*
X023218Y013642D01*
X023218Y013543D02*
X022948Y013543D01*
X022948Y013445D02*
X023218Y013445D01*
X023218Y013346D02*
X022948Y013346D01*
X022948Y013248D02*
X023218Y013248D01*
X023218Y013149D02*
X022948Y013149D01*
X022948Y013051D02*
X023218Y013051D01*
X023218Y012952D02*
X022948Y012952D01*
X022948Y012854D02*
X023218Y012854D01*
X023218Y012755D02*
X022948Y012755D01*
X022948Y012657D02*
X023218Y012657D01*
X022628Y012657D02*
X020491Y012657D01*
X020491Y012755D02*
X020391Y012755D01*
X020391Y012657D02*
X019921Y012657D01*
X019921Y012566D02*
X019921Y012757D01*
X019848Y012934D01*
X019713Y013069D01*
X019537Y013142D01*
X019346Y013142D01*
X019169Y013069D01*
X019034Y012934D01*
X018961Y012757D01*
X018961Y012566D01*
X019034Y012390D01*
X019169Y012255D01*
X019346Y012182D01*
X019537Y012182D01*
X019713Y012255D01*
X019848Y012390D01*
X019921Y012566D01*
X019918Y012558D02*
X019931Y012558D01*
X019961Y012460D02*
X019877Y012460D01*
X019820Y012361D02*
X020017Y012361D01*
X020106Y012263D02*
X019721Y012263D01*
X019713Y012069D02*
X019537Y012142D01*
X019346Y012142D01*
X019169Y012069D01*
X019034Y011934D01*
X018961Y011757D01*
X018961Y011566D01*
X019034Y011390D01*
X019169Y011255D01*
X019346Y011182D01*
X019537Y011182D01*
X019713Y011255D01*
X019848Y011390D01*
X019921Y011566D01*
X019921Y011757D01*
X019848Y011934D01*
X019713Y012069D01*
X019716Y012066D02*
X020113Y012066D01*
X020021Y011967D02*
X019814Y011967D01*
X019875Y011869D02*
X019963Y011869D01*
X019932Y011770D02*
X019916Y011770D01*
X019921Y011672D02*
X020391Y011672D01*
X020391Y011770D02*
X020491Y011770D01*
X020491Y011672D02*
X022628Y011672D01*
X022628Y011770D02*
X020951Y011770D01*
X020919Y011869D02*
X022628Y011869D01*
X022628Y011967D02*
X020862Y011967D01*
X020770Y012066D02*
X022628Y012066D01*
X022628Y012164D02*
X020593Y012164D01*
X020491Y012164D02*
X020391Y012164D01*
X020391Y012066D02*
X020491Y012066D01*
X020491Y011967D02*
X020391Y011967D01*
X020391Y011869D02*
X020491Y011869D01*
X020289Y012164D02*
X002791Y012164D01*
X002784Y012171D02*
X002608Y012244D01*
X002417Y012244D01*
X002240Y012171D01*
X002105Y012036D01*
X002032Y011860D01*
X002032Y011669D01*
X002105Y011492D01*
X002240Y011357D01*
X002417Y011284D01*
X002608Y011284D01*
X002784Y011357D01*
X002919Y011492D01*
X002992Y011669D01*
X002992Y011860D01*
X002919Y012036D01*
X002784Y012171D01*
X002889Y012066D02*
X019167Y012066D01*
X019068Y011967D02*
X017084Y011967D01*
X017183Y011869D02*
X019008Y011869D01*
X018967Y011770D02*
X017224Y011770D01*
X017241Y011672D02*
X018961Y011672D01*
X018961Y011573D02*
X017236Y011573D01*
X017195Y011475D02*
X018999Y011475D01*
X019048Y011376D02*
X017112Y011376D01*
X017097Y012361D02*
X019063Y012361D01*
X019005Y012460D02*
X017189Y012460D01*
X017230Y012558D02*
X018965Y012558D01*
X018961Y012657D02*
X017241Y012657D01*
X017231Y012755D02*
X018961Y012755D01*
X019001Y012854D02*
X017190Y012854D01*
X017099Y012952D02*
X019053Y012952D01*
X019152Y013051D02*
X013460Y013051D01*
X013361Y013149D02*
X020259Y013149D01*
X020391Y013149D02*
X020491Y013149D01*
X020491Y013051D02*
X020391Y013051D01*
X020391Y012952D02*
X020491Y012952D01*
X020491Y012854D02*
X020391Y012854D01*
X020095Y013051D02*
X019731Y013051D01*
X019829Y012952D02*
X020010Y012952D01*
X019957Y012854D02*
X019881Y012854D01*
X019921Y012755D02*
X019930Y012755D01*
X020391Y012558D02*
X020491Y012558D01*
X020491Y012460D02*
X020391Y012460D01*
X020391Y012361D02*
X020491Y012361D01*
X020491Y012263D02*
X020391Y012263D01*
X020777Y012263D02*
X022628Y012263D01*
X022628Y012361D02*
X020866Y012361D01*
X020922Y012460D02*
X022628Y012460D01*
X022628Y012558D02*
X020951Y012558D01*
X020953Y012755D02*
X022628Y012755D01*
X022628Y012854D02*
X020926Y012854D01*
X020873Y012952D02*
X022628Y012952D01*
X022628Y013051D02*
X020788Y013051D01*
X020623Y013149D02*
X022628Y013149D01*
X022628Y013248D02*
X013263Y013248D01*
X013007Y013051D02*
X000694Y013051D01*
X000694Y013149D02*
X012908Y013149D01*
X012810Y013248D02*
X000694Y013248D01*
X000694Y013346D02*
X012711Y013346D01*
X012613Y013445D02*
X000694Y013445D01*
X000694Y013543D02*
X012588Y013543D01*
X012588Y013642D02*
X000694Y013642D01*
X000694Y013740D02*
X012588Y013740D01*
X012588Y013839D02*
X000694Y013839D01*
X000694Y013937D02*
X012588Y013937D01*
X012588Y014036D02*
X001705Y014036D01*
X001712Y014038D02*
X001785Y014075D01*
X001851Y014123D01*
X001909Y014181D01*
X001957Y014248D01*
X001994Y014320D01*
X002019Y014398D01*
X002031Y014470D01*
X001562Y014470D01*
X001562Y014002D01*
X001634Y014013D01*
X001712Y014038D01*
X001562Y014036D02*
X001462Y014036D01*
X001462Y014002D02*
X001462Y014470D01*
X000994Y014470D01*
X001005Y014398D01*
X001030Y014320D01*
X001067Y014248D01*
X001116Y014181D01*
X001173Y014123D01*
X001240Y014075D01*
X001313Y014038D01*
X001390Y014013D01*
X001462Y014002D01*
X001462Y014134D02*
X001562Y014134D01*
X001562Y014233D02*
X001462Y014233D01*
X001462Y014331D02*
X001562Y014331D01*
X001562Y014430D02*
X001462Y014430D01*
X001462Y014470D02*
X001562Y014470D01*
X001562Y014570D01*
X001462Y014570D01*
X001462Y014470D01*
X001462Y014528D02*
X000694Y014528D01*
X000694Y014430D02*
X001000Y014430D01*
X001027Y014331D02*
X000694Y014331D01*
X000694Y014233D02*
X001078Y014233D01*
X001162Y014134D02*
X000694Y014134D01*
X000694Y014036D02*
X001319Y014036D01*
X001862Y014134D02*
X002219Y014134D01*
X002240Y014113D02*
X002417Y014040D01*
X002608Y014040D01*
X002784Y014113D01*
X002919Y014248D01*
X002992Y014425D01*
X002992Y014616D01*
X002919Y014792D01*
X002784Y014927D01*
X002608Y015000D01*
X002417Y015000D01*
X002240Y014927D01*
X002105Y014792D01*
X002032Y014616D01*
X002032Y014425D01*
X002105Y014248D01*
X002240Y014113D01*
X002120Y014233D02*
X001946Y014233D01*
X001998Y014331D02*
X002071Y014331D01*
X002032Y014430D02*
X002024Y014430D01*
X002032Y014528D02*
X001562Y014528D01*
X001562Y014570D02*
X002031Y014570D01*
X002019Y014642D01*
X001994Y014720D01*
X001957Y014793D01*
X001909Y014859D01*
X001851Y014917D01*
X001785Y014965D01*
X001712Y015002D01*
X001634Y015027D01*
X001562Y015039D01*
X001562Y014570D01*
X001562Y014627D02*
X001462Y014627D01*
X001462Y014570D02*
X001462Y015039D01*
X001390Y015027D01*
X001313Y015002D01*
X001240Y014965D01*
X001173Y014917D01*
X001116Y014859D01*
X001067Y014793D01*
X001030Y014720D01*
X001005Y014642D01*
X000994Y014570D01*
X001462Y014570D01*
X001462Y014725D02*
X001562Y014725D01*
X001562Y014824D02*
X001462Y014824D01*
X001462Y014922D02*
X001562Y014922D01*
X001562Y015021D02*
X001462Y015021D01*
X001371Y015021D02*
X000694Y015021D01*
X000694Y015119D02*
X009020Y015119D01*
X009039Y015075D02*
X009154Y014960D01*
X009305Y014897D01*
X009468Y014897D01*
X009618Y014960D01*
X009734Y015075D01*
X009796Y015226D01*
X009796Y015389D01*
X009734Y015540D01*
X009618Y015655D01*
X009468Y015717D01*
X009305Y015717D01*
X009154Y015655D01*
X009039Y015540D01*
X008976Y015389D01*
X008976Y015226D01*
X009039Y015075D01*
X009093Y015021D02*
X001653Y015021D01*
X001843Y014922D02*
X002236Y014922D01*
X002137Y014824D02*
X001934Y014824D01*
X001991Y014725D02*
X002078Y014725D01*
X002037Y014627D02*
X002022Y014627D01*
X002789Y014922D02*
X009244Y014922D01*
X009528Y014922D02*
X010244Y014922D01*
X010305Y014897D02*
X010468Y014897D01*
X010618Y014960D01*
X010734Y015075D01*
X010796Y015226D01*
X010796Y015389D01*
X010734Y015540D01*
X010618Y015655D01*
X010468Y015717D01*
X010305Y015717D01*
X010154Y015655D01*
X010039Y015540D01*
X009976Y015389D01*
X009976Y015226D01*
X010039Y015075D01*
X010154Y014960D01*
X010305Y014897D01*
X010528Y014922D02*
X011151Y014922D01*
X011150Y014923D02*
X011213Y014890D01*
X011281Y014869D01*
X011336Y014860D01*
X011336Y015257D01*
X011436Y015257D01*
X011436Y014860D01*
X011492Y014869D01*
X011559Y014890D01*
X011622Y014923D01*
X011679Y014964D01*
X011729Y015014D01*
X011771Y015072D01*
X011803Y015135D01*
X011825Y015202D01*
X011834Y015257D01*
X011436Y015257D01*
X011436Y015357D01*
X011834Y015357D01*
X011825Y015413D01*
X011803Y015480D01*
X011771Y015543D01*
X011729Y015601D01*
X011679Y015651D01*
X011622Y015692D01*
X011559Y015725D01*
X011492Y015746D01*
X011436Y015755D01*
X011436Y015357D01*
X011336Y015357D01*
X011336Y015257D01*
X010939Y015257D01*
X010947Y015202D01*
X010969Y015135D01*
X011001Y015072D01*
X011043Y015014D01*
X011093Y014964D01*
X011150Y014923D01*
X011038Y015021D02*
X010680Y015021D01*
X010752Y015119D02*
X010977Y015119D01*
X010945Y015218D02*
X010793Y015218D01*
X010796Y015316D02*
X011336Y015316D01*
X011336Y015357D02*
X010939Y015357D01*
X010947Y015413D01*
X010969Y015480D01*
X011001Y015543D01*
X011043Y015601D01*
X011093Y015651D01*
X011150Y015692D01*
X011213Y015725D01*
X011281Y015746D01*
X011336Y015755D01*
X011336Y015357D01*
X011336Y015415D02*
X011436Y015415D01*
X011436Y015513D02*
X011336Y015513D01*
X011336Y015612D02*
X011436Y015612D01*
X011436Y015710D02*
X011336Y015710D01*
X011186Y015710D02*
X010485Y015710D01*
X010288Y015710D02*
X009485Y015710D01*
X009288Y015710D02*
X000694Y015710D01*
X000694Y015612D02*
X009111Y015612D01*
X009028Y015513D02*
X000694Y015513D01*
X000694Y015415D02*
X008987Y015415D01*
X008976Y015316D02*
X000694Y015316D01*
X000694Y015218D02*
X008980Y015218D01*
X009680Y015021D02*
X010093Y015021D01*
X010020Y015119D02*
X009752Y015119D01*
X009793Y015218D02*
X009980Y015218D01*
X009976Y015316D02*
X009796Y015316D01*
X009785Y015415D02*
X009987Y015415D01*
X010028Y015513D02*
X009745Y015513D01*
X009662Y015612D02*
X010111Y015612D01*
X010305Y016079D02*
X010468Y016079D01*
X010618Y016141D01*
X010734Y016256D01*
X010796Y016407D01*
X010796Y016570D01*
X010734Y016721D01*
X010618Y016836D01*
X010468Y016899D01*
X010305Y016899D01*
X010154Y016836D01*
X010039Y016721D01*
X009976Y016570D01*
X009976Y016407D01*
X010039Y016256D01*
X010154Y016141D01*
X010305Y016079D01*
X010242Y016104D02*
X009530Y016104D01*
X009468Y016079D02*
X009618Y016141D01*
X009734Y016256D01*
X009796Y016407D01*
X009796Y016570D01*
X009734Y016721D01*
X009618Y016836D01*
X009468Y016899D01*
X009305Y016899D01*
X009154Y016836D01*
X009039Y016721D01*
X008976Y016570D01*
X008976Y016407D01*
X009039Y016256D01*
X009154Y016141D01*
X009305Y016079D01*
X009468Y016079D01*
X009242Y016104D02*
X000694Y016104D01*
X000694Y016006D02*
X012588Y016006D01*
X012588Y016104D02*
X011623Y016104D01*
X011622Y016104D02*
X011679Y016145D01*
X011729Y016195D01*
X011771Y016253D01*
X011803Y016316D01*
X011825Y016383D01*
X011834Y016439D01*
X011436Y016439D01*
X011436Y016539D01*
X011336Y016539D01*
X011336Y016936D01*
X011281Y016928D01*
X011213Y016906D01*
X011150Y016873D01*
X011093Y016832D01*
X011043Y016782D01*
X011001Y016724D01*
X010969Y016661D01*
X010947Y016594D01*
X010939Y016539D01*
X011336Y016539D01*
X011336Y016439D01*
X010939Y016439D01*
X010947Y016383D01*
X010969Y016316D01*
X011001Y016253D01*
X011043Y016195D01*
X011093Y016145D01*
X011150Y016104D01*
X011213Y016072D01*
X011281Y016050D01*
X011336Y016041D01*
X011336Y016439D01*
X011436Y016439D01*
X011436Y016041D01*
X011492Y016050D01*
X011559Y016072D01*
X011622Y016104D01*
X011735Y016203D02*
X012588Y016203D01*
X012588Y016301D02*
X011796Y016301D01*
X011828Y016400D02*
X012588Y016400D01*
X012588Y016498D02*
X011436Y016498D01*
X011436Y016539D02*
X011834Y016539D01*
X011825Y016594D01*
X011803Y016661D01*
X011771Y016724D01*
X011729Y016782D01*
X011679Y016832D01*
X011622Y016873D01*
X011559Y016906D01*
X011492Y016928D01*
X011436Y016936D01*
X011436Y016539D01*
X011436Y016597D02*
X011336Y016597D01*
X011336Y016695D02*
X011436Y016695D01*
X011436Y016794D02*
X011336Y016794D01*
X011336Y016892D02*
X011436Y016892D01*
X011585Y016892D02*
X012588Y016892D01*
X012588Y016794D02*
X011717Y016794D01*
X011786Y016695D02*
X012588Y016695D01*
X012588Y016597D02*
X011824Y016597D01*
X011436Y016400D02*
X011336Y016400D01*
X011336Y016498D02*
X010796Y016498D01*
X010793Y016400D02*
X010945Y016400D01*
X010977Y016301D02*
X010753Y016301D01*
X010680Y016203D02*
X011037Y016203D01*
X011149Y016104D02*
X010530Y016104D01*
X010092Y016203D02*
X009680Y016203D01*
X009753Y016301D02*
X010020Y016301D01*
X009979Y016400D02*
X009793Y016400D01*
X009796Y016498D02*
X009976Y016498D01*
X009987Y016597D02*
X009785Y016597D01*
X009744Y016695D02*
X010028Y016695D01*
X010112Y016794D02*
X009661Y016794D01*
X009482Y016892D02*
X010290Y016892D01*
X010482Y016892D02*
X011188Y016892D01*
X011055Y016794D02*
X010661Y016794D01*
X010744Y016695D02*
X010987Y016695D01*
X010948Y016597D02*
X010785Y016597D01*
X011336Y016301D02*
X011436Y016301D01*
X011436Y016203D02*
X011336Y016203D01*
X011336Y016104D02*
X011436Y016104D01*
X011586Y015710D02*
X012588Y015710D01*
X012588Y015612D02*
X011718Y015612D01*
X011786Y015513D02*
X012588Y015513D01*
X012588Y015415D02*
X011824Y015415D01*
X011828Y015218D02*
X012588Y015218D01*
X012588Y015316D02*
X011436Y015316D01*
X011436Y015218D02*
X011336Y015218D01*
X011336Y015119D02*
X011436Y015119D01*
X011436Y015021D02*
X011336Y015021D01*
X011336Y014922D02*
X011436Y014922D01*
X011622Y014922D02*
X012588Y014922D01*
X012588Y014824D02*
X002887Y014824D01*
X002947Y014725D02*
X012588Y014725D01*
X012588Y014627D02*
X002987Y014627D01*
X002992Y014528D02*
X012588Y014528D01*
X012588Y014430D02*
X002992Y014430D01*
X002954Y014331D02*
X012588Y014331D01*
X012588Y014233D02*
X002904Y014233D01*
X002805Y014134D02*
X012588Y014134D01*
X012908Y014134D02*
X014974Y014134D01*
X014881Y014233D02*
X012908Y014233D01*
X012908Y014331D02*
X013172Y014331D01*
X013141Y014344D02*
X013277Y014288D01*
X013944Y014288D01*
X014080Y014344D01*
X014184Y014448D01*
X014241Y014584D01*
X014241Y014731D01*
X014184Y014867D01*
X014080Y014972D01*
X013944Y015028D01*
X013277Y015028D01*
X013141Y014972D01*
X013037Y014867D01*
X012981Y014731D01*
X012981Y014584D01*
X013037Y014448D01*
X013141Y014344D01*
X013055Y014430D02*
X012908Y014430D01*
X012908Y014528D02*
X013004Y014528D01*
X012981Y014627D02*
X012908Y014627D01*
X012908Y014725D02*
X012981Y014725D01*
X013019Y014824D02*
X012908Y014824D01*
X012908Y014922D02*
X013092Y014922D01*
X013260Y015021D02*
X012908Y015021D01*
X012908Y015119D02*
X014881Y015119D01*
X014881Y015021D02*
X013961Y015021D01*
X014129Y014922D02*
X014881Y014922D01*
X014881Y014824D02*
X014202Y014824D01*
X014241Y014725D02*
X014881Y014725D01*
X014881Y014627D02*
X014241Y014627D01*
X014218Y014528D02*
X014881Y014528D01*
X014881Y014430D02*
X014166Y014430D01*
X014050Y014331D02*
X014881Y014331D01*
X015073Y014036D02*
X012908Y014036D01*
X012908Y013937D02*
X013107Y013937D01*
X013025Y013839D02*
X012908Y013839D01*
X012908Y013740D02*
X012984Y013740D01*
X012981Y013642D02*
X012908Y013642D01*
X012967Y013543D02*
X012998Y013543D01*
X013105Y012952D02*
X000694Y012952D01*
X000694Y012854D02*
X013031Y012854D01*
X012991Y012755D02*
X000694Y012755D01*
X000694Y012657D02*
X012981Y012657D01*
X012991Y012558D02*
X000694Y012558D01*
X000694Y012460D02*
X013032Y012460D01*
X013124Y012361D02*
X000694Y012361D01*
X000694Y012263D02*
X001365Y012263D01*
X001390Y012271D02*
X001313Y012246D01*
X001240Y012209D01*
X001173Y012161D01*
X001116Y012103D01*
X001067Y012037D01*
X001030Y011964D01*
X001005Y011886D01*
X000994Y011814D01*
X001462Y011814D01*
X001462Y011714D01*
X000994Y011714D01*
X001005Y011642D01*
X001030Y011565D01*
X001067Y011492D01*
X001116Y011425D01*
X001173Y011368D01*
X001240Y011319D01*
X001313Y011282D01*
X001390Y011257D01*
X001462Y011246D01*
X001462Y011714D01*
X001562Y011714D01*
X001562Y011246D01*
X001634Y011257D01*
X001712Y011282D01*
X001785Y011319D01*
X001851Y011368D01*
X001909Y011425D01*
X001957Y011492D01*
X001994Y011565D01*
X002019Y011642D01*
X002031Y011714D01*
X001562Y011714D01*
X001562Y011814D01*
X001462Y011814D01*
X001462Y012283D01*
X001390Y012271D01*
X001462Y012263D02*
X001562Y012263D01*
X001562Y012283D02*
X001562Y011814D01*
X002031Y011814D01*
X002019Y011886D01*
X001994Y011964D01*
X001957Y012037D01*
X001909Y012103D01*
X001851Y012161D01*
X001785Y012209D01*
X001712Y012246D01*
X001634Y012271D01*
X001562Y012283D01*
X001660Y012263D02*
X019161Y012263D01*
X019921Y011573D02*
X019929Y011573D01*
X019955Y011475D02*
X019883Y011475D01*
X019835Y011376D02*
X020006Y011376D01*
X020090Y011278D02*
X019736Y011278D01*
X019146Y011278D02*
X001699Y011278D01*
X001562Y011278D02*
X001462Y011278D01*
X001462Y011376D02*
X001562Y011376D01*
X001562Y011475D02*
X001462Y011475D01*
X001462Y011573D02*
X001562Y011573D01*
X001562Y011672D02*
X001462Y011672D01*
X001462Y011770D02*
X000694Y011770D01*
X000694Y011672D02*
X001000Y011672D01*
X001027Y011573D02*
X000694Y011573D01*
X000694Y011475D02*
X001080Y011475D01*
X001165Y011376D02*
X000694Y011376D01*
X000694Y011278D02*
X001326Y011278D01*
X001860Y011376D02*
X002221Y011376D01*
X002123Y011475D02*
X001945Y011475D01*
X001997Y011573D02*
X002072Y011573D01*
X002032Y011672D02*
X002024Y011672D01*
X002032Y011770D02*
X001562Y011770D01*
X001562Y011869D02*
X001462Y011869D01*
X001462Y011967D02*
X001562Y011967D01*
X001562Y012066D02*
X001462Y012066D01*
X001462Y012164D02*
X001562Y012164D01*
X001846Y012164D02*
X002234Y012164D01*
X002135Y012066D02*
X001936Y012066D01*
X001992Y011967D02*
X002077Y011967D01*
X002036Y011869D02*
X002022Y011869D01*
X001179Y012164D02*
X000694Y012164D01*
X000694Y012066D02*
X001089Y012066D01*
X001032Y011967D02*
X000694Y011967D01*
X000694Y011869D02*
X001002Y011869D01*
X000694Y010982D02*
X013167Y010982D01*
X013053Y010884D02*
X000694Y010884D01*
X000694Y010785D02*
X013003Y010785D01*
X012981Y010687D02*
X000694Y010687D01*
X000694Y010588D02*
X012981Y010588D01*
X013020Y010490D02*
X000694Y010490D01*
X000694Y010391D02*
X013094Y010391D01*
X013265Y010293D02*
X000694Y010293D01*
X000694Y009997D02*
X013204Y009997D01*
X013068Y009899D02*
X000694Y009899D01*
X000694Y009800D02*
X013009Y009800D01*
X012981Y009702D02*
X000694Y009702D01*
X000694Y009603D02*
X012981Y009603D01*
X013013Y009505D02*
X001666Y009505D01*
X001634Y009515D02*
X001562Y009527D01*
X001562Y009058D01*
X002031Y009058D01*
X002019Y009130D01*
X001994Y009208D01*
X001957Y009281D01*
X001909Y009347D01*
X001851Y009405D01*
X001785Y009453D01*
X001712Y009490D01*
X001634Y009515D01*
X001562Y009505D02*
X001462Y009505D01*
X001462Y009527D02*
X001390Y009515D01*
X001313Y009490D01*
X001240Y009453D01*
X001173Y009405D01*
X001116Y009347D01*
X001067Y009281D01*
X001030Y009208D01*
X001005Y009130D01*
X000994Y009058D01*
X001462Y009058D01*
X001462Y008958D01*
X001562Y008958D01*
X001562Y008490D01*
X001634Y008501D01*
X001712Y008526D01*
X001785Y008564D01*
X001851Y008612D01*
X001909Y008670D01*
X001957Y008736D01*
X001994Y008809D01*
X002019Y008886D01*
X002031Y008958D01*
X001562Y008958D01*
X001562Y009058D01*
X001462Y009058D01*
X001462Y009527D01*
X001358Y009505D02*
X000694Y009505D01*
X000694Y009406D02*
X001176Y009406D01*
X001087Y009308D02*
X000694Y009308D01*
X000694Y009209D02*
X001031Y009209D01*
X001002Y009111D02*
X000694Y009111D01*
X000694Y009012D02*
X001462Y009012D01*
X001462Y008958D02*
X000994Y008958D01*
X001005Y008886D01*
X001030Y008809D01*
X001067Y008736D01*
X001116Y008670D01*
X001173Y008612D01*
X001240Y008564D01*
X001313Y008526D01*
X001390Y008501D01*
X001462Y008490D01*
X001462Y008958D01*
X001462Y008914D02*
X001562Y008914D01*
X001562Y009012D02*
X002032Y009012D01*
X002024Y008914D02*
X002032Y008914D01*
X001996Y008815D02*
X002073Y008815D01*
X002125Y008717D02*
X001943Y008717D01*
X001858Y008618D02*
X002223Y008618D01*
X001692Y008520D02*
X013007Y008520D01*
X012981Y008618D02*
X002801Y008618D01*
X002900Y008717D02*
X012981Y008717D01*
X013015Y008815D02*
X002952Y008815D01*
X002992Y008914D02*
X013083Y008914D01*
X013240Y009012D02*
X002992Y009012D01*
X002232Y009406D02*
X001849Y009406D01*
X001937Y009308D02*
X002133Y009308D01*
X002076Y009209D02*
X001993Y009209D01*
X002022Y009111D02*
X002035Y009111D01*
X001562Y009111D02*
X001462Y009111D01*
X001462Y009209D02*
X001562Y009209D01*
X001562Y009308D02*
X001462Y009308D01*
X001462Y009406D02*
X001562Y009406D01*
X001562Y008815D02*
X001462Y008815D01*
X001462Y008717D02*
X001562Y008717D01*
X001562Y008618D02*
X001462Y008618D01*
X001462Y008520D02*
X001562Y008520D01*
X001332Y008520D02*
X000694Y008520D01*
X000694Y008618D02*
X001167Y008618D01*
X001081Y008717D02*
X000694Y008717D01*
X000694Y008815D02*
X001028Y008815D01*
X001001Y008914D02*
X000694Y008914D01*
X000694Y008421D02*
X013064Y008421D01*
X013192Y008323D02*
X000694Y008323D01*
X000694Y008027D02*
X013276Y008027D01*
X013098Y007929D02*
X000694Y007929D01*
X000694Y007830D02*
X013022Y007830D01*
X012981Y007732D02*
X000694Y007732D01*
X000694Y007633D02*
X012981Y007633D01*
X013001Y007535D02*
X000694Y007535D01*
X000694Y007436D02*
X013049Y007436D01*
X013156Y007338D02*
X000694Y007338D01*
X003151Y006747D02*
X012987Y006747D01*
X012981Y006648D02*
X003344Y006648D01*
X003453Y006550D02*
X012995Y006550D01*
X013036Y006451D02*
X003551Y006451D01*
X003650Y006353D02*
X013132Y006353D01*
X020391Y010884D02*
X020491Y010884D01*
X020491Y010982D02*
X020391Y010982D01*
X020391Y011081D02*
X020491Y011081D01*
X020491Y011179D02*
X020391Y011179D01*
X020391Y011278D02*
X020491Y011278D01*
X020491Y011376D02*
X020391Y011376D01*
X020391Y011475D02*
X020491Y011475D01*
X020491Y011573D02*
X020391Y011573D01*
X020640Y011179D02*
X022628Y011179D01*
X022626Y011081D02*
X020749Y011081D01*
X020851Y010982D02*
X022631Y010982D01*
X022734Y010884D02*
X020912Y010884D01*
X020948Y010785D02*
X022842Y010785D01*
X022788Y011052D02*
X022788Y016882D01*
X023969Y018063D01*
X024009Y017877D02*
X027033Y017877D01*
X027136Y017779D02*
X023911Y017779D01*
X023546Y019453D02*
X024970Y019453D01*
X025063Y019360D02*
X025220Y019360D01*
X025220Y019806D01*
X024774Y019806D01*
X024774Y019650D01*
X025063Y019360D01*
X025220Y019453D02*
X025317Y019453D01*
X025317Y019552D02*
X025220Y019552D01*
X025220Y019650D02*
X025317Y019650D01*
X025317Y019749D02*
X025220Y019749D01*
X025220Y019847D02*
X023557Y019847D01*
X023557Y019749D02*
X024774Y019749D01*
X024774Y019650D02*
X023557Y019650D01*
X023557Y019552D02*
X024872Y019552D01*
X025566Y019453D02*
X025738Y019453D01*
X025738Y019552D02*
X025665Y019552D01*
X025823Y019355D02*
X019837Y019355D01*
X019738Y019256D02*
X027886Y019256D01*
X027975Y019355D02*
X026682Y019355D01*
X026767Y019453D02*
X028139Y019453D01*
X028128Y019552D02*
X026767Y019552D01*
X026767Y019650D02*
X027971Y019650D01*
X027884Y019749D02*
X026767Y019749D01*
X026767Y019847D02*
X027843Y019847D01*
X027820Y019946D02*
X026861Y019946D01*
X026993Y020044D02*
X027820Y020044D01*
X027839Y020143D02*
X027125Y020143D01*
X027258Y020241D02*
X027880Y020241D01*
X027960Y020340D02*
X027390Y020340D01*
X027522Y020438D02*
X028103Y020438D01*
X028007Y020537D02*
X027655Y020537D01*
X027787Y020635D02*
X027901Y020635D01*
X028496Y020438D02*
X036733Y020438D01*
X036772Y020361D02*
X036566Y020765D01*
X036566Y020765D01*
X036495Y021213D01*
X036495Y021213D01*
X036566Y021661D01*
X036566Y021661D01*
X036772Y022065D01*
X036772Y022065D01*
X037093Y022386D01*
X037093Y022386D01*
X037497Y022592D01*
X037497Y022592D01*
X037945Y022663D01*
X037945Y022663D01*
X038393Y022592D01*
X038393Y022592D01*
X038798Y022386D01*
X038798Y022386D01*
X039118Y022065D01*
X039118Y022065D01*
X039324Y021661D01*
X039395Y021213D01*
X039395Y021213D01*
X039324Y020765D01*
X039118Y020361D01*
X038798Y020040D01*
X038798Y020040D01*
X038393Y019834D01*
X038393Y019834D01*
X037945Y019763D01*
X037945Y019763D01*
X037497Y019834D01*
X037497Y019834D01*
X037093Y020040D01*
X037093Y020040D01*
X036772Y020361D01*
X036772Y020361D01*
X036793Y020340D02*
X034964Y020340D01*
X034935Y020369D02*
X035035Y020270D01*
X035035Y019440D01*
X034935Y019340D01*
X034105Y019340D01*
X034006Y019440D01*
X034006Y019625D01*
X033741Y019360D01*
X033584Y019360D01*
X033584Y019806D01*
X033487Y019806D01*
X033041Y019806D01*
X033041Y019650D01*
X033331Y019360D01*
X033487Y019360D01*
X033487Y019806D01*
X033487Y019903D01*
X033041Y019903D01*
X033041Y020060D01*
X033331Y020349D01*
X033487Y020349D01*
X033487Y019903D01*
X033584Y019903D01*
X033584Y020349D01*
X033741Y020349D01*
X034006Y020084D01*
X034006Y020270D01*
X034105Y020369D01*
X034935Y020369D01*
X035035Y020241D02*
X036891Y020241D01*
X036990Y020143D02*
X035035Y020143D01*
X035035Y020044D02*
X037088Y020044D01*
X037277Y019946D02*
X035035Y019946D01*
X035035Y019847D02*
X037471Y019847D01*
X038420Y019847D02*
X039764Y019847D01*
X039764Y019749D02*
X035035Y019749D01*
X035035Y019650D02*
X039764Y019650D01*
X039764Y019552D02*
X035035Y019552D01*
X035035Y019453D02*
X039764Y019453D01*
X039764Y019355D02*
X034950Y019355D01*
X034090Y019355D02*
X031800Y019355D01*
X031885Y019453D02*
X033238Y019453D01*
X033139Y019552D02*
X031885Y019552D01*
X031885Y019650D02*
X033041Y019650D01*
X033041Y019749D02*
X031885Y019749D01*
X031885Y019847D02*
X033487Y019847D01*
X033487Y019749D02*
X033584Y019749D01*
X033584Y019650D02*
X033487Y019650D01*
X033487Y019552D02*
X033584Y019552D01*
X033584Y019453D02*
X033487Y019453D01*
X033834Y019453D02*
X034006Y019453D01*
X034006Y019552D02*
X033932Y019552D01*
X033584Y019946D02*
X033487Y019946D01*
X033487Y020044D02*
X033584Y020044D01*
X033584Y020143D02*
X033487Y020143D01*
X033487Y020241D02*
X033584Y020241D01*
X033584Y020340D02*
X033487Y020340D01*
X033322Y020340D02*
X031815Y020340D01*
X031885Y020241D02*
X033223Y020241D01*
X033125Y020143D02*
X031885Y020143D01*
X031885Y020044D02*
X033041Y020044D01*
X033041Y019946D02*
X031885Y019946D01*
X033750Y020340D02*
X034076Y020340D01*
X034006Y020241D02*
X033848Y020241D01*
X033947Y020143D02*
X034006Y020143D01*
X036556Y020833D02*
X028815Y020833D01*
X028840Y020931D02*
X036540Y020931D01*
X036524Y021030D02*
X028840Y021030D01*
X028831Y021128D02*
X036509Y021128D01*
X036497Y021227D02*
X028790Y021227D01*
X028739Y021325D02*
X036513Y021325D01*
X036529Y021424D02*
X028640Y021424D01*
X028773Y021522D02*
X036544Y021522D01*
X036560Y021621D02*
X028820Y021621D01*
X028820Y021719D02*
X036596Y021719D01*
X036646Y021818D02*
X028820Y021818D01*
X028820Y021916D02*
X036696Y021916D01*
X036746Y022015D02*
X028350Y022015D01*
X028350Y022113D02*
X028250Y022113D01*
X028250Y022050D02*
X028250Y022520D01*
X027910Y022520D01*
X027872Y022510D01*
X027838Y022490D01*
X027810Y022462D01*
X027790Y022428D01*
X027780Y022390D01*
X027780Y022050D01*
X028250Y022050D01*
X028250Y022015D02*
X024785Y022015D01*
X024701Y022113D02*
X027780Y022113D01*
X027780Y022212D02*
X024616Y022212D01*
X024532Y022310D02*
X027780Y022310D01*
X027785Y022409D02*
X024448Y022409D01*
X024363Y022507D02*
X027866Y022507D01*
X028250Y022507D02*
X028350Y022507D01*
X028350Y022409D02*
X028250Y022409D01*
X028250Y022310D02*
X028350Y022310D01*
X028350Y022212D02*
X028250Y022212D01*
X027780Y021916D02*
X024869Y021916D01*
X024954Y021818D02*
X027780Y021818D01*
X027780Y021719D02*
X025038Y021719D01*
X025122Y021621D02*
X027780Y021621D01*
X027826Y021522D02*
X025207Y021522D01*
X025291Y021424D02*
X027959Y021424D01*
X027861Y021325D02*
X025375Y021325D01*
X025460Y021227D02*
X027608Y021227D01*
X027477Y021128D02*
X025544Y021128D01*
X025628Y021030D02*
X027345Y021030D01*
X027213Y020931D02*
X025713Y020931D01*
X025797Y020833D02*
X027080Y020833D01*
X026948Y020734D02*
X025881Y020734D01*
X025966Y020635D02*
X026816Y020635D01*
X026683Y020537D02*
X026050Y020537D01*
X026134Y020438D02*
X026551Y020438D01*
X025371Y020438D02*
X022844Y020438D01*
X022943Y020340D02*
X025054Y020340D01*
X024956Y020241D02*
X023557Y020241D01*
X023557Y020143D02*
X024857Y020143D01*
X024774Y020044D02*
X023557Y020044D01*
X023557Y019946D02*
X024774Y019946D01*
X025220Y019946D02*
X025317Y019946D01*
X025317Y020044D02*
X025220Y020044D01*
X025220Y020143D02*
X025317Y020143D01*
X025317Y020241D02*
X025220Y020241D01*
X025220Y020340D02*
X025317Y020340D01*
X025286Y020537D02*
X022746Y020537D01*
X022647Y020635D02*
X025202Y020635D01*
X025118Y020734D02*
X022549Y020734D01*
X022450Y020833D02*
X025034Y020833D01*
X024949Y020931D02*
X022352Y020931D01*
X022253Y021030D02*
X024865Y021030D01*
X024781Y021128D02*
X022155Y021128D01*
X022056Y021227D02*
X024696Y021227D01*
X024612Y021325D02*
X020451Y021325D01*
X020294Y021325D02*
X020194Y021325D01*
X020194Y021424D02*
X020294Y021424D01*
X020294Y021522D02*
X020194Y021522D01*
X020194Y021621D02*
X020294Y021621D01*
X020294Y021719D02*
X020194Y021719D01*
X020194Y021818D02*
X019724Y021818D01*
X019724Y021899D02*
X019724Y021708D01*
X019651Y021532D01*
X019516Y021397D01*
X019340Y021324D01*
X019149Y021324D01*
X018973Y021397D01*
X018838Y021532D01*
X018764Y021708D01*
X018764Y021899D01*
X018838Y022075D01*
X018973Y022210D01*
X019149Y022284D01*
X019340Y022284D01*
X019516Y022210D01*
X019651Y022075D01*
X019724Y021899D01*
X019717Y021916D02*
X019736Y021916D01*
X019768Y022015D02*
X019677Y022015D01*
X019614Y022113D02*
X019827Y022113D01*
X019921Y022212D02*
X019514Y022212D01*
X018975Y022212D02*
X018221Y022212D01*
X018316Y022113D02*
X018875Y022113D01*
X018812Y022015D02*
X018374Y022015D01*
X018407Y021916D02*
X018772Y021916D01*
X018764Y021818D02*
X017948Y021818D01*
X017948Y021754D02*
X018417Y021754D01*
X018405Y021682D01*
X018380Y021604D01*
X018343Y021531D01*
X018295Y021465D01*
X018237Y021407D01*
X018171Y021359D01*
X018098Y021322D01*
X018020Y021296D01*
X017948Y021285D01*
X017948Y021754D01*
X017948Y021719D02*
X017848Y021719D01*
X017848Y021621D02*
X017948Y021621D01*
X017948Y021522D02*
X017848Y021522D01*
X017848Y021424D02*
X017948Y021424D01*
X017948Y021325D02*
X017848Y021325D01*
X017692Y021325D02*
X016997Y021325D01*
X016799Y021325D02*
X016702Y021325D01*
X017197Y021424D02*
X017543Y021424D01*
X017460Y021522D02*
X017295Y021522D01*
X017342Y021621D02*
X017411Y021621D01*
X017385Y021719D02*
X017378Y021719D01*
X017378Y021818D02*
X017848Y021818D01*
X017389Y021916D02*
X017371Y021916D01*
X017330Y022015D02*
X017422Y022015D01*
X017480Y022113D02*
X017267Y022113D01*
X017167Y022212D02*
X017575Y022212D01*
X018411Y021719D02*
X018764Y021719D01*
X018801Y021621D02*
X018385Y021621D01*
X018336Y021522D02*
X018847Y021522D01*
X018946Y021424D02*
X018253Y021424D01*
X018104Y021325D02*
X019145Y021325D01*
X019343Y021325D02*
X020038Y021325D01*
X019889Y021424D02*
X019543Y021424D01*
X019642Y021522D02*
X019806Y021522D01*
X019757Y021621D02*
X019688Y021621D01*
X019724Y021719D02*
X019731Y021719D01*
X020294Y021818D02*
X024190Y021818D01*
X024106Y021916D02*
X020753Y021916D01*
X020721Y022015D02*
X024022Y022015D01*
X023937Y022113D02*
X020662Y022113D01*
X020568Y022212D02*
X023853Y022212D01*
X024279Y022606D02*
X037582Y022606D01*
X037330Y022507D02*
X028733Y022507D01*
X028815Y022409D02*
X037137Y022409D01*
X037017Y022310D02*
X028820Y022310D01*
X028820Y022212D02*
X036918Y022212D01*
X036820Y022113D02*
X028820Y022113D01*
X028774Y020734D02*
X036582Y020734D01*
X036632Y020635D02*
X028698Y020635D01*
X028592Y020537D02*
X036682Y020537D01*
X038613Y019946D02*
X039764Y019946D01*
X039764Y020044D02*
X038802Y020044D01*
X038901Y020143D02*
X039764Y020143D01*
X039764Y020241D02*
X038999Y020241D01*
X039098Y020340D02*
X039764Y020340D01*
X039764Y020438D02*
X039158Y020438D01*
X039208Y020537D02*
X039764Y020537D01*
X039764Y020635D02*
X039258Y020635D01*
X039309Y020734D02*
X039764Y020734D01*
X039764Y020833D02*
X039335Y020833D01*
X039351Y020931D02*
X039764Y020931D01*
X039764Y021030D02*
X039366Y021030D01*
X039382Y021128D02*
X039764Y021128D01*
X039764Y021227D02*
X039393Y021227D01*
X039378Y021325D02*
X039764Y021325D01*
X039764Y021424D02*
X039362Y021424D01*
X039346Y021522D02*
X039764Y021522D01*
X039764Y021621D02*
X039331Y021621D01*
X039324Y021661D02*
X039324Y021661D01*
X039295Y021719D02*
X039764Y021719D01*
X039764Y021818D02*
X039245Y021818D01*
X039194Y021916D02*
X039764Y021916D01*
X039764Y022015D02*
X039144Y022015D01*
X039071Y022113D02*
X039764Y022113D01*
X039764Y022212D02*
X038972Y022212D01*
X038874Y022310D02*
X039764Y022310D01*
X039764Y022409D02*
X038754Y022409D01*
X038560Y022507D02*
X039764Y022507D01*
X039764Y022606D02*
X038308Y022606D01*
X039764Y022704D02*
X024195Y022704D01*
X024110Y022803D02*
X039764Y022803D01*
X039764Y022901D02*
X000694Y022901D01*
X000694Y022803D02*
X005852Y022803D01*
X005778Y022704D02*
X000694Y022704D01*
X000694Y022606D02*
X002149Y022606D01*
X002064Y022592D02*
X002064Y022592D01*
X001660Y022386D01*
X001660Y022386D01*
X001339Y022065D01*
X001133Y021661D01*
X001062Y021213D01*
X001133Y020765D01*
X001339Y020361D01*
X001339Y020361D01*
X001660Y020040D01*
X002064Y019834D01*
X002064Y019834D01*
X002512Y019763D01*
X002512Y019763D01*
X002960Y019834D01*
X002960Y019834D01*
X003364Y020040D01*
X003364Y020040D01*
X003685Y020361D01*
X003891Y020765D01*
X003962Y021213D01*
X003891Y021661D01*
X003685Y022065D01*
X003364Y022386D01*
X002960Y022592D01*
X002512Y022663D01*
X002064Y022592D01*
X001897Y022507D02*
X000694Y022507D01*
X000694Y022409D02*
X001704Y022409D01*
X001584Y022310D02*
X000694Y022310D01*
X000694Y022212D02*
X001485Y022212D01*
X001387Y022113D02*
X000694Y022113D01*
X000694Y022015D02*
X001313Y022015D01*
X001339Y022065D02*
X001339Y022065D01*
X001263Y021916D02*
X000694Y021916D01*
X000694Y021818D02*
X001213Y021818D01*
X001163Y021719D02*
X000694Y021719D01*
X000694Y021621D02*
X001127Y021621D01*
X001133Y021661D02*
X001133Y021661D01*
X001111Y021522D02*
X000694Y021522D01*
X000694Y021424D02*
X001096Y021424D01*
X001080Y021325D02*
X000694Y021325D01*
X000694Y021227D02*
X001064Y021227D01*
X001062Y021213D02*
X001062Y021213D01*
X001076Y021128D02*
X000694Y021128D01*
X000694Y021030D02*
X001091Y021030D01*
X001107Y020931D02*
X000694Y020931D01*
X000694Y020833D02*
X001122Y020833D01*
X001133Y020765D02*
X001133Y020765D01*
X001149Y020734D02*
X000694Y020734D01*
X000694Y020635D02*
X001199Y020635D01*
X001249Y020537D02*
X000694Y020537D01*
X000694Y020438D02*
X001299Y020438D01*
X001360Y020340D02*
X000694Y020340D01*
X000694Y020241D02*
X001458Y020241D01*
X001557Y020143D02*
X000694Y020143D01*
X000694Y020044D02*
X001655Y020044D01*
X001660Y020040D02*
X001660Y020040D01*
X001844Y019946D02*
X000694Y019946D01*
X000694Y019847D02*
X002038Y019847D01*
X002987Y019847D02*
X004548Y019847D01*
X004463Y019749D02*
X000694Y019749D01*
X000694Y019650D02*
X004393Y019650D01*
X004398Y019552D02*
X000694Y019552D01*
X000694Y019453D02*
X004398Y019453D01*
X004398Y019355D02*
X000694Y019355D01*
X000694Y019256D02*
X004398Y019256D01*
X004398Y019158D02*
X000694Y019158D01*
X000694Y019059D02*
X004398Y019059D01*
X004398Y018961D02*
X000694Y018961D01*
X000694Y018862D02*
X004398Y018862D01*
X004398Y018764D02*
X000694Y018764D01*
X000694Y018665D02*
X004398Y018665D01*
X004362Y018567D02*
X000694Y018567D01*
X000694Y018468D02*
X004340Y018468D01*
X004353Y018370D02*
X000694Y018370D01*
X000694Y018271D02*
X004398Y018271D01*
X004398Y018173D02*
X000694Y018173D01*
X000694Y018074D02*
X004398Y018074D01*
X004398Y017976D02*
X000694Y017976D01*
X000694Y017877D02*
X004398Y017877D01*
X004398Y017779D02*
X001647Y017779D01*
X001634Y017783D02*
X001562Y017795D01*
X001562Y017326D01*
X001462Y017326D01*
X001462Y017226D01*
X000994Y017226D01*
X001005Y017154D01*
X001030Y017076D01*
X001067Y017003D01*
X001116Y016937D01*
X001173Y016879D01*
X001240Y016831D01*
X001313Y016794D01*
X000694Y016794D01*
X000694Y016892D02*
X001160Y016892D01*
X001077Y016991D02*
X000694Y016991D01*
X000694Y017089D02*
X001026Y017089D01*
X001000Y017188D02*
X000694Y017188D01*
X000694Y017286D02*
X001462Y017286D01*
X001462Y017326D02*
X000994Y017326D01*
X001005Y017398D01*
X001030Y017476D01*
X001067Y017549D01*
X001116Y017615D01*
X001173Y017673D01*
X001240Y017721D01*
X001313Y017758D01*
X001390Y017783D01*
X001462Y017795D01*
X001462Y017326D01*
X001462Y017385D02*
X001562Y017385D01*
X001562Y017326D02*
X002031Y017326D01*
X002019Y017398D01*
X001994Y017476D01*
X001957Y017549D01*
X001909Y017615D01*
X001851Y017673D01*
X001785Y017721D01*
X001712Y017758D01*
X001634Y017783D01*
X001562Y017779D02*
X001462Y017779D01*
X001378Y017779D02*
X000694Y017779D01*
X000694Y017680D02*
X001184Y017680D01*
X001092Y017582D02*
X000694Y017582D01*
X000694Y017483D02*
X001034Y017483D01*
X001003Y017385D02*
X000694Y017385D01*
X001462Y017483D02*
X001562Y017483D01*
X001562Y017582D02*
X001462Y017582D01*
X001462Y017680D02*
X001562Y017680D01*
X001840Y017680D02*
X002238Y017680D01*
X002240Y017683D02*
X002105Y017548D01*
X002032Y017371D01*
X002032Y017181D01*
X002105Y017004D01*
X002240Y016869D01*
X002417Y016796D01*
X002608Y016796D01*
X002784Y016869D01*
X002919Y017004D01*
X002992Y017181D01*
X002992Y017371D01*
X002919Y017548D01*
X002784Y017683D01*
X002608Y017756D01*
X002417Y017756D01*
X002240Y017683D01*
X002139Y017582D02*
X001933Y017582D01*
X001990Y017483D02*
X002079Y017483D01*
X002038Y017385D02*
X002021Y017385D01*
X002032Y017286D02*
X001562Y017286D01*
X001562Y017326D02*
X001562Y017226D01*
X001562Y016757D01*
X001634Y016769D01*
X001712Y016794D01*
X001785Y016831D01*
X001851Y016879D01*
X001909Y016937D01*
X001957Y017003D01*
X001994Y017076D01*
X002019Y017154D01*
X002031Y017226D01*
X001562Y017226D01*
X001462Y017226D01*
X001462Y016757D01*
X001390Y016769D01*
X001313Y016794D01*
X001462Y016794D02*
X001562Y016794D01*
X001562Y016892D02*
X001462Y016892D01*
X001462Y016991D02*
X001562Y016991D01*
X001562Y017089D02*
X001462Y017089D01*
X001462Y017188D02*
X001562Y017188D01*
X001864Y016892D02*
X002217Y016892D01*
X002118Y016991D02*
X001948Y016991D01*
X001998Y017089D02*
X002070Y017089D01*
X002032Y017188D02*
X002025Y017188D01*
X001712Y016794D02*
X005228Y016794D01*
X005326Y016695D02*
X000694Y016695D01*
X000694Y016597D02*
X005425Y016597D01*
X005523Y016498D02*
X000694Y016498D01*
X000694Y016400D02*
X005622Y016400D01*
X005720Y016301D02*
X000694Y016301D01*
X000694Y016203D02*
X006189Y016203D01*
X006316Y016203D02*
X009092Y016203D01*
X009020Y016301D02*
X006473Y016301D01*
X006528Y016400D02*
X008979Y016400D01*
X008976Y016498D02*
X006540Y016498D01*
X006519Y016597D02*
X008987Y016597D01*
X009028Y016695D02*
X006453Y016695D01*
X005879Y016794D02*
X009112Y016794D01*
X009290Y016892D02*
X005780Y016892D01*
X005682Y016991D02*
X012588Y016991D01*
X012588Y017089D02*
X005583Y017089D01*
X005485Y017188D02*
X012588Y017188D01*
X012588Y017286D02*
X011624Y017286D01*
X011622Y017285D02*
X011679Y017326D01*
X011729Y017377D01*
X011771Y017434D01*
X011803Y017497D01*
X011825Y017564D01*
X011834Y017620D01*
X011436Y017620D01*
X011436Y017720D01*
X011336Y017720D01*
X011336Y018117D01*
X011281Y018109D01*
X011213Y018087D01*
X011150Y018055D01*
X011093Y018013D01*
X011043Y017963D01*
X011001Y017906D01*
X010969Y017842D01*
X010947Y017775D01*
X010939Y017720D01*
X011336Y017720D01*
X011336Y017620D01*
X010939Y017620D01*
X010947Y017564D01*
X010969Y017497D01*
X011001Y017434D01*
X011043Y017377D01*
X011093Y017326D01*
X011150Y017285D01*
X011213Y017253D01*
X011281Y017231D01*
X011336Y017222D01*
X011336Y017620D01*
X011436Y017620D01*
X011436Y017222D01*
X011492Y017231D01*
X011559Y017253D01*
X011622Y017285D01*
X011736Y017385D02*
X012588Y017385D01*
X012588Y017483D02*
X011796Y017483D01*
X011828Y017582D02*
X012588Y017582D01*
X012588Y017680D02*
X011436Y017680D01*
X011436Y017720D02*
X011834Y017720D01*
X011825Y017775D01*
X011803Y017842D01*
X011771Y017906D01*
X011729Y017963D01*
X011679Y018013D01*
X011622Y018055D01*
X011559Y018087D01*
X011492Y018109D01*
X011436Y018117D01*
X011436Y017720D01*
X011436Y017779D02*
X011336Y017779D01*
X011336Y017877D02*
X011436Y017877D01*
X011436Y017976D02*
X011336Y017976D01*
X011336Y018074D02*
X011436Y018074D01*
X011583Y018074D02*
X012588Y018074D01*
X012588Y017976D02*
X011716Y017976D01*
X011785Y017877D02*
X012588Y017877D01*
X012588Y017779D02*
X011824Y017779D01*
X011436Y017582D02*
X011336Y017582D01*
X011336Y017680D02*
X010796Y017680D01*
X010796Y017751D02*
X010734Y017902D01*
X010618Y018017D01*
X010468Y018080D01*
X010305Y018080D01*
X010154Y018017D01*
X010039Y017902D01*
X009976Y017751D01*
X009976Y017588D01*
X010039Y017437D01*
X010154Y017322D01*
X010305Y017260D01*
X010468Y017260D01*
X010618Y017322D01*
X010734Y017437D01*
X010796Y017588D01*
X010796Y017751D01*
X010785Y017779D02*
X010949Y017779D01*
X010987Y017877D02*
X010744Y017877D01*
X010660Y017976D02*
X011056Y017976D01*
X011189Y018074D02*
X010480Y018074D01*
X010292Y018074D02*
X009616Y018074D01*
X009616Y018173D02*
X012588Y018173D01*
X012588Y018271D02*
X009616Y018271D01*
X009616Y018370D02*
X012588Y018370D01*
X012588Y018468D02*
X009616Y018468D01*
X009616Y018567D02*
X012588Y018567D01*
X012588Y018665D02*
X009616Y018665D01*
X009616Y018764D02*
X012588Y018764D01*
X012588Y018862D02*
X009616Y018862D01*
X009616Y018961D02*
X012588Y018961D01*
X012588Y019059D02*
X009616Y019059D01*
X009616Y019158D02*
X012588Y019158D01*
X012588Y019256D02*
X009616Y019256D01*
X009616Y019355D02*
X012588Y019355D01*
X012588Y019453D02*
X009616Y019453D01*
X009616Y019552D02*
X012633Y019552D01*
X012731Y019650D02*
X009616Y019650D01*
X009616Y019749D02*
X012830Y019749D01*
X012928Y019847D02*
X009616Y019847D01*
X009616Y019946D02*
X013027Y019946D01*
X013051Y020044D02*
X009616Y020044D01*
X009616Y020143D02*
X013073Y020143D01*
X013141Y020241D02*
X009616Y020241D01*
X009616Y020340D02*
X021904Y020340D01*
X021806Y020241D02*
X013537Y020241D01*
X013453Y021325D02*
X013355Y021325D01*
X013651Y021325D02*
X014345Y021325D01*
X014352Y021322D02*
X014430Y021296D01*
X014502Y021285D01*
X014502Y021754D01*
X014033Y021754D01*
X014044Y021682D01*
X014070Y021604D01*
X014107Y021531D01*
X014155Y021465D01*
X014213Y021407D01*
X014279Y021359D01*
X014352Y021322D01*
X014502Y021325D02*
X014602Y021325D01*
X014602Y021285D02*
X014673Y021296D01*
X014751Y021322D01*
X014824Y021359D01*
X014890Y021407D01*
X014948Y021465D01*
X014996Y021531D01*
X015033Y021604D01*
X015059Y021682D01*
X015070Y021754D01*
X014602Y021754D01*
X014602Y021285D01*
X014602Y021424D02*
X014502Y021424D01*
X014502Y021522D02*
X014602Y021522D01*
X014602Y021621D02*
X014502Y021621D01*
X014502Y021719D02*
X014602Y021719D01*
X014602Y021818D02*
X015418Y021818D01*
X015425Y021916D02*
X015060Y021916D01*
X015028Y022015D02*
X015466Y022015D01*
X015529Y022113D02*
X014969Y022113D01*
X014875Y022212D02*
X015629Y022212D01*
X016167Y022212D02*
X016629Y022212D01*
X016529Y022113D02*
X016267Y022113D01*
X016330Y022015D02*
X016466Y022015D01*
X016425Y021916D02*
X016371Y021916D01*
X016378Y021818D02*
X016418Y021818D01*
X016418Y021719D02*
X016378Y021719D01*
X016406Y021621D02*
X016454Y021621D01*
X016051Y021325D02*
X015997Y021325D01*
X015799Y021325D02*
X014758Y021325D01*
X014907Y021424D02*
X015599Y021424D01*
X015501Y021522D02*
X014990Y021522D01*
X015039Y021621D02*
X015454Y021621D01*
X015418Y021719D02*
X015065Y021719D01*
X014502Y021818D02*
X014032Y021818D01*
X014025Y021916D02*
X014043Y021916D01*
X014075Y022015D02*
X013984Y022015D01*
X013921Y022113D02*
X014134Y022113D01*
X014228Y022212D02*
X013821Y022212D01*
X013282Y022212D02*
X012821Y022212D01*
X012921Y022113D02*
X013182Y022113D01*
X013119Y022015D02*
X012984Y022015D01*
X013025Y021916D02*
X013079Y021916D01*
X013072Y021818D02*
X013032Y021818D01*
X013032Y021719D02*
X013072Y021719D01*
X013060Y021621D02*
X013108Y021621D01*
X012705Y021325D02*
X012651Y021325D01*
X012453Y021325D02*
X011288Y021325D01*
X011090Y021325D02*
X010993Y021325D01*
X011488Y021424D02*
X012253Y021424D01*
X012154Y021522D02*
X011587Y021522D01*
X011633Y021621D02*
X012108Y021621D01*
X012072Y021719D02*
X011669Y021719D01*
X011669Y021818D02*
X012072Y021818D01*
X012079Y021916D02*
X011662Y021916D01*
X011622Y022015D02*
X012119Y022015D01*
X012182Y022113D02*
X011559Y022113D01*
X011459Y022212D02*
X012282Y022212D01*
X010920Y022212D02*
X010459Y022212D01*
X010559Y022113D02*
X010820Y022113D01*
X010757Y022015D02*
X010622Y022015D01*
X010662Y021916D02*
X010716Y021916D01*
X010709Y021818D02*
X010669Y021818D01*
X010669Y021719D02*
X010709Y021719D01*
X010698Y021621D02*
X010746Y021621D01*
X010343Y021325D02*
X010288Y021325D01*
X010090Y021325D02*
X008926Y021325D01*
X008728Y021325D02*
X008631Y021325D01*
X009126Y021424D02*
X009891Y021424D01*
X009792Y021522D02*
X009224Y021522D01*
X009271Y021621D02*
X009746Y021621D01*
X009709Y021719D02*
X009307Y021719D01*
X009307Y021818D02*
X009709Y021818D01*
X009716Y021916D02*
X009300Y021916D01*
X009259Y022015D02*
X009757Y022015D01*
X009820Y022113D02*
X009197Y022113D01*
X009097Y022212D02*
X009920Y022212D01*
X008558Y022212D02*
X008097Y022212D01*
X008197Y022113D02*
X008458Y022113D01*
X008395Y022015D02*
X008259Y022015D01*
X008300Y021916D02*
X008354Y021916D01*
X008347Y021818D02*
X008307Y021818D01*
X008307Y021719D02*
X008347Y021719D01*
X008335Y021621D02*
X008383Y021621D01*
X007980Y021325D02*
X007926Y021325D01*
X007728Y021325D02*
X006671Y021325D01*
X006665Y021322D02*
X006738Y021359D01*
X006804Y021407D01*
X006862Y021465D01*
X006910Y021531D01*
X006947Y021604D01*
X006972Y021682D01*
X006984Y021754D01*
X006515Y021754D01*
X006515Y021285D01*
X006587Y021296D01*
X006665Y021322D01*
X006515Y021325D02*
X006415Y021325D01*
X006415Y021424D02*
X006515Y021424D01*
X006515Y021522D02*
X006415Y021522D01*
X006415Y021621D02*
X006515Y021621D01*
X006515Y021719D02*
X006415Y021719D01*
X006515Y021818D02*
X007347Y021818D01*
X007354Y021916D02*
X006974Y021916D01*
X006941Y022015D02*
X007395Y022015D01*
X007458Y022113D02*
X006883Y022113D01*
X006788Y022212D02*
X007558Y022212D01*
X007347Y021719D02*
X006978Y021719D01*
X006952Y021621D02*
X007383Y021621D01*
X007430Y021522D02*
X006903Y021522D01*
X006820Y021424D02*
X007528Y021424D01*
X006259Y021325D02*
X005721Y021325D01*
X005736Y021227D02*
X003960Y021227D01*
X003944Y021325D02*
X005209Y021325D01*
X005081Y021424D02*
X003929Y021424D01*
X003913Y021522D02*
X004997Y021522D01*
X004956Y021621D02*
X003898Y021621D01*
X003891Y021661D02*
X003891Y021661D01*
X003862Y021719D02*
X004925Y021719D01*
X004925Y021818D02*
X003812Y021818D01*
X003761Y021916D02*
X004927Y021916D01*
X004968Y022015D02*
X003711Y022015D01*
X003685Y022065D02*
X003685Y022065D01*
X003638Y022113D02*
X005011Y022113D01*
X005109Y022212D02*
X003539Y022212D01*
X003441Y022310D02*
X005277Y022310D01*
X005556Y022409D02*
X003320Y022409D01*
X003127Y022507D02*
X005630Y022507D01*
X005704Y022606D02*
X002875Y022606D01*
X002512Y022663D02*
X002512Y022663D01*
X000694Y023000D02*
X039764Y023000D01*
X030465Y015914D02*
X029874Y015323D01*
X032478Y013937D02*
X032538Y013937D01*
X032538Y013740D02*
X032478Y013740D01*
X032478Y013642D02*
X032538Y013642D01*
X032538Y013543D02*
X032478Y013543D01*
X032478Y013445D02*
X032538Y013445D01*
X032538Y013248D02*
X032478Y013248D01*
X032478Y013149D02*
X032538Y013149D01*
X032538Y013051D02*
X032478Y013051D01*
X032478Y012952D02*
X032538Y012952D01*
X032538Y012854D02*
X035478Y012854D01*
X035538Y012854D02*
X036474Y012854D01*
X036474Y012952D02*
X036162Y012952D01*
X036120Y013051D02*
X036474Y013051D01*
X036474Y013149D02*
X036038Y013149D01*
X035538Y013149D02*
X035478Y013149D01*
X035478Y013051D02*
X035538Y013051D01*
X035538Y012952D02*
X035478Y012952D01*
X035478Y012755D02*
X035538Y012755D01*
X035538Y012657D02*
X035478Y012657D01*
X035478Y012558D02*
X035538Y012558D01*
X035538Y012460D02*
X035478Y012460D01*
X035868Y012263D02*
X036474Y012263D01*
X036474Y012361D02*
X031542Y012361D01*
X031542Y012263D02*
X032148Y012263D01*
X032089Y012460D02*
X031542Y012460D01*
X031542Y012558D02*
X031949Y012558D01*
X031881Y012657D02*
X031542Y012657D01*
X031542Y012755D02*
X031846Y012755D01*
X031854Y012952D02*
X031542Y012952D01*
X031542Y012854D02*
X032478Y012854D01*
X032478Y012755D02*
X032538Y012755D01*
X032538Y012657D02*
X032478Y012657D01*
X032478Y012558D02*
X032538Y012558D01*
X032538Y012460D02*
X032478Y012460D01*
X031966Y012164D02*
X031542Y012164D01*
X031542Y012066D02*
X031877Y012066D01*
X031836Y011967D02*
X031542Y011967D01*
X031542Y011869D02*
X031818Y011869D01*
X031818Y011770D02*
X031542Y011770D01*
X031542Y011672D02*
X031852Y011672D01*
X031906Y011573D02*
X031542Y011573D01*
X031542Y011475D02*
X032004Y011475D01*
X031896Y013051D02*
X031542Y013051D01*
X031542Y013149D02*
X031979Y013149D01*
X032905Y014430D02*
X035112Y014430D01*
X034951Y014528D02*
X033066Y014528D01*
X033146Y014627D02*
X034871Y014627D01*
X034830Y014725D02*
X033187Y014725D01*
X033198Y014824D02*
X034818Y014824D01*
X034818Y014922D02*
X033198Y014922D01*
X033158Y015021D02*
X034858Y015021D01*
X034921Y015119D02*
X033096Y015119D01*
X032977Y015218D02*
X035040Y015218D01*
X035478Y014233D02*
X035538Y014233D01*
X035538Y014134D02*
X035478Y014134D01*
X035478Y014036D02*
X035538Y014036D01*
X035538Y013937D02*
X035478Y013937D01*
X035478Y013740D02*
X035538Y013740D01*
X035538Y013642D02*
X035478Y013642D01*
X035478Y013543D02*
X035538Y013543D01*
X035538Y013445D02*
X035478Y013445D01*
X035478Y013248D02*
X035538Y013248D01*
X036170Y012755D02*
X036474Y012755D01*
X036474Y012657D02*
X036136Y012657D01*
X036068Y012558D02*
X036474Y012558D01*
X036474Y012460D02*
X035928Y012460D01*
X036051Y012164D02*
X036474Y012164D01*
X036474Y012066D02*
X036140Y012066D01*
X036180Y011967D02*
X036474Y011967D01*
X036474Y011869D02*
X036198Y011869D01*
X036198Y011770D02*
X036474Y011770D01*
X036474Y011672D02*
X036165Y011672D01*
X036111Y011573D02*
X036474Y011573D01*
X036474Y011475D02*
X036012Y011475D01*
X036474Y011376D02*
X034818Y011376D01*
X034917Y011475D02*
X035004Y011475D01*
X033310Y009505D02*
X033042Y009505D01*
X037945Y006915D02*
X037945Y006915D01*
X027315Y007264D02*
X026044Y005993D01*
X025634Y005959D02*
X025454Y005959D01*
X025454Y006057D02*
X025634Y006057D01*
X025634Y006156D02*
X025454Y006156D01*
X025362Y006254D02*
X025726Y006254D01*
X025824Y006353D02*
X025263Y006353D01*
X025994Y006550D02*
X026094Y006550D01*
X026094Y006648D02*
X025994Y006648D01*
X025994Y006747D02*
X026094Y006747D01*
X026094Y006845D02*
X025994Y006845D01*
X025994Y007141D02*
X026094Y007141D01*
X026094Y007239D02*
X025994Y007239D01*
X025994Y007338D02*
X026094Y007338D01*
X026094Y007436D02*
X025994Y007436D01*
X026264Y007633D02*
X027155Y007633D01*
X027155Y007732D02*
X026363Y007732D01*
X026454Y007830D02*
X027155Y007830D01*
X027155Y007929D02*
X026454Y007929D01*
X026454Y008027D02*
X027155Y008027D01*
X027155Y008126D02*
X026454Y008126D01*
X026392Y008224D02*
X027155Y008224D01*
X027155Y008717D02*
X026348Y008717D01*
X026446Y008815D02*
X027155Y008815D01*
X027155Y008914D02*
X026454Y008914D01*
X026454Y009012D02*
X027155Y009012D01*
X027155Y009111D02*
X026454Y009111D01*
X026407Y009209D02*
X027155Y009209D01*
X025044Y008993D02*
X022788Y011052D01*
X022628Y011278D02*
X020793Y011278D01*
X020877Y011376D02*
X022628Y011376D01*
X022628Y011475D02*
X020927Y011475D01*
X020954Y011573D02*
X022628Y011573D01*
X025288Y012657D02*
X025799Y012657D01*
X025701Y012755D02*
X025386Y012755D01*
X025454Y012854D02*
X025634Y012854D01*
X025634Y012952D02*
X025454Y012952D01*
X025454Y013051D02*
X025634Y013051D01*
X025634Y013149D02*
X025454Y013149D01*
X025368Y013248D02*
X025719Y013248D01*
X025818Y013346D02*
X025270Y013346D01*
X025273Y013642D02*
X025758Y013642D01*
X025659Y013740D02*
X025371Y013740D01*
X025454Y013839D02*
X025594Y013839D01*
X025594Y013937D02*
X025454Y013937D01*
X022628Y013937D02*
X017114Y013937D01*
X017196Y013839D02*
X022628Y013839D01*
X022628Y013740D02*
X017237Y013740D01*
X017241Y013642D02*
X022628Y013642D01*
X022628Y013543D02*
X017224Y013543D01*
X017181Y013445D02*
X022628Y013445D01*
X022628Y013346D02*
X017082Y013346D01*
X016139Y013346D02*
X014082Y013346D01*
X014181Y013445D02*
X016040Y013445D01*
X015565Y013543D02*
X014224Y013543D01*
X014241Y013642D02*
X015467Y013642D01*
X015368Y013740D02*
X014237Y013740D01*
X014196Y013839D02*
X015270Y013839D01*
X015171Y013937D02*
X014114Y013937D01*
X015625Y014134D02*
X022628Y014134D01*
X022628Y014036D02*
X015723Y014036D01*
X016581Y014331D02*
X016641Y014331D01*
X016641Y014430D02*
X016581Y014430D01*
X016581Y014528D02*
X016641Y014528D01*
X016641Y014627D02*
X016581Y014627D01*
X016581Y014725D02*
X016641Y014725D01*
X016641Y014824D02*
X016581Y014824D01*
X016581Y014922D02*
X016641Y014922D01*
X016641Y015021D02*
X016581Y015021D01*
X016277Y015288D02*
X016141Y015344D01*
X016037Y015448D01*
X015981Y015584D01*
X015981Y015731D01*
X016037Y015867D01*
X016141Y015972D01*
X016277Y016028D01*
X016944Y016028D01*
X017080Y015972D01*
X017184Y015867D01*
X017241Y015731D01*
X017241Y015584D01*
X017184Y015448D01*
X017080Y015344D01*
X016944Y015288D01*
X016277Y015288D01*
X016208Y015316D02*
X015344Y015316D01*
X015341Y015218D02*
X019281Y015218D01*
X019281Y015316D02*
X017013Y015316D01*
X017151Y015415D02*
X019281Y015415D01*
X019281Y015513D02*
X017211Y015513D01*
X017241Y015612D02*
X019281Y015612D01*
X019281Y015710D02*
X017241Y015710D01*
X017209Y015809D02*
X019281Y015809D01*
X019281Y015907D02*
X017144Y015907D01*
X016997Y016006D02*
X019281Y016006D01*
X019281Y016104D02*
X012908Y016104D01*
X012908Y016006D02*
X013224Y016006D01*
X013077Y015907D02*
X012908Y015907D01*
X012908Y015809D02*
X013013Y015809D01*
X012981Y015710D02*
X012908Y015710D01*
X012908Y015612D02*
X012981Y015612D01*
X013010Y015513D02*
X012908Y015513D01*
X012908Y015415D02*
X013070Y015415D01*
X013208Y015316D02*
X012908Y015316D01*
X012908Y015218D02*
X014824Y015218D01*
X014670Y015316D02*
X014013Y015316D01*
X014151Y015415D02*
X014516Y015415D01*
X014754Y015809D02*
X016013Y015809D01*
X015981Y015710D02*
X014908Y015710D01*
X015062Y015612D02*
X015981Y015612D01*
X016010Y015513D02*
X015230Y015513D01*
X015328Y015415D02*
X016070Y015415D01*
X016077Y015907D02*
X014144Y015907D01*
X013997Y016006D02*
X016224Y016006D01*
X016277Y016288D02*
X016141Y016344D01*
X016037Y016448D01*
X015981Y016584D01*
X015981Y016731D01*
X016037Y016867D01*
X016141Y016972D01*
X016277Y017028D01*
X016944Y017028D01*
X017080Y016972D01*
X017184Y016867D01*
X017241Y016731D01*
X017241Y016584D01*
X017184Y016448D01*
X017080Y016344D01*
X016944Y016288D01*
X016277Y016288D01*
X016244Y016301D02*
X013977Y016301D01*
X013944Y016288D02*
X014080Y016344D01*
X014184Y016448D01*
X014241Y016584D01*
X014241Y016731D01*
X014184Y016867D01*
X014080Y016972D01*
X013944Y017028D01*
X013277Y017028D01*
X013141Y016972D01*
X013037Y016867D01*
X012981Y016731D01*
X012981Y016584D01*
X013037Y016448D01*
X013141Y016344D01*
X013277Y016288D01*
X013944Y016288D01*
X014136Y016400D02*
X016085Y016400D01*
X016016Y016498D02*
X014205Y016498D01*
X014241Y016597D02*
X015981Y016597D01*
X015981Y016695D02*
X014241Y016695D01*
X014215Y016794D02*
X016007Y016794D01*
X016062Y016892D02*
X014159Y016892D01*
X014033Y016991D02*
X016188Y016991D01*
X016277Y017288D02*
X016141Y017344D01*
X016037Y017448D01*
X015981Y017584D01*
X015981Y017731D01*
X016037Y017867D01*
X016141Y017972D01*
X016277Y018028D01*
X016944Y018028D01*
X017080Y017972D01*
X017184Y017867D01*
X017241Y017731D01*
X017241Y017584D01*
X017184Y017448D01*
X017080Y017344D01*
X016944Y017288D01*
X016277Y017288D01*
X016100Y017385D02*
X014121Y017385D01*
X014080Y017344D02*
X014184Y017448D01*
X014241Y017584D01*
X014241Y017731D01*
X014184Y017867D01*
X014080Y017972D01*
X013944Y018028D01*
X013277Y018028D01*
X013141Y017972D01*
X013037Y017867D01*
X012981Y017731D01*
X012981Y017584D01*
X013037Y017448D01*
X013141Y017344D01*
X013277Y017288D01*
X013944Y017288D01*
X014080Y017344D01*
X014199Y017483D02*
X016022Y017483D01*
X015982Y017582D02*
X014240Y017582D01*
X014241Y017680D02*
X015981Y017680D01*
X016000Y017779D02*
X014221Y017779D01*
X014174Y017877D02*
X016047Y017877D01*
X016152Y017976D02*
X014069Y017976D01*
X013944Y018288D02*
X013277Y018288D01*
X013141Y018344D01*
X013037Y018448D01*
X012981Y018584D01*
X012981Y018731D01*
X013037Y018867D01*
X013141Y018972D01*
X013277Y019028D01*
X013944Y019028D01*
X014080Y018972D01*
X014184Y018867D01*
X014241Y018731D01*
X014241Y018584D01*
X014184Y018448D01*
X014080Y018344D01*
X013944Y018288D01*
X014106Y018370D02*
X016115Y018370D01*
X016141Y018344D02*
X016277Y018288D01*
X016944Y018288D01*
X017080Y018344D01*
X017184Y018448D01*
X017241Y018584D01*
X017241Y018731D01*
X017184Y018867D01*
X017080Y018972D01*
X016944Y019028D01*
X016277Y019028D01*
X016141Y018972D01*
X016037Y018867D01*
X015981Y018731D01*
X015981Y018584D01*
X016037Y018448D01*
X016141Y018344D01*
X016029Y018468D02*
X014193Y018468D01*
X014233Y018567D02*
X015988Y018567D01*
X015981Y018665D02*
X014241Y018665D01*
X014227Y018764D02*
X015994Y018764D01*
X016035Y018862D02*
X014186Y018862D01*
X014091Y018961D02*
X016130Y018961D01*
X017091Y018961D02*
X019085Y018961D01*
X019015Y018862D02*
X017186Y018862D01*
X017227Y018764D02*
X018974Y018764D01*
X018961Y018665D02*
X017241Y018665D01*
X017233Y018567D02*
X018961Y018567D01*
X018992Y018468D02*
X017193Y018468D01*
X017106Y018370D02*
X019033Y018370D01*
X019129Y018271D02*
X012908Y018271D01*
X012908Y018173D02*
X019281Y018173D01*
X019281Y018074D02*
X012908Y018074D01*
X012908Y017976D02*
X013152Y017976D01*
X013047Y017877D02*
X012908Y017877D01*
X012908Y017779D02*
X013000Y017779D01*
X012981Y017680D02*
X012908Y017680D01*
X012908Y017582D02*
X012982Y017582D01*
X013022Y017483D02*
X012908Y017483D01*
X012908Y017385D02*
X013100Y017385D01*
X012908Y017286D02*
X019281Y017286D01*
X019281Y017188D02*
X012908Y017188D01*
X012908Y017089D02*
X019281Y017089D01*
X019281Y016991D02*
X017033Y016991D01*
X017159Y016892D02*
X019281Y016892D01*
X019281Y016794D02*
X017215Y016794D01*
X017241Y016695D02*
X019281Y016695D01*
X019281Y016597D02*
X017241Y016597D01*
X017205Y016498D02*
X019281Y016498D01*
X019281Y016400D02*
X017136Y016400D01*
X016977Y016301D02*
X019281Y016301D01*
X019281Y016203D02*
X012908Y016203D01*
X012908Y016301D02*
X013244Y016301D01*
X013085Y016400D02*
X012908Y016400D01*
X012908Y016498D02*
X013016Y016498D01*
X012981Y016597D02*
X012908Y016597D01*
X012908Y016695D02*
X012981Y016695D01*
X013007Y016794D02*
X012908Y016794D01*
X012908Y016892D02*
X013062Y016892D01*
X013188Y016991D02*
X012908Y016991D01*
X011436Y017286D02*
X011336Y017286D01*
X011336Y017385D02*
X011436Y017385D01*
X011436Y017483D02*
X011336Y017483D01*
X011148Y017286D02*
X010532Y017286D01*
X010681Y017385D02*
X011037Y017385D01*
X010976Y017483D02*
X010753Y017483D01*
X010794Y017582D02*
X010944Y017582D01*
X010240Y017286D02*
X009532Y017286D01*
X009681Y017385D02*
X010091Y017385D01*
X010020Y017483D02*
X009753Y017483D01*
X009794Y017582D02*
X009979Y017582D01*
X009976Y017680D02*
X009796Y017680D01*
X009785Y017779D02*
X009988Y017779D01*
X010029Y017877D02*
X009744Y017877D01*
X009660Y017976D02*
X010113Y017976D01*
X009156Y018074D02*
X004858Y018074D01*
X004858Y017976D02*
X009113Y017976D01*
X009029Y017877D02*
X004858Y017877D01*
X004894Y017779D02*
X008988Y017779D01*
X008976Y017680D02*
X004992Y017680D01*
X005091Y017582D02*
X008979Y017582D01*
X009020Y017483D02*
X005189Y017483D01*
X005288Y017385D02*
X009091Y017385D01*
X009240Y017286D02*
X005386Y017286D01*
X005031Y016991D02*
X002906Y016991D01*
X002955Y017089D02*
X004932Y017089D01*
X004834Y017188D02*
X002992Y017188D01*
X002992Y017286D02*
X004735Y017286D01*
X004637Y017385D02*
X002987Y017385D01*
X002946Y017483D02*
X004538Y017483D01*
X004440Y017582D02*
X002885Y017582D01*
X002787Y017680D02*
X004398Y017680D01*
X004858Y018173D02*
X009156Y018173D01*
X009156Y018271D02*
X004858Y018271D01*
X004904Y018370D02*
X009156Y018370D01*
X009156Y018468D02*
X004916Y018468D01*
X004895Y018567D02*
X009156Y018567D01*
X009156Y018665D02*
X004858Y018665D01*
X004858Y018764D02*
X009156Y018764D01*
X009156Y018862D02*
X004858Y018862D01*
X004858Y018961D02*
X009156Y018961D01*
X009156Y019059D02*
X004858Y019059D01*
X004858Y019158D02*
X009156Y019158D01*
X009156Y019256D02*
X004858Y019256D01*
X004858Y019355D02*
X009156Y019355D01*
X009156Y019453D02*
X004858Y019453D01*
X004900Y019552D02*
X009156Y019552D01*
X009156Y019650D02*
X004985Y019650D01*
X005070Y019749D02*
X009156Y019749D01*
X009156Y019847D02*
X005155Y019847D01*
X005240Y019946D02*
X009156Y019946D01*
X009156Y020044D02*
X005325Y020044D01*
X005410Y020143D02*
X009156Y020143D01*
X009156Y020241D02*
X005495Y020241D01*
X005579Y020340D02*
X009156Y020340D01*
X009156Y020438D02*
X005664Y020438D01*
X005749Y020537D02*
X009156Y020537D01*
X009156Y020635D02*
X005834Y020635D01*
X005919Y020734D02*
X009188Y020734D01*
X009642Y020537D02*
X022095Y020537D01*
X021997Y020635D02*
X009740Y020635D01*
X009839Y020734D02*
X021898Y020734D01*
X022194Y020438D02*
X009616Y020438D01*
X012908Y019059D02*
X019204Y019059D01*
X019281Y017976D02*
X017069Y017976D01*
X017174Y017877D02*
X019281Y017877D01*
X019281Y017779D02*
X017221Y017779D01*
X017241Y017680D02*
X019281Y017680D01*
X019281Y017582D02*
X017240Y017582D01*
X017199Y017483D02*
X019281Y017483D01*
X019281Y017385D02*
X017121Y017385D01*
X013115Y018370D02*
X012908Y018370D01*
X012908Y018468D02*
X013029Y018468D01*
X012988Y018567D02*
X012908Y018567D01*
X012908Y018665D02*
X012981Y018665D01*
X012994Y018764D02*
X012908Y018764D01*
X012908Y018862D02*
X013035Y018862D01*
X013130Y018961D02*
X012908Y018961D01*
X013850Y021424D02*
X014196Y021424D01*
X014113Y021522D02*
X013949Y021522D01*
X013995Y021621D02*
X014064Y021621D01*
X014038Y021719D02*
X014032Y021719D01*
X020600Y021424D02*
X024528Y021424D01*
X024443Y021522D02*
X020683Y021522D01*
X020732Y021621D02*
X024359Y021621D01*
X024275Y021719D02*
X020758Y021719D01*
X022070Y020340D02*
X022167Y020340D01*
X022167Y020241D02*
X022070Y020241D01*
X022070Y020143D02*
X022167Y020143D01*
X022167Y020044D02*
X022070Y020044D01*
X022070Y019946D02*
X022167Y019946D01*
X022167Y019847D02*
X022648Y019847D01*
X022648Y019749D02*
X022613Y019749D01*
X022613Y019650D02*
X022648Y019650D01*
X022648Y019552D02*
X022515Y019552D01*
X022417Y019453D02*
X022659Y019453D01*
X022648Y019946D02*
X022613Y019946D01*
X022628Y014922D02*
X019643Y014922D01*
X019709Y014824D02*
X022628Y014824D01*
X022628Y014725D02*
X019729Y014725D01*
X019716Y014627D02*
X022628Y014627D01*
X022628Y014528D02*
X019660Y014528D01*
X019501Y014430D02*
X022628Y014430D01*
X013137Y011967D02*
X002948Y011967D01*
X002988Y011869D02*
X013038Y011869D01*
X012997Y011770D02*
X002992Y011770D01*
X002992Y011672D02*
X012981Y011672D01*
X012985Y011573D02*
X002953Y011573D01*
X002902Y011475D02*
X013026Y011475D01*
X013109Y011376D02*
X002803Y011376D01*
X001003Y014627D02*
X000694Y014627D01*
X000694Y014725D02*
X001033Y014725D01*
X001090Y014824D02*
X000694Y014824D01*
X000694Y014922D02*
X001181Y014922D01*
X000694Y015809D02*
X012588Y015809D01*
X012588Y015907D02*
X000694Y015907D01*
X002808Y016892D02*
X005129Y016892D01*
X004632Y019946D02*
X003180Y019946D01*
X003369Y020044D02*
X004717Y020044D01*
X004802Y020143D02*
X003468Y020143D01*
X003566Y020241D02*
X004887Y020241D01*
X004972Y020340D02*
X003665Y020340D01*
X003685Y020361D02*
X003685Y020361D01*
X003725Y020438D02*
X005057Y020438D01*
X005142Y020537D02*
X003775Y020537D01*
X003825Y020635D02*
X005227Y020635D01*
X005312Y020734D02*
X003875Y020734D01*
X003891Y020765D02*
X003891Y020765D01*
X003902Y020833D02*
X005397Y020833D01*
X005482Y020931D02*
X003918Y020931D01*
X003933Y021030D02*
X005567Y021030D01*
X005645Y021128D02*
X003949Y021128D01*
X005849Y021424D02*
X006110Y021424D01*
X006027Y021522D02*
X005933Y021522D01*
X005974Y021621D02*
X005978Y021621D01*
X010662Y015612D02*
X011054Y015612D01*
X010986Y015513D02*
X010745Y015513D01*
X010785Y015415D02*
X010948Y015415D01*
X011734Y015021D02*
X012588Y015021D01*
X012588Y015119D02*
X011795Y015119D01*
X025454Y005860D02*
X025634Y005860D01*
X025694Y005762D02*
X025393Y005762D01*
X025294Y005663D02*
X025793Y005663D01*
X025094Y004383D02*
X024994Y004383D01*
X024994Y004284D02*
X025094Y004284D01*
X025094Y004186D02*
X024994Y004186D01*
X024594Y004087D02*
X002963Y004087D01*
X000694Y003890D02*
X024594Y003890D01*
X024608Y003792D02*
X000694Y003792D01*
X000694Y003693D02*
X024706Y003693D01*
X025381Y003693D02*
X025763Y003693D01*
X025664Y003792D02*
X025480Y003792D01*
X025494Y003890D02*
X025634Y003890D01*
D21*
X030348Y007058D02*
X031252Y008024D01*
X031252Y014126D01*
X032508Y014839D01*
X035508Y014839D02*
X036764Y014370D01*
X036764Y009402D01*
X034444Y007058D01*
X034402Y008024D02*
X033460Y007058D01*
X034402Y008024D02*
X034402Y011370D01*
X034870Y011839D01*
X035508Y011839D01*
X033615Y011370D02*
X033615Y009402D01*
X031332Y007058D01*
X033615Y011370D02*
X033146Y011839D01*
X032508Y011839D01*
X026252Y019855D02*
X023910Y022591D01*
X006056Y022591D01*
X005465Y021804D01*
X005859Y021016D02*
X008615Y021016D01*
X007827Y021804D01*
X008615Y021016D02*
X009796Y021016D01*
X009386Y020607D01*
X009386Y017670D01*
X006252Y016489D02*
X005859Y016489D01*
X004628Y017719D01*
X004628Y018457D01*
X004628Y019589D01*
X005859Y021016D01*
X009796Y021016D02*
X010977Y021016D01*
X010189Y021804D01*
X010977Y021016D02*
X013339Y021016D01*
X012552Y021804D01*
X013339Y021016D02*
X016685Y021016D01*
X015898Y021804D01*
X016685Y021016D02*
X021941Y021016D01*
X023103Y019855D01*
X026252Y019855D02*
X027792Y021000D01*
X028300Y021000D01*
X016611Y013658D02*
X016536Y013733D01*
X015701Y013733D01*
X015111Y014323D01*
X015111Y015307D01*
X014563Y015658D01*
X013611Y015658D01*
D22*
X019441Y014717D03*
X026922Y015307D03*
X037552Y012552D03*
X038339Y011764D03*
X013339Y020032D03*
X006252Y016489D03*
X004628Y018457D03*
M02*
